<svg width="370" height="250" viewBox="0 0 370 250" fill="none" xmlns="http://www.w3.org/2000/svg">
<path d="M151.875 224.478H337.775" stroke="#202F44" stroke-width="1.07" stroke-miterlimit="10"/>
<path d="M32.2246 224.478H162.833" stroke="#202F44" stroke-width="1.04" stroke-miterlimit="10"/>
<path d="M180.358 194.977H82.6744C81.193 194.911 79.7731 194.366 78.6281 193.424C77.483 192.482 76.6747 191.193 76.3244 189.752L61.4327 120.677C61.2547 120.054 61.2268 119.397 61.3514 118.761C61.4759 118.124 61.7493 117.527 62.1492 117.016C62.5491 116.506 63.0641 116.097 63.6522 115.824C64.2403 115.551 64.8847 115.421 65.5327 115.444H163.216C164.698 115.512 166.118 116.059 167.263 117.003C168.408 117.946 169.216 119.236 169.566 120.677L184.458 189.752C184.636 190.376 184.664 191.032 184.54 191.668C184.415 192.304 184.142 192.902 183.741 193.412C183.341 193.921 182.826 194.329 182.238 194.601C181.65 194.874 181.005 195.002 180.358 194.977V194.977Z" fill="white" stroke="#202F44" stroke-width="1.18" stroke-miterlimit="10"/>
<path d="M175.858 194.977H78.1748C76.6928 194.91 75.2723 194.364 74.1261 193.423C72.9799 192.481 72.1696 191.193 71.8164 189.752L56.9331 120.677C56.7532 120.053 56.7239 119.396 56.8477 118.759C56.9714 118.122 57.2447 117.523 57.645 117.012C58.0453 116.501 58.5611 116.092 59.1501 115.82C59.7392 115.547 60.3845 115.418 61.0331 115.444H158.716C160.199 115.512 161.619 116.059 162.764 117.002C163.908 117.946 164.717 119.235 165.066 120.677L179.958 189.752C180.136 190.375 180.165 191.032 180.04 191.668C179.916 192.304 179.642 192.901 179.242 193.411C178.842 193.921 178.326 194.329 177.738 194.601C177.15 194.873 176.506 195.002 175.858 194.977V194.977Z" fill="#202F44"/>
<path d="M121.316 153.444C120.932 152.052 120.155 150.801 119.077 149.84C118 148.879 116.668 148.25 115.241 148.027C114.216 147.847 113.163 147.91 112.166 148.211C111.524 148.427 110.825 148.403 110.199 148.144C109.872 147.987 109.516 147.899 109.154 147.885C108.791 147.871 108.43 147.93 108.091 148.061C107.573 148.262 107.13 148.616 106.818 149.076C106.507 149.536 106.344 150.08 106.349 150.636C106.357 151.087 106.481 151.529 106.708 151.919C107.041 152.502 107.157 153.184 107.033 153.844C106.799 155.038 106.868 156.272 107.233 157.433C107.598 158.595 108.246 159.646 109.12 160.493C109.995 161.34 111.066 161.955 112.239 162.283C113.411 162.61 114.646 162.64 115.833 162.369C116.024 162.327 116.258 162.169 116.399 162.211C117.099 162.436 117.816 162.944 118.641 162.769C118.991 162.688 119.321 162.534 119.608 162.317C119.895 162.1 120.133 161.825 120.308 161.511C120.68 160.961 120.84 160.294 120.758 159.636C120.675 159.087 120.75 158.526 120.974 158.019C121.581 156.571 121.701 154.966 121.316 153.444V153.444Z" fill="white"/>
<path d="M109.366 180.61L95.3494 217.819C95.0657 218.563 94.9673 219.366 95.0627 220.157C95.1582 220.949 95.4446 221.705 95.8973 222.361C96.3499 223.017 96.9553 223.553 97.6612 223.923C98.3671 224.293 99.1524 224.486 99.9494 224.485H151.874V220.76L125.633 217.219C125.251 217.215 124.875 217.124 124.534 216.953C124.192 216.782 123.895 216.535 123.664 216.231C123.433 215.926 123.275 215.573 123.202 215.199C123.128 214.824 123.142 214.437 123.241 214.069L132.633 180.61H109.366Z" fill="#202F44"/>
<path d="M277.283 191.186C277.283 191.186 264.399 184.402 268.783 179.627C271.758 176.386 276.674 182.369 276.674 182.369C276.674 182.369 268.391 170.344 274.399 168.202C279.399 166.427 281.558 175.435 281.558 175.435C281.558 175.435 279.058 164.361 284.416 163.769C289.774 163.177 289.574 174.327 289.574 174.327C289.574 174.327 289.783 165.16 295.783 166.977C301.474 168.644 296.124 178.435 295.558 179.477C295.558 179.477 295.558 179.527 295.616 179.477C296.183 179.202 299.091 177.919 300.366 179.585C303.366 183.51 292.233 192.027 292.233 192.027L277.283 191.186Z" fill="white" stroke="#202F44" stroke-width="1.03" stroke-miterlimit="10"/>
<path d="M294.525 183.977C294.525 183.977 297.858 174.194 292.475 173.677C287.091 173.161 285.808 181.502 285.808 181.502C285.691 177.794 282.066 173.619 278.033 175.669C274 177.719 276.975 184.002 276.975 184.002" fill="white"/>
<path d="M294.525 183.977C294.525 183.977 297.858 174.194 292.475 173.677C287.091 173.161 285.808 181.502 285.808 181.502C285.691 177.794 282.066 173.619 278.033 175.669C274 177.719 276.975 184.002 276.975 184.002" stroke="#202F44" stroke-width="1.03" stroke-miterlimit="10"/>
<path d="M273.016 190.435C273.016 190.435 269.633 180.652 275.066 180.135C280.5 179.619 281.733 187.96 281.733 187.96C281.85 184.252 285.475 180.077 289.516 182.127C293.558 184.177 290.566 190.46 290.566 190.46" fill="white"/>
<path d="M273.016 190.435C273.016 190.435 269.633 180.652 275.066 180.135C280.5 179.619 281.733 187.96 281.733 187.96C281.85 184.252 285.475 180.077 289.516 182.127C293.558 184.177 290.566 190.46 290.566 190.46" stroke="#202F44" stroke-width="1.03" stroke-miterlimit="10"/>
<path d="M295.558 190.436C295.558 190.436 298.558 188.236 296.783 185.269C295.008 182.302 291.616 184.002 291.616 184.002" fill="white"/>
<path d="M295.558 190.436C295.558 190.436 298.558 188.236 296.783 185.269C295.008 182.302 291.616 184.002 291.616 184.002" stroke="#202F44" stroke-width="1.03" stroke-miterlimit="10"/>
<path d="M288.766 201.827C288.766 201.827 275.883 195.052 280.267 190.277C283.242 187.036 288.167 193.011 288.167 193.011C288.167 193.011 279.833 180.994 285.883 178.844C290.883 177.077 293.041 186.077 293.041 186.077C293.041 186.077 290.542 175.002 295.9 174.452C301.258 173.902 301.058 185.011 301.058 185.011C301.058 185.011 301.267 175.844 307.267 177.661C312.958 179.369 307.608 189.119 307.042 190.161C307.042 190.161 307.041 190.211 307.1 190.161C307.675 189.886 310.583 188.611 311.85 190.269C314.85 194.202 303.717 202.719 303.717 202.719L288.766 201.827Z" fill="white" stroke="#202F44" stroke-width="1.03" stroke-miterlimit="10"/>
<path d="M306.008 194.602C306.008 194.602 309.341 184.819 303.958 184.302C298.575 183.786 297.291 192.127 297.291 192.127C297.175 188.419 293.55 184.244 289.516 186.294C285.483 188.344 288.458 194.627 288.458 194.627" fill="white"/>
<path d="M306.008 194.602C306.008 194.602 309.341 184.819 303.958 184.302C298.575 183.786 297.291 192.127 297.291 192.127C297.175 188.419 293.55 184.244 289.516 186.294C285.483 188.344 288.458 194.627 288.458 194.627" stroke="#202F44" stroke-width="1.03" stroke-miterlimit="10"/>
<path d="M284.5 201.053C284.5 201.053 281.116 191.269 286.55 190.753C291.983 190.236 293.216 198.578 293.216 198.578C293.333 194.869 296.958 190.694 301 192.744C305.042 194.794 302.05 201.078 302.05 201.078" fill="white"/>
<path d="M284.5 201.053C284.5 201.053 281.116 191.269 286.55 190.753C291.983 190.236 293.216 198.578 293.216 198.578C293.333 194.869 296.958 190.694 301 192.744C305.042 194.794 302.05 201.078 302.05 201.078" stroke="#202F44" stroke-width="1.03" stroke-miterlimit="10"/>
<path d="M307.041 201.052C307.041 201.052 310.041 198.852 308.266 195.894C306.491 192.935 303.1 194.619 303.1 194.619" fill="white"/>
<path d="M307.041 201.052C307.041 201.052 310.041 198.852 308.266 195.894C306.491 192.935 303.1 194.619 303.1 194.619" stroke="#202F44" stroke-width="1.03" stroke-miterlimit="10"/>
<path d="M267.183 201.827C267.183 201.827 254.3 195.052 258.683 190.277C261.658 187.036 266.575 193.011 266.575 193.011C266.575 193.011 258.291 180.994 264.3 178.844C269.3 177.077 271.458 186.077 271.458 186.077C271.458 186.077 268.958 175.002 274.316 174.452C279.675 173.902 279.475 185.011 279.475 185.011C279.475 185.011 279.683 175.844 285.683 177.661C291.375 179.369 286.025 189.119 285.458 190.161C285.458 190.161 285.458 190.211 285.508 190.161C286.083 189.886 288.991 188.611 290.266 190.269C293.266 194.202 282.133 202.719 282.133 202.719L267.183 201.827Z" fill="white" stroke="#202F44" stroke-width="1.03" stroke-miterlimit="10"/>
<path d="M284.416 194.602C284.416 194.602 287.8 184.819 282.375 184.302C276.95 183.786 275.708 192.127 275.708 192.127C275.591 188.419 271.966 184.244 267.925 186.294C263.883 188.344 266.875 194.627 266.875 194.627" fill="white"/>
<path d="M284.416 194.602C284.416 194.602 287.8 184.819 282.375 184.302C276.95 183.786 275.708 192.127 275.708 192.127C275.591 188.419 271.966 184.244 267.925 186.294C263.883 188.344 266.875 194.627 266.875 194.627" stroke="#202F44" stroke-width="1.03" stroke-miterlimit="10"/>
<path d="M262.916 201.053C262.916 201.053 259.533 191.269 264.958 190.753C270.383 190.236 271.625 198.578 271.625 198.578C271.741 194.869 275.366 190.694 279.408 192.744C283.45 194.794 280.458 201.078 280.458 201.078" fill="white"/>
<path d="M262.916 201.053C262.916 201.053 259.533 191.269 264.958 190.753C270.383 190.236 271.625 198.578 271.625 198.578C271.741 194.869 275.366 190.694 279.408 192.744C283.45 194.794 280.458 201.078 280.458 201.078" stroke="#202F44" stroke-width="1.03" stroke-miterlimit="10"/>
<path d="M285.458 201.052C285.458 201.052 288.458 198.852 286.675 195.894C284.892 192.935 281.508 194.619 281.508 194.619" fill="white"/>
<path d="M285.458 201.052C285.458 201.052 288.458 198.852 286.675 195.894C284.892 192.935 281.508 194.619 281.508 194.619" stroke="#202F44" stroke-width="1.03" stroke-miterlimit="10"/>
<path d="M257.358 199.769H312.783C313.446 199.769 314.082 200.032 314.55 200.501C315.019 200.97 315.283 201.606 315.283 202.269V213.41C315.272 217.64 313.582 221.692 310.585 224.676C307.588 227.661 303.529 229.333 299.299 229.327H270.858C266.625 229.327 262.566 227.646 259.573 224.653C256.581 221.66 254.899 217.601 254.899 213.369V202.227C254.91 201.578 255.173 200.959 255.631 200.5C256.09 200.042 256.709 199.779 257.358 199.769V199.769Z" fill="#202F44"/>
<path d="M70.9664 229.294H56.0998C55.0091 229.294 53.9592 228.879 53.1636 228.133C52.3679 227.387 51.8863 226.366 51.8164 225.277L49.0747 182.494H77.9914L75.2497 225.277C75.1779 226.365 74.6956 227.385 73.9004 228.131C73.1053 228.876 72.0565 229.292 70.9664 229.294Z" fill="#202F44"/>
<path d="M48.4661 186.019H77.8245C77.9944 186.019 78.1613 185.973 78.3071 185.886C78.453 185.799 78.5722 185.673 78.652 185.523C78.7318 185.373 78.769 185.204 78.7597 185.035C78.7505 184.865 78.6951 184.701 78.5995 184.56L78.1161 183.852C77.715 183.259 77.5002 182.56 77.4994 181.844V181.444C77.505 181.221 77.4661 181 77.3848 180.793C77.3035 180.586 77.1816 180.397 77.0263 180.238C76.871 180.079 76.6853 179.952 76.4804 179.866C76.2754 179.78 76.0552 179.735 75.8328 179.735H50.7745C50.5521 179.735 50.3319 179.78 50.1269 179.866C49.9219 179.952 49.7363 180.079 49.5809 180.238C49.4256 180.397 49.3037 180.586 49.2225 180.793C49.1412 181 49.1023 181.221 49.1078 181.444C49.1059 182.133 48.9063 182.806 48.5328 183.385L47.7662 184.577C47.6776 184.712 47.6256 184.868 47.6152 185.029C47.6048 185.19 47.6365 185.351 47.7071 185.496C47.7776 185.642 47.8846 185.766 48.0176 185.858C48.1507 185.949 48.3052 186.005 48.4661 186.019V186.019Z" fill="white" stroke="#202F44" stroke-miterlimit="10"/>
<path d="M71.2995 175.894L65.1411 179.735H75.7995V177.235C75.7995 176.81 75.6312 176.402 75.3313 176.101C75.0315 175.8 74.6246 175.629 74.1994 175.627H72.1411C71.841 175.635 71.5493 175.727 71.2995 175.894Z" fill="white" stroke="#202F44" stroke-miterlimit="10"/>
<path d="M235.833 174.193L222.783 222.477" stroke="#202F44" stroke-miterlimit="10"/>
<path d="M223.758 188.936H233.391C235.539 188.936 237.6 189.789 239.119 191.308C240.638 192.827 241.491 194.887 241.491 197.036V224.427C241.491 225.373 241.115 226.28 240.446 226.949C239.778 227.618 238.87 227.994 237.924 227.994H219.233C218.287 227.994 217.38 227.618 216.711 226.949C216.042 226.28 215.666 225.373 215.666 224.427V197.027C215.668 194.882 216.521 192.825 218.038 191.308C219.555 189.791 221.612 188.938 223.758 188.936V188.936Z" fill="#202F44"/>
<path d="M218.183 191.394L219.091 189.886V188.086H238.216V189.736L239.124 191.394H218.183Z" fill="#202F44"/>
<path d="M239.733 227.169L238.758 228.152V229.327H218.158V228.244L217.174 227.169H239.733Z" fill="#202F44"/>
<path d="M236.449 208.535V202.269" stroke="white" stroke-miterlimit="10" stroke-linecap="round"/>
<path d="M236.449 200.186V199.444" stroke="white" stroke-miterlimit="10" stroke-linecap="round"/>
<path d="M236.45 197.686V196.203C236.45 195.937 236.397 195.673 236.296 195.428C236.194 195.182 236.045 194.959 235.857 194.771C235.669 194.583 235.445 194.434 235.2 194.332C234.954 194.23 234.691 194.178 234.425 194.178V194.178" stroke="white" stroke-miterlimit="10" stroke-linecap="round"/>
<path d="M172.908 89.8525H118.816C116.626 89.8525 114.85 91.6285 114.85 93.8192V122.536C114.85 124.727 116.626 126.503 118.816 126.503H172.908C175.099 126.503 176.875 124.727 176.875 122.536V93.8192C176.875 91.6285 175.099 89.8525 172.908 89.8525Z" fill="white" stroke="#202F44" stroke-width="1.18" stroke-miterlimit="10"/>
<path d="M115.966 91.4688L140.675 109.869C142.183 110.992 144.014 111.599 145.896 111.599C147.777 111.599 149.608 110.992 151.116 109.869L175.825 91.4688" fill="white"/>
<path d="M115.966 91.4688L140.675 109.869C142.183 110.992 144.014 111.599 145.896 111.599C147.777 111.599 149.608 110.992 151.116 109.869L175.825 91.4688" stroke="#202F44" stroke-width="1.18" stroke-miterlimit="10"/>
<path d="M114.85 124.202L134.541 105.519" stroke="#202F44" stroke-width="1.18" stroke-miterlimit="10"/>
<path d="M157.708 105.519L176.875 124.202" stroke="#202F44" stroke-width="1.18" stroke-miterlimit="10"/>
<path d="M248.2 124.068H194.108C191.918 124.068 190.142 125.844 190.142 128.035V156.752C190.142 158.942 191.918 160.718 194.108 160.718H248.2C250.391 160.718 252.167 158.942 252.167 156.752V128.035C252.167 125.844 250.391 124.068 248.2 124.068Z" fill="white" stroke="#202F44" stroke-width="1.18" stroke-miterlimit="10"/>
<path d="M191.216 125.686L215.966 144.094C217.478 145.214 219.31 145.819 221.191 145.819C223.073 145.819 224.905 145.214 226.416 144.094L251.125 125.686" fill="white"/>
<path d="M191.216 125.686L215.966 144.094C217.478 145.214 219.31 145.819 221.191 145.819C223.073 145.819 224.905 145.214 226.416 144.094L251.125 125.686" stroke="#202F44" stroke-width="1.18" stroke-miterlimit="10"/>
<path d="M190.142 158.419L209.833 139.735" stroke="#202F44" stroke-width="1.18" stroke-miterlimit="10"/>
<path d="M233 139.735L252.158 158.419" stroke="#202F44" stroke-width="1.18" stroke-miterlimit="10"/>
<path d="M179.341 106.602C180.274 106.352 181.071 105.742 181.556 104.907C182.042 104.072 182.177 103.078 181.933 102.144L174.899 103.985C175.146 104.918 175.751 105.716 176.583 106.206C177.414 106.696 178.405 106.838 179.341 106.602V106.602Z" fill="#202F44"/>
<path d="M190.341 95.9105C189.137 95.2016 188.263 94.0453 187.908 92.6939L185.916 85.0855C185.24 82.522 183.722 80.2598 181.607 78.6612C179.491 77.0626 176.901 76.2202 174.25 76.2689L173.925 75.0272C173.834 74.6809 173.676 74.3558 173.459 74.0705C173.243 73.7853 172.972 73.5455 172.663 73.3648C172.354 73.1841 172.012 73.0661 171.658 73.0175C171.303 72.9688 170.942 72.9905 170.596 73.0814C170.249 73.1722 169.924 73.3304 169.639 73.5468C169.354 73.7633 169.114 74.0338 168.933 74.343C168.752 74.6521 168.635 74.9938 168.586 75.3486C168.537 75.7033 168.559 76.0642 168.65 76.4106L168.975 77.6439C166.638 78.9054 164.792 80.9155 163.734 83.3515C162.677 85.7875 162.468 88.5083 163.141 91.0772L165.133 98.6772C165.489 100.03 165.294 101.468 164.591 102.677L163.366 104.786C163.195 105.08 163.147 105.431 163.233 105.761V105.761C163.319 106.092 163.534 106.376 163.829 106.549C164.124 106.723 164.477 106.772 164.808 106.686L192.2 99.5106C192.532 99.4225 192.816 99.2064 192.989 98.9097C193.162 98.613 193.211 98.2598 193.125 97.9272V97.9272C193.032 97.5994 192.817 97.3193 192.525 97.1439L190.341 95.9105Z" fill="#EBEFFF" stroke="#202F44" stroke-miterlimit="10"/>
<path d="M167.15 99.4018L175.242 97.2852" stroke="#202F44" stroke-miterlimit="10" stroke-linecap="square"/>
<path d="M176.791 96.8768L179.491 96.1768" stroke="#202F44" stroke-miterlimit="10" stroke-linecap="square"/>
</svg>
