<svg width="370" height="250" viewBox="0 0 370 250" fill="none" xmlns="http://www.w3.org/2000/svg">
<path d="M99.5502 207.726C99.5502 207.726 96.0169 205.426 88.7752 214.468C87.4752 216.093 83.7086 221.135 86.5002 222.46C89.2919 223.785 91.8336 218.101 95.1336 216.351C99.3002 214.151 101.55 214.543 101.55 214.543" fill="white"/>
<path d="M99.5502 207.726C99.5502 207.726 96.0169 205.426 88.7752 214.468C87.4752 216.093 83.7086 221.135 86.5002 222.46C89.2919 223.785 91.8336 218.101 95.1336 216.351C99.3002 214.151 101.55 214.543 101.55 214.543" stroke="#202F44" stroke-width="1.03" stroke-miterlimit="10"/>
<path d="M122.566 225.01C120.151 225.28 117.719 225.364 115.291 225.26C111.066 225.11 107.341 222.71 105.983 222.027L103.483 220.752C102.599 220.315 101.587 220.211 100.633 220.461C99.6796 220.71 98.8479 221.296 98.2914 222.11C97.2081 223.693 95.8664 225.252 94.9581 224.918C93.2914 224.318 93.2914 222.418 93.2914 221.585C93.2953 221.572 93.2966 221.559 93.2953 221.546C93.294 221.533 93.2902 221.52 93.284 221.509C93.2778 221.497 93.2694 221.487 93.2592 221.479C93.2491 221.47 93.2374 221.464 93.2248 221.46C93.2122 221.456 93.199 221.455 93.1859 221.456C93.1728 221.457 93.1601 221.461 93.1485 221.468C93.1369 221.474 93.1266 221.482 93.1182 221.492C93.1099 221.502 93.1036 221.514 93.0998 221.527C92.5914 222.302 91.2914 223.96 89.6081 223.685C85.3914 222.993 91.8081 206.927 96.7164 205.068C101.625 203.21 121.833 206.735 121.833 206.735" fill="white"/>
<path d="M122.566 225.01C120.151 225.28 117.719 225.364 115.291 225.26C111.066 225.11 107.341 222.71 105.983 222.027L103.483 220.752C102.599 220.315 101.587 220.211 100.633 220.461C99.6796 220.71 98.8479 221.296 98.2914 222.11C97.2081 223.693 95.8664 225.252 94.9581 224.918C93.2914 224.318 93.2914 222.418 93.2914 221.585C93.2953 221.572 93.2966 221.559 93.2953 221.546C93.294 221.533 93.2902 221.52 93.284 221.509C93.2778 221.497 93.2694 221.487 93.2592 221.479C93.2491 221.47 93.2374 221.464 93.2248 221.46C93.2122 221.456 93.199 221.455 93.1859 221.456C93.1728 221.457 93.1601 221.461 93.1485 221.468C93.1369 221.474 93.1266 221.482 93.1182 221.492C93.1099 221.502 93.1036 221.514 93.0998 221.527C92.5914 222.302 91.2914 223.96 89.6081 223.685C85.3914 222.993 91.8081 206.927 96.7164 205.068C101.625 203.21 121.833 206.735 121.833 206.735" stroke="#202F44" stroke-width="1.03" stroke-miterlimit="10"/>
<path d="M101.516 213.385C101.516 213.385 95.5995 212.168 94.0162 217.502C93.5695 219.092 93.2271 220.709 92.9912 222.343" fill="white"/>
<path d="M101.516 213.385C101.516 213.385 95.5995 212.168 94.0162 217.502C93.5695 219.092 93.2271 220.709 92.9912 222.343" stroke="#202F44" stroke-width="1.03" stroke-miterlimit="10"/>
<path d="M203.184 49.8266C191.009 46.7266 187.959 23.8516 209.292 19.5849C230.625 15.3183 239.167 37.3099 247.042 37.9683C254.917 38.6266 271.667 37.3099 271.667 50.1099C271.667 62.9099 270.267 67.4683 274.567 78.7933C277.475 86.4516 276.992 83.0099 281.584 95.4599C281.584 95.4599 269.809 106.218 250.492 105.752L239.834 106.402C226.45 107.235 207.059 108.593 191.759 98.9016C191.759 98.9016 199.259 83.0683 199.175 76.4016C198.9 60.3183 203.184 49.7349 203.184 49.7349V49.8266Z" fill="#202F44" stroke="#202F44" stroke-miterlimit="10"/>
<path d="M229.142 113.076L251.358 111.193C251.358 111.193 274.258 99.2678 302.233 126.476C324.042 147.676 337.592 215.951 320.958 224.268L122.567 224.984L121.733 205.293C121.733 205.293 149.175 195.376 172.15 190.976C183.183 188.851 198.183 189.159 198.183 189.159C198.183 189.159 194.85 139.018 207.158 123.326C209.766 120.018 213.113 117.367 216.931 115.587C220.749 113.807 224.931 112.947 229.142 113.076V113.076Z" fill="#EBEFFF" stroke="#202F44" stroke-width="1.15" stroke-miterlimit="10"/>
<path d="M226.467 91.2927L227.592 114.743C227.649 116.025 228.028 117.273 228.693 118.371C229.359 119.469 230.29 120.382 231.4 121.026C233.184 122.117 235.172 122.835 237.242 123.136C239.311 123.437 241.421 123.314 243.442 122.776C254.475 119.618 251.358 111.193 251.358 111.193L246.658 82.8594L226.467 91.2927Z" fill="white" stroke="#202F44" stroke-width="1.03" stroke-miterlimit="10"/>
<path d="M215.45 99.0932C223.425 109.727 238.35 100.018 246.65 88.5016C246.65 88.5016 252.483 90.4016 255.908 86.5016C259.333 82.6016 257.616 76.5599 254.9 74.5266C252.183 72.4932 249.966 72.9182 249.966 72.9182L250.475 63.3766C250.475 63.3766 240.366 62.5932 234.058 58.1849C227.75 53.7766 226.758 49.2266 226.758 49.2266C226.758 49.2266 219.683 53.8432 211.325 52.4016C211.325 52.4016 207.475 88.4516 215.45 99.0932Z" fill="white" stroke="#202F44" stroke-miterlimit="10"/>
<path d="M231.817 74.8682C232.443 74.8682 232.95 73.9168 232.95 72.7432C232.95 71.5695 232.443 70.6182 231.817 70.6182C231.191 70.6182 230.684 71.5695 230.684 72.7432C230.684 73.9168 231.191 74.8682 231.817 74.8682Z" fill="#202F44" stroke="#202F44" stroke-width="0.73" stroke-miterlimit="10"/>
<path d="M215.209 74.8682C215.834 74.8682 216.342 73.9168 216.342 72.7432C216.342 71.5695 215.834 70.6182 215.209 70.6182C214.583 70.6182 214.075 71.5695 214.075 72.7432C214.075 73.9168 214.583 74.8682 215.209 74.8682Z" fill="#202F44" stroke="#202F44" stroke-width="0.73" stroke-miterlimit="10"/>
<path d="M225.708 85.6527C226.241 86.0189 226.846 86.2671 227.483 86.3806C228.119 86.4942 228.773 86.4704 229.4 86.311C230.193 86.0147 230.9 85.5248 231.456 84.8859C232.012 84.247 232.399 83.4794 232.583 82.6527" stroke="#202F44" stroke-width="0.73" stroke-miterlimit="10"/>
<path d="M246.825 81.7099C247.19 82.0475 247.622 82.3032 248.094 82.4598C248.565 82.6165 249.065 82.6705 249.559 82.6182C250.185 82.4819 250.769 82.192 251.256 81.7745C251.743 81.3571 252.119 80.8252 252.35 80.2266" stroke="#202F44" stroke-width="0.73" stroke-miterlimit="10"/>
<path d="M220.933 80.7596C220.933 80.7596 217.95 80.6763 218.033 78.3762C218.116 76.0762 220.933 77.0096 220.933 77.0096" stroke="#202F44" stroke-width="0.73" stroke-miterlimit="10"/>
<path d="M203.225 206.385L199.667 222.118C203.065 223.389 206.583 224.314 210.167 224.876C215.867 225.71 223.5 224.876 223.5 224.876L221.175 207.193" fill="white"/>
<path d="M203.225 206.385L199.667 222.118C203.065 223.389 206.583 224.314 210.167 224.876C215.867 225.71 223.5 224.876 223.5 224.876L221.175 207.193" stroke="#202F44" stroke-width="1.03" stroke-miterlimit="10"/>
<path d="M229.791 63.2542C230.848 63.0127 231.955 63.1149 232.95 63.5459C234.508 64.2709 234.8 64.9209 234.8 64.9209" stroke="#202F44" stroke-width="0.73" stroke-miterlimit="10"/>
<path d="M201.183 216.061L196.758 221.486C196.758 221.486 194.891 226.969 198.183 227.411C200.199 227.677 201.516 225.086 203.099 222.702" fill="white"/>
<path d="M201.183 216.061L196.758 221.486C196.758 221.486 194.891 226.969 198.183 227.411C200.199 227.677 201.516 225.086 203.099 222.702" stroke="#202F44" stroke-width="1.03" stroke-miterlimit="10"/>
<path d="M217.242 62.7344C216.149 62.6724 215.065 62.9647 214.151 63.5677C212.751 64.5677 212.592 65.2344 212.592 65.2344" stroke="#202F44" stroke-width="0.73" stroke-miterlimit="10"/>
<path d="M196.816 206.802L192.291 218.418C192.291 218.418 189.191 226.943 192.483 227.385C195.775 227.827 196.6 221.193 199.441 218.335C203.008 214.76 205.483 214.443 205.483 214.443" fill="white"/>
<path d="M196.816 206.802L192.291 218.418C192.291 218.418 189.191 226.943 192.483 227.385C195.775 227.827 196.6 221.193 199.441 218.335C203.008 214.76 205.483 214.443 205.483 214.443" stroke="#202F44" stroke-width="1.03" stroke-miterlimit="10"/>
<path d="M223.516 224.877L221.191 207.193L292.766 192.835C292.766 192.835 289.033 180.077 284.216 167.985C280.41 158.408 277.565 148.475 275.725 138.335" fill="#EBEFFF"/>
<path d="M223.516 224.877L221.191 207.193L292.766 192.835C292.766 192.835 289.033 180.077 284.216 167.985C280.41 158.408 277.565 148.475 275.725 138.335" stroke="#202F44" stroke-width="1.15" stroke-miterlimit="10"/>
<path d="M221.191 207.193C221.191 207.193 205.566 206.551 199.208 205.676C192.85 204.801 187.15 215.326 185.941 219.843C184.733 224.36 184.408 225.868 186.708 226.201C189.008 226.535 189.766 222.285 192.291 218.443C193.738 216.19 195.796 214.395 198.225 213.268" fill="white"/>
<path d="M221.191 207.193C221.191 207.193 205.566 206.551 199.208 205.676C192.85 204.801 187.15 215.326 185.941 219.843C184.733 224.36 184.408 225.868 186.708 226.201C189.008 226.535 189.766 222.285 192.291 218.443C193.738 216.19 195.796 214.395 198.225 213.268" stroke="#202F44" stroke-width="1.03" stroke-miterlimit="10"/>
<path d="M80.9746 219.469H228.525C228.525 222.015 227.513 224.457 225.713 226.257C223.912 228.057 221.471 229.069 218.925 229.069H88.4163L80.9746 219.469Z" fill="#202F44"/>
<path d="M186.467 229.118H88.7837C87.2682 229.045 85.8128 228.503 84.6186 227.567C83.4244 226.631 82.5503 225.347 82.1171 223.893L63.6504 154.818C62.8754 151.943 64.6004 149.585 67.4754 149.585H165.159C166.668 149.668 168.114 150.216 169.3 151.153C170.486 152.089 171.353 153.37 171.784 154.818L190.292 223.893C191.067 226.768 189.342 229.118 186.467 229.118Z" fill="#202F44"/>
<path d="M130.341 187.584C129.958 186.194 129.182 184.943 128.106 183.982C127.03 183.022 125.7 182.391 124.275 182.168C123.247 181.989 122.191 182.051 121.191 182.351C120.549 182.567 119.851 182.544 119.225 182.284C118.899 182.128 118.544 182.04 118.183 182.026C117.822 182.011 117.462 182.071 117.125 182.201C116.76 182.339 116.43 182.554 116.157 182.832C115.883 183.11 115.673 183.443 115.541 183.81C115.409 184.176 115.357 184.567 115.391 184.956C115.424 185.344 115.541 185.72 115.733 186.059C116.075 186.639 116.19 187.324 116.058 187.984C115.828 189.178 115.898 190.41 116.263 191.569C116.628 192.728 117.276 193.778 118.149 194.624C119.021 195.47 120.091 196.086 121.261 196.415C122.431 196.744 123.664 196.776 124.85 196.509C125.05 196.509 125.275 196.309 125.416 196.351C126.116 196.576 126.841 197.084 127.658 196.918C128.008 196.833 128.337 196.677 128.624 196.459C128.911 196.241 129.149 195.966 129.325 195.651C129.701 195.103 129.861 194.435 129.775 193.776C129.695 193.227 129.773 192.666 130 192.159C130.606 190.712 130.726 189.106 130.341 187.584V187.584Z" fill="white"/>
<path d="M212.616 149.585C212.616 149.585 209.558 157.477 211.591 178.285C212.108 183.56 216.516 206.977 216.516 206.977" fill="#EBEFFF"/>
<path d="M212.616 149.585C212.616 149.585 209.558 157.477 211.591 178.285C212.108 183.56 216.516 206.977 216.516 206.977" stroke="#202F44" stroke-width="1.15" stroke-miterlimit="10"/>
<path d="M218.925 224.268H357.216" stroke="#202F44" stroke-width="1.07" stroke-miterlimit="10"/>
<path d="M12.7666 224.268H182.283" stroke="#202F44" stroke-width="1.04" stroke-miterlimit="10"/>
<path d="M307.508 208.168H235.149V224.276H307.508V208.168Z" fill="#202F44"/>
<path d="M245.459 219.868C247.474 219.868 249.109 218.234 249.109 216.218C249.109 214.203 247.474 212.568 245.459 212.568C243.443 212.568 241.809 214.203 241.809 216.218C241.809 218.234 243.443 219.868 245.459 219.868Z" fill="white" stroke="#202F44" stroke-width="1.03" stroke-miterlimit="10"/>
<path d="M266.942 212.568H252.2V219.868H266.942V212.568Z" fill="white" stroke="#202F44" stroke-width="1.09" stroke-miterlimit="10"/>
<path d="M292.725 212.568H290.616V219.868H292.725V212.568Z" fill="white" stroke="#202F44" stroke-width="1.09" stroke-miterlimit="10"/>
<path d="M295.375 212.568H293.267V219.868H295.375V212.568Z" fill="white" stroke="#202F44" stroke-width="1.09" stroke-miterlimit="10"/>
<path d="M298.025 212.568H295.917V219.868H298.025V212.568Z" fill="white" stroke="#202F44" stroke-width="1.09" stroke-miterlimit="10"/>
<path d="M300.675 212.568H298.566V219.868H300.675V212.568Z" fill="white" stroke="#202F44" stroke-width="1.09" stroke-miterlimit="10"/>
<path d="M314.158 192.06H241.8V208.168H314.158V192.06Z" fill="#202F44"/>
<path d="M252.108 203.76C254.124 203.76 255.758 202.126 255.758 200.11C255.758 198.094 254.124 196.46 252.108 196.46C250.092 196.46 248.458 198.094 248.458 200.11C248.458 202.126 250.092 203.76 252.108 203.76Z" fill="white" stroke="#202F44" stroke-width="1.03" stroke-miterlimit="10"/>
<path d="M273.6 196.46H258.858V203.76H273.6V196.46Z" fill="white" stroke="#202F44" stroke-width="1.09" stroke-miterlimit="10"/>
<path d="M299.383 196.46H297.274V203.76H299.383V196.46Z" fill="white" stroke="#202F44" stroke-width="1.09" stroke-miterlimit="10"/>
<path d="M302.033 196.46H299.925V203.76H302.033V196.46Z" fill="white" stroke="#202F44" stroke-width="1.09" stroke-miterlimit="10"/>
<path d="M304.684 196.46H302.575V203.76H304.684V196.46Z" fill="white" stroke="#202F44" stroke-width="1.09" stroke-miterlimit="10"/>
<path d="M307.333 196.46H305.225V203.76H307.333V196.46Z" fill="white" stroke="#202F44" stroke-width="1.09" stroke-miterlimit="10"/>
<path d="M318.092 153.818L335.184 224.127L318.65 224.31L302.45 157.618L318.092 153.818Z" fill="#202F44"/>
<path d="M324.925 219.659C326.941 219.659 328.575 218.025 328.575 216.009C328.575 213.994 326.941 212.359 324.925 212.359C322.91 212.359 321.275 213.994 321.275 216.009C321.275 218.025 322.91 219.659 324.925 219.659Z" fill="white" stroke="#202F44" stroke-width="1.03" stroke-miterlimit="10"/>
<path d="M316.285 195.975L319.767 210.3L326.86 208.576L323.379 194.251L316.285 195.975Z" fill="white" stroke="#202F44" stroke-width="1.09" stroke-miterlimit="10"/>
<path d="M310.198 170.924L310.696 172.973L317.79 171.249L317.292 169.2L310.198 170.924Z" fill="white" stroke="#202F44" stroke-width="1.09" stroke-miterlimit="10"/>
<path d="M309.569 168.348L310.066 170.396L317.16 168.673L316.662 166.624L309.569 168.348Z" fill="white" stroke="#202F44" stroke-width="1.09" stroke-miterlimit="10"/>
<path d="M308.939 165.779L309.437 167.828L316.53 166.104L316.032 164.055L308.939 165.779Z" fill="white" stroke="#202F44" stroke-width="1.09" stroke-miterlimit="10"/>
<path d="M308.319 163.211L308.817 165.26L315.911 163.536L315.413 161.487L308.319 163.211Z" fill="white" stroke="#202F44" stroke-width="1.09" stroke-miterlimit="10"/>
<path d="M327.842 157.71L357.233 223.827L343.183 224.443L339.95 224.602L313.125 164.252L327.842 157.71Z" fill="#202F44"/>
<path d="M345.683 221.326C347.699 221.326 349.333 219.692 349.333 217.676C349.333 215.661 347.699 214.026 345.683 214.026C343.667 214.026 342.033 215.661 342.033 217.676C342.033 219.692 343.667 221.326 345.683 221.326Z" fill="white" stroke="#202F44" stroke-width="1.03" stroke-miterlimit="10"/>
<path d="M333.591 199.496L339.58 212.967L346.251 210.001L340.262 196.531L333.591 199.496Z" fill="white" stroke="#202F44" stroke-width="1.09" stroke-miterlimit="10"/>
<path d="M323.115 175.946L323.972 177.872L330.642 174.906L329.786 172.98L323.115 175.946Z" fill="white" stroke="#202F44" stroke-width="1.09" stroke-miterlimit="10"/>
<path d="M322.047 173.525L322.903 175.451L329.574 172.485L328.717 170.559L322.047 173.525Z" fill="white" stroke="#202F44" stroke-width="1.09" stroke-miterlimit="10"/>
<path d="M320.96 171.101L321.816 173.027L328.487 170.062L327.63 168.135L320.96 171.101Z" fill="white" stroke="#202F44" stroke-width="1.09" stroke-miterlimit="10"/>
<path d="M319.888 168.681L320.744 170.607L327.415 167.642L326.558 165.715L319.888 168.681Z" fill="white" stroke="#202F44" stroke-width="1.09" stroke-miterlimit="10"/>
<path d="M55.3497 229.085H40.483C39.3932 229.085 38.3443 228.67 37.55 227.923C36.7558 227.177 36.2759 226.156 36.208 225.069L33.458 182.285H62.3497L59.608 225.069C59.5384 226.153 59.0602 227.17 58.2699 227.916C57.4796 228.661 56.4361 229.079 55.3497 229.085V229.085Z" fill="#202F44"/>
<path d="M32.8997 185.81H62.2581C62.428 185.811 62.5949 185.765 62.7408 185.678C62.8866 185.59 63.0058 185.465 63.0856 185.315C63.1653 185.165 63.2026 184.996 63.1934 184.826C63.1841 184.656 63.1287 184.492 63.0331 184.352L62.5497 183.644C62.1486 183.051 61.9339 182.351 61.9331 181.635V181.235C61.9386 181.013 61.8996 180.792 61.8184 180.585C61.7371 180.378 61.6152 180.189 61.4599 180.03C61.3046 179.871 61.119 179.744 60.914 179.658C60.709 179.571 60.4888 179.527 60.2664 179.527H35.1664C34.9405 179.521 34.7158 179.561 34.506 179.645C34.2961 179.729 34.1055 179.855 33.9457 180.015C33.7859 180.174 33.6603 180.365 33.5765 180.575C33.4926 180.785 33.4524 181.009 33.4581 181.235V181.235C33.4561 181.924 33.2566 182.598 32.8831 183.177L32.1164 184.394C32.0314 184.534 31.9849 184.695 31.9816 184.859C31.9784 185.023 32.0185 185.185 32.098 185.329C32.1775 185.472 32.2934 185.593 32.4342 185.677C32.575 185.762 32.7356 185.808 32.8997 185.81Z" fill="white" stroke="#202F44" stroke-miterlimit="10"/>
<path d="M55.7247 175.685L49.5664 179.526H60.2247V177.026C60.2247 176.601 60.0564 176.193 59.7566 175.892C59.4568 175.591 59.0498 175.42 58.6247 175.418H56.5747C56.2725 175.428 55.9786 175.52 55.7247 175.685V175.685Z" fill="white" stroke="#202F44" stroke-miterlimit="10"/>
<path d="M245.458 192.059V187.501L249.516 184.876H245.458V177.176L250.266 175.443L245.458 173.851V165.626H300.975V174.201L295.916 175.443L300.975 176.826V185.226L295.975 187.151H300.975V192.059H245.458Z" fill="white" stroke="#202F44" stroke-miterlimit="10"/>
<path d="M255.8 175.443H270H280.583H255.8Z" fill="white" stroke="#202F44" stroke-miterlimit="10"/>
<path d="M277 171.102H283.067H287.592H277Z" fill="white" stroke="#202F44" stroke-miterlimit="10"/>
<path d="M289.191 171.102H295.258H293.241H289.191Z" fill="white" stroke="#202F44" stroke-miterlimit="10"/>
<path d="M262.333 182.334H268.4H272.925H262.333Z" fill="white" stroke="#202F44" stroke-miterlimit="10"/>
<path d="M280.583 182.334H278.574H274.524" fill="white"/>
<path d="M280.583 182.334H278.574H274.524" stroke="#202F44" stroke-miterlimit="10"/>
<path d="M270.392 187.193H276.45H280.975H270.392Z" fill="white" stroke="#202F44" stroke-miterlimit="10"/>
<path d="M286.634 187.193H282.575Z" fill="white"/>
<path d="M286.634 187.193H282.575" stroke="#202F44" stroke-miterlimit="10"/>
<path d="M273.217 178.844H282.275" stroke="#202F44" stroke-miterlimit="10"/>
<path d="M280.408 178.844H290.725L288 181.61L280.408 178.844Z" fill="white" stroke="#202F44" stroke-miterlimit="10"/>
<path d="M270.416 175.443H260.1L262.816 178.21L270.416 175.443Z" fill="white" stroke="#202F44" stroke-miterlimit="10"/>
<path d="M246.65 88.502C246.65 88.502 246.283 95.5186 244.583 98.9186C243.741 100.774 242.47 102.402 240.875 103.669C242.058 104.318 243.334 104.782 244.658 105.044C249.008 106.002 250.492 105.752 250.492 105.752L264.1 93.5103L249.633 88.952L246.65 88.502Z" fill="#202F44" stroke="#202F44" stroke-miterlimit="10"/>
<path d="M239.116 50.3766L241.941 49.5432C242.582 49.3573 243.154 48.9874 243.587 48.4793C244.019 47.9711 244.293 47.3472 244.375 46.6849L244.775 43.3516L245.5 46.9349C245.62 47.5311 245.899 48.084 246.306 48.5356C246.714 48.9872 247.235 49.3208 247.816 49.5016L250.466 50.3349L248.175 50.8516C247.528 50.995 246.938 51.3248 246.477 51.8003C246.017 52.2758 245.706 52.876 245.583 53.5266L244.791 57.6932L244.191 53.7349C244.092 53.0784 243.802 52.4656 243.358 51.9723C242.913 51.479 242.334 51.127 241.691 50.9599L239.116 50.3766Z" fill="white" stroke="#202F44" stroke-miterlimit="10"/>
<path d="M248.575 59.3096L251.4 58.4763C252.042 58.2948 252.616 57.9273 253.049 57.4201C253.482 56.9128 253.755 56.2886 253.834 55.6263L254.242 52.293L254.959 55.8763C255.079 56.4726 255.358 57.0254 255.765 57.477C256.173 57.9286 256.694 58.2622 257.275 58.4429L259.934 59.2763L257.634 59.7846C256.987 59.9306 256.397 60.2624 255.937 60.7391C255.476 61.2159 255.165 61.8168 255.042 62.468L254.209 66.6346L253.609 62.6846C253.511 62.0267 253.222 61.412 252.777 60.9171C252.333 60.4222 251.752 60.0689 251.109 59.9013L248.575 59.3096Z" fill="white" stroke="#202F44" stroke-miterlimit="10"/>
<path d="M87.4912 88.2676H157.9V132.859C157.9 133.646 157.587 134.401 157.031 134.957C156.474 135.513 155.72 135.826 154.933 135.826H90.4579C89.6711 135.826 88.9165 135.513 88.3601 134.957C87.8038 134.401 87.4912 133.646 87.4912 132.859V88.2676Z" fill="white" stroke="#202F44" stroke-miterlimit="10"/>
<path d="M90.9751 83.2852H154.417C154.956 83.2852 155.49 83.3914 155.989 83.5979C156.487 83.8044 156.94 84.107 157.322 84.4884C157.703 84.8699 158.006 85.3229 158.212 85.8213C158.419 86.3198 158.525 86.854 158.525 87.3935V90.7935H86.8584V87.3935C86.8584 86.8533 86.9649 86.3184 87.1719 85.8194C87.3789 85.3204 87.6823 84.8671 88.0646 84.4855C88.447 84.1039 88.9009 83.8015 89.4003 83.5955C89.8997 83.3895 90.4348 83.2841 90.9751 83.2852V83.2852Z" fill="#202F44"/>
<path d="M129.575 95.377H95.6165C94.2588 95.377 93.1582 96.4776 93.1582 97.8353V97.8436C93.1582 99.2013 94.2588 100.302 95.6165 100.302H129.575C130.933 100.302 132.033 99.2013 132.033 97.8436V97.8353C132.033 96.4776 130.933 95.377 129.575 95.377Z" fill="#202F44"/>
<path d="M147.733 95.377H136.608C135.25 95.377 134.149 96.4776 134.149 97.8353V97.8436C134.149 99.2013 135.25 100.302 136.608 100.302H147.733C149.09 100.302 150.191 99.2013 150.191 97.8436V97.8353C150.191 96.4776 149.09 95.377 147.733 95.377Z" fill="#EBEFFF"/>
<path d="M111.7 104.451H95.6165C94.2588 104.451 93.1582 105.552 93.1582 106.909V106.918C93.1582 108.276 94.2588 109.376 95.6165 109.376H111.7C113.058 109.376 114.158 108.276 114.158 106.918V106.909C114.158 105.552 113.058 104.451 111.7 104.451Z" fill="#EBEFFF"/>
<path d="M147.742 104.451H119.567C118.209 104.451 117.108 105.552 117.108 106.909V106.918C117.108 108.276 118.209 109.376 119.567 109.376H147.742C149.099 109.376 150.2 108.276 150.2 106.918V106.909C150.2 105.552 149.099 104.451 147.742 104.451Z" fill="#202F44"/>
<path d="M133.492 113.526H95.6165C94.2588 113.526 93.1582 114.627 93.1582 115.985V115.993C93.1582 117.351 94.2588 118.451 95.6165 118.451H133.492C134.849 118.451 135.95 117.351 135.95 115.993V115.985C135.95 114.627 134.849 113.526 133.492 113.526Z" fill="#202F44"/>
<path d="M147.742 113.526H140.859C139.501 113.526 138.4 114.627 138.4 115.985V115.993C138.4 117.351 139.501 118.451 140.859 118.451H147.742C149.1 118.451 150.2 117.351 150.2 115.993V115.985C150.2 114.627 149.1 113.526 147.742 113.526Z" fill="#EBEFFF"/>
<path d="M129.575 122.602H95.6165C94.2588 122.602 93.1582 123.702 93.1582 125.06V125.068C93.1582 126.426 94.2588 127.527 95.6165 127.527H129.575C130.933 127.527 132.033 126.426 132.033 125.068V125.06C132.033 123.702 130.933 122.602 129.575 122.602Z" fill="#EBEFFF"/>
<path d="M147.733 122.602H136.608C135.25 122.602 134.149 123.702 134.149 125.06V125.068C134.149 126.426 135.25 127.527 136.608 127.527H147.733C149.09 127.527 150.191 126.426 150.191 125.068V125.06C150.191 123.702 149.09 122.602 147.733 122.602Z" fill="#202F44"/>
<path d="M92.7747 88.1011C93.3638 88.1011 93.8413 87.6235 93.8413 87.0344C93.8413 86.4453 93.3638 85.9678 92.7747 85.9678C92.1856 85.9678 91.708 86.4453 91.708 87.0344C91.708 87.6235 92.1856 88.1011 92.7747 88.1011Z" fill="#EBEFFF"/>
<path d="M96.1331 88.1011C96.7222 88.1011 97.1997 87.6235 97.1997 87.0344C97.1997 86.4453 96.7222 85.9678 96.1331 85.9678C95.544 85.9678 95.0664 86.4453 95.0664 87.0344C95.0664 87.6235 95.544 88.1011 96.1331 88.1011Z" fill="#EBEFFF"/>
<path d="M99.4915 88.1011C100.081 88.1011 100.558 87.6235 100.558 87.0344C100.558 86.4453 100.081 85.9678 99.4915 85.9678C98.9024 85.9678 98.4248 86.4453 98.4248 87.0344C98.4248 87.6235 98.9024 88.1011 99.4915 88.1011Z" fill="#EBEFFF"/>
<path d="M165.525 129.876C174.187 129.876 181.208 122.855 181.208 114.193C181.208 105.531 174.187 98.5098 165.525 98.5098C156.863 98.5098 149.842 105.531 149.842 114.193C149.842 122.855 156.863 129.876 165.525 129.876Z" fill="white" stroke="#202F44" stroke-miterlimit="10"/>
<path d="M181.209 114.193C181.209 110.034 179.556 106.044 176.615 103.103C173.674 100.162 169.685 98.5098 165.525 98.5098V114.193H181.209Z" fill="#EBEFFF" stroke="#202F44" stroke-miterlimit="10"/>
<path d="M165.108 114.601L175.192 126.534C176.667 125.371 177.93 123.961 178.925 122.368C179.992 120.293 180.867 118.851 181.042 116.534L181.208 114.218L165.108 114.601Z" fill="#202F44"/>
<path d="M89.4667 65.1016H66.5167C64.2983 65.1016 62.5 66.8999 62.5 69.1182V92.0682C62.5 94.2866 64.2983 96.0849 66.5167 96.0849H89.4667C91.685 96.0849 93.4833 94.2866 93.4833 92.0682V69.1182C93.4833 66.8999 91.685 65.1016 89.4667 65.1016Z" fill="white" stroke="#202F44" stroke-miterlimit="10"/>
<path d="M71.5004 71.5186H67.4004V89.4935H71.5004V71.5186Z" fill="#EBEFFF"/>
<path d="M71.5004 71.5186H67.4004V75.9519H71.5004V71.5186Z" fill="#202F44"/>
<path d="M77.267 77.1436H73.167V89.4936H77.267V77.1436Z" fill="#EBEFFF"/>
<path d="M77.267 74.7676H73.167V82.3092H77.267V74.7676Z" fill="#202F44"/>
<path d="M83.0336 81.002H78.9336V89.4936H83.0336V81.002Z" fill="#EBEFFF"/>
<path d="M83.0336 79.5928H78.9336V85.0178H83.0336V79.5928Z" fill="#202F44"/>
<path d="M88.7914 85.2432H84.6914V89.4848H88.7914V85.2432Z" fill="#EBEFFF"/>
<path d="M88.7914 82.959H84.6914V85.2423H88.7914V82.959Z" fill="#202F44"/>
<path d="M127.525 38.8594H104.575C102.357 38.8594 100.559 40.6577 100.559 42.876V65.8261C100.559 68.0444 102.357 69.8427 104.575 69.8427H127.525C129.744 69.8427 131.542 68.0444 131.542 65.8261V42.876C131.542 40.6577 129.744 38.8594 127.525 38.8594Z" fill="white" stroke="#202F44" stroke-miterlimit="10"/>
<path d="M106.333 63.1594L112.508 51.8094L119.541 56.5094L126.166 45.4844" stroke="#EBEFFF" stroke-width="2" stroke-miterlimit="10"/>
<path d="M106.366 64.5512C107.499 64.5512 108.416 63.6334 108.416 62.5012C108.416 61.369 107.499 60.4512 106.366 60.4512C105.234 60.4512 104.316 61.369 104.316 62.5012C104.316 63.6334 105.234 64.5512 106.366 64.5512Z" fill="#202F44"/>
<path d="M112.758 54.0346C113.89 54.0346 114.808 53.1167 114.808 51.9846C114.808 50.8524 113.89 49.9346 112.758 49.9346C111.626 49.9346 110.708 50.8524 110.708 51.9846C110.708 53.1167 111.626 54.0346 112.758 54.0346Z" fill="#202F44"/>
<path d="M119.517 58.4262C120.649 58.4262 121.567 57.5084 121.567 56.3762C121.567 55.244 120.649 54.3262 119.517 54.3262C118.385 54.3262 117.467 55.244 117.467 56.3762C117.467 57.5084 118.385 58.4262 119.517 58.4262Z" fill="#202F44"/>
<path d="M125.734 48.2426C126.866 48.2426 127.784 47.3248 127.784 46.1926C127.784 45.0604 126.866 44.1426 125.734 44.1426C124.601 44.1426 123.684 45.0604 123.684 46.1926C123.684 47.3248 124.601 48.2426 125.734 48.2426Z" fill="#202F44"/>
</svg>
