<svg width="370" height="250" viewBox="0 0 370 250" fill="none" xmlns="http://www.w3.org/2000/svg">
<path d="M175.716 151.321L168.15 198.588L168.091 198.521C166.464 196.731 164.398 195.396 162.098 194.647C159.797 193.899 157.341 193.763 154.972 194.254C152.603 194.744 150.402 195.844 148.588 197.444C146.773 199.045 145.407 201.09 144.625 203.379L143.483 202.988C142.098 202.521 140.617 202.412 139.179 202.673C137.74 202.933 136.392 203.554 135.258 204.477C134.125 205.4 133.243 206.595 132.697 207.951C132.151 209.306 131.956 210.778 132.133 212.229L132.8 217.68L129.666 216.688C128.426 216.296 127.112 216.19 125.825 216.376C124.537 216.563 123.308 217.037 122.229 217.765C121.151 218.492 120.25 219.453 119.594 220.577C118.938 221.7 118.544 222.957 118.441 224.254H264.7V218.305C264.701 216.105 264.166 213.939 263.143 211.992C262.12 210.045 260.639 208.376 258.827 207.129C257.015 205.883 254.927 205.096 252.743 204.836C250.56 204.576 248.345 204.851 246.291 205.638L243.133 198.671C241.626 195.35 238.961 192.691 235.636 191.192C232.31 189.694 228.553 189.458 225.066 190.529V190.529C224.561 189.288 223.767 188.184 222.75 187.311C221.733 186.438 220.522 185.82 219.218 185.508C217.915 185.197 216.555 185.201 215.253 185.521C213.951 185.841 212.745 186.466 211.733 187.346L211.225 187.788L203.316 134.854L175.716 151.321Z" fill="white" stroke="#202F44" stroke-miterlimit="10"/>
<path d="M143.45 213.255C144.451 211.546 145.804 210.07 147.42 208.926C149.036 207.782 150.877 206.995 152.822 206.619C154.766 206.243 156.768 206.285 158.694 206.744C160.62 207.203 162.426 208.067 163.992 209.28L165 210.055L166.15 206.138C166.54 204.818 167.277 203.628 168.284 202.691C169.292 201.754 170.532 201.105 171.877 200.812C173.221 200.519 174.619 200.592 175.925 201.025C177.231 201.458 178.397 202.234 179.3 203.271L182.634 173.555" stroke="#202F44" stroke-miterlimit="10"/>
<path d="M184.075 210.596C184.822 209.117 185.924 207.845 187.281 206.894C188.639 205.944 190.21 205.343 191.856 205.147C193.502 204.951 195.17 205.164 196.713 205.769C198.256 206.374 199.626 207.351 200.7 208.613L201.692 209.771C202.571 208.444 203.767 207.358 205.172 206.611C206.578 205.864 208.147 205.481 209.739 205.495C211.33 205.509 212.893 205.92 214.285 206.692C215.676 207.464 216.853 208.571 217.709 209.913L219.825 213.246C221.776 211.841 224.188 211.232 226.572 211.541C228.955 211.851 231.132 213.056 232.658 214.913L232.975 215.296" stroke="#202F44" stroke-miterlimit="10"/>
<path d="M152.858 153.179C151.083 158.047 151.308 163.419 153.483 168.121L158.066 177.979L158.424 175.829C159.059 172.017 160.614 168.416 162.955 165.341C165.296 162.265 168.352 159.807 171.858 158.179L168.266 138.496L160.649 143.454C157.06 145.758 154.323 149.174 152.858 153.179V153.179Z" fill="#EBEFFF" stroke="#202F44" stroke-miterlimit="10"/>
<path d="M228.866 153.546C229.749 155.956 230.148 158.515 230.041 161.079C229.934 163.643 229.322 166.16 228.241 168.488L223.658 178.354L223.3 176.196C222.665 172.383 221.11 168.783 218.769 165.707C216.428 162.632 213.372 160.173 209.866 158.546V158.546L213.466 138.871L221.083 143.821C224.666 146.13 227.399 149.544 228.866 153.546V153.546Z" fill="#EBEFFF" stroke="#202F44" stroke-miterlimit="10"/>
<path d="M200.658 198.388L205.424 183.172C206.363 180.167 206.312 176.94 205.278 173.966C204.245 170.993 202.283 168.43 199.683 166.655L198.591 165.905C195.749 163.965 192.316 163.084 188.891 163.416C185.466 163.748 182.266 165.272 179.849 167.722C177.979 169.616 176.659 171.983 176.031 174.569C175.403 177.156 175.49 179.864 176.283 182.405L183.058 204.188L186.658 195.788L191.166 210.188L195.858 190.788L200.658 198.388Z" fill="#EBEFFF" stroke="#202F44" stroke-miterlimit="10"/>
<path d="M195.9 186.88L198.342 179.047C198.831 177.504 198.809 175.844 198.277 174.314C197.745 172.785 196.733 171.469 195.392 170.563L194.833 170.172C193.371 169.173 191.605 168.72 189.843 168.891C188.081 169.061 186.435 169.845 185.192 171.105C184.234 172.081 183.557 173.298 183.235 174.627C182.912 175.956 182.955 177.348 183.358 178.655L186.85 189.855L188.7 185.538L191.017 192.947L193.425 182.947L195.9 186.88Z" fill="#202F44" stroke="#202F44" stroke-miterlimit="10"/>
<path d="M204.433 163.346H177.275C175.514 163.341 173.808 162.732 172.443 161.62C171.077 160.508 170.135 158.961 169.775 157.237L165.608 137.429C160.727 114.901 162.76 91.4242 171.441 70.0707L173.85 64.0957H207.866L210.283 70.0707C218.964 91.4242 220.997 114.901 216.116 137.429L211.95 157.237C211.588 158.964 210.644 160.513 209.275 161.625C207.906 162.737 206.197 163.345 204.433 163.346Z" fill="#202F44" stroke="#202F44" stroke-miterlimit="10"/>
<path d="M206.141 163.347H175.558V167.113H206.141V163.347Z" fill="white" stroke="#202F44" stroke-miterlimit="10"/>
<path d="M206.141 166.505H175.558V172.355H206.141V166.505Z" fill="white" stroke="#202F44" stroke-miterlimit="10"/>
<path d="M173.841 64.096C178.049 53.5812 183.33 43.5281 189.599 34.096L190.433 32.7793L193.374 37.2293C198.314 44.6838 202.637 52.5293 206.299 60.6876L207.816 64.0793L173.841 64.096Z" fill="#EBEFFF" stroke="#202F44" stroke-miterlimit="10"/>
<path d="M190.85 124.305C201.339 124.305 209.842 115.802 209.842 105.313C209.842 94.8242 201.339 86.3213 190.85 86.3213C180.361 86.3213 171.858 94.8242 171.858 105.313C171.858 115.802 180.361 124.305 190.85 124.305Z" fill="white" stroke="#202F44" stroke-miterlimit="10"/>
<path d="M190.849 117.838C197.767 117.838 203.374 112.23 203.374 105.313C203.374 98.3957 197.767 92.7881 190.849 92.7881C183.932 92.7881 178.324 98.3957 178.324 105.313C178.324 112.23 183.932 117.838 190.849 117.838Z" fill="#EBEFFF" stroke="#202F44" stroke-miterlimit="10"/>
<path d="M190.55 181.096L184.15 146.78C183.97 145.809 184.006 144.811 184.255 143.856C184.505 142.901 184.962 142.013 185.593 141.255C186.225 140.497 187.016 139.887 187.91 139.469C188.804 139.052 189.779 138.836 190.766 138.838C191.761 138.837 192.743 139.057 193.641 139.482C194.54 139.906 195.334 140.525 195.964 141.294C196.595 142.063 197.047 142.961 197.288 143.926C197.529 144.89 197.553 145.896 197.358 146.871L190.55 181.096Z" fill="#EBEFFF" stroke="#202F44" stroke-miterlimit="10"/>
<path d="M215.149 199.646L215.241 199.479C215.938 198.224 216.991 197.204 218.267 196.547C219.543 195.89 220.985 195.625 222.411 195.786C223.837 195.948 225.183 196.528 226.28 197.453C227.377 198.379 228.176 199.609 228.575 200.987V200.987C229.416 200.394 230.37 199.98 231.379 199.772C232.387 199.563 233.427 199.565 234.435 199.776C235.442 199.987 236.396 200.403 237.236 200.999C238.076 201.594 238.784 202.356 239.316 203.237L240.983 206.054" stroke="#202F44" stroke-miterlimit="10"/>
<path d="M53.1992 219.455H200.749C200.749 222.001 199.738 224.443 197.937 226.243C196.137 228.044 193.695 229.055 191.149 229.055H60.6409L53.1992 219.455Z" fill="#202F44"/>
<path d="M158.691 229.105H61.008C59.4925 229.031 58.0371 228.489 56.8428 227.553C55.6486 226.617 54.7745 225.334 54.3413 223.88L35.833 154.805C35.058 151.93 36.783 149.571 39.658 149.571H137.341C138.85 149.655 140.297 150.202 141.483 151.139C142.668 152.076 143.536 153.356 143.966 154.805L162.483 223.88C163.316 226.755 161.566 229.105 158.691 229.105Z" fill="#202F44"/>
<path d="M102.566 187.571C102.183 186.18 101.407 184.93 100.331 183.969C99.2546 183.008 97.9244 182.378 96.4993 182.154C95.4712 181.976 94.4156 182.038 93.416 182.338C92.7768 182.554 92.0806 182.531 91.4577 182.271C91.1303 182.115 90.7745 182.027 90.412 182.013C90.0496 181.999 89.688 182.058 89.3493 182.188C88.9849 182.326 88.6546 182.541 88.3812 182.819C88.1079 183.097 87.8979 183.43 87.7657 183.797C87.6334 184.163 87.5821 184.554 87.6153 184.942C87.6484 185.331 87.7652 185.707 87.9577 186.046C88.2993 186.626 88.415 187.311 88.2827 187.971C88.0518 189.165 88.1222 190.398 88.4875 191.558C88.8529 192.718 89.5018 193.769 90.3754 194.615C91.2489 195.462 92.3197 196.077 93.4908 196.405C94.6619 196.734 95.8964 196.765 97.0827 196.496C97.2827 196.496 97.5077 196.296 97.6493 196.338C98.3493 196.563 99.0743 197.071 99.891 196.904C100.241 196.82 100.57 196.664 100.857 196.446C101.144 196.228 101.382 195.953 101.558 195.638C101.934 195.09 102.094 194.422 102.008 193.763C101.928 193.213 102.006 192.653 102.233 192.146C102.837 190.698 102.954 189.092 102.566 187.571V187.571Z" fill="white"/>
<path d="M280.316 196.938H306.825C307.183 196.938 307.526 197.08 307.779 197.333C308.032 197.586 308.175 197.929 308.175 198.288V219.604C308.175 220.853 307.929 222.089 307.451 223.243C306.973 224.396 306.273 225.445 305.39 226.328C304.507 227.211 303.459 227.911 302.305 228.389C301.151 228.867 299.915 229.113 298.666 229.113H288.466C285.945 229.113 283.526 228.111 281.743 226.328C279.96 224.544 278.958 222.126 278.958 219.604V198.288C278.958 198.11 278.993 197.933 279.062 197.769C279.13 197.605 279.23 197.455 279.356 197.33C279.483 197.205 279.632 197.105 279.797 197.038C279.962 196.971 280.138 196.936 280.316 196.938Z" fill="#202F44"/>
<path d="M279.758 202.763C270.775 204.238 270.775 217.163 279.758 218.638" stroke="#202F44" stroke-width="2" stroke-miterlimit="10"/>
<path d="M199.483 224.255H337.775" stroke="#202F44" stroke-width="1.07" stroke-miterlimit="10"/>
<path d="M32.2246 224.255H162.841" stroke="#202F44" stroke-width="1.04" stroke-miterlimit="10"/>
</svg>
