<svg width="370" height="250" viewBox="0 0 370 250" fill="none" xmlns="http://www.w3.org/2000/svg">
<path d="M84.6997 207.882C84.6997 207.882 81.1664 205.582 73.9164 214.623C72.6164 216.24 68.8497 221.332 71.6497 222.615C74.4497 223.898 76.9831 218.257 80.2831 216.498C84.4497 214.307 86.6914 214.698 86.6914 214.698" fill="white"/>
<path d="M84.6997 207.882C84.6997 207.882 81.1664 205.582 73.9164 214.623C72.6164 216.24 68.8497 221.332 71.6497 222.615C74.4497 223.898 76.9831 218.257 80.2831 216.498C84.4497 214.307 86.6914 214.698 86.6914 214.698" stroke="#202F44" stroke-width="1.03" stroke-miterlimit="10"/>
<path d="M107.725 225.157C105.313 225.427 102.883 225.511 100.458 225.407C96.225 225.249 92.5 222.857 91.15 222.174L88.65 220.899C87.7691 220.458 86.7581 220.351 85.8047 220.6C84.8514 220.848 84.0206 221.434 83.4667 222.249C82.375 223.84 81.0334 225.39 80.1334 225.057C78.4667 224.465 78.4667 222.557 78.4667 221.774C78.4744 221.748 78.4718 221.721 78.4593 221.697C78.4468 221.674 78.4255 221.656 78.4 221.649C78.3746 221.641 78.3472 221.643 78.3237 221.656C78.3003 221.668 78.2828 221.69 78.275 221.715C77.7667 222.49 76.4584 224.14 74.7834 223.865C70.5584 223.182 76.9834 207.115 81.8917 205.257C86.8 203.399 107 206.924 107 206.924" fill="white"/>
<path d="M107.725 225.157C105.313 225.427 102.883 225.511 100.458 225.407C96.225 225.249 92.5 222.857 91.15 222.174L88.65 220.899C87.7691 220.458 86.7581 220.351 85.8047 220.6C84.8514 220.848 84.0206 221.434 83.4667 222.249C82.375 223.84 81.0334 225.39 80.1334 225.057C78.4667 224.465 78.4667 222.557 78.4667 221.774C78.4744 221.748 78.4718 221.721 78.4593 221.697C78.4468 221.674 78.4255 221.656 78.4 221.649C78.3746 221.641 78.3472 221.643 78.3237 221.656C78.3003 221.668 78.2828 221.69 78.275 221.715C77.7667 222.49 76.4584 224.14 74.7834 223.865C70.5584 223.182 76.9834 207.115 81.8917 205.257C86.8 203.399 107 206.924 107 206.924" stroke="#202F44" stroke-width="1.03" stroke-miterlimit="10"/>
<path d="M86.708 213.532C86.708 213.532 80.7996 212.307 79.2496 217.64C78.7991 219.229 78.4567 220.846 78.2246 222.482" fill="white"/>
<path d="M86.708 213.532C86.708 213.532 80.7996 212.307 79.2496 217.64C78.7991 219.229 78.4567 220.846 78.2246 222.482" stroke="#202F44" stroke-width="1.03" stroke-miterlimit="10"/>
<path d="M188.308 49.9648C176.133 46.8648 173.075 23.9981 194.417 19.7314C215.758 15.4648 224.283 37.4564 232.2 38.1148C240.117 38.7731 256.817 37.4564 256.817 50.2564C256.817 63.0564 254.192 81.4398 260.758 91.6148C267.325 101.79 274.542 107.048 277.492 121.815C280.442 136.581 269.158 160.915 250.142 164.923C233.733 168.381 206.325 164.09 189.067 131.24C181.833 117.456 182.217 84.9481 186.242 69.9564C190.408 54.4148 193.592 50.3731 193.592 50.3731C193.592 50.3731 191.8 50.8564 188.308 49.9648Z" fill="#202F44" stroke="#202F44" stroke-miterlimit="10"/>
<path d="M214.3 113.223L236.517 111.34C236.517 111.34 259.417 99.4151 287.4 126.615C309.2 147.823 322.758 216.098 306.125 224.415L107.725 225.132L106.892 205.44C106.892 205.44 134.342 195.523 157.308 191.115C168.375 188.998 183.383 189.307 183.383 189.307C183.383 189.307 180 139.157 192.35 123.473C194.955 120.17 198.297 117.523 202.108 115.743C205.92 113.963 210.095 113.1 214.3 113.223V113.223Z" fill="#EBEFFF" stroke="#202F44" stroke-width="1.15" stroke-miterlimit="10"/>
<path d="M211.625 91.4313L212.75 114.89C212.806 116.172 213.186 117.42 213.853 118.517C214.52 119.614 215.454 120.525 216.567 121.165C218.348 122.259 220.333 122.98 222.402 123.284C224.47 123.588 226.579 123.468 228.6 122.931C239.633 119.773 236.517 111.348 236.517 111.348L231.817 83.0146L211.625 91.4313Z" fill="white" stroke="#202F44" stroke-width="1.03" stroke-miterlimit="10"/>
<path d="M200.609 99.2314C208.584 109.865 223.517 100.165 231.809 88.6481C231.809 88.6481 237.642 90.5481 241.067 86.6481C244.492 82.7481 242.775 76.7064 240.059 74.6647C237.342 72.6231 235.134 73.0647 235.134 73.0647L235.642 63.5147C235.642 63.5147 225.525 62.7314 219.217 58.323C212.909 53.9147 211.917 49.373 211.917 49.373C211.917 49.373 204.842 53.9897 196.484 52.5397C196.484 52.5397 192.634 88.598 200.609 99.2314Z" fill="white" stroke="#202F44" stroke-miterlimit="10"/>
<path d="M216.975 75.0146C217.601 75.0146 218.108 74.0633 218.108 72.8896C218.108 71.716 217.601 70.7646 216.975 70.7646C216.349 70.7646 215.842 71.716 215.842 72.8896C215.842 74.0633 216.349 75.0146 216.975 75.0146Z" fill="#202F44" stroke="#202F44" stroke-width="0.73" stroke-miterlimit="10"/>
<path d="M200.367 75.0146C200.993 75.0146 201.5 74.0633 201.5 72.8896C201.5 71.716 200.993 70.7646 200.367 70.7646C199.741 70.7646 199.233 71.716 199.233 72.8896C199.233 74.0633 199.741 75.0146 200.367 75.0146Z" fill="#202F44" stroke="#202F44" stroke-width="0.73" stroke-miterlimit="10"/>
<path d="M211.625 87.6395C212.257 87.7841 212.912 87.7919 213.548 87.6626C214.183 87.5333 214.783 87.2697 215.308 86.8895C215.936 86.3213 216.411 85.6049 216.691 84.8057C216.97 84.0065 217.045 83.15 216.908 82.3145" stroke="#202F44" stroke-width="0.73" stroke-miterlimit="10"/>
<path d="M231.992 81.8565C232.353 82.1912 232.782 82.4452 233.249 82.6018C233.716 82.7584 234.21 82.814 234.701 82.7648C235.333 82.625 235.921 82.3301 236.411 81.9068C236.901 81.4836 237.278 80.9451 237.509 80.3398" stroke="#202F44" stroke-width="0.73" stroke-miterlimit="10"/>
<path d="M206.1 80.9065C206.1 80.9065 203.109 80.8232 203.2 78.5149C203.292 76.2065 206.1 77.1565 206.1 77.1565" stroke="#202F44" stroke-width="0.73" stroke-miterlimit="10"/>
<path d="M188.384 206.531L184.825 222.265C188.226 223.535 191.747 224.459 195.334 225.023C201.034 225.856 208.667 225.023 208.667 225.023L206.367 207.34" fill="white"/>
<path d="M188.384 206.531L184.825 222.265C188.226 223.535 191.747 224.459 195.334 225.023C201.034 225.856 208.667 225.023 208.667 225.023L206.367 207.34" stroke="#202F44" stroke-width="1.03" stroke-miterlimit="10"/>
<path d="M214.95 63.3985C216.007 63.1569 217.114 63.2591 218.109 63.6901C219.667 64.4151 219.959 65.0651 219.959 65.0651" stroke="#202F44" stroke-width="0.73" stroke-miterlimit="10"/>
<path d="M186.367 216.265L181.942 221.69C181.942 221.69 180.084 227.173 183.367 227.606C185.392 227.881 186.7 225.29 188.284 222.898" fill="white"/>
<path d="M186.367 216.265L181.942 221.69C181.942 221.69 180.084 227.173 183.367 227.606C185.392 227.881 186.7 225.29 188.284 222.898" stroke="#202F44" stroke-width="1.03" stroke-miterlimit="10"/>
<path d="M202.383 62.9319C201.302 62.8936 200.237 63.2001 199.342 63.8069C197.942 64.8152 197.783 65.4736 197.783 65.4736" stroke="#202F44" stroke-width="0.73" stroke-miterlimit="10"/>
<path d="M181.983 206.948L177.45 218.565C177.45 218.565 174.358 227.09 177.642 227.523C180.925 227.957 181.758 221.34 184.6 218.482C188.167 214.907 190.642 214.59 190.642 214.59" fill="white"/>
<path d="M181.983 206.948L177.45 218.565C177.45 218.565 174.358 227.09 177.642 227.523C180.925 227.957 181.758 221.34 184.6 218.482C188.167 214.907 190.642 214.59 190.642 214.59" stroke="#202F44" stroke-width="1.03" stroke-miterlimit="10"/>
<path d="M208.683 225.023L206.366 207.34L277.941 192.981C277.941 192.981 274.208 180.223 269.383 168.131C265.581 158.553 262.739 148.621 260.9 138.481" fill="#EBEFFF"/>
<path d="M208.683 225.023L206.366 207.34L277.941 192.981C277.941 192.981 274.208 180.223 269.383 168.131C265.581 158.553 262.739 148.621 260.9 138.481" stroke="#202F44" stroke-width="1.15" stroke-miterlimit="10"/>
<path d="M206.367 207.34C206.367 207.34 190.734 206.698 184.375 205.823C178.017 204.948 172.317 215.465 171.117 219.99C169.917 224.515 169.575 226.015 171.884 226.348C174.192 226.681 174.934 222.423 177.459 218.59C178.906 216.336 180.964 214.538 183.392 213.406" fill="white"/>
<path d="M206.367 207.34C206.367 207.34 190.734 206.698 184.375 205.823C178.017 204.948 172.317 215.465 171.117 219.99C169.917 224.515 169.575 226.015 171.884 226.348C174.192 226.681 174.934 222.423 177.459 218.59C178.906 216.336 180.964 214.538 183.392 213.406" stroke="#202F44" stroke-width="1.03" stroke-miterlimit="10"/>
<path d="M39.6333 212.931V188.848C39.6333 188.848 36.7167 190.139 32.075 187.648C27.6583 185.281 25.7 176.681 30.075 175.589C33.4083 174.756 33.1167 181.631 35.9583 183.864C36.5171 184.33 37.1801 184.655 37.8909 184.81C38.6017 184.965 39.3395 184.947 40.0417 184.756V169.539C40.0416 168.301 40.5314 167.112 41.404 166.234C42.2767 165.355 43.4615 164.856 44.7 164.848V164.848C45.9429 164.85 47.1341 165.345 48.0121 166.225C48.8902 167.104 49.3833 168.296 49.3833 169.539V190.989H51.6667C52.1933 190.984 52.7135 190.873 53.1965 190.663C53.6794 190.453 54.1153 190.149 54.4783 189.767C54.8412 189.385 55.1238 188.935 55.3094 188.442C55.4949 187.949 55.5796 187.424 55.5583 186.898C55.4583 184.106 55.7083 180.681 57.55 180.056C62.2833 178.448 62.2 188.231 60.05 191.356C56.5 196.431 49.425 194.373 49.425 194.373V213.489L39.6333 212.931Z" fill="white" stroke="#202F44" stroke-miterlimit="10"/>
<path d="M34.7503 202.932H54.3586C55.4371 202.932 56.4715 203.36 57.2342 204.123C57.9968 204.885 58.4253 205.92 58.4253 206.998V224.432C58.4253 225.731 57.909 226.978 56.9901 227.896C56.0712 228.815 54.8248 229.332 53.5253 229.332H35.5836C34.284 229.332 33.0377 228.815 32.1188 227.896C31.1998 226.978 30.6836 225.731 30.6836 224.432V206.99C30.6858 205.913 31.1152 204.881 31.8776 204.12C32.64 203.359 33.6732 202.932 34.7503 202.932V202.932Z" fill="#202F44"/>
<path d="M66.1328 219.598H213.683C213.683 222.144 212.671 224.586 210.871 226.386C209.071 228.186 206.629 229.198 204.083 229.198H73.5745L66.1328 219.598Z" fill="#202F44"/>
<path d="M171.625 229.265H73.942C72.4262 229.189 70.9711 228.644 69.7773 227.707C68.5834 226.77 67.7093 225.486 67.2754 224.031L48.8087 154.956C48.042 152.081 49.7587 149.731 52.6337 149.731H150.317C151.825 149.813 153.271 150.359 154.457 151.294C155.643 152.23 156.511 153.509 156.942 154.956L175.45 224.031C176.225 226.906 174.5 229.265 171.625 229.265Z" fill="#202F44"/>
<path d="M115.533 187.723C115.148 186.334 114.372 185.085 113.296 184.126C112.22 183.167 110.89 182.538 109.466 182.315C108.438 182.136 107.383 182.199 106.383 182.498C105.743 182.716 105.046 182.69 104.425 182.423C104.008 182.23 103.55 182.145 103.092 182.178C102.635 182.21 102.192 182.358 101.808 182.608C101.423 182.858 101.108 183.201 100.892 183.606C100.676 184.011 100.567 184.465 100.575 184.923C100.581 185.378 100.705 185.822 100.933 186.215C101.267 186.798 101.383 187.48 101.258 188.14C101.025 189.335 101.094 190.568 101.458 191.73C101.823 192.891 102.472 193.943 103.346 194.789C104.22 195.636 105.292 196.251 106.464 196.579C107.636 196.906 108.871 196.936 110.058 196.665C110.25 196.623 110.483 196.465 110.625 196.507C111.325 196.732 112.041 197.24 112.866 197.065C113.217 196.984 113.546 196.83 113.833 196.613C114.12 196.396 114.359 196.122 114.533 195.807C114.908 195.258 115.065 194.59 114.975 193.932C114.898 193.382 114.976 192.823 115.2 192.315C115.81 190.862 115.927 189.249 115.533 187.723Z" fill="white"/>
<path d="M197.783 149.731C197.783 149.731 194.717 157.615 196.75 178.423C197.267 183.706 201.642 207.123 201.642 207.123" fill="#EBEFFF"/>
<path d="M197.783 149.731C197.783 149.731 194.717 157.615 196.75 178.423C197.267 183.706 201.642 207.123 201.642 207.123" stroke="#202F44" stroke-width="1.15" stroke-miterlimit="10"/>
<path d="M275.576 197.098H302.084C302.442 197.098 302.785 197.24 303.038 197.493C303.292 197.746 303.434 198.09 303.434 198.448V219.764C303.434 221.013 303.188 222.249 302.71 223.403C302.232 224.557 301.532 225.605 300.649 226.488C299.766 227.371 298.718 228.071 297.564 228.549C296.411 229.027 295.174 229.273 293.926 229.273H283.734C281.212 229.273 278.794 228.271 277.011 226.488C275.227 224.705 274.226 222.286 274.226 219.764V198.448C274.226 198.09 274.368 197.746 274.621 197.493C274.874 197.24 275.218 197.098 275.576 197.098V197.098Z" fill="#202F44"/>
<path d="M275.017 202.932C266.033 204.407 266.033 217.332 275.017 218.765" stroke="#202F44" stroke-width="2" stroke-miterlimit="10"/>
<path d="M112.166 137.507H77.3746C75.9111 137.507 74.7246 138.691 74.7246 140.153C74.7246 141.614 75.9111 142.798 77.3746 142.798H112.166C113.63 142.798 114.816 141.614 114.816 140.153C114.816 138.691 113.63 137.507 112.166 137.507Z" fill="#202F44"/>
<path d="M142.9 137.507H120.617C119.153 137.507 117.967 138.691 117.967 140.153C117.967 141.614 119.153 142.798 120.617 142.798H142.9C144.364 142.798 145.55 141.614 145.55 140.153C145.55 138.691 144.364 137.507 142.9 137.507Z" fill="#EBEFFF"/>
<path d="M106.925 126.915H72.9586C71.495 126.915 70.3086 128.1 70.3086 129.561C70.3086 131.022 71.495 132.207 72.9586 132.207H106.925C108.389 132.207 109.575 131.022 109.575 129.561C109.575 128.1 108.389 126.915 106.925 126.915Z" fill="#202F44"/>
<path d="M138.491 126.915H115.375C113.911 126.915 112.725 128.1 112.725 129.561C112.725 131.022 113.911 132.207 115.375 132.207H138.491C139.955 132.207 141.141 131.022 141.141 129.561C141.141 128.1 139.955 126.915 138.491 126.915Z" fill="#EBEFFF"/>
<path d="M135.209 116.331H81.7838C80.3202 116.331 79.1338 117.516 79.1338 118.977C79.1338 120.438 80.3202 121.623 81.7838 121.623H135.209C136.672 121.623 137.859 120.438 137.859 118.977C137.859 117.516 136.672 116.331 135.209 116.331Z" fill="#202F44"/>
<path d="M147.309 116.331H143.425C141.962 116.331 140.775 117.516 140.775 118.977C140.775 120.438 141.962 121.623 143.425 121.623H147.309C148.772 121.623 149.959 120.438 149.959 118.977C149.959 117.516 148.772 116.331 147.309 116.331Z" fill="#EBEFFF"/>
<path d="M105.925 105.748H72.9586C71.495 105.748 70.3086 106.933 70.3086 108.394C70.3086 109.855 71.495 111.04 72.9586 111.04H105.925C107.389 111.04 108.575 109.855 108.575 108.394C108.575 106.933 107.389 105.748 105.925 105.748Z" fill="#202F44"/>
<path d="M138.492 105.748H114.383C112.92 105.748 111.733 106.933 111.733 108.394C111.733 109.855 112.92 111.04 114.383 111.04H138.492C139.955 111.04 141.142 109.855 141.142 108.394C141.142 106.933 139.955 105.748 138.492 105.748Z" fill="#EBEFFF"/>
<path d="M117.566 95.1562H64.1412C62.6777 95.1562 61.4912 96.3408 61.4912 97.8021C61.4912 99.2633 62.6777 100.448 64.1412 100.448H117.566C119.03 100.448 120.216 99.2633 120.216 97.8021C120.216 96.3408 119.03 95.1562 117.566 95.1562Z" fill="#202F44"/>
<path d="M129.667 95.1562H125.784C124.32 95.1562 123.134 96.3408 123.134 97.8021C123.134 99.2633 124.32 100.448 125.784 100.448H129.667C131.131 100.448 132.317 99.2633 132.317 97.8021C132.317 96.3408 131.131 95.1562 129.667 95.1562Z" fill="#EBEFFF"/>
<path d="M98.9669 84.5732H72.9586C71.495 84.5732 70.3086 85.7578 70.3086 87.2191C70.3086 88.6803 71.495 89.8649 72.9586 89.8649H98.9669C100.43 89.8649 101.617 88.6803 101.617 87.2191C101.617 85.7578 100.43 84.5732 98.9669 84.5732Z" fill="#202F44"/>
<path d="M138.484 84.5732H107.084C105.62 84.5732 104.434 85.7578 104.434 87.2191C104.434 88.6803 105.62 89.8649 107.084 89.8649H138.484C139.947 89.8649 141.134 88.6803 141.134 87.2191C141.134 85.7578 139.947 84.5732 138.484 84.5732Z" fill="#EBEFFF"/>
<path d="M204.083 224.415H342.383" stroke="#202F44" stroke-width="1.07" stroke-miterlimit="10"/>
<path d="M36.833 224.415H167.441" stroke="#202F44" stroke-width="1.04" stroke-miterlimit="10"/>
</svg>
