<svg width="370" height="250" viewBox="0 0 370 250" fill="none" xmlns="http://www.w3.org/2000/svg">
<path d="M53.3505 197.666H79.4004C79.7522 197.666 80.0896 197.805 80.3384 198.054C80.5872 198.303 80.727 198.64 80.727 198.992V219.94C80.727 222.418 79.7426 224.795 77.9902 226.547C76.2379 228.3 73.8613 229.284 71.3831 229.284H61.3268C58.8486 229.284 56.4719 228.3 54.7196 226.547C52.9673 224.795 51.9829 222.418 51.9829 219.94V198.992C51.9828 198.815 52.0184 198.639 52.0876 198.475C52.1568 198.311 52.2583 198.163 52.3858 198.039C52.5134 197.916 52.6645 197.819 52.8302 197.755C52.9959 197.69 53.1729 197.66 53.3505 197.666V197.666Z" fill="#202F44"/>
<path d="M52.8012 203.396C43.9732 204.846 43.9732 217.539 52.8012 218.997" stroke="#202F44" stroke-width="1.96541" stroke-miterlimit="10"/>
<path d="M152.448 224.51H335.133" stroke="#202F44" stroke-width="1.05149" stroke-miterlimit="10"/>
<path d="M34.8672 224.51H163.225" stroke="#202F44" stroke-width="1.02201" stroke-miterlimit="10"/>
<path d="M180.439 195.519H84.4453C82.9896 195.454 81.5943 194.918 80.469 193.992C79.3438 193.066 78.5494 191.8 78.2052 190.384L63.571 122.504C63.3958 121.891 63.3682 121.246 63.4906 120.621C63.6129 119.996 63.8817 119.409 64.2749 118.908C64.6681 118.407 65.1745 118.006 65.7525 117.739C66.3305 117.471 66.9637 117.345 67.6001 117.369H163.594C165.05 117.435 166.446 117.971 167.573 118.897C168.699 119.822 169.495 121.088 169.842 122.504L184.468 190.384C184.644 190.997 184.671 191.642 184.549 192.267C184.426 192.892 184.158 193.479 183.764 193.98C183.371 194.481 182.865 194.882 182.287 195.149C181.709 195.417 181.076 195.543 180.439 195.519V195.519Z" fill="white" stroke="#202F44" stroke-width="1.15959" stroke-miterlimit="10"/>
<path d="M176.016 195.519H80.0225C78.5667 195.454 77.1714 194.918 76.0462 193.992C74.9209 193.066 74.1265 191.8 73.7823 190.384L59.1482 122.504C58.9729 121.891 58.9454 121.246 59.0677 120.621C59.1901 119.996 59.4589 119.409 59.852 118.908C60.2452 118.407 60.7516 118.006 61.3296 117.739C61.9076 117.471 62.5408 117.345 63.1773 117.369H159.171C160.627 117.434 162.022 117.97 163.148 118.896C164.273 119.822 165.067 121.088 165.411 122.504L180.07 190.384C180.246 190.999 180.273 191.646 180.15 192.273C180.026 192.9 179.755 193.489 179.359 193.99C178.963 194.492 178.453 194.892 177.872 195.158C177.291 195.424 176.655 195.547 176.016 195.519V195.519Z" fill="#202F44"/>
<path d="M122.418 154.704C122.04 153.336 121.277 152.106 120.218 151.162C119.159 150.218 117.85 149.599 116.448 149.381C115.44 149.209 114.406 149.271 113.426 149.561C112.796 149.778 112.108 149.754 111.493 149.496C111.173 149.342 110.825 149.255 110.47 149.241C110.115 149.227 109.761 149.286 109.43 149.414C108.92 149.61 108.482 149.957 108.176 150.41C107.87 150.862 107.71 151.398 107.718 151.944C107.721 152.387 107.839 152.822 108.062 153.205C108.398 153.775 108.511 154.449 108.381 155.097C108.189 156.075 108.206 157.082 108.431 158.053C108.639 158.974 109.026 159.846 109.571 160.617C110.115 161.388 110.807 162.045 111.605 162.549C112.404 163.053 113.294 163.395 114.224 163.555C115.155 163.716 116.108 163.691 117.029 163.483C117.218 163.434 117.447 163.278 117.586 163.327C118.274 163.548 118.978 164.04 119.789 163.876C120.132 163.793 120.454 163.64 120.736 163.427C121.018 163.215 121.253 162.946 121.427 162.639C121.792 162.096 121.949 161.439 121.869 160.788C121.787 160.249 121.864 159.697 122.09 159.2C122.68 157.775 122.795 156.199 122.418 154.704V154.704Z" fill="white"/>
<path d="M110.683 181.376L96.9004 217.941C96.6216 218.673 96.525 219.462 96.6188 220.239C96.7125 221.017 96.994 221.76 97.4388 222.405C97.8836 223.049 98.4785 223.576 99.1722 223.94C99.8659 224.303 100.638 224.493 101.421 224.492H152.448V220.84L126.66 217.408C126.284 217.405 125.913 217.316 125.577 217.147C125.241 216.979 124.948 216.735 124.721 216.435C124.494 216.135 124.339 215.787 124.268 215.418C124.196 215.048 124.211 214.668 124.31 214.305L133.498 181.376H110.683Z" fill="#202F44"/>
<path d="M85.002 97.7812H154.193V141.602C154.193 142.375 153.885 143.116 153.339 143.663C152.792 144.21 152.05 144.517 151.277 144.517H87.9173C87.1441 144.517 86.4026 144.21 85.8559 143.663C85.3091 143.116 85.002 142.375 85.002 141.602V97.7812Z" fill="white" stroke="#202F44" stroke-width="0.982705" stroke-miterlimit="10"/>
<path d="M88.4249 92.8848H150.769C151.84 92.8848 152.867 93.3101 153.624 94.0673C154.381 94.8244 154.807 95.8513 154.807 96.9221V100.263H84.3794V96.9221C84.3794 96.3912 84.4841 95.8655 84.6875 95.3752C84.8909 94.8848 85.189 94.4394 85.5647 94.0644C85.9405 93.6894 86.3866 93.3921 86.8773 93.1897C87.3681 92.9873 87.894 92.8837 88.4249 92.8848V92.8848Z" fill="#202F44"/>
<path d="M126.357 104.766H92.9861C91.6519 104.766 90.5703 105.847 90.5703 107.181V107.19C90.5703 108.524 91.6519 109.605 92.9861 109.605H126.357C127.691 109.605 128.773 108.524 128.773 107.19V107.181C128.773 105.847 127.691 104.766 126.357 104.766Z" fill="#202F44"/>
<path d="M108.791 113.685H92.9861C91.6519 113.685 90.5703 114.766 90.5703 116.1V116.109C90.5703 117.443 91.6519 118.524 92.9861 118.524H108.791C110.125 118.524 111.207 117.443 111.207 116.109V116.1C111.207 114.766 110.125 113.685 108.791 113.685Z" fill="#EBEFFF"/>
<path d="M130.206 122.603H92.9861C91.6519 122.603 90.5703 123.684 90.5703 125.018V125.027C90.5703 126.361 91.6519 127.442 92.9861 127.442H130.206C131.54 127.442 132.622 126.361 132.622 125.027V125.018C132.622 123.684 131.54 122.603 130.206 122.603Z" fill="#202F44"/>
<path d="M126.357 131.521H92.9861C91.6519 131.521 90.5703 132.602 90.5703 133.936V133.945C90.5703 135.279 91.6519 136.36 92.9861 136.36H126.357C127.691 136.36 128.773 135.279 128.773 133.945V133.936C128.773 132.602 127.691 131.521 126.357 131.521Z" fill="#EBEFFF"/>
<path d="M90.1937 97.6179C90.7727 97.6179 91.242 97.1486 91.242 96.5697C91.242 95.9908 90.7727 95.5215 90.1937 95.5215C89.6148 95.5215 89.1455 95.9908 89.1455 96.5697C89.1455 97.1486 89.6148 97.6179 90.1937 97.6179Z" fill="#EBEFFF"/>
<path d="M93.4936 97.6179C94.0725 97.6179 94.5417 97.1486 94.5417 96.5697C94.5417 95.9908 94.0725 95.5215 93.4936 95.5215C92.9146 95.5215 92.4453 95.9908 92.4453 96.5697C92.4453 97.1486 92.9146 97.6179 93.4936 97.6179Z" fill="#EBEFFF"/>
<path d="M96.7943 97.6179C97.3732 97.6179 97.8425 97.1486 97.8425 96.5697C97.8425 95.9908 97.3732 95.5215 96.7943 95.5215C96.2154 95.5215 95.7461 95.9908 95.7461 96.5697C95.7461 97.1486 96.2154 97.6179 96.7943 97.6179Z" fill="#EBEFFF"/>
<path d="M280.47 144.303L235.29 91.7451" stroke="#202F44" stroke-width="1.13011" stroke-miterlimit="10"/>
<path d="M278.185 144.639L233.005 92.0811" stroke="#202F44" stroke-width="1.13011" stroke-miterlimit="10"/>
<path d="M275.9 144.975L230.728 92.4248" stroke="#202F44" stroke-width="1.13011" stroke-miterlimit="10"/>
<path d="M273.623 145.319L228.443 92.7607" stroke="#202F44" stroke-width="1.13011" stroke-miterlimit="10"/>
<path d="M226.83 90.2542L164.068 16.3057L166.885 11.6133L230.81 86.9376" stroke="#202F44" stroke-width="1.13011" stroke-miterlimit="10"/>
<path d="M277.939 146.04L253.199 172.057" stroke="#202F44" stroke-width="3.93082" stroke-miterlimit="10"/>
<path d="M290.591 172.876L277.938 146.04" stroke="#202F44" stroke-width="3.93082" stroke-miterlimit="10"/>
<path d="M246.894 175.448V171.361L254.518 165.097L259.964 170.272L255.968 178.06L246.894 175.448Z" fill="#EBEFFF" stroke="#202F44" stroke-width="1.13011" stroke-miterlimit="10"/>
<path d="M160.113 27.0352L203.688 93.4824L240.179 166.465H227.109L179.726 96.7498L151.948 30.3026L160.113 27.0352Z" stroke="#202F44" stroke-width="2.94812" stroke-linejoin="bevel"/>
<path d="M154.053 35.3467L166.615 36.9436L162.291 55.0581L180.529 58.17L171.668 77.4802L195.244 81.2226L184.91 104.374H209.133L200.191 126.861H220.377L215.095 148.784L232.333 150.774L225.446 164.024" stroke="#202F44" stroke-width="2.94812" stroke-linejoin="bevel"/>
<path d="M157.271 43.0443L166.615 36.9434" stroke="#202F44" stroke-width="2.94812" stroke-linejoin="bevel"/>
<path d="M167.196 66.7922L180.528 58.1689" stroke="#202F44" stroke-width="2.94812" stroke-linejoin="bevel"/>
<path d="M178.358 93.4819L195.245 81.2227" stroke="#202F44" stroke-width="2.94812" stroke-linejoin="bevel"/>
<path d="M193.198 116.567L209.134 104.373" stroke="#202F44" stroke-width="2.94812" stroke-linejoin="bevel"/>
<path d="M208.085 138.473L220.377 126.86" stroke="#202F44" stroke-width="2.94812" stroke-linejoin="bevel"/>
<path d="M220.378 156.563L232.334 150.773" stroke="#202F44" stroke-width="2.94812" stroke-linejoin="bevel"/>
<path d="M148.967 42.4626L154.413 38.7939L166.394 29.5728L153.504 13.2354L144.611 16.683L141.163 22.8495L148.967 42.4626Z" fill="#EBEFFF" stroke="#202F44" stroke-width="1.13011" stroke-miterlimit="10"/>
<path d="M154.413 38.7935L144.611 16.6826L141.048 23.3896L148.967 42.4622L154.413 38.7935Z" fill="#202F44"/>
<path d="M140.074 119.319C141.811 119.319 143.219 117.911 143.219 116.174C143.219 114.437 141.811 113.029 140.074 113.029C138.338 113.029 136.93 114.437 136.93 116.174C136.93 117.911 138.338 119.319 140.074 119.319Z" fill="#202F44"/>
<path d="M135.587 21.3677L136.185 107.101L144.3 106.953L144.472 21.2285" stroke="#202F44" stroke-width="1.13011" stroke-miterlimit="10"/>
<path d="M140.025 118.467C141.762 118.467 143.17 117.059 143.17 115.322C143.17 113.586 141.762 112.178 140.025 112.178C138.288 112.178 136.88 113.586 136.88 115.322C136.88 117.059 138.288 118.467 140.025 118.467Z" fill="#202F44"/>
<path d="M139.124 115.354L138.723 118.343C138.532 119.622 137.907 120.796 136.954 121.668C136.113 122.4 135.453 123.318 135.027 124.348C134.601 125.378 134.419 126.493 134.497 127.605C134.52 128.716 134.847 129.8 135.441 130.738C136.035 131.677 136.875 132.435 137.869 132.931C138.864 133.427 139.974 133.641 141.082 133.552C142.189 133.462 143.251 133.071 144.152 132.421C144.908 131.833 145.517 131.076 145.931 130.212C146.345 129.348 146.551 128.4 146.535 127.442C146.535 127.442 144.701 130.627 141.507 130.038C140.882 129.971 140.288 129.727 139.798 129.332C139.308 128.938 138.942 128.411 138.743 127.815C138.545 127.218 138.522 126.577 138.678 125.967C138.834 125.358 139.162 124.807 139.623 124.379C140.655 123.468 141.29 122.189 141.392 120.817L142.391 113.446L139.124 115.354Z" fill="#202F44"/>
<path d="M133.482 106.102H146.495C146.729 106.102 146.954 106.195 147.12 106.361C147.286 106.527 147.379 106.752 147.379 106.986V110.082C147.378 110.759 147.111 111.41 146.634 111.892L141.942 115.757H138.199L133.638 111.597C133.397 111.382 133.2 111.122 133.06 110.831C132.919 110.54 132.837 110.224 132.819 109.902L132.721 106.872C132.717 106.77 132.735 106.669 132.772 106.575C132.808 106.481 132.864 106.395 132.936 106.323C133.007 106.251 133.092 106.194 133.186 106.156C133.28 106.118 133.381 106.099 133.482 106.102V106.102Z" fill="#202F44"/>
<path d="M145.183 79.0029H134.906C134.16 79.0029 133.555 79.6079 133.555 80.3542V99.6151C133.555 100.361 134.16 100.966 134.906 100.966H145.183C145.93 100.966 146.535 100.361 146.535 99.6151V80.3542C146.535 79.6079 145.93 79.0029 145.183 79.0029Z" fill="#EBEFFF"/>
<path d="M145.183 79.0029H134.906C134.16 79.0029 133.555 79.6079 133.555 80.3542V99.6151C133.555 100.361 134.16 100.966 134.906 100.966H145.183C145.93 100.966 146.535 100.361 146.535 99.6151V80.3542C146.535 79.6079 145.93 79.0029 145.183 79.0029Z" fill="#EBEFFF" stroke="#202F44" stroke-width="1.13011" stroke-miterlimit="10"/>
<path d="M126.422 89.6322L151.94 71.8125" stroke="#202F44" stroke-width="1.47406" stroke-miterlimit="10"/>
<path d="M126.422 89.6322L151.94 71.8125" stroke="#202F44" stroke-width="1.47406" stroke-miterlimit="10"/>
<path d="M126.422 92.9076L151.94 75.0879" stroke="#202F44" stroke-width="1.47406" stroke-miterlimit="10"/>
<path d="M126.422 96.1839L151.94 78.3643" stroke="#202F44" stroke-width="1.47406" stroke-miterlimit="10"/>
<path d="M126.422 99.4593L151.94 81.6396" stroke="#202F44" stroke-width="1.47406" stroke-miterlimit="10"/>
<path d="M126.422 102.735L151.94 84.915" stroke="#202F44" stroke-width="1.47406" stroke-miterlimit="10"/>
<path d="M126.422 106.011L151.94 88.1914" stroke="#202F44" stroke-width="1.47406" stroke-miterlimit="10"/>
<path d="M126.422 109.286L151.94 91.4668" stroke="#202F44" stroke-width="1.47406" stroke-miterlimit="10"/>
<path d="M126.422 112.563L151.94 94.7432" stroke="#202F44" stroke-width="1.47406" stroke-miterlimit="10"/>
<path d="M126.422 86.3568L151.94 68.5371" stroke="#202F44" stroke-width="1.47406" stroke-miterlimit="10"/>
<path d="M157.271 21.2282C162.581 21.2282 166.885 16.9239 166.885 11.6141C166.885 6.30439 162.581 2 157.271 2C151.961 2 147.657 6.30439 147.657 11.6141C147.657 16.9239 151.961 21.2282 157.271 21.2282Z" fill="#202F44"/>
<path d="M157.272 18.4115C161.026 18.4115 164.069 15.3683 164.069 11.6144C164.069 7.86051 161.026 4.81738 157.272 4.81738C153.518 4.81738 150.475 7.86051 150.475 11.6144C150.475 15.3683 153.518 18.4115 157.272 18.4115Z" fill="#EBEFFF" stroke="#202F44" stroke-width="1.13011" stroke-miterlimit="10"/>
<path d="M157.271 13.4405C158.28 13.4405 159.098 12.6229 159.098 11.6143C159.098 10.6057 158.28 9.78809 157.271 9.78809C156.263 9.78809 155.445 10.6057 155.445 11.6143C155.445 12.6229 156.263 13.4405 157.271 13.4405Z" fill="#202F44"/>
<path d="M140.05 24.39C143.803 24.39 146.847 21.3468 146.847 17.5929C146.847 13.839 143.803 10.7959 140.05 10.7959C136.296 10.7959 133.252 13.839 133.252 17.5929C133.252 21.3468 136.296 24.39 140.05 24.39Z" fill="#202F44"/>
<path d="M140.049 22.3993C142.704 22.3993 144.856 20.2471 144.856 17.5922C144.856 14.9373 142.704 12.7852 140.049 12.7852C137.394 12.7852 135.242 14.9373 135.242 17.5922C135.242 20.2471 137.394 22.3993 140.049 22.3993Z" fill="#EBEFFF" stroke="#202F44" stroke-width="1.13011" stroke-miterlimit="10"/>
<path d="M140.05 18.8857C140.764 18.8857 141.344 18.3064 141.344 17.5918C141.344 16.8772 140.764 16.2979 140.05 16.2979C139.335 16.2979 138.756 16.8772 138.756 17.5918C138.756 18.3064 139.335 18.8857 140.05 18.8857Z" fill="#202F44"/>
<path d="M207.193 198.05L206.644 197.288C205.584 195.838 205.01 194.089 205.006 192.293V180.697C204.999 178.881 205.573 177.11 206.644 175.644L212.622 167.553C213.801 165.958 215.338 164.662 217.108 163.769C218.879 162.875 220.835 162.41 222.818 162.41H239.033C240.024 162.409 240.994 162.691 241.831 163.222C242.668 163.752 243.336 164.511 243.758 165.407V165.407C244.086 166.101 244.257 166.859 244.257 167.627V175.447H280.2V174.964C280.197 173.896 280.506 172.851 281.088 171.955C281.669 171.059 282.499 170.352 283.476 169.92V169.92C284.173 169.617 284.926 169.461 285.687 169.461H308.682C309.458 169.461 310.223 169.641 310.918 169.985V169.985C311.746 170.4 312.443 171.037 312.931 171.825C313.418 172.613 313.677 173.522 313.677 174.448V191.646C313.679 191.95 313.62 192.252 313.503 192.533C313.386 192.814 313.214 193.07 312.998 193.283L303.22 203.061C303.038 203.246 302.822 203.393 302.582 203.493C302.343 203.593 302.087 203.644 301.828 203.643H210.51C210.098 203.642 209.698 203.512 209.363 203.273C209.029 203.034 208.777 202.697 208.642 202.308L207.193 198.05Z" fill="#EBEFFF" stroke="#202F44" stroke-width="1.13011" stroke-miterlimit="10"/>
<path d="M206.048 189.858L204.074 189.826L204.012 193.707L205.985 193.739L206.048 189.858Z" fill="white" stroke="#202F44" stroke-width="0.982705" stroke-miterlimit="10"/>
<path d="M210.14 184.578L225.061 181.688C225.418 181.617 225.74 181.426 225.971 181.145C226.203 180.864 226.33 180.512 226.331 180.148V166.636C226.331 166.219 226.165 165.819 225.87 165.524C225.575 165.229 225.175 165.063 224.758 165.063H221.016C220.054 165.067 219.128 165.429 218.42 166.079L216.405 167.93C213.956 170.188 211.836 172.779 210.108 175.628C208.785 177.805 208.086 180.303 208.085 182.85C208.079 183.108 208.131 183.364 208.237 183.599C208.343 183.834 208.5 184.042 208.698 184.208C208.895 184.374 209.127 184.494 209.377 184.558C209.627 184.622 209.888 184.629 210.14 184.578V184.578Z" fill="#202F44"/>
<path d="M230.139 166.227V179.534C230.14 179.699 230.177 179.862 230.248 180.011C230.318 180.16 230.421 180.292 230.549 180.397C230.676 180.502 230.825 180.577 230.985 180.618C231.145 180.658 231.312 180.663 231.474 180.632L239.033 179.166C239.289 179.116 239.52 178.979 239.686 178.777C239.852 178.575 239.943 178.322 239.942 178.06V166.227C239.943 166.079 239.914 165.932 239.859 165.795C239.803 165.658 239.72 165.533 239.616 165.428C239.512 165.323 239.388 165.24 239.251 165.183C239.114 165.126 238.968 165.097 238.82 165.097H231.261C231.113 165.097 230.967 165.126 230.83 165.183C230.693 165.24 230.569 165.323 230.465 165.428C230.361 165.533 230.278 165.658 230.222 165.795C230.166 165.932 230.138 166.079 230.139 166.227V166.227Z" fill="#202F44"/>
<path d="M280.74 175.447H243.684V198.049H280.74V175.447Z" fill="#202F44"/>
<path d="M280.134 180.655H314.357" stroke="#202F44" stroke-width="3.93082" stroke-miterlimit="10"/>
<path d="M303.768 202.3H208.642V213.634H303.768V202.3Z" fill="#EBEFFF" stroke="#202F44" stroke-width="1.13011" stroke-miterlimit="10"/>
<path d="M296.283 188.534H311.253" stroke="#202F44" stroke-width="3.93082" stroke-miterlimit="10"/>
<path d="M303.768 202.3H208.642V206.042H303.768V202.3Z" fill="#202F44"/>
<path d="M209.592 211.676L252.839 206.205C258.563 205.493 264.354 205.493 270.078 206.205L314.75 211.733C316.766 212.126 318.584 213.208 319.891 214.792C321.198 216.377 321.914 218.367 321.915 220.422V220.422C321.915 222.772 320.982 225.025 319.32 226.687C317.659 228.349 315.405 229.282 313.055 229.282H211.337C210.17 229.284 209.015 229.055 207.937 228.609C206.859 228.163 205.879 227.51 205.054 226.685C204.229 225.861 203.574 224.882 203.128 223.804C202.681 222.727 202.451 221.572 202.451 220.405V220.405C202.446 218.348 203.155 216.353 204.457 214.761C205.76 213.168 207.575 212.078 209.592 211.676V211.676Z" fill="#202F44"/>
<path d="M209.592 211.676L252.839 206.205C258.563 205.493 264.354 205.493 270.078 206.205L314.75 211.733C316.766 212.126 318.584 213.208 319.891 214.792C321.198 216.377 321.914 218.367 321.915 220.422V220.422C321.915 222.772 320.982 225.025 319.32 226.687C317.659 228.349 315.405 229.282 313.055 229.282H211.337C210.17 229.284 209.015 229.055 207.937 228.609C206.859 228.163 205.879 227.51 205.054 226.685C204.229 225.861 203.574 224.882 203.128 223.804C202.681 222.727 202.451 221.572 202.451 220.405V220.405C202.446 218.348 203.155 216.353 204.457 214.761C205.76 213.168 207.575 212.078 209.592 211.676V211.676Z" stroke="#202F44" stroke-width="2.94812" stroke-linejoin="bevel" stroke-dasharray="1.98 0.98"/>
<path d="M312.359 216.804H211.599V221.324H312.359V216.804Z" fill="#EBEFFF" stroke="#202F44" stroke-width="1.13011" stroke-miterlimit="10"/>
<path d="M226.773 226.081C227.75 226.081 228.542 225.289 228.542 224.312C228.542 223.335 227.75 222.543 226.773 222.543C225.796 222.543 225.004 223.335 225.004 224.312C225.004 225.289 225.796 226.081 226.773 226.081Z" fill="#EBEFFF" stroke="#202F44" stroke-width="1.13011" stroke-miterlimit="10"/>
<path d="M218.911 226.081C219.888 226.081 220.68 225.289 220.68 224.312C220.68 223.335 219.888 222.543 218.911 222.543C217.935 222.543 217.143 223.335 217.143 224.312C217.143 225.289 217.935 226.081 218.911 226.081Z" fill="#EBEFFF" stroke="#202F44" stroke-width="1.13011" stroke-miterlimit="10"/>
<path d="M234.643 226.081C235.62 226.081 236.412 225.289 236.412 224.312C236.412 223.335 235.62 222.543 234.643 222.543C233.666 222.543 232.875 223.335 232.875 224.312C232.875 225.289 233.666 226.081 234.643 226.081Z" fill="#EBEFFF" stroke="#202F44" stroke-width="1.13011" stroke-miterlimit="10"/>
<path d="M242.513 226.081C243.49 226.081 244.282 225.289 244.282 224.312C244.282 223.335 243.49 222.543 242.513 222.543C241.536 222.543 240.744 223.335 240.744 224.312C240.744 225.289 241.536 226.081 242.513 226.081Z" fill="#EBEFFF" stroke="#202F44" stroke-width="1.13011" stroke-miterlimit="10"/>
<path d="M250.383 226.081C251.36 226.081 252.152 225.289 252.152 224.312C252.152 223.335 251.36 222.543 250.383 222.543C249.406 222.543 248.614 223.335 248.614 224.312C248.614 225.289 249.406 226.081 250.383 226.081Z" fill="#EBEFFF" stroke="#202F44" stroke-width="1.13011" stroke-miterlimit="10"/>
<path d="M258.244 226.081C259.221 226.081 260.013 225.289 260.013 224.312C260.013 223.335 259.221 222.543 258.244 222.543C257.267 222.543 256.475 223.335 256.475 224.312C256.475 225.289 257.267 226.081 258.244 226.081Z" fill="#EBEFFF" stroke="#202F44" stroke-width="1.13011" stroke-miterlimit="10"/>
<path d="M266.114 226.081C267.09 226.081 267.882 225.289 267.882 224.312C267.882 223.335 267.09 222.543 266.114 222.543C265.137 222.543 264.345 223.335 264.345 224.312C264.345 225.289 265.137 226.081 266.114 226.081Z" fill="#EBEFFF" stroke="#202F44" stroke-width="1.13011" stroke-miterlimit="10"/>
<path d="M273.984 226.081C274.961 226.081 275.753 225.289 275.753 224.312C275.753 223.335 274.961 222.543 273.984 222.543C273.007 222.543 272.215 223.335 272.215 224.312C272.215 225.289 273.007 226.081 273.984 226.081Z" fill="#EBEFFF" stroke="#202F44" stroke-width="1.13011" stroke-miterlimit="10"/>
<path d="M281.854 226.081C282.831 226.081 283.623 225.289 283.623 224.312C283.623 223.335 282.831 222.543 281.854 222.543C280.877 222.543 280.085 223.335 280.085 224.312C280.085 225.289 280.877 226.081 281.854 226.081Z" fill="#EBEFFF" stroke="#202F44" stroke-width="1.13011" stroke-miterlimit="10"/>
<path d="M289.715 226.081C290.692 226.081 291.484 225.289 291.484 224.312C291.484 223.335 290.692 222.543 289.715 222.543C288.738 222.543 287.946 223.335 287.946 224.312C287.946 225.289 288.738 226.081 289.715 226.081Z" fill="#EBEFFF" stroke="#202F44" stroke-width="1.13011" stroke-miterlimit="10"/>
<path d="M297.585 226.081C298.562 226.081 299.354 225.289 299.354 224.312C299.354 223.335 298.562 222.543 297.585 222.543C296.608 222.543 295.816 223.335 295.816 224.312C295.816 225.289 296.608 226.081 297.585 226.081Z" fill="#EBEFFF" stroke="#202F44" stroke-width="1.13011" stroke-miterlimit="10"/>
<path d="M305.454 226.081C306.431 226.081 307.223 225.289 307.223 224.312C307.223 223.335 306.431 222.543 305.454 222.543C304.478 222.543 303.686 223.335 303.686 224.312C303.686 225.289 304.478 226.081 305.454 226.081Z" fill="#EBEFFF" stroke="#202F44" stroke-width="1.13011" stroke-miterlimit="10"/>
<path d="M211.599 226.679C214.9 226.679 217.577 224.002 217.577 220.701C217.577 217.399 214.9 214.723 211.599 214.723C208.297 214.723 205.621 217.399 205.621 220.701C205.621 224.002 208.297 226.679 211.599 226.679Z" fill="#EBEFFF" stroke="#202F44" stroke-width="1.13011" stroke-miterlimit="10"/>
<path d="M211.599 215.951C211.761 215.951 211.919 215.999 212.054 216.089C212.188 216.179 212.293 216.307 212.355 216.457C212.417 216.606 212.434 216.771 212.402 216.93C212.37 217.089 212.292 217.235 212.178 217.349C212.063 217.464 211.917 217.542 211.758 217.573C211.6 217.605 211.435 217.589 211.285 217.527C211.136 217.465 211.008 217.36 210.918 217.225C210.828 217.09 210.78 216.932 210.78 216.77C210.78 216.553 210.866 216.345 211.02 216.191C211.173 216.037 211.382 215.951 211.599 215.951Z" fill="#202F44"/>
<path d="M211.599 224.157C211.761 224.157 211.919 224.205 212.054 224.295C212.188 224.385 212.293 224.513 212.355 224.663C212.417 224.812 212.434 224.977 212.402 225.136C212.37 225.295 212.292 225.441 212.178 225.555C212.063 225.67 211.917 225.748 211.758 225.779C211.6 225.811 211.435 225.795 211.285 225.733C211.136 225.671 211.008 225.566 210.918 225.431C210.828 225.296 210.78 225.138 210.78 224.976C210.78 224.759 210.866 224.551 211.02 224.397C211.173 224.244 211.382 224.157 211.599 224.157Z" fill="#202F44"/>
<path d="M207.495 221.651C207.939 221.651 208.298 221.292 208.298 220.848C208.298 220.405 207.939 220.046 207.495 220.046C207.052 220.046 206.693 220.405 206.693 220.848C206.693 221.292 207.052 221.651 207.495 221.651Z" fill="#202F44"/>
<path d="M215.702 221.651C216.145 221.651 216.504 221.292 216.504 220.848C216.504 220.405 216.145 220.046 215.702 220.046C215.259 220.046 214.899 220.405 214.899 220.848C214.899 221.292 215.259 221.651 215.702 221.651Z" fill="#202F44"/>
<path d="M208.7 218.753C209.143 218.753 209.502 218.393 209.502 217.95C209.502 217.507 209.143 217.147 208.7 217.147C208.257 217.147 207.897 217.507 207.897 217.95C207.897 218.393 208.257 218.753 208.7 218.753Z" fill="#202F44"/>
<path d="M214.506 224.557C214.949 224.557 215.308 224.198 215.308 223.755C215.308 223.311 214.949 222.952 214.506 222.952C214.063 222.952 213.703 223.311 213.703 223.755C213.703 224.198 214.063 224.557 214.506 224.557Z" fill="#202F44"/>
<path d="M208.7 224.557C209.143 224.557 209.502 224.198 209.502 223.755C209.502 223.311 209.143 222.952 208.7 222.952C208.257 222.952 207.897 223.311 207.897 223.755C207.897 224.198 208.257 224.557 208.7 224.557Z" fill="#202F44"/>
<path d="M214.506 218.753C214.949 218.753 215.308 218.393 215.308 217.95C215.308 217.507 214.949 217.147 214.506 217.147C214.063 217.147 213.703 217.507 213.703 217.95C213.703 218.393 214.063 218.753 214.506 218.753Z" fill="#202F44"/>
<path d="M211.671 222.973C212.919 222.926 213.892 221.877 213.845 220.629C213.798 219.382 212.749 218.408 211.502 218.455C210.254 218.502 209.281 219.551 209.328 220.799C209.375 222.046 210.424 223.019 211.671 222.973Z" fill="#202F44"/>
<path d="M312.359 226.679C315.66 226.679 318.337 224.002 318.337 220.701C318.337 217.399 315.66 214.723 312.359 214.723C309.057 214.723 306.38 217.399 306.38 220.701C306.38 224.002 309.057 226.679 312.359 226.679Z" fill="#EBEFFF" stroke="#202F44" stroke-width="1.13011" stroke-miterlimit="10"/>
<path d="M312.359 215.951C312.521 215.951 312.679 215.999 312.814 216.089C312.949 216.179 313.054 216.307 313.115 216.457C313.177 216.606 313.194 216.771 313.162 216.93C313.13 217.089 313.052 217.235 312.938 217.349C312.823 217.464 312.678 217.542 312.519 217.573C312.36 217.605 312.195 217.589 312.046 217.527C311.896 217.465 311.768 217.36 311.678 217.225C311.588 217.09 311.54 216.932 311.54 216.77C311.54 216.553 311.626 216.345 311.78 216.191C311.933 216.037 312.142 215.951 312.359 215.951Z" fill="#202F44"/>
<path d="M312.359 224.157C312.521 224.157 312.679 224.205 312.814 224.295C312.949 224.385 313.053 224.513 313.115 224.663C313.177 224.812 313.194 224.977 313.162 225.136C313.13 225.295 313.052 225.441 312.938 225.555C312.823 225.67 312.678 225.748 312.519 225.779C312.36 225.811 312.195 225.795 312.046 225.733C311.896 225.671 311.768 225.566 311.678 225.431C311.588 225.296 311.54 225.138 311.54 224.976C311.54 224.759 311.626 224.551 311.78 224.397C311.933 224.244 312.142 224.157 312.359 224.157Z" fill="#202F44"/>
<path d="M308.256 221.651C308.699 221.651 309.059 221.292 309.059 220.848C309.059 220.405 308.699 220.046 308.256 220.046C307.813 220.046 307.454 220.405 307.454 220.848C307.454 221.292 307.813 221.651 308.256 221.651Z" fill="#202F44"/>
<path d="M316.462 221.651C316.905 221.651 317.264 221.292 317.264 220.848C317.264 220.405 316.905 220.046 316.462 220.046C316.019 220.046 315.659 220.405 315.659 220.848C315.659 221.292 316.019 221.651 316.462 221.651Z" fill="#202F44"/>
<path d="M309.46 218.753C309.903 218.753 310.262 218.393 310.262 217.95C310.262 217.507 309.903 217.147 309.46 217.147C309.017 217.147 308.657 217.507 308.657 217.95C308.657 218.393 309.017 218.753 309.46 218.753Z" fill="#202F44"/>
<path d="M315.265 224.557C315.709 224.557 316.068 224.198 316.068 223.755C316.068 223.311 315.709 222.952 315.265 222.952C314.822 222.952 314.463 223.311 314.463 223.755C314.463 224.198 314.822 224.557 315.265 224.557Z" fill="#202F44"/>
<path d="M309.46 224.557C309.903 224.557 310.262 224.198 310.262 223.755C310.262 223.311 309.903 222.952 309.46 222.952C309.017 222.952 308.657 223.311 308.657 223.755C308.657 224.198 309.017 224.557 309.46 224.557Z" fill="#202F44"/>
<path d="M315.265 218.753C315.709 218.753 316.068 218.393 316.068 217.95C316.068 217.507 315.709 217.147 315.265 217.147C314.822 217.147 314.463 217.507 314.463 217.95C314.463 218.393 314.822 218.753 315.265 218.753Z" fill="#202F44"/>
<path d="M312.435 222.975C313.682 222.929 314.656 221.879 314.609 220.632C314.562 219.385 313.513 218.411 312.265 218.458C311.018 218.505 310.045 219.554 310.092 220.802C310.138 222.049 311.188 223.022 312.435 222.975Z" fill="#202F44"/>
<path d="M262.175 219.611C265.477 219.611 268.153 216.935 268.153 213.633C268.153 210.332 265.477 207.655 262.175 207.655C258.873 207.655 256.197 210.332 256.197 213.633C256.197 216.935 258.873 219.611 262.175 219.611Z" fill="#EBEFFF" stroke="#202F44" stroke-width="1.13011" stroke-miterlimit="10"/>
<path d="M262.175 208.884C262.337 208.884 262.495 208.932 262.63 209.022C262.764 209.112 262.869 209.24 262.931 209.389C262.993 209.539 263.01 209.704 262.978 209.862C262.947 210.021 262.869 210.167 262.754 210.282C262.639 210.396 262.493 210.474 262.335 210.506C262.176 210.537 262.011 210.521 261.861 210.459C261.712 210.397 261.584 210.292 261.494 210.158C261.404 210.023 261.356 209.865 261.356 209.703C261.356 209.486 261.442 209.277 261.596 209.124C261.749 208.97 261.958 208.884 262.175 208.884Z" fill="#202F44"/>
<path d="M262.175 217.09C262.337 217.09 262.495 217.138 262.63 217.228C262.764 217.318 262.869 217.446 262.931 217.595C262.993 217.745 263.01 217.91 262.978 218.069C262.947 218.227 262.869 218.373 262.754 218.488C262.639 218.602 262.493 218.68 262.335 218.712C262.176 218.744 262.011 218.727 261.861 218.665C261.712 218.603 261.584 218.498 261.494 218.364C261.404 218.229 261.356 218.071 261.356 217.909C261.356 217.692 261.442 217.483 261.596 217.33C261.749 217.176 261.958 217.09 262.175 217.09Z" fill="#202F44"/>
<path d="M258.072 214.584C258.515 214.584 258.875 214.224 258.875 213.781C258.875 213.338 258.515 212.979 258.072 212.979C257.629 212.979 257.27 213.338 257.27 213.781C257.27 214.224 257.629 214.584 258.072 214.584Z" fill="#202F44"/>
<path d="M266.278 214.584C266.721 214.584 267.081 214.224 267.081 213.781C267.081 213.338 266.721 212.979 266.278 212.979C265.835 212.979 265.476 213.338 265.476 213.781C265.476 214.224 265.835 214.584 266.278 214.584Z" fill="#202F44"/>
<path d="M259.276 211.685C259.719 211.685 260.078 211.326 260.078 210.883C260.078 210.439 259.719 210.08 259.276 210.08C258.832 210.08 258.473 210.439 258.473 210.883C258.473 211.326 258.832 211.685 259.276 211.685Z" fill="#202F44"/>
<path d="M265.083 217.491C265.526 217.491 265.885 217.132 265.885 216.688C265.885 216.245 265.526 215.886 265.083 215.886C264.64 215.886 264.28 216.245 264.28 216.688C264.28 217.132 264.64 217.491 265.083 217.491Z" fill="#202F44"/>
<path d="M259.276 217.491C259.719 217.491 260.078 217.132 260.078 216.688C260.078 216.245 259.719 215.886 259.276 215.886C258.832 215.886 258.473 216.245 258.473 216.688C258.473 217.132 258.832 217.491 259.276 217.491Z" fill="#202F44"/>
<path d="M265.083 211.685C265.526 211.685 265.885 211.326 265.885 210.883C265.885 210.439 265.526 210.08 265.083 210.08C264.64 210.08 264.28 210.439 264.28 210.883C264.28 211.326 264.64 211.685 265.083 211.685Z" fill="#202F44"/>
<path d="M262.251 215.904C263.498 215.857 264.472 214.808 264.425 213.561C264.378 212.313 263.329 211.34 262.081 211.387C260.834 211.434 259.861 212.483 259.908 213.73C259.954 214.978 261.004 215.951 262.251 215.904Z" fill="#202F44"/>
<path d="M267.727 177.339L212.794 113.176L211.189 106.944L271.036 176.02L267.727 177.339Z" fill="#202F44"/>
<path d="M278.3 152.141C281.669 152.141 284.401 149.41 284.401 146.04C284.401 142.671 281.669 139.939 278.3 139.939C274.93 139.939 272.199 142.671 272.199 146.04C272.199 149.41 274.93 152.141 278.3 152.141Z" fill="#202F44"/>
<path d="M278.3 150.355C280.684 150.355 282.616 148.423 282.616 146.039C282.616 143.656 280.684 141.724 278.3 141.724C275.917 141.724 273.984 143.656 273.984 146.039C273.984 148.423 275.917 150.355 278.3 150.355Z" fill="#EBEFFF" stroke="#202F44" stroke-width="1.13011" stroke-miterlimit="10"/>
<path d="M278.3 147.195C278.938 147.195 279.455 146.678 279.455 146.04C279.455 145.403 278.938 144.886 278.3 144.886C277.662 144.886 277.146 145.403 277.146 146.04C277.146 146.678 277.662 147.195 278.3 147.195Z" fill="#202F44"/>
<path d="M230.803 86.8837L226.822 90.2033C226.242 90.687 226.164 91.5494 226.647 92.1295L231.928 98.4633C232.412 99.0434 233.274 99.1216 233.854 98.6379L237.836 95.3184C238.416 94.8347 238.494 93.9723 238.01 93.3922L232.73 87.0583C232.246 86.4782 231.383 86.4001 230.803 86.8837Z" fill="#EBEFFF" stroke="#202F44" stroke-width="1.13011" stroke-miterlimit="10"/>
<path d="M214.383 108.124L215.644 107.223L215.693 107.166C216.071 106.727 216.291 106.175 216.318 105.596C216.345 105.018 216.177 104.447 215.841 103.976C215.505 103.504 215.021 103.158 214.465 102.995C213.91 102.831 213.316 102.858 212.778 103.071L209.83 105.16L209.756 106.061L215.537 117.706L217.175 117.042L214.383 108.124Z" fill="#EBEFFF" stroke="#202F44" stroke-width="1.13011" stroke-miterlimit="10"/>
</svg>
