<svg width="370" height="250" viewBox="0 0 370 250" fill="none" xmlns="http://www.w3.org/2000/svg">
<path d="M158.046 224.506L249.712 224.381C249.712 224.381 264.346 148.673 244.512 122.839C231.512 105.906 209.812 107.006 209.812 107.006L194.104 105.589C194.104 105.589 178.271 98.9225 166.379 108.823C163.046 111.556 158.762 118.948 157.262 130.489C156.312 137.831 157.762 145.289 158.929 152.598C159.571 156.614 160.529 163.673 161.687 175.523C162.004 178.748 160.579 199.964 161.946 211.781L158.046 224.506Z" fill="#EBEFFF" stroke="#202F44" stroke-miterlimit="10"/>
<path d="M172.412 47.3817C172.412 47.3817 160.345 37.79 166.437 25.34C170.845 16.2984 185.104 12.7234 191.87 19.2234C198.637 25.7234 205.895 31.2733 205.895 31.2733C205.895 31.2733 204.229 24.4984 211.962 31.365C219.695 38.2317 229.345 38.3567 230.054 46.365C230.762 54.3733 225.179 77.4067 217.554 82.2733C212.99 85.1922 208.15 87.6541 203.104 89.6233L172.412 47.3817Z" fill="#202F44"/>
<path d="M134.187 170.24C134.187 170.24 144.729 145.807 147.521 123.657C150.571 99.4903 151.504 85.8486 151.504 85.8486L130.162 89.182C130.162 89.182 121.829 108.307 111.254 138.099C103.412 160.19 103.604 181.199 111.254 191.615C113.458 194.557 116.633 196.621 120.216 197.442C123.798 198.263 127.556 197.787 130.821 196.099C130.821 196.099 149.437 186.749 166.379 157.007C183.321 127.265 188.996 104.299 188.996 104.299C188.996 104.299 180.279 102.632 176.404 103.382C173.405 104.126 170.498 105.202 167.737 106.59C161.329 109.09 152.429 120.057 147.179 127.032" fill="#EBEFFF"/>
<path d="M134.187 170.24C134.187 170.24 144.729 145.807 147.521 123.657C150.571 99.4903 151.504 85.8486 151.504 85.8486L130.162 89.182C130.162 89.182 121.829 108.307 111.254 138.099C103.412 160.19 103.604 181.199 111.254 191.615C113.458 194.557 116.633 196.621 120.216 197.442C123.798 198.263 127.556 197.787 130.821 196.099C130.821 196.099 149.437 186.749 166.379 157.007C183.321 127.265 188.996 104.299 188.996 104.299C188.996 104.299 180.279 102.632 176.404 103.382C173.405 104.126 170.498 105.202 167.737 106.59C161.329 109.09 152.429 120.057 147.179 127.032" stroke="#202F44" stroke-miterlimit="10"/>
<path d="M184.954 83.5645L184.12 108.706C184.071 110.08 184.368 111.444 184.984 112.673C185.6 113.902 186.515 114.957 187.646 115.74C189.457 117.065 191.519 118.009 193.707 118.513C195.894 119.017 198.161 119.072 200.37 118.673C212.412 116.256 209.812 107.006 209.812 107.006L207.271 76.2979L184.954 83.5645Z" fill="white" stroke="#202F44" stroke-miterlimit="10"/>
<path d="M172.521 90.9488C180.121 102.991 196.896 93.9155 206.746 82.3322C206.746 82.3322 212.846 84.8322 216.804 80.9905C220.762 77.1488 219.479 70.5238 216.762 68.1155C214.046 65.7071 211.637 65.9822 211.637 65.9822L212.746 59.0072C212.746 59.0072 202.246 57.1155 195.921 48.8738C193.36 45.6389 191.027 42.2308 188.937 38.6738C188.937 38.6738 180.487 49.1905 171.679 46.9238C171.637 46.9322 164.92 78.8988 172.521 90.9488Z" fill="white" stroke="#202F44" stroke-miterlimit="10"/>
<path d="M193.5 64.3465C193.602 63.0895 193.145 62.027 192.48 61.9732C191.815 61.9195 191.193 62.8949 191.092 64.1518C190.99 65.4088 191.447 66.4713 192.112 66.5251C192.777 66.5788 193.399 65.6034 193.5 64.3465Z" fill="#202F44" stroke="#202F44" stroke-miterlimit="10"/>
<path d="M176.577 60.9256C176.678 59.6646 176.219 58.599 175.551 58.5456C174.884 58.4922 174.261 59.4712 174.16 60.7323C174.059 61.9933 174.519 63.0589 175.186 63.1123C175.853 63.1657 176.476 62.1867 176.577 60.9256Z" fill="#202F44" stroke="#202F44" stroke-width="1.00319" stroke-miterlimit="10"/>
<path d="M185.279 79.5068C185.279 79.5068 187.604 80.2651 189.279 79.0151C189.998 78.4633 190.568 77.7404 190.936 76.9122C191.304 76.0841 191.46 75.1769 191.388 74.2734" stroke="#202F44" stroke-miterlimit="10"/>
<path d="M207.521 75.0977C207.879 75.4889 208.318 75.7984 208.807 76.0055C209.296 76.2125 209.823 76.3121 210.354 76.2977C211.041 76.2053 211.695 75.9427 212.255 75.5338C212.815 75.1249 213.265 74.5826 213.562 73.9561" stroke="#202F44" stroke-miterlimit="10"/>
<path d="M130.171 89.19L133.246 66.2234L162.813 65.915L151.513 85.8484L130.171 89.19Z" fill="white" stroke="#202F44" stroke-miterlimit="10"/>
<path d="M179.962 71.8483C179.962 71.8483 176.779 71.4984 177.071 69.0484C177.362 66.5984 180.287 67.84 180.287 67.84" stroke="#202F44" stroke-miterlimit="10"/>
<path d="M190.92 53.9149C192.065 53.7501 193.233 53.9544 194.254 54.4982C195.862 55.4065 196.12 56.1649 196.12 56.1649" stroke="#202F44" stroke-miterlimit="10"/>
<path d="M177.545 52.349C176.391 52.2085 175.221 52.4453 174.212 53.024C172.629 53.974 172.396 54.6907 172.396 54.6907" stroke="#202F44" stroke-miterlimit="10"/>
<path d="M162.754 57.0485L132.812 60.0735L136.654 82.6901L165.912 75.6651C171.171 74.4068 174.604 69.6485 173.771 64.7568C172.946 59.8651 168.104 56.5068 162.754 57.0485Z" fill="#202F44"/>
<path d="M172.02 60.6238L162.021 61.3654L163.804 71.8321L173.462 69.2321C175.204 68.7738 176.245 66.6571 175.862 64.3987C175.495 62.1404 173.812 60.4904 172.02 60.6238Z" fill="#202F44"/>
<path d="M136.068 82.6762C138.641 82.2396 139.879 76.8868 138.832 70.7203C137.786 64.5538 134.852 59.9088 132.279 60.3453C129.707 60.7819 128.469 66.1347 129.516 72.3011C130.562 78.4676 133.496 83.1127 136.068 82.6762Z" fill="white" stroke="#202F44" stroke-miterlimit="10"/>
<path d="M56.1543 224.498H322.013" stroke="#202F44" stroke-miterlimit="10"/>
<path d="M135.504 55.9148C135.933 55.1146 136.658 54.5144 137.524 54.2433C138.391 53.9721 139.329 54.0517 140.137 54.4648C140.137 54.4648 140.546 52.9398 142.812 52.7314C145.079 52.5231 145.995 53.7731 145.995 53.7731C145.995 53.7731 146.504 52.2231 149.329 53.4231C152.154 54.6231 156.929 59.7648 155.162 60.7564C153.395 61.7481 150.637 59.0064 150.637 59.0064C150.637 59.0064 154.087 62.3814 152.212 63.0814C150.337 63.7814 145.004 59.6564 145.004 59.6564C145.004 59.6564 148.337 62.4564 147.095 63.5148C145.854 64.5731 141.679 61.5564 141.154 61.1981C141.379 61.4898 142.545 63.1064 141.054 63.4898C138.554 64.1231 133.637 60.2231 133.637 60.2231C134.156 58.7443 134.78 57.3046 135.504 55.9148V55.9148Z" fill="white" stroke="#202F44" stroke-miterlimit="10"/>
<path d="M266.187 215.14L265.971 162.407C265.971 162.407 258.671 165.248 248.471 159.782C238.779 154.59 234.504 135.74 244.087 133.34C251.471 131.498 250.754 146.59 256.987 151.482C258.214 152.505 259.669 153.219 261.23 153.561C262.791 153.903 264.411 153.865 265.954 153.448V120.065C265.954 117.34 267.036 114.726 268.963 112.8C270.89 110.873 273.504 109.79 276.229 109.79V109.79C277.578 109.79 278.914 110.056 280.161 110.572C281.408 111.089 282.54 111.845 283.494 112.8C284.449 113.754 285.205 114.886 285.722 116.133C286.238 117.38 286.504 118.716 286.504 120.065V167.107H291.504C292.659 167.095 293.8 166.852 294.859 166.392C295.918 165.931 296.874 165.262 297.67 164.425C298.466 163.588 299.085 162.6 299.492 161.519C299.899 160.438 300.084 159.286 300.037 158.132C299.821 152.015 300.371 144.498 304.404 143.132C314.796 139.607 314.604 161.065 309.821 167.907C302.046 179.04 286.487 174.523 286.487 174.523V216.448L266.187 215.14Z" fill="white" stroke="#202F44" stroke-miterlimit="10"/>
<path d="M272.271 110.998C272.271 113.615 270.487 113.615 270.487 116.231C270.487 118.848 272.271 118.848 272.271 121.465C272.271 124.081 270.487 124.081 270.487 126.698C270.487 129.315 272.271 129.315 272.271 131.931C272.271 134.548 270.487 134.556 270.487 137.173C270.487 139.79 272.271 139.79 272.271 142.406C272.271 145.023 270.487 145.023 270.487 147.64C270.487 150.256 272.271 150.256 272.271 152.84C272.271 155.423 270.487 155.456 270.487 158.073C270.487 160.69 272.271 160.69 272.271 163.306C272.271 165.923 270.487 165.923 270.487 168.54C270.487 171.156 272.271 171.173 272.271 173.815C272.271 176.456 270.487 176.431 270.487 179.048C270.487 181.665 272.271 181.665 272.271 184.29C272.271 186.915 270.487 186.906 270.487 189.531C270.487 192.156 272.271 192.148 272.271 194.773" fill="white"/>
<path d="M272.271 110.998C272.271 113.615 270.487 113.615 270.487 116.231C270.487 118.848 272.271 118.848 272.271 121.465C272.271 124.081 270.487 124.081 270.487 126.698C270.487 129.315 272.271 129.315 272.271 131.931C272.271 134.548 270.487 134.556 270.487 137.173C270.487 139.79 272.271 139.79 272.271 142.406C272.271 145.023 270.487 145.023 270.487 147.64C270.487 150.256 272.271 150.256 272.271 152.84C272.271 155.423 270.487 155.456 270.487 158.073C270.487 160.69 272.271 160.69 272.271 163.306C272.271 165.923 270.487 165.923 270.487 168.54C270.487 171.156 272.271 171.173 272.271 173.815C272.271 176.456 270.487 176.431 270.487 179.048C270.487 181.665 272.271 181.665 272.271 184.29C272.271 186.915 270.487 186.906 270.487 189.531C270.487 192.156 272.271 192.148 272.271 194.773" stroke="#202F44" stroke-miterlimit="10"/>
<path d="M281.021 110.998C281.021 113.615 279.229 113.615 279.229 116.231C279.229 118.848 281.021 118.848 281.021 121.465C281.021 124.081 279.229 124.081 279.229 126.698C279.229 129.315 281.021 129.315 281.021 131.931C281.021 134.548 279.229 134.556 279.229 137.173C279.229 139.79 281.021 139.79 281.021 142.406C281.021 145.023 279.229 145.023 279.229 147.64C279.229 150.256 281.021 150.256 281.021 152.873C281.021 155.49 279.229 155.49 279.229 158.106C279.229 160.723 281.021 160.723 281.021 163.34C281.021 165.956 279.229 165.956 279.229 168.573C279.229 171.19 281.021 171.198 281.021 173.815C281.021 176.431 279.229 176.431 279.229 179.048C279.229 181.665 281.021 181.665 281.021 184.29C281.021 186.915 279.229 186.906 279.229 189.531C279.229 192.156 281.021 192.148 281.021 194.773" fill="white"/>
<path d="M281.021 110.998C281.021 113.615 279.229 113.615 279.229 116.231C279.229 118.848 281.021 118.848 281.021 121.465C281.021 124.081 279.229 124.081 279.229 126.698C279.229 129.315 281.021 129.315 281.021 131.931C281.021 134.548 279.229 134.556 279.229 137.173C279.229 139.79 281.021 139.79 281.021 142.406C281.021 145.023 279.229 145.023 279.229 147.64C279.229 150.256 281.021 150.256 281.021 152.873C281.021 155.49 279.229 155.49 279.229 158.106C279.229 160.723 281.021 160.723 281.021 163.34C281.021 165.956 279.229 165.956 279.229 168.573C279.229 171.19 281.021 171.198 281.021 173.815C281.021 176.431 279.229 176.431 279.229 179.048C279.229 181.665 281.021 181.665 281.021 184.29C281.021 186.915 279.229 186.906 279.229 189.531C279.229 192.156 281.021 192.148 281.021 194.773" stroke="#202F44" stroke-miterlimit="10"/>
<path d="M250.179 189.623H301.629C302.705 189.623 303.77 189.835 304.764 190.247C305.758 190.658 306.661 191.262 307.421 192.022C308.182 192.783 308.785 193.686 309.197 194.68C309.609 195.674 309.821 196.739 309.821 197.815V223.531C309.821 226.148 308.781 228.658 306.931 230.508C305.08 232.358 302.571 233.398 299.954 233.398H251.862C249.246 233.398 246.736 232.358 244.886 230.508C243.035 228.658 241.996 226.148 241.996 223.531V197.84C241.992 196.763 242.202 195.695 242.611 194.699C243.021 193.703 243.623 192.797 244.383 192.034C245.143 191.271 246.046 190.665 247.041 190.251C248.035 189.838 249.102 189.624 250.179 189.623V189.623Z" fill="#202F44"/>
<path d="M306.729 142.698L305.196 160.898C305.074 162.404 304.641 163.869 303.924 165.198C303.207 166.528 302.221 167.694 301.029 168.623V168.623C299.11 170.113 296.75 170.922 294.321 170.923H286.871" stroke="#202F44" stroke-miterlimit="10"/>
<path d="M265.971 153.448V162.407" stroke="#202F44" stroke-miterlimit="10"/>
<path d="M244.079 133.673L247.779 147.839C248.287 149.786 249.208 151.601 250.479 153.161C251.75 154.721 253.342 155.99 255.146 156.881C257.079 157.836 259.206 158.333 261.362 158.331H265.971" stroke="#202F44" stroke-miterlimit="10"/>
<path d="M175.996 56.7396L146.062 59.7646L149.896 82.3813L179.154 75.3396C184.421 74.073 187.846 69.3146 187.021 64.4313C186.188 59.5563 181.379 56.173 175.996 56.7396Z" fill="#202F44"/>
<path d="M185.262 60.3406L175.262 61.0823L177.037 71.5406L186.696 68.9489C188.437 68.4823 189.487 66.374 189.104 64.1156C188.746 61.824 187.054 60.1823 185.262 60.3406Z" fill="#202F44"/>
<path d="M149.305 82.3656C151.878 81.929 153.116 76.5762 152.069 70.4098C151.023 64.2433 148.089 59.5982 145.516 60.0348C142.944 60.4713 141.706 65.8241 142.752 71.9906C143.799 78.1571 146.733 82.8021 149.305 82.3656Z" fill="white" stroke="#202F44" stroke-miterlimit="10"/>
<path d="M216.796 115.174C200.371 118.674 197.271 152.165 197.271 152.165Z" fill="#EBEFFF"/>
<path d="M216.796 115.174C200.371 118.674 197.271 152.165 197.271 152.165" stroke="#202F44" stroke-miterlimit="10"/>
<path d="M196.737 90.1639C196.222 83.3034 194.344 76.6146 191.212 70.4889C189.141 66.599 186.624 62.9634 183.712 59.6555C183.712 59.6555 175.87 52.2722 174.487 53.6805C173.104 55.0889 179.287 60.7055 179.287 60.7055C180.296 63.2055 180.954 65.5472 181.787 67.2222C181.794 67.2357 181.796 67.2511 181.793 67.266C181.79 67.2809 181.782 67.2943 181.771 67.304C181.759 67.3137 181.744 67.3192 181.729 67.3194C181.714 67.3197 181.699 67.3148 181.687 67.3055C181.079 66.7639 179.396 64.7222 178.354 63.4055C177.689 62.5813 176.83 61.9343 175.854 61.5222C172.854 60.2639 166.687 57.9722 166.42 58.5972C165.254 61.2389 173.92 65.2639 173.92 65.2639C175.538 67.129 176.999 69.1247 178.287 71.2305C178.287 71.2305 176.787 69.7472 175.196 68.3389C173.913 67.2071 172.473 66.2668 170.921 65.5472C168.171 64.2805 163.704 62.4139 163.654 63.6805C163.604 64.9472 167.212 67.7055 169.354 69.5555C171.238 71.1496 172.937 72.9498 174.421 74.9222C174.176 74.5932 173.896 74.2915 173.587 74.0222C172.693 72.9285 171.681 71.9364 170.571 71.0639C168.462 69.7805 162.42 67.7305 161.904 68.5222C160.495 70.5722 168.304 74.2472 168.304 74.2472C170.62 77.5805 173.304 82.0805 174.612 83.2222C175.211 83.7621 175.669 84.4401 175.945 85.1972C176.245 86.0305 176.646 87.1555 177.179 88.8222C178.179 91.9889 179.637 92.4639 179.637 92.4639L175.246 112.731L196.654 112.664C196.654 112.664 197.021 93.4389 196.737 90.1639Z" fill="white" stroke="#202F44" stroke-miterlimit="10"/>
<path d="M201.937 167.006C201.937 167.006 204.695 156.315 202.079 134.14C199.229 109.973 196.837 96.4814 196.837 96.4814L176.929 104.865C176.929 104.865 166.829 128.923 167.762 156.465C168.595 179.89 173.27 200.565 183.204 208.84C186.053 211.162 189.632 212.4 193.307 212.335C196.982 212.269 200.515 210.904 203.279 208.481C208.637 203.856 229.37 178.79 233.529 152.515" fill="#EBEFFF"/>
<path d="M201.937 167.006C201.937 167.006 204.695 156.315 202.079 134.14C199.229 109.973 196.837 96.4814 196.837 96.4814L176.929 104.865C176.929 104.865 166.829 128.923 167.762 156.465C168.595 179.89 173.27 200.565 183.204 208.84C186.053 211.162 189.632 212.4 193.307 212.335C196.982 212.269 200.515 210.904 203.279 208.481C208.637 203.856 229.37 178.79 233.529 152.515" stroke="#202F44" stroke-miterlimit="10"/>
<path d="M158.071 139.591L161.562 169.374L167.737 179.607L167.021 142.666L161.696 134.607L158.071 139.591Z" fill="#EBEFFF"/>
<path d="M84.1541 198.94H112.546C112.93 198.94 113.299 199.093 113.571 199.365C113.843 199.637 113.996 200.006 113.996 200.39V223.224C113.996 225.925 112.923 228.515 111.013 230.424C109.103 232.334 106.513 233.407 103.812 233.407H92.8874C90.1866 233.407 87.5965 232.334 85.6867 230.424C83.777 228.515 82.7041 225.925 82.7041 223.224V200.39C82.7041 200.006 82.8569 199.637 83.1288 199.365C83.4007 199.093 83.7695 198.94 84.1541 198.94Z" fill="#202F44"/>
<path d="M83.5542 205.182C73.9292 206.765 73.9292 220.607 83.5542 222.19" stroke="#202F44" stroke-miterlimit="10"/>
<path d="M211.504 216.148H134.004V233.398H211.504V216.148Z" fill="#202F44"/>
<path d="M145.046 228.682C147.205 228.682 148.954 226.932 148.954 224.774C148.954 222.615 147.205 220.865 145.046 220.865C142.888 220.865 141.138 222.615 141.138 224.774C141.138 226.932 142.888 228.682 145.046 228.682Z" fill="white" stroke="#202F44" stroke-miterlimit="10"/>
<path d="M168.063 220.865H152.271V228.69H168.063V220.865Z" fill="white" stroke="#202F44" stroke-miterlimit="10"/>
<path d="M195.679 220.865H193.421V228.69H195.679V220.865Z" fill="white" stroke="#202F44" stroke-miterlimit="10"/>
<path d="M198.512 220.865H196.254V228.69H198.512V220.865Z" fill="white" stroke="#202F44" stroke-miterlimit="10"/>
<path d="M201.354 220.865H199.096V228.69H201.354V220.865Z" fill="white" stroke="#202F44" stroke-miterlimit="10"/>
<path d="M204.196 220.865H201.938V228.69H204.196V220.865Z" fill="white" stroke="#202F44" stroke-miterlimit="10"/>
<path d="M137.913 215.848V210.965L142.271 208.156H137.913V199.906L143.071 198.048L137.913 196.34V187.531H197.388V196.715L191.963 198.048L197.388 199.531V208.531L192.029 210.59H197.388V215.848H137.913Z" fill="white" stroke="#202F44" stroke-miterlimit="10"/>
<path d="M148.996 198.049H164.204H175.546H148.996Z" fill="white" stroke="#202F44" stroke-miterlimit="10"/>
<path d="M171.704 193.398H178.204H183.045H171.704Z" fill="white" stroke="#202F44" stroke-miterlimit="10"/>
<path d="M184.762 193.398H191.262H189.104H184.762Z" fill="white" stroke="#202F44" stroke-miterlimit="10"/>
<path d="M155.996 205.423H162.487H167.337H155.996Z" fill="white" stroke="#202F44" stroke-miterlimit="10"/>
<path d="M175.546 205.423H173.396H169.054" fill="white"/>
<path d="M175.546 205.423H173.396H169.054" stroke="#202F44" stroke-miterlimit="10"/>
<path d="M164.621 210.64H171.121H175.962H164.621Z" fill="white" stroke="#202F44" stroke-miterlimit="10"/>
<path d="M182.02 210.64H177.679Z" fill="white"/>
<path d="M182.02 210.64H177.679" stroke="#202F44" stroke-miterlimit="10"/>
<path d="M167.654 201.69H177.354" stroke="#202F44" stroke-miterlimit="10"/>
<path d="M175.354 201.69H186.404L183.487 204.649L175.354 201.69Z" fill="white" stroke="#202F44" stroke-miterlimit="10"/>
<path d="M164.654 198.049H153.604L156.521 201.016L164.654 198.049Z" fill="white" stroke="#202F44" stroke-miterlimit="10"/>
<path d="M68.154 178.265L55.1123 226.548" stroke="#202F44" stroke-miterlimit="10"/>
<path d="M56.0873 193.008H65.7207C67.8689 193.008 69.9292 193.861 71.4482 195.38C72.9673 196.899 73.8207 198.96 73.8207 201.108V228.499C73.8207 229.445 73.4449 230.353 72.776 231.021C72.1072 231.69 71.1999 232.066 70.254 232.066H51.554C50.6081 232.066 49.7009 231.69 49.032 231.021C48.3631 230.353 47.9873 229.445 47.9873 228.499V201.099C47.9895 198.953 48.8439 196.895 50.3627 195.377C51.8815 193.86 53.9405 193.008 56.0873 193.008V193.008Z" fill="#202F44"/>
<path d="M50.5039 195.465L51.4206 193.956V192.156H70.5372V193.806L71.4539 195.465H50.5039Z" fill="#202F44"/>
<path d="M72.0627 231.24L71.0794 232.224V233.399H50.4877V232.315L49.5044 231.24H72.0627Z" fill="#202F44"/>
<path d="M68.7705 212.606V206.34" stroke="white" stroke-miterlimit="10" stroke-linecap="round"/>
<path d="M68.7705 204.256V203.515" stroke="white" stroke-miterlimit="10" stroke-linecap="round"/>
<path d="M68.7706 201.756V200.273C68.7706 199.736 68.5572 199.221 68.1775 198.841C67.7977 198.461 67.2827 198.248 66.7456 198.248" stroke="white" stroke-miterlimit="10" stroke-linecap="round"/>
</svg>
