<svg width="370" height="250" viewBox="0 0 370 250" fill="none" xmlns="http://www.w3.org/2000/svg">
<path d="M214.928 118.962C214.928 118.962 223.37 98.3124 248.645 93.8457C273.92 89.3791 287.612 94.3207 306.695 123.554C325.778 152.787 292.97 224.454 292.97 224.454H185.762L214.928 118.962Z" fill="#202F44"/>
<path d="M254.095 116.029C254.095 116.029 268.512 108.679 283.704 106.029C298.895 103.379 309.145 100.837 309.145 100.837C303.857 97.6903 298.376 94.8765 292.737 92.4124C269.47 82.2624 257.195 65.5624 257.195 65.5624L265.437 58.1958C265.437 58.1958 340.695 76.4374 343.929 99.8624C347.162 123.287 287.704 149.729 287.704 149.729C287.704 149.729 279.437 177.604 270.87 200.662C264.962 216.546 257.412 224.412 257.412 224.412H144.445L171.304 200.004L190.954 129.637C190.954 129.637 145.012 104.371 164.754 83.4124C175.095 72.4374 240.704 56.5791 240.704 56.5791L244.929 68.8458C244.929 68.8458 221.979 84.5708 213.52 88.2874C202.687 93.0624 196.304 93.0874 196.304 93.0874C196.304 93.0874 212.337 97.9708 219.254 103.804C226.17 109.637 230.645 109.279 230.645 109.279L254.095 116.029Z" fill="#EBEFFF" stroke="#202F44" stroke-width="1.15" stroke-miterlimit="10"/>
<path d="M229.245 54.7958C229.245 54.7958 219.303 44.3958 226.487 33.6541C231.703 25.8458 245.345 24.3458 250.762 31.2208C256.178 38.0958 262.212 44.1374 262.212 44.1374C262.212 44.1374 261.553 37.6708 267.803 44.9708C274.053 52.2708 283.003 53.6458 282.645 61.1541C282.287 68.6624 274.195 89.2458 266.503 92.8208C261.921 94.9343 257.143 96.5923 252.237 97.7708L229.245 54.7958Z" fill="#202F44"/>
<path d="M236.945 88.8874L232.353 111.912C232.096 113.17 232.16 114.473 232.54 115.7C232.92 116.927 233.604 118.037 234.528 118.929C235.993 120.421 237.745 121.6 239.679 122.393C241.613 123.187 243.688 123.579 245.778 123.546C257.245 123.162 256.262 114.229 256.262 114.229L258.587 85.5957L236.945 88.8874Z" fill="white" stroke="#202F44" stroke-width="1.03" stroke-miterlimit="10"/>
<path d="M224.37 93.8045C229.528 106.055 246.362 100.263 257.203 91.0962C257.203 91.0962 262.428 94.3712 266.67 91.4045C270.912 88.4378 270.762 82.1378 268.595 79.5128C266.428 76.8878 264.203 76.7628 264.203 76.7628L265.762 71.6378C265.762 71.6378 261.945 70.0878 256.895 64.2795C254.224 61.3035 251.791 58.1214 249.62 54.7628C249.62 54.7628 236.995 54.0545 231.67 47.4795C231.687 47.4795 219.212 81.5295 224.37 93.8045Z" fill="white" stroke="#202F44" stroke-miterlimit="10"/>
<path d="M247.729 72.4627C247.446 73.6043 246.721 74.4043 246.112 74.2543C245.504 74.1043 245.279 73.0543 245.537 71.921C245.796 70.7877 245.346 73.1877 246.371 73.3627C247.396 73.5377 248.012 71.3043 247.729 72.4627Z" fill="#202F44" stroke="#202F44" stroke-width="0.73" stroke-miterlimit="10"/>
<path d="M231.687 68.7045C231.404 69.8462 230.679 70.6462 230.079 70.4962C229.479 70.3462 229.246 69.2962 229.496 68.1545C229.746 67.0129 229.312 69.4212 230.329 69.6045C231.346 69.7878 231.979 67.5629 231.687 68.7045Z" fill="#202F44" stroke="#202F44" stroke-width="0.73" stroke-miterlimit="10"/>
<path d="M234.504 84.8208C234.504 84.8208 236.529 85.8792 238.262 84.9875C239.008 84.5875 239.642 84.0075 240.106 83.3002C240.57 82.5928 240.85 81.7807 240.921 80.9375" stroke="#202F44" stroke-width="0.73" stroke-miterlimit="10"/>
<path d="M259.021 84.5293C259.292 84.9453 259.65 85.2982 260.07 85.5641C260.49 85.8301 260.962 86.0029 261.454 86.071C262.105 86.0949 262.751 85.9549 263.333 85.6636C263.916 85.3724 264.416 84.9393 264.787 84.4043" stroke="#202F44" stroke-width="0.73" stroke-miterlimit="10"/>
<path d="M234.137 77.329C234.137 77.329 231.262 76.4956 231.904 74.3123C232.546 72.129 235.046 73.6873 235.046 73.6873" stroke="#202F44" stroke-width="0.73" stroke-miterlimit="10"/>
<path d="M246.971 62.4873C248.043 62.5164 249.078 62.884 249.929 63.5373C251.271 64.6206 251.387 65.3206 251.387 65.3206" stroke="#202F44" stroke-width="0.73" stroke-miterlimit="10"/>
<path d="M234.929 59.004C233.891 58.7013 232.784 58.7392 231.77 59.1123C230.162 59.754 229.837 60.3873 229.837 60.3873" stroke="#202F44" stroke-width="0.73" stroke-miterlimit="10"/>
<path d="M196.329 93.0876C196.329 93.0876 189.362 90.9626 179.162 92.4126" stroke="#202F44" stroke-width="1.15" stroke-miterlimit="10"/>
<path d="M309.162 100.871C313.546 100.079 318.036 100.079 322.42 100.871" stroke="#202F44" stroke-width="1.15" stroke-miterlimit="10"/>
<path d="M171.304 200.046H179.52" stroke="#202F44" stroke-width="1.15" stroke-miterlimit="10"/>
<path d="M34.7366 204.796C34.7366 204.796 25.945 198.763 28.9033 194.513C30.9366 191.629 34.295 196.946 34.295 196.946C34.295 196.946 28.645 186.254 32.745 184.354C36.145 182.771 37.6283 190.788 37.6283 190.788C37.6283 190.788 35.9616 180.929 39.5783 180.446C43.195 179.963 43.095 189.838 43.095 189.838C43.095 189.838 43.2367 181.696 47.3367 183.296C51.22 184.813 47.57 193.496 47.1867 194.388C47.1867 194.388 47.1867 194.429 47.1867 194.388C47.5783 194.138 49.5617 193.004 50.4283 194.479C52.4783 197.979 44.8783 205.563 44.8783 205.563L34.7366 204.796Z" fill="white" stroke="#202F44" stroke-miterlimit="10"/>
<path d="M46.5039 198.379C46.5039 198.379 48.8039 189.679 45.1039 189.212C41.4039 188.746 40.5622 196.179 40.5622 196.179C40.4789 192.846 38.0039 189.162 35.2539 190.954C32.5039 192.746 34.5289 198.379 34.5289 198.379" fill="white"/>
<path d="M46.5039 198.379C46.5039 198.379 48.8039 189.679 45.1039 189.212C41.4039 188.746 40.5622 196.179 40.5622 196.179C40.4789 192.846 38.0039 189.162 35.2539 190.954C32.5039 192.746 34.5289 198.379 34.5289 198.379" stroke="#202F44" stroke-miterlimit="10"/>
<path d="M31.8202 204.104C31.8202 204.104 29.5119 195.396 33.2202 194.937C36.9286 194.479 37.7619 201.904 37.7619 201.904C37.8369 198.571 40.3202 194.887 43.0702 196.671C45.8202 198.454 43.7869 204.104 43.7869 204.104" fill="white"/>
<path d="M31.8202 204.104C31.8202 204.104 29.5119 195.396 33.2202 194.937C36.9286 194.479 37.7619 201.904 37.7619 201.904C37.8369 198.571 40.3202 194.887 43.0702 196.671C45.8202 198.454 43.7869 204.104 43.7869 204.104" stroke="#202F44" stroke-miterlimit="10"/>
<path d="M47.2122 204.104C47.7935 203.51 48.1835 202.754 48.332 201.936C48.4805 201.118 48.3807 200.274 48.0455 199.513C47.9264 199.175 47.7307 198.868 47.4737 198.618C47.2168 198.368 46.9055 198.181 46.5641 198.072C46.2228 197.962 45.8608 197.932 45.5063 197.986C45.1517 198.039 44.8144 198.174 44.5205 198.379" fill="white"/>
<path d="M47.2122 204.104C47.7935 203.51 48.1835 202.754 48.332 201.936C48.4805 201.118 48.3807 200.274 48.0455 199.513C47.9264 199.175 47.7307 198.868 47.4737 198.618C47.2168 198.368 46.9055 198.181 46.5641 198.072C46.2228 197.962 45.8608 197.932 45.5063 197.986C45.1517 198.039 44.8144 198.174 44.5205 198.379" stroke="#202F44" stroke-miterlimit="10"/>
<path d="M27.5203 202.971H52.112C52.5297 202.971 52.9303 203.137 53.2257 203.432C53.521 203.727 53.687 204.128 53.687 204.546V219.154C53.687 221.866 52.6097 224.467 50.6921 226.384C48.7746 228.302 46.1738 229.379 43.462 229.379H36.1703C33.4585 229.379 30.8577 228.302 28.9402 226.384C27.0226 224.467 25.9453 221.866 25.9453 219.154V204.537C25.9475 204.121 26.1144 203.723 26.4096 203.429C26.7047 203.135 27.104 202.971 27.5203 202.971V202.971Z" fill="#202F44"/>
<path d="M61.3955 219.638H208.946C208.946 222.184 207.934 224.626 206.134 226.426C204.333 228.226 201.892 229.238 199.346 229.238H68.8372L61.3955 219.638Z" fill="#202F44"/>
<path d="M166.887 229.304H69.2115C67.6963 229.225 66.2424 228.68 65.049 227.743C63.8556 226.807 62.981 225.524 62.5448 224.071L44.0948 154.996C43.3282 152.12 45.0448 149.771 47.9198 149.771H145.578C147.093 149.847 148.546 150.391 149.74 151.326C150.933 152.262 151.808 153.543 152.245 154.996L170.762 224.071C171.487 226.946 169.762 229.304 166.887 229.304Z" fill="#202F44"/>
<path d="M110.762 187.763C110.377 186.372 109.599 185.123 108.521 184.163C107.444 183.204 106.112 182.576 104.687 182.354C103.662 182.174 102.609 182.237 101.612 182.538C100.97 182.755 100.269 182.728 99.6453 182.463C99.2292 182.269 98.7707 182.184 98.313 182.217C97.8552 182.249 97.4132 182.397 97.0283 182.647C96.6434 182.897 96.3284 183.24 96.1127 183.645C95.897 184.05 95.7878 184.504 95.7953 184.963C95.806 185.416 95.9291 185.86 96.1536 186.254C96.488 186.837 96.6032 187.519 96.4786 188.179C96.2455 189.374 96.3143 190.608 96.6789 191.769C97.0435 192.93 97.6923 193.982 98.5665 194.828C99.4406 195.675 100.512 196.29 101.685 196.618C102.857 196.945 104.092 196.975 105.279 196.704C105.47 196.663 105.704 196.504 105.845 196.546C106.545 196.771 107.262 197.279 108.087 197.104C108.437 197.023 108.767 196.869 109.054 196.652C109.341 196.435 109.58 196.161 109.754 195.846C110.126 195.296 110.286 194.63 110.204 193.971C110.12 193.422 110.195 192.861 110.42 192.354C111.03 190.901 111.149 189.29 110.762 187.763V187.763Z" fill="white"/>
<path d="M229.512 197.138H256.02C256.378 197.138 256.722 197.28 256.975 197.533C257.228 197.786 257.37 198.13 257.37 198.488V219.804C257.37 222.326 256.369 224.745 254.586 226.528C252.802 228.311 250.384 229.313 247.862 229.313H237.67C235.149 229.313 232.73 228.311 230.947 226.528C229.164 224.745 228.162 222.326 228.162 219.804V198.488C228.162 198.13 228.304 197.786 228.558 197.533C228.811 197.28 229.154 197.138 229.512 197.138V197.138Z" fill="#202F44"/>
<path d="M228.962 202.971C219.971 204.446 219.971 217.371 228.962 218.804" stroke="#202F44" stroke-width="2" stroke-miterlimit="10"/>
<path d="M107.429 137.546H72.6373C71.1737 137.546 69.9873 138.73 69.9873 140.192C69.9873 141.653 71.1737 142.838 72.6373 142.838H107.429C108.893 142.838 110.079 141.653 110.079 140.192C110.079 138.73 108.893 137.546 107.429 137.546Z" fill="#202F44"/>
<path d="M138.162 137.546H115.879C114.415 137.546 113.229 138.73 113.229 140.192C113.229 141.653 114.415 142.838 115.879 142.838H138.162C139.625 142.838 140.812 141.653 140.812 140.192C140.812 138.73 139.625 137.546 138.162 137.546Z" fill="#EBEFFF"/>
<path d="M102.187 126.954H68.2203C66.7568 126.954 65.5703 128.139 65.5703 129.6C65.5703 131.061 66.7568 132.246 68.2203 132.246H102.187C103.651 132.246 104.837 131.061 104.837 129.6C104.837 128.139 103.651 126.954 102.187 126.954Z" fill="#202F44"/>
<path d="M133.754 126.954H110.637C109.174 126.954 107.987 128.139 107.987 129.6C107.987 131.061 109.174 132.246 110.637 132.246H133.754C135.218 132.246 136.404 131.061 136.404 129.6C136.404 128.139 135.218 126.954 133.754 126.954Z" fill="#EBEFFF"/>
<path d="M130.471 116.371H77.0455C75.5819 116.371 74.3955 117.556 74.3955 119.017C74.3955 120.478 75.5819 121.663 77.0455 121.663H130.471C131.934 121.663 133.121 120.478 133.121 119.017C133.121 117.556 131.934 116.371 130.471 116.371Z" fill="#202F44"/>
<path d="M142.57 116.371H138.687C137.224 116.371 136.037 117.556 136.037 119.017C136.037 120.478 137.224 121.663 138.687 121.663H142.57C144.034 121.663 145.22 120.478 145.22 119.017C145.22 117.556 144.034 116.371 142.57 116.371Z" fill="#EBEFFF"/>
<path d="M101.187 105.787H68.2203C66.7568 105.787 65.5703 106.972 65.5703 108.433C65.5703 109.894 66.7568 111.079 68.2203 111.079H101.187C102.651 111.079 103.837 109.894 103.837 108.433C103.837 106.972 102.651 105.787 101.187 105.787Z" fill="#202F44"/>
<path d="M133.753 105.787H109.645C108.182 105.787 106.995 106.972 106.995 108.433C106.995 109.894 108.182 111.079 109.645 111.079H133.753C135.217 111.079 136.403 109.894 136.403 108.433C136.403 106.972 135.217 105.787 133.753 105.787Z" fill="#EBEFFF"/>
<path d="M112.829 95.1953H59.4039C57.9403 95.1953 56.7539 96.3799 56.7539 97.8411C56.7539 99.3024 57.9403 100.487 59.4039 100.487H112.829C114.292 100.487 115.479 99.3024 115.479 97.8411C115.479 96.3799 114.292 95.1953 112.829 95.1953Z" fill="#202F44"/>
<path d="M124.929 95.1953H121.046C119.582 95.1953 118.396 96.3799 118.396 97.8411C118.396 99.3024 119.582 100.487 121.046 100.487H124.929C126.392 100.487 127.579 99.3024 127.579 97.8411C127.579 96.3799 126.392 95.1953 124.929 95.1953Z" fill="#EBEFFF"/>
<path d="M94.2286 84.6123H68.2203C66.7568 84.6123 65.5703 85.7969 65.5703 87.2581C65.5703 88.7194 66.7568 89.904 68.2203 89.904H94.2286C95.6922 89.904 96.8787 88.7194 96.8787 87.2581C96.8787 85.7969 95.6922 84.6123 94.2286 84.6123Z" fill="#202F44"/>
<path d="M133.754 84.6123H102.354C100.891 84.6123 99.7041 85.7969 99.7041 87.2581C99.7041 88.7194 100.891 89.904 102.354 89.904H133.754C135.218 89.904 136.404 88.7194 136.404 87.2581C136.404 85.7969 135.218 84.6123 133.754 84.6123Z" fill="#EBEFFF"/>
<path d="M199.346 224.454H337.646" stroke="#202F44" stroke-width="1.07" stroke-miterlimit="10"/>
<path d="M32.0957 224.454H162.704" stroke="#202F44" stroke-width="1.04" stroke-miterlimit="10"/>
</svg>
