<svg width="370" height="250" viewBox="0 0 370 250" fill="none" xmlns="http://www.w3.org/2000/svg">
<path d="M173.237 107.563L174.071 110.897L183.462 102.438C183.462 102.438 213.146 102.013 233.879 119.413C258.187 139.822 277.704 182.863 270.712 207.58C262.996 234.863 230.062 207.58 230.062 207.58L228.037 239.172H140.654L138.721 229.93C138.721 229.93 109.912 256.263 105.221 218.263C102.662 197.53 125.221 131.497 145.912 115.338C161.371 103.322 173.237 107.563 173.237 107.563Z" fill="#EBEFFF" stroke="#202F44" stroke-width="1.15" stroke-miterlimit="10"/>
<path d="M230.379 208.031C219.354 196.539 214.313 191.573 207.279 169.939L225.129 167.489C225.129 167.489 236.046 170.881 247.004 181.331C267.229 200.614 262.838 207.998 262.838 207.998" stroke="#202F44" stroke-width="1.15" stroke-miterlimit="10"/>
<path d="M164.354 180.656H152.02C150.714 180.656 149.458 180.154 148.511 179.255C147.563 178.356 146.997 177.127 146.929 175.823L144.679 134.564H171.704L169.445 175.823C169.377 177.127 168.811 178.356 167.864 179.255C166.916 180.154 165.66 180.656 164.354 180.656V180.656Z" fill="#202F44"/>
<path d="M138.721 229.931C138.721 229.931 146.646 225.365 154.087 201.148C156.221 194.19 159.279 178.648 159.279 178.648L151.396 163.173C151.396 163.173 123.462 190.623 119.829 212.423" stroke="#202F44" stroke-width="1.15" stroke-miterlimit="10"/>
<path d="M141.938 166.989C141.938 166.989 138.813 162.947 141.938 160.772C141.393 160.216 141.001 159.529 140.8 158.777C140.598 158.025 140.594 157.234 140.788 156.48C141.438 153.83 143.421 153.822 143.421 153.822C143.421 153.822 141.629 152.039 144.329 149.847C147.029 147.655 155.588 146.514 156.146 149.239C156.704 151.964 152.046 152.822 152.046 152.822C152.046 152.822 157.796 151.697 157.946 154.297C158.096 156.897 150.604 159.505 150.604 159.505C150.604 159.505 155.554 158.089 156.438 160.239C157.271 162.255 151.721 164.639 151.046 164.93C151.521 164.93 154.079 164.93 153.963 166.83C153.763 170.097 146.754 172.397 146.754 172.397C145.053 170.682 143.445 168.877 141.938 166.989V166.989Z" fill="white" stroke="#202F44" stroke-width="1.22" stroke-miterlimit="10"/>
<path d="M37.2207 239.173H332.779" stroke="#202F44" stroke-width="1.07" stroke-miterlimit="10"/>
<path d="M181.662 152.673C181.511 152.269 181.276 151.902 180.971 151.598L179.229 149.856C179.212 149.836 179.201 149.811 179.197 149.785C179.193 149.759 179.196 149.733 179.207 149.708C179.217 149.684 179.234 149.663 179.256 149.648C179.277 149.633 179.303 149.624 179.329 149.623H227.112C227.14 149.62 227.167 149.626 227.19 149.639C227.214 149.653 227.233 149.673 227.245 149.698C227.256 149.722 227.26 149.75 227.256 149.776C227.252 149.803 227.24 149.828 227.221 149.848L225.721 151.573C225.471 151.849 225.279 152.172 225.154 152.523L225.112 152.648C224.941 153.133 224.624 153.553 224.205 153.851C223.786 154.149 223.285 154.311 222.771 154.314H183.996C183.486 154.311 182.989 154.152 182.572 153.859C182.155 153.566 181.838 153.152 181.662 152.673V152.673Z" fill="#202F44"/>
<path d="M157.404 55.1971C157.404 55.1971 145.462 47.1805 150.162 35.1471C153.587 26.3971 166.587 21.9971 173.362 27.5388C180.137 33.0805 187.32 37.6971 187.32 37.6971C187.32 37.6971 185.295 31.5221 192.97 37.3305C200.645 43.1388 209.679 42.5305 210.945 49.9471C212.212 57.3638 208.737 79.1888 201.979 84.2972C197.958 87.3446 193.649 89.9905 189.112 92.1971L157.404 55.1971Z" fill="#202F44"/>
<path d="M172.254 86.8399L172.721 110.315C172.741 111.598 173.085 112.856 173.72 113.972C174.355 115.087 175.261 116.025 176.354 116.698C178.106 117.838 180.072 118.611 182.131 118.971C184.191 119.33 186.302 119.269 188.337 118.79C199.454 115.948 196.571 107.432 196.571 107.432L192.679 78.9648L172.254 86.8399Z" fill="white" stroke="#202F44" stroke-width="1.03" stroke-miterlimit="10"/>
<path d="M161.021 94.3219C168.696 105.155 183.896 95.8969 192.504 84.6136C192.504 84.6136 198.338 86.6803 201.821 82.8803C205.304 79.0803 203.804 72.9886 201.154 70.8802C198.504 68.7719 196.271 69.1386 196.271 69.1386L196.704 63.7969C196.704 63.7969 192.646 63.0969 186.463 58.5136C183.211 56.1783 180.146 53.5927 177.296 50.7802C177.296 50.7802 164.796 52.8053 158.196 47.5303C158.213 47.5303 153.354 83.4636 161.021 94.3219Z" fill="white" stroke="#202F44" stroke-miterlimit="10"/>
<path d="M168.995 83.3977C168.995 83.3977 171.203 83.9893 172.703 82.7477C173.344 82.1959 173.837 81.4934 174.138 80.7034C174.44 79.9134 174.539 79.0608 174.428 78.2227" stroke="#202F44" stroke-width="0.73" stroke-miterlimit="10"/>
<path d="M192.879 77.8227C193.233 78.1691 193.657 78.4354 194.123 78.6036C194.589 78.7718 195.085 78.838 195.579 78.7977C196.215 78.6781 196.812 78.4012 197.314 77.9922C197.816 77.5832 198.208 77.0551 198.454 76.4561" stroke="#202F44" stroke-width="0.73" stroke-miterlimit="10"/>
<path d="M167.029 76.1556C167.029 76.1556 164.046 75.989 164.196 73.6556C164.346 71.3223 167.129 72.3723 167.129 72.3723" stroke="#202F44" stroke-width="0.73" stroke-miterlimit="10"/>
<path d="M176.371 58.9058C177.431 58.6916 178.533 58.8231 179.513 59.2808C181.054 60.0475 181.329 60.7141 181.329 60.7141" stroke="#202F44" stroke-width="0.73" stroke-miterlimit="10"/>
<path d="M163.82 58.0887C162.74 58.0187 161.665 58.2962 160.754 58.8804C159.329 59.8471 159.146 60.5471 159.146 60.5471" stroke="#202F44" stroke-width="0.73" stroke-miterlimit="10"/>
<path d="M178.819 67.0898C178.944 65.9229 178.541 64.9229 177.918 64.8564C177.296 64.7899 176.69 65.682 176.566 66.8489C176.441 68.0159 176.844 69.0158 177.467 69.0823C178.089 69.1489 178.695 68.2568 178.819 67.0898Z" fill="#202F44" stroke="#202F44" stroke-width="0.73" stroke-miterlimit="10"/>
<path d="M162.918 67.5381C163.043 66.3711 162.639 65.3712 162.017 65.3047C161.395 65.2381 160.789 66.1302 160.664 67.2972C160.54 68.4641 160.943 69.4641 161.565 69.5306C162.188 69.5971 162.793 68.705 162.918 67.5381Z" fill="#202F44" stroke="#202F44" stroke-width="0.73" stroke-miterlimit="10"/>
<path d="M182.495 35.1305L211.728 10.9639L208.62 52.4388H207.537C202.065 52.5919 196.688 50.9916 192.19 47.8717C187.693 44.7518 184.31 40.2758 182.537 35.0972L182.495 35.1305Z" fill="#EBEFFF" stroke="#202F44" stroke-width="1.15" stroke-miterlimit="10"/>
<path d="M209.712 12.8227L206.495 10.8477C205.958 10.539 205.499 10.1109 205.154 9.59646C204.808 9.08205 204.586 8.49513 204.504 7.88106V7.88106C204.387 6.95606 205.645 6.1644 206.62 6.53107L206.845 6.62272C207.909 6.98098 208.801 7.72405 209.345 8.70605L211.012 11.931C211.073 12.0844 211.075 12.2551 211.016 12.4095C210.958 12.5638 210.843 12.6905 210.695 12.7644C210.553 12.8639 210.385 12.9221 210.212 12.9324C210.038 12.9427 209.865 12.9047 209.712 12.8227V12.8227Z" fill="white" stroke="#202F44" stroke-miterlimit="10"/>
<path d="M210.012 11.7893L209.129 8.12257C208.97 7.52363 208.95 6.8965 209.07 6.28867C209.19 5.68083 209.447 5.10827 209.821 4.61427V4.61427C210.387 3.88093 211.846 4.2059 212.271 5.1559L212.371 5.38092C212.853 6.38328 212.951 7.52786 212.646 8.59757L211.562 12.0726C211.497 12.2293 211.374 12.3549 211.219 12.4232C211.064 12.4915 210.888 12.4972 210.729 12.4392C210.562 12.405 210.408 12.3267 210.282 12.2123C210.156 12.098 210.063 11.9519 210.012 11.7893V11.7893Z" fill="white" stroke="#202F44" stroke-miterlimit="10"/>
<path d="M209.987 12.3149L207.737 9.28154C207.354 8.79527 207.088 8.22784 206.958 7.62265C206.828 7.01746 206.838 6.39053 206.987 5.78987V5.78987C207.221 4.88987 208.654 4.61487 209.487 5.3232L209.662 5.48154C210.504 6.21431 211.044 7.23248 211.179 8.33986L211.554 11.9566C211.557 12.1221 211.496 12.2823 211.385 12.4047C211.273 12.527 211.119 12.6022 210.954 12.6149V12.6149C210.781 12.6601 210.599 12.6559 210.428 12.6029C210.257 12.5499 210.104 12.4501 209.987 12.3149V12.3149Z" fill="white" stroke="#202F44" stroke-miterlimit="10"/>
<path d="M210.338 11.6646L212.004 8.63124C212.334 8.08195 212.776 7.60868 213.302 7.24244C213.828 6.8762 214.425 6.6253 215.054 6.50625V6.50625C216.088 6.27292 217.213 7.23125 216.963 8.12292L216.904 8.32291C216.594 9.35037 215.89 10.2133 214.946 10.7229L211.546 12.6313C211.382 12.7078 211.2 12.7352 211.021 12.7101C210.842 12.6849 210.674 12.6083 210.538 12.4896V12.4896C210.414 12.3967 210.326 12.2636 210.289 12.113C210.253 11.9625 210.27 11.8039 210.338 11.6646V11.6646Z" fill="white" stroke="#202F44" stroke-miterlimit="10"/>
<path d="M211.12 11.8978L214.454 10.9894C215.076 10.8415 215.723 10.8266 216.352 10.9458C216.981 11.065 217.578 11.3155 218.104 11.6811V11.6811C218.995 12.2561 219.104 13.7311 218.287 14.1811L218.104 14.2811C217.634 14.53 217.12 14.6831 216.59 14.7318C216.061 14.7804 215.527 14.7236 215.02 14.5644L211.279 13.4811C211.109 13.4151 210.962 13.3013 210.855 13.1534C210.749 13.0055 210.687 12.8298 210.679 12.6477V12.6477C210.65 12.4905 210.679 12.3284 210.76 12.1907C210.841 12.0531 210.969 11.9491 211.12 11.8978V11.8978Z" fill="white" stroke="#202F44" stroke-miterlimit="10"/>
<path d="M210.912 11.9887L213.578 9.7637C214.084 9.3704 214.666 9.08774 215.288 8.93413C215.909 8.78051 216.556 8.75936 217.187 8.87202V8.87202C218.237 9.02202 218.953 10.322 218.395 11.0554L218.27 11.2304C217.612 12.0797 216.644 12.6339 215.578 12.772L211.728 13.3387C211.548 13.3519 211.368 13.3124 211.209 13.2252C211.051 13.1379 210.922 13.0065 210.837 12.847V12.847C210.747 12.7176 210.706 12.561 210.719 12.4043C210.733 12.2476 210.801 12.1006 210.912 11.9887V11.9887Z" fill="white" stroke="#202F44" stroke-miterlimit="10"/>
<path d="M210.355 11.8731L210.763 8.34812C210.833 7.73747 211.044 7.15147 211.379 6.63654C211.715 6.12161 212.166 5.6919 212.696 5.38145V5.38145C212.919 5.28312 213.16 5.23469 213.403 5.2396C213.647 5.2445 213.886 5.30262 214.104 5.40983C214.323 5.51705 214.515 5.67077 214.668 5.86022C214.82 6.04967 214.93 6.27023 214.988 6.50643V6.72311C215.053 7.24685 215.012 7.77829 214.869 8.28627C214.726 8.79425 214.483 9.26855 214.155 9.68143L211.796 12.5231C211.669 12.6378 211.51 12.7106 211.34 12.7315C211.17 12.7523 210.997 12.7203 210.846 12.6398V12.6398C210.699 12.5735 210.574 12.4657 210.486 12.3295C210.399 12.1934 210.353 12.0348 210.355 11.8731Z" fill="white" stroke="#202F44" stroke-miterlimit="10"/>
<path d="M193.246 26.2476L193.954 26.5893C195.334 27.2619 196.884 27.5045 198.403 27.2856C199.922 27.0667 201.34 26.3964 202.474 25.3617C203.607 24.3269 204.404 22.9755 204.76 21.4826C205.116 19.9897 205.015 18.4243 204.471 16.9893V16.9893L193.246 26.2476Z" fill="white" stroke="#202F44" stroke-miterlimit="10"/>
<path d="M209.962 34.5391L209.129 45.3725L208.037 44.9058C206.905 44.4255 205.971 43.5737 205.388 42.4909C204.805 41.4081 204.608 40.1589 204.83 38.9493C205.053 37.7398 205.681 36.6421 206.61 35.8374C207.54 35.0326 208.717 34.5688 209.946 34.5225L209.962 34.5391Z" fill="white" stroke="#202F44" stroke-miterlimit="10"/>
<path d="M193.412 41.3393C195.584 41.3393 197.345 39.5783 197.345 37.406C197.345 35.2336 195.584 33.4727 193.412 33.4727C191.24 33.4727 189.479 35.2336 189.479 37.406C189.479 39.5783 191.24 41.3393 193.412 41.3393Z" fill="white" stroke="#202F44" stroke-miterlimit="10"/>
<path d="M201.079 166.097L192.879 162.981C192.879 162.981 178.562 156.872 180.129 154.722C181.695 152.572 194.92 158.989 194.92 158.989C194.92 158.989 185.02 155.214 185.754 152.997C186.954 149.556 201.379 156.764 209.812 156.072C213.687 155.756 218.012 150.447 222.312 151.339C226.612 152.231 220.87 156.939 221.304 158.139C221.51 158.612 221.77 159.059 222.079 159.472C223.723 161.862 224.769 164.611 225.129 167.489V167.489L207.279 169.939L201.079 166.097Z" fill="white" stroke="#202F44" stroke-width="1.22" stroke-miterlimit="10"/>
<path d="M194.046 158.572C194.263 158.914 197.538 159.881 200.138 159.622Z" fill="white"/>
<path d="M194.046 158.572C194.263 158.914 197.538 159.881 200.138 159.622" stroke="#202F44" stroke-width="1.22" stroke-miterlimit="10"/>
<path d="M198.645 123.505C198.592 123.328 198.578 123.142 198.606 122.958C198.633 122.775 198.701 122.601 198.804 122.447V122.447C199.194 121.861 199.427 121.183 199.479 120.48V120.48C199.955 120.999 200.387 121.557 200.77 122.147C201.604 123.814 200.47 124.439 199.554 124.439L199.179 124.205C198.923 124.043 198.734 123.795 198.645 123.505V123.505Z" fill="white" stroke="#202F44" stroke-width="1.03" stroke-miterlimit="10"/>
<path d="M188.046 149.623V137.231L208.163 134.564V149.623H188.046Z" fill="white" stroke="#202F44" stroke-width="1.22" stroke-miterlimit="10"/>
<path d="M218.404 135.906V149.623H209.087V134.564L218.404 135.906Z" fill="#202F44" stroke="#202F44" stroke-width="1.15" stroke-miterlimit="10"/>
<path d="M188.046 141.072L208.163 139.556V144.489L188.046 144.989V141.072Z" fill="#202F44"/>
<path d="M200.962 135.048L198.754 135.523V125.523C198.756 125.475 198.776 125.431 198.81 125.398C198.845 125.366 198.89 125.348 198.937 125.348H200.779C200.826 125.348 200.872 125.366 200.906 125.398C200.94 125.431 200.96 125.475 200.962 125.523V135.048Z" fill="#202F44" stroke="#202F44" stroke-width="1.14" stroke-miterlimit="10"/>
<path d="M199.82 125.172V123.697" stroke="#202F44" stroke-width="1.14" stroke-miterlimit="10"/>
<path d="M168.204 122.456L156.479 172.831" stroke="#202F44" stroke-width="3" stroke-miterlimit="10"/>
<path d="M315.948 195.775L315.942 195.768C314.12 193.626 310.907 193.367 308.765 195.188L301.687 201.208C299.545 203.03 299.285 206.243 301.107 208.385L301.112 208.392C302.934 210.534 306.147 210.793 308.29 208.972L315.368 202.952C317.51 201.13 317.769 197.917 315.948 195.775Z" fill="#202F44"/>
<path d="M319.287 194.643C319.837 194.175 319.905 193.351 319.439 192.802C318.972 192.253 318.148 192.188 317.597 192.656L315.058 194.816C314.507 195.284 314.44 196.108 314.906 196.657C315.373 197.205 316.197 197.271 316.748 196.803L319.287 194.643Z" fill="#202F44"/>
<path d="M308.546 198.772L307.046 200.056" stroke="white" stroke-width="0.97" stroke-miterlimit="10" stroke-linecap="round"/>
<path d="M306.029 200.914L305.671 201.222" stroke="white" stroke-width="0.97" stroke-miterlimit="10" stroke-linecap="round"/>
<path d="M310.021 197.515L310.954 196.681C311.12 196.539 311.313 196.431 311.521 196.363C311.729 196.295 311.949 196.269 312.167 196.286C312.385 196.303 312.598 196.363 312.793 196.462C312.988 196.562 313.162 196.698 313.304 196.865" stroke="white" stroke-width="0.97" stroke-miterlimit="10" stroke-linecap="round"/>
<path d="M296.437 214.423C298.401 214.493 300.257 215.336 301.602 216.769C302.946 218.202 303.669 220.109 303.612 222.073L303.679 223.74C303.779 226.549 303.712 229.363 303.479 232.165L303.179 235.606C303.114 237.57 302.273 239.428 300.841 240.773C299.408 242.117 297.501 242.84 295.537 242.781C293.574 242.712 291.717 241.868 290.373 240.435C289.029 239.002 288.306 237.095 288.362 235.131L288.787 230.223C288.932 228.547 288.976 226.863 288.921 225.181L288.796 221.631C288.855 219.663 289.692 217.798 291.125 216.446C292.558 215.095 294.469 214.367 296.437 214.423V214.423Z" fill="#202F44"/>
<path d="M284.47 203.342C280.387 203.012 276.81 206.053 276.48 210.133C276.15 214.214 279.193 217.789 283.275 218.119L296.732 219.206C300.814 219.536 304.391 216.496 304.721 212.415C305.051 208.335 302.008 204.759 297.926 204.429L284.47 203.342Z" fill="#202F44"/>
<path d="M286.862 205.947L292.696 206.422" stroke="white" stroke-width="1.1" stroke-miterlimit="10" stroke-linecap="round"/>
<path d="M294.629 206.581L295.321 206.631" stroke="white" stroke-width="1.1" stroke-miterlimit="10" stroke-linecap="round"/>
<path d="M296.954 206.764L298.337 206.88C298.585 206.899 298.826 206.967 299.048 207.08C299.269 207.192 299.466 207.347 299.627 207.536C299.788 207.725 299.91 207.944 299.986 208.181C300.063 208.417 300.091 208.666 300.071 208.914V208.914" stroke="white" stroke-width="1.1" stroke-miterlimit="10" stroke-linecap="round"/>
<path d="M299.738 215.506C301.698 215.371 303.633 216.018 305.117 217.307C306.601 218.596 307.513 220.42 307.654 222.381L307.888 223.998C308.28 226.779 308.503 229.581 308.554 232.389L308.613 235.848C308.743 237.808 308.094 239.741 306.807 241.225C305.519 242.71 303.697 243.625 301.738 243.773V243.773C299.778 243.903 297.846 243.254 296.363 241.966C294.88 240.678 293.966 238.856 293.821 236.898L293.738 231.973C293.713 230.3 293.585 228.63 293.354 226.973L292.863 223.456C292.723 221.491 293.368 219.55 294.657 218.06C295.945 216.569 297.773 215.651 299.738 215.506V215.506Z" fill="#202F44"/>
<path d="M296.071 234.115V233.59C296.134 231.81 295.991 230.028 295.646 228.281V228.281" stroke="white" stroke-width="1.1" stroke-miterlimit="10" stroke-linecap="round"/>
<path d="M295.521 226.348L295.471 225.656" stroke="white" stroke-width="1.1" stroke-miterlimit="10" stroke-linecap="round"/>
<path d="M295.354 224.023L295.262 222.631C295.244 222.384 295.275 222.135 295.353 221.899C295.431 221.664 295.555 221.446 295.718 221.259C295.88 221.071 296.078 220.918 296.301 220.807C296.523 220.697 296.764 220.631 297.012 220.614V220.614" stroke="white" stroke-width="1.1" stroke-miterlimit="10" stroke-linecap="round"/>
<path d="M269.562 164.182C271.389 164.417 273.048 165.364 274.18 166.817C275.312 168.27 275.823 170.111 275.604 171.94L275.52 173.473C275.377 176.106 275.073 178.727 274.612 181.323L274.037 184.515C273.804 186.343 272.857 188.004 271.404 189.136C269.95 190.268 268.108 190.778 266.279 190.557C264.449 190.328 262.786 189.382 261.653 187.927C260.52 186.473 260.011 184.628 260.237 182.798L261.071 178.248C261.352 176.695 261.539 175.125 261.629 173.548L261.821 170.215C262.056 168.392 263.001 166.736 264.451 165.606C265.9 164.476 267.737 163.965 269.562 164.182V164.182Z" fill="#202F44"/>
<path d="M277.537 214.189C278.477 214.454 279.355 214.901 280.121 215.505C280.887 216.108 281.527 216.858 282.004 217.709C282.481 218.56 282.785 219.497 282.899 220.466C283.014 221.435 282.936 222.417 282.671 223.356L282.346 224.956C281.773 227.709 281.036 230.425 280.137 233.089L279.029 236.364C278.493 238.26 277.227 239.866 275.509 240.83C273.79 241.794 271.76 242.037 269.862 241.506V241.506C267.967 240.97 266.361 239.704 265.399 237.985C264.436 236.266 264.195 234.236 264.729 232.339L266.312 227.673C266.853 226.078 267.298 224.453 267.646 222.806L268.371 219.331C268.634 218.391 269.081 217.512 269.684 216.745C270.288 215.978 271.036 215.337 271.888 214.859C272.739 214.382 273.677 214.077 274.646 213.962C275.615 213.847 276.598 213.924 277.537 214.189V214.189Z" fill="#202F44"/>
<path d="M268.587 193.756C268.304 197.306 265.254 199.172 261.687 198.889L252.27 198.931C250.563 198.786 248.983 197.973 247.873 196.668C246.763 195.363 246.214 193.672 246.345 191.964V191.964C246.486 190.255 247.298 188.672 248.604 187.561C249.91 186.45 251.603 185.903 253.312 186.039L262.629 187.589C266.145 187.872 268.87 190.214 268.587 193.756Z" fill="#202F44"/>
<path d="M252.754 188.131L256.246 188.414" stroke="white" stroke-width="1.1" stroke-miterlimit="10" stroke-linecap="round"/>
<path d="M257.929 188.548L258.537 188.598" stroke="white" stroke-width="1.1" stroke-miterlimit="10" stroke-linecap="round"/>
<path d="M280.479 216.022C282.415 216.36 284.138 217.451 285.272 219.057C286.406 220.662 286.858 222.651 286.529 224.589L286.362 226.256C286.078 229.058 285.624 231.841 285.004 234.589L284.237 237.964C283.897 239.899 282.805 241.621 281.2 242.754C279.596 243.888 277.608 244.341 275.67 244.014V244.014C273.735 243.674 272.013 242.582 270.88 240.977C269.746 239.373 269.294 237.385 269.62 235.447L270.72 230.639C271.099 228.991 271.378 227.321 271.554 225.639L271.92 222.114C272.249 220.172 273.334 218.44 274.939 217.297C276.544 216.155 278.536 215.697 280.479 216.022V216.022Z" fill="#202F44"/>
<path d="M272.471 233.223L272.621 232.706C273.102 230.994 273.381 229.233 273.454 227.456V227.456" stroke="white" stroke-width="1.1" stroke-miterlimit="10" stroke-linecap="round"/>
<path d="M273.796 225.539L273.913 224.855" stroke="white" stroke-width="1.1" stroke-miterlimit="10" stroke-linecap="round"/>
<path d="M274.188 223.239L274.429 221.873C274.515 221.379 274.793 220.939 275.202 220.65C275.611 220.361 276.119 220.246 276.613 220.331V220.331" stroke="white" stroke-width="1.1" stroke-miterlimit="10" stroke-linecap="round"/>
<path d="M278.572 195.217C277.083 191.794 273.103 190.226 269.683 191.714C266.262 193.202 264.696 197.183 266.185 200.606L271.092 211.884C272.581 215.307 276.561 216.876 279.981 215.388C283.402 213.9 284.968 209.919 283.479 206.496L278.572 195.217Z" fill="#202F44"/>
<path d="M277.812 198.973L279.163 202.081" stroke="white" stroke-width="1.1" stroke-miterlimit="10" stroke-linecap="round"/>
<path d="M279.871 203.706L280.121 204.289" stroke="white" stroke-width="1.1" stroke-miterlimit="10" stroke-linecap="round"/>
<path d="M277.038 165.523C278.872 166.226 280.353 167.628 281.156 169.421C281.959 171.215 282.018 173.253 281.321 175.09L280.854 176.656C280.037 179.345 279.054 181.98 277.913 184.548L276.513 187.715C275.806 189.546 274.403 191.024 272.611 191.824C270.818 192.625 268.782 192.685 266.946 191.99C265.11 191.289 263.626 189.891 262.818 188.1C262.009 186.309 261.941 184.272 262.629 182.431L264.638 177.923C265.322 176.388 265.912 174.813 266.404 173.206L267.446 169.806C268.151 167.967 269.557 166.483 271.356 165.68C273.154 164.877 275.198 164.821 277.038 165.523V165.523Z" fill="#202F44"/>
<path d="M273.77 183.514L273.521 184.164" stroke="white" stroke-width="1.1" stroke-miterlimit="10" stroke-linecap="round"/>
<path d="M272.937 185.697L272.446 186.997C272.266 187.466 271.909 187.844 271.451 188.049C270.993 188.253 270.472 188.268 270.004 188.089V188.089" stroke="white" stroke-width="1.1" stroke-miterlimit="10" stroke-linecap="round"/>
<path d="M79.6955 245.756C97.6724 245.756 112.246 231.183 112.246 213.206C112.246 195.229 97.6724 180.656 79.6955 180.656C61.7186 180.656 47.1455 195.229 47.1455 213.206C47.1455 231.183 61.7186 245.756 79.6955 245.756Z" fill="white" stroke="#202F44" stroke-miterlimit="10"/>
<path d="M79.6955 245.756C97.6724 245.756 112.246 231.183 112.246 213.206C112.246 195.229 97.6724 180.656 79.6955 180.656C61.7186 180.656 47.1455 195.229 47.1455 213.206C47.1455 231.183 61.7186 245.756 79.6955 245.756Z" fill="white" stroke="#202F44" stroke-miterlimit="10"/>
<path d="M58.687 191.156C56.8071 192.001 55.0057 193.011 53.3037 194.173C54.3029 192.754 55.4328 191.431 56.6787 190.223C58.059 188.787 59.5932 187.507 61.2537 186.406C60.283 187.925 59.4252 189.512 58.687 191.156V191.156Z" fill="#202F44"/>
<path d="M66.2043 188.381C64.0903 188.926 62.0249 189.645 60.0293 190.531C60.7111 188.842 61.5074 187.202 62.4126 185.622C64.0943 184.521 65.8945 183.613 67.7793 182.914C67.0876 184.989 66.796 186.089 66.2043 188.381Z" fill="#202F44"/>
<path d="M74.4874 186.856C72.1996 187.057 69.9314 187.438 67.7041 187.998C68.2124 185.665 68.4874 184.54 69.0958 182.423C71.03 181.72 73.037 181.237 75.0791 180.981C74.8208 183.223 74.7041 184.406 74.4874 186.856Z" fill="#202F44"/>
<path d="M83.2711 186.722C80.8916 186.531 78.5006 186.531 76.1211 186.722C76.2628 184.222 76.3461 183.064 76.5211 180.814C78.6309 180.572 80.7613 180.572 82.8711 180.814C83.0461 183.064 83.1294 184.247 83.2711 186.722Z" fill="#202F44"/>
<path d="M91.6875 187.998C89.4602 187.438 87.192 187.057 84.9042 186.856C84.6875 184.406 84.5708 183.223 84.3125 180.981C86.3548 181.236 88.3619 181.719 90.2958 182.423C90.9042 184.54 91.1792 185.665 91.6875 187.998Z" fill="#202F44"/>
<path d="M99.3623 190.531C97.3691 189.647 95.3066 188.927 93.1956 188.381C92.6206 186.089 92.304 184.989 91.6123 182.914C93.4979 183.611 95.2983 184.519 96.979 185.622C97.8875 187.201 98.6839 188.841 99.3623 190.531V190.531Z" fill="#202F44"/>
<path d="M106.088 194.148C104.385 192.994 102.583 191.993 100.704 191.156C99.9662 189.512 99.1084 187.925 98.1377 186.406C99.7982 187.507 101.332 188.787 102.713 190.223C103.96 191.421 105.09 192.736 106.088 194.148V194.148Z" fill="#202F44"/>
<path d="M56.2203 197.672C54.1319 198.231 52.0783 198.913 50.0703 199.714C50.7708 198.109 51.6277 196.576 52.6286 195.139C54.3934 194.041 56.2471 193.094 58.1703 192.306C57.3959 194.047 56.7443 195.84 56.2203 197.672V197.672Z" fill="#202F44"/>
<path d="M64.6878 195.814C62.3498 196.174 60.0326 196.658 57.7461 197.264C58.2281 195.386 58.8293 193.541 59.5461 191.739C61.6028 190.907 63.7201 190.233 65.8794 189.723C65.3378 192.064 65.1294 193.289 64.6878 195.814Z" fill="#202F44"/>
<path d="M73.9294 194.781C71.3986 194.908 68.8759 195.164 66.3711 195.547C66.7294 192.989 66.9461 191.747 67.4211 189.364C69.7081 188.835 72.0311 188.476 74.3711 188.289C74.1711 190.797 74.0794 192.097 73.9294 194.781Z" fill="#202F44"/>
<path d="M83.6619 194.69C81.0191 194.557 78.3713 194.557 75.7285 194.69C75.8368 191.99 75.8952 190.682 76.0368 188.165C78.4723 187.982 80.9181 187.982 83.3535 188.165C83.4619 190.682 83.5535 191.99 83.6619 194.69Z" fill="white"/>
<path d="M93.0205 195.547C90.5185 195.164 87.9985 194.908 85.4705 194.781C85.3122 192.097 85.2205 190.797 85.0205 188.289C87.3606 188.475 89.6836 188.834 91.9705 189.364C92.4538 191.747 92.6288 192.989 93.0205 195.547Z" fill="#202F44"/>
<path d="M101.646 197.264C99.3595 196.658 97.0423 196.174 94.7044 195.814C94.296 193.314 94.0544 192.064 93.5127 189.723C95.6724 190.231 97.7898 190.906 99.846 191.739C100.567 193.539 101.168 195.385 101.646 197.264Z" fill="white"/>
<path d="M109.296 199.714C107.288 198.912 105.235 198.23 103.146 197.672C102.625 195.84 101.976 194.047 101.204 192.306C103.127 193.094 104.981 194.041 106.746 195.139C107.747 196.575 108.601 198.107 109.296 199.714Z" fill="#202F44"/>
<path d="M54.6208 204.831C51.8291 205.215 50.4541 205.423 47.9541 205.898C48.3237 204.157 48.8652 202.457 49.5708 200.823C51.6264 200.097 53.718 199.476 55.8374 198.965C55.2984 200.89 54.8919 202.85 54.6208 204.831V204.831Z" fill="#202F44"/>
<path d="M63.7044 203.864C60.621 204.106 59.121 204.264 56.2627 204.622C56.5206 202.593 56.9018 200.581 57.4044 198.597C60.1044 197.972 61.5294 197.706 64.4627 197.272C64.0794 199.831 63.9294 201.156 63.7044 203.864Z" fill="#202F44"/>
<path d="M73.5622 203.323C70.2289 203.423 68.6372 203.506 65.5039 203.723C65.7039 200.981 65.8372 199.639 66.1706 197.056C69.1456 196.664 70.6872 196.523 73.8372 196.348C73.7039 199.056 73.6456 200.456 73.5622 203.323Z" fill="white"/>
<path d="M83.9118 203.273C80.5785 203.206 78.8202 203.206 75.4785 203.273C75.5368 200.398 75.5785 198.981 75.6785 196.248C78.8618 196.131 80.5369 196.131 83.7202 196.248C83.8119 198.981 83.8535 200.398 83.9118 203.273Z" fill="#202F44"/>
<path d="M93.887 203.723C90.7537 203.506 89.137 203.423 85.8287 203.323C85.7454 200.456 85.687 199.056 85.5537 196.331C88.7037 196.506 90.2454 196.648 93.2204 197.039C93.5537 199.639 93.687 200.981 93.887 203.723Z" fill="#202F44"/>
<path d="M103.129 204.622C100.271 204.264 98.7792 204.106 95.6875 203.864C95.4625 201.156 95.3125 199.831 94.9375 197.272C97.8708 197.706 99.2875 197.972 101.988 198.597C102.494 200.58 102.875 202.592 103.129 204.622V204.622Z" fill="#202F44"/>
<path d="M111.421 205.897C108.921 205.422 107.571 205.214 104.754 204.83C104.476 202.86 104.064 200.911 103.521 198.997C105.64 199.507 107.732 200.128 109.787 200.855C110.496 202.478 111.043 204.167 111.421 205.897V205.897Z" fill="#202F44"/>
<path d="M54.0043 212.481L47.1543 212.573C47.1557 210.739 47.3456 208.91 47.721 207.115C50.221 206.723 51.6043 206.54 54.4293 206.231C54.1473 208.303 54.0053 210.391 54.0043 212.481V212.481Z" fill="white"/>
<path d="M63.3209 212.398C60.1542 212.398 58.6209 212.398 55.6875 212.465C55.6857 210.322 55.8165 208.182 56.0792 206.056C58.9625 205.756 60.4709 205.631 63.5792 205.423C63.3959 208.156 63.3375 209.556 63.3209 212.398Z" fill="#202F44"/>
<path d="M73.4624 212.348C70.0791 212.348 68.4208 212.348 65.2041 212.39C65.2041 209.506 65.2708 208.081 65.4374 205.315C68.5958 205.131 70.2291 205.056 73.5541 204.981C73.4624 207.873 73.4624 209.348 73.4624 212.348Z" fill="#202F44"/>
<path d="M84.0044 212.348H75.3877C75.3877 209.331 75.3877 207.848 75.4544 204.939C78.7877 204.881 80.5794 204.881 83.9377 204.939C83.9877 207.823 84.0044 209.331 84.0044 212.348Z" fill="white"/>
<path d="M94.2289 212.39C91.0122 212.39 89.3622 212.39 85.9789 212.348C85.9789 209.348 85.9789 207.873 85.8789 204.981C89.2122 205.056 90.8372 205.131 93.9956 205.315C94.1622 208.081 94.2122 209.49 94.2289 212.39Z" fill="#202F44"/>
<path d="M103.713 212.465C100.771 212.465 99.2375 212.415 96.0708 212.398C96.0708 209.556 95.9958 208.156 95.8125 205.423C98.9208 205.631 100.429 205.756 103.312 206.056C103.574 208.182 103.707 210.322 103.713 212.465V212.465Z" fill="white"/>
<path d="M112.238 212.573L105.388 212.481C105.391 210.391 105.249 208.302 104.963 206.231C107.788 206.54 109.13 206.723 111.68 207.115C112.048 208.911 112.235 210.74 112.238 212.573V212.573Z" fill="#202F44"/>
<path d="M54.4287 220.197C51.612 219.889 50.262 219.705 47.762 219.314C47.3866 217.519 47.1968 215.69 47.1953 213.855L54.0453 213.947C54.0325 216.037 54.1605 218.125 54.4287 220.197V220.197Z" fill="#202F44"/>
<path d="M63.5876 221.007C60.4709 220.798 58.9626 220.673 56.0876 220.373C55.8179 218.248 55.6843 216.107 55.6876 213.965C58.6209 213.965 60.1542 214.015 63.3209 214.032C63.3376 216.873 63.3959 218.273 63.5876 221.007Z" fill="#202F44"/>
<path d="M73.5121 221.456C70.1788 221.373 68.5121 221.306 65.3954 221.123C65.2288 218.348 65.1871 216.956 65.1621 214.048H73.4204C73.4621 217.081 73.4621 218.556 73.5121 221.456Z" fill="white"/>
<path d="M83.9377 221.489C80.6044 221.548 78.8127 221.548 75.4544 221.489C75.4044 218.589 75.3877 217.098 75.3877 214.081H84.0044C84.0044 217.098 83.9877 218.589 83.9377 221.489Z" fill="#202F44"/>
<path d="M93.9956 221.156C90.8372 221.339 89.2039 221.406 85.8789 221.489C85.9456 218.589 85.9706 217.114 85.9789 214.114H94.2289C94.2122 216.923 94.1622 218.348 93.9956 221.156Z" fill="white"/>
<path d="M103.313 220.373C100.429 220.673 98.9208 220.798 95.8125 221.007C96.0042 218.273 96.0625 216.84 96.0792 214.032C99.2458 214.032 100.779 214.032 103.721 213.965C103.713 216.107 103.577 218.247 103.313 220.373Z" fill="#202F44"/>
<path d="M111.671 219.314C109.171 219.705 107.787 219.889 105.004 220.197C105.286 218.126 105.428 216.038 105.429 213.947L112.279 213.855C112.264 215.691 112.06 217.52 111.671 219.314V219.314Z" fill="#202F44"/>
<path d="M55.854 227.464C53.7334 226.953 51.6415 226.33 49.5874 225.597C48.8844 223.965 48.3429 222.268 47.9707 220.53C50.4707 221.005 51.829 221.214 54.6374 221.597C54.9125 223.577 55.319 225.537 55.854 227.464V227.464Z" fill="#202F44"/>
<path d="M64.4627 229.156C61.5294 228.723 60.1127 228.456 57.4044 227.831C56.9026 225.85 56.5213 223.841 56.2627 221.814C59.121 222.164 60.621 222.323 63.7044 222.573C63.9294 225.273 64.0877 226.598 64.4627 229.156Z" fill="white"/>
<path d="M73.8456 230.097C70.6872 229.922 69.1456 229.78 66.1706 229.397C65.8372 226.789 65.7039 225.447 65.5039 222.73C68.6372 222.955 70.2539 223.039 73.5622 223.13C73.6456 225.972 73.7039 227.372 73.8456 230.097Z" fill="#202F44"/>
<path d="M83.7202 230.181C80.5369 230.298 78.8618 230.298 75.6785 230.181C75.5785 227.448 75.5368 226.015 75.4785 223.156C78.8118 223.223 80.5702 223.223 83.9118 223.156C83.8535 226.04 83.8119 227.448 83.7202 230.181Z" fill="#202F44"/>
<path d="M93.2204 229.398C90.2454 229.781 88.7037 229.923 85.5537 230.098C85.687 227.373 85.7454 225.931 85.8287 223.106C89.162 223.014 90.7537 222.931 93.887 222.706C93.687 225.448 93.5537 226.789 93.2204 229.398Z" fill="#202F44"/>
<path d="M101.987 227.822C99.287 228.447 97.8204 228.714 94.9287 229.147C95.312 226.589 95.462 225.264 95.687 222.564C98.7787 222.314 100.27 222.156 103.129 221.806C102.87 223.832 102.489 225.842 101.987 227.822V227.822Z" fill="#202F44"/>
<path d="M109.804 225.598C107.75 226.331 105.658 226.954 103.537 227.464C104.072 225.548 104.484 223.6 104.77 221.631C107.562 221.248 108.937 221.039 111.437 220.564C111.061 222.292 110.514 223.978 109.804 225.598V225.598Z" fill="#202F44"/>
<path d="M58.1708 234.123C56.2468 233.334 54.393 232.383 52.6291 231.282C51.6341 229.845 50.7801 228.316 50.0791 226.715C52.0875 227.515 54.141 228.197 56.2291 228.757C56.7481 230.589 57.397 232.383 58.1708 234.123V234.123Z" fill="#202F44"/>
<path d="M65.8794 236.706C63.7211 236.192 61.6041 235.518 59.5461 234.689C58.8293 232.888 58.2281 231.042 57.7461 229.164C60.0326 229.77 62.3498 230.254 64.6878 230.614C65.1294 233.139 65.3378 234.364 65.8794 236.706Z" fill="#202F44"/>
<path d="M74.3711 238.139C72.0311 237.953 69.7081 237.593 67.4211 237.064C66.9461 234.681 66.7294 233.439 66.3711 230.881C68.8759 231.265 71.3986 231.521 73.9294 231.648C74.0794 234.331 74.1711 235.639 74.3711 238.139Z" fill="#202F44"/>
<path d="M83.3535 238.264C80.9181 238.448 78.4723 238.448 76.0368 238.264C75.8952 235.764 75.8368 234.439 75.7285 231.739C78.3713 231.873 81.0191 231.873 83.6619 231.739C83.5535 234.439 83.4619 235.748 83.3535 238.264Z" fill="white"/>
<path d="M91.9705 237.064C89.6835 237.593 87.3605 237.953 85.0205 238.139C85.2205 235.639 85.3122 234.331 85.4622 231.648C87.993 231.521 90.5157 231.265 93.0205 230.881C92.6288 233.439 92.4455 234.681 91.9705 237.064Z" fill="#202F44"/>
<path d="M99.846 234.689C97.788 235.518 95.671 236.192 93.5127 236.706C94.0544 234.364 94.296 233.139 94.7044 230.614C97.0423 230.254 99.3595 229.77 101.646 229.164C101.164 231.042 100.563 232.888 99.846 234.689V234.689Z" fill="white"/>
<path d="M106.796 231.29C105.029 232.384 103.176 233.332 101.254 234.123C102.024 232.381 102.673 230.588 103.196 228.757C105.267 228.196 107.304 227.514 109.296 226.715C108.609 228.315 107.772 229.847 106.796 231.29V231.29Z" fill="#202F44"/>
<path d="M61.2537 240.039C59.5932 238.939 58.059 237.659 56.6787 236.222C55.4328 235.014 54.3029 233.692 53.3037 232.272C55.0044 233.446 56.8059 234.467 58.687 235.322C59.4266 236.955 60.2845 238.531 61.2537 240.039V240.039Z" fill="#202F44"/>
<path d="M67.7793 243.506C65.8945 242.808 64.0943 241.899 62.4126 240.798C61.509 239.217 60.7128 237.577 60.0293 235.89C62.0249 236.775 64.0903 237.494 66.2043 238.04C66.796 240.323 67.0876 241.431 67.7793 243.506Z" fill="#202F44"/>
<path d="M75.0791 245.431C73.0366 245.183 71.0291 244.702 69.0958 243.998C68.4874 241.881 68.2124 240.756 67.7041 238.423C69.9314 238.983 72.1996 239.364 74.4874 239.565C74.7041 241.99 74.8208 243.198 75.0791 245.431Z" fill="#202F44"/>
<path d="M82.8711 245.606C80.7613 245.847 78.6309 245.847 76.5211 245.606C76.3461 243.356 76.2628 242.164 76.1211 239.697C78.5006 239.889 80.8916 239.889 83.2711 239.697C83.1294 242.164 83.0461 243.356 82.8711 245.606Z" fill="#202F44"/>
<path d="M90.2958 243.998C88.3627 244.703 86.3552 245.184 84.3125 245.431C84.5708 243.198 84.6875 242.014 84.9042 239.598C87.192 239.398 89.4602 239.016 91.6875 238.456C91.1792 240.756 90.9042 241.881 90.2958 243.998Z" fill="#202F44"/>
<path d="M96.979 240.798C95.2983 241.901 93.4979 242.81 91.6123 243.506C92.304 241.431 92.6206 240.331 93.1956 238.04C95.3066 237.493 97.3691 236.774 99.3623 235.89C98.6822 237.579 97.8859 239.219 96.979 240.798V240.798Z" fill="#202F44"/>
<path d="M102.713 236.222C101.332 237.659 99.7982 238.939 98.1377 240.039C99.1084 238.521 99.9662 236.933 100.704 235.289C102.584 234.444 104.386 233.435 106.088 232.272C105.091 233.694 103.961 235.016 102.713 236.222Z" fill="#202F44"/>
<path d="M81.3618 158.998C85.9228 158.998 89.6202 155.301 89.6202 150.74C89.6202 146.179 85.9228 142.481 81.3618 142.481C76.8009 142.481 73.1035 146.179 73.1035 150.74C73.1035 155.301 76.8009 158.998 81.3618 158.998Z" stroke="#EBEFFF" stroke-width="5" stroke-miterlimit="10"/>
<path d="M264.479 128.739C269.04 128.739 272.737 125.042 272.737 120.481C272.737 115.92 269.04 112.223 264.479 112.223C259.918 112.223 256.221 115.92 256.221 120.481C256.221 125.042 259.918 128.739 264.479 128.739Z" stroke="#EBEFFF" stroke-width="5" stroke-miterlimit="10"/>
<path d="M112.104 110.039L103.571 102.539C103.496 102.475 103.405 102.431 103.308 102.413C103.211 102.394 103.111 102.401 103.018 102.433C102.924 102.465 102.841 102.521 102.775 102.595C102.71 102.669 102.665 102.759 102.646 102.856L100.429 113.981C100.411 114.079 100.419 114.18 100.452 114.273C100.485 114.367 100.541 114.451 100.616 114.516C100.691 114.582 100.781 114.627 100.878 114.647C100.975 114.667 101.076 114.662 101.171 114.631L111.912 110.981C112.002 110.948 112.082 110.892 112.145 110.818C112.207 110.745 112.25 110.658 112.269 110.563C112.288 110.469 112.283 110.372 112.254 110.28C112.226 110.188 112.174 110.106 112.104 110.039V110.039Z" stroke="#EBEFFF" stroke-width="5" stroke-miterlimit="10"/>
<path d="M267.771 85.8971V74.5555C267.77 74.4583 267.743 74.3631 267.694 74.2791C267.646 74.1951 267.576 74.1251 267.492 74.0757C267.409 74.0263 267.314 73.9993 267.217 73.9972C267.119 73.9951 267.023 74.018 266.938 74.0638L257.113 79.7388C257.028 79.7889 256.958 79.8603 256.909 79.9457C256.861 80.0312 256.835 80.1279 256.835 80.2263C256.835 80.3247 256.861 80.4214 256.909 80.5069C256.958 80.5923 257.028 80.6636 257.113 80.7138L266.938 86.3888C267.023 86.4346 267.119 86.4574 267.217 86.4554C267.314 86.4533 267.409 86.4262 267.492 86.3769C267.576 86.3275 267.646 86.2574 267.694 86.1734C267.743 86.0894 267.77 85.9943 267.771 85.8971V85.8971Z" stroke="#EBEFFF" stroke-width="5" stroke-miterlimit="10"/>
<path d="M56.6119 133.548C56.3897 133.334 56.2181 133.074 56.11 132.785C56.0018 132.497 55.9597 132.188 55.9869 131.881C56.015 131.523 56.015 131.164 55.9869 130.806C55.8218 129.913 55.8763 128.993 56.1458 128.126C56.4152 127.259 56.8916 126.47 57.5338 125.828C58.1759 125.186 58.9646 124.709 59.8319 124.44C60.6991 124.17 61.6189 124.116 62.5119 124.281C63.6203 124.348 63.9203 124.281 64.2953 123.948C64.6703 123.614 64.6953 123.273 64.6286 122.173C64.4618 121.28 64.5149 120.36 64.7832 119.493C65.0515 118.625 65.5271 117.836 66.1687 117.194C66.8103 116.552 67.5987 116.075 68.4658 115.806C69.3329 115.536 70.2525 115.482 71.1453 115.648C71.503 115.676 71.8625 115.676 72.2203 115.648C72.5271 115.62 72.8362 115.662 73.1247 115.771C73.4131 115.879 73.6736 116.05 73.8869 116.273V116.273C74.1659 116.549 74.3602 116.899 74.4473 117.282C74.5343 117.665 74.5104 118.065 74.3783 118.435C74.2463 118.805 74.0116 119.13 73.7017 119.371C73.3918 119.612 73.0196 119.76 72.6286 119.798C72.0491 119.848 71.4664 119.848 70.8869 119.798C69.7869 119.731 69.4953 119.748 69.1119 120.123C68.7286 120.498 68.7203 120.798 68.7869 121.906C68.9521 122.799 68.8976 123.719 68.6281 124.586C68.3586 125.453 67.8823 126.242 67.2401 126.884C66.5979 127.526 65.8092 128.003 64.942 128.272C64.0747 128.541 63.1549 128.596 62.2619 128.431C61.1536 128.364 60.8619 128.381 60.4786 128.764C60.0953 129.148 60.0786 129.439 60.1453 130.539C60.1955 131.121 60.1955 131.707 60.1453 132.289C60.1092 132.682 59.9616 133.056 59.7198 133.368C59.478 133.679 59.1521 133.915 58.7806 134.047C58.4091 134.179 58.0075 134.203 57.6233 134.114C57.239 134.026 56.8881 133.829 56.6119 133.548V133.548Z" fill="#EBEFFF"/>
<path d="M287.821 155.948C287.537 155.817 287.287 155.624 287.09 155.383C286.892 155.142 286.751 154.859 286.679 154.556C286.589 154.21 286.469 153.873 286.321 153.548C285.877 152.755 285.634 151.866 285.61 150.959C285.587 150.051 285.785 149.151 286.187 148.336C286.588 147.522 287.182 146.818 287.917 146.284C288.652 145.75 289.505 145.403 290.404 145.273C291.479 144.981 291.754 144.864 291.987 144.381C292.221 143.898 292.146 143.623 291.729 142.598C291.284 141.805 291.038 140.916 291.014 140.008C290.99 139.099 291.187 138.199 291.589 137.384C291.991 136.569 292.586 135.864 293.322 135.331C294.058 134.797 294.913 134.451 295.812 134.323C296.159 134.24 296.499 134.131 296.829 133.998C297.112 133.871 297.42 133.811 297.73 133.819C298.041 133.828 298.345 133.906 298.621 134.048V134.048C298.97 134.223 299.263 134.494 299.466 134.828C299.668 135.163 299.772 135.548 299.765 135.939C299.758 136.331 299.641 136.712 299.426 137.039C299.212 137.366 298.91 137.627 298.554 137.789C298.014 138.02 297.457 138.206 296.887 138.348C295.821 138.631 295.546 138.748 295.312 139.181C295.079 139.614 295.146 139.948 295.571 140.973C296.014 141.765 296.258 142.654 296.281 143.562C296.304 144.469 296.107 145.369 295.705 146.184C295.303 146.998 294.709 147.703 293.974 148.236C293.24 148.77 292.386 149.117 291.487 149.248C290.421 149.539 290.146 149.656 289.904 150.139C289.662 150.623 289.746 150.906 290.162 151.931C290.398 152.469 290.585 153.026 290.721 153.598C290.812 153.977 290.795 154.375 290.669 154.746C290.544 155.116 290.316 155.443 290.013 155.689C289.709 155.935 289.342 156.09 288.954 156.135C288.566 156.181 288.173 156.116 287.821 155.948V155.948Z" fill="#EBEFFF"/>
</svg>
