<svg width="370" height="250" viewBox="0 0 370 250" fill="none" xmlns="http://www.w3.org/2000/svg">
<path d="M247.082 104.448C226.357 87.0476 196.674 87.4726 196.674 87.4726L187.29 95.9309L186.457 92.5976C186.457 92.5976 183.374 90.2559 159.124 100.398C158.357 100.723 157.615 101.073 156.907 101.439C152.082 102.881 143.065 107.314 136.174 120.839C126.299 140.231 107.415 161.989 107.415 161.989C95.5904 159.389 50.8321 131.614 50.8321 131.614L47.207 147.581C47.207 147.581 94.5571 211.548 118.382 194.314C131.032 185.148 140.59 173.481 144.449 168.631C144.899 171.614 145.357 174.614 145.815 177.606C150.324 207.289 151.932 214.964 151.932 214.964L153.874 224.198H241.224L243.24 192.606C243.24 192.606 276.182 219.889 283.899 192.606C290.915 167.881 271.39 124.856 247.082 104.448Z" fill="#EBEFFF" stroke="#202F44" stroke-width="1.15" stroke-miterlimit="10"/>
<path d="M51.8743 147.822L48.8493 146.881L30.5742 133.372V114.547L38.0742 109.606C38.0742 109.606 44.8492 119.289 45.5742 116.381C46.2992 113.472 44.6075 110.164 46.7825 106.497C48.9575 102.831 48.2326 114.831 50.8909 120.214C53.5492 125.597 49.2242 131.881 53.5575 135.731C57.8908 139.581 60.5742 142.506 60.5742 142.506L51.8743 147.822Z" fill="white" stroke="#202F44" stroke-width="1.3" stroke-miterlimit="10"/>
<path d="M78.5438 85.7224L40.1688 84.5711C36.4501 84.4596 33.3451 87.3838 33.2335 91.1025L31.552 147.152C31.4405 150.871 34.3646 153.976 38.0833 154.088L76.4583 155.239C80.177 155.351 83.2821 152.426 83.3937 148.708L85.0752 92.6577C85.1867 88.939 82.2625 85.8339 78.5438 85.7224Z" fill="#202F44"/>
<path d="M82.0446 83.1092L43.6847 82.031C39.9675 81.9265 36.8694 84.8552 36.7649 88.5725L35.1901 144.6C35.0857 148.318 38.0143 151.416 41.7316 151.52L80.0915 152.598C83.8087 152.703 86.9068 149.774 87.0113 146.057L88.5861 90.029C88.6906 86.3118 85.7619 83.2136 82.0446 83.1092Z" fill="white" stroke="#202F44" stroke-miterlimit="10"/>
<path d="M82.7207 86.6314L42.7198 85.507C41.4685 85.4719 40.4256 86.4578 40.3904 87.7091L38.8393 142.896C38.8041 144.147 39.79 145.19 41.0413 145.225L81.0422 146.349C82.2936 146.385 83.3365 145.399 83.3717 144.147L84.9228 88.9608C84.958 87.7094 83.9721 86.6665 82.7207 86.6314Z" fill="#202F44"/>
<path d="M60.5828 149.748C61.3146 149.748 61.9078 149.154 61.9078 148.423C61.9078 147.691 61.3146 147.098 60.5828 147.098C59.851 147.098 59.2578 147.691 59.2578 148.423C59.2578 149.154 59.851 149.748 60.5828 149.748Z" fill="#202F44"/>
<path d="M49.3763 92.0116L45.6945 91.9081C44.756 91.8817 43.9737 92.6211 43.9474 93.5597L43.8439 97.2415C43.8175 98.18 44.557 98.9623 45.4955 98.9887L49.1773 99.0921C50.1158 99.1185 50.898 98.3791 50.9244 97.4405L51.0279 93.7587C51.0543 92.8202 50.3148 92.038 49.3763 92.0116Z" fill="#EBEFFF"/>
<path d="M58.2493 92.2606L54.5674 92.1571C53.6289 92.1308 52.8468 92.8702 52.8204 93.8087L52.7169 97.4905C52.6905 98.4291 53.4299 99.2113 54.3684 99.2377L58.0503 99.3412C58.9888 99.3675 59.7711 98.6281 59.7974 97.6896L59.9009 94.0077C59.9273 93.0692 59.1879 92.287 58.2493 92.2606Z" fill="#EBEFFF"/>
<path d="M67.1136 92.5096L63.4317 92.4062C62.4932 92.3798 61.711 93.1192 61.6847 94.0577L61.5812 97.7396C61.5548 98.6781 62.2942 99.4603 63.2327 99.4867L66.9146 99.5902C67.8531 99.6166 68.6353 98.8772 68.6617 97.9386L68.7652 94.2567C68.7916 93.3182 68.0521 92.536 67.1136 92.5096Z" fill="#EBEFFF"/>
<path d="M79.608 92.6142L72.3442 92.41C71.3689 92.3826 70.5559 93.151 70.5285 94.1263L70.0626 110.703C70.0351 111.678 70.8037 112.491 71.779 112.519L79.0428 112.723C80.0181 112.75 80.831 111.982 80.8584 111.007L81.3243 94.4298C81.3517 93.4544 80.5833 92.6416 79.608 92.6142Z" fill="#EBEFFF"/>
<path d="M67.691 100.983L44.925 100.343C44.3591 100.327 43.8875 100.773 43.8716 101.339L43.8486 102.155C43.8327 102.721 44.2786 103.193 44.8444 103.209L67.6105 103.849C68.1764 103.865 68.648 103.419 68.6639 102.853L68.6868 102.037C68.7027 101.471 68.2569 100.999 67.691 100.983Z" fill="#EBEFFF"/>
<path d="M67.6891 105.207L44.923 104.567C44.3571 104.551 43.8855 104.997 43.8696 105.563L43.8467 106.379C43.8308 106.945 44.2766 107.417 44.8425 107.432L67.6085 108.072C68.1744 108.088 68.646 107.642 68.6619 107.077L68.6849 106.26C68.7008 105.694 68.255 105.223 67.6891 105.207Z" fill="#EBEFFF"/>
<path d="M67.691 109.614L44.925 108.974C44.3591 108.958 43.8875 109.404 43.8716 109.97L43.8486 110.786C43.8327 111.352 44.2786 111.824 44.8444 111.84L67.6105 112.48C68.1764 112.495 68.648 112.05 68.6639 111.484L68.6868 110.667C68.7027 110.102 68.2569 109.63 67.691 109.614Z" fill="#EBEFFF"/>
<path d="M45.8906 134.905L52.0657 123.564L59.0989 128.256L65.724 117.23" stroke="#EBEFFF" stroke-width="2" stroke-miterlimit="10"/>
<path d="M45.9241 136.306C47.0563 136.306 47.9741 135.388 47.9741 134.256C47.9741 133.124 47.0563 132.206 45.9241 132.206C44.7919 132.206 43.874 133.124 43.874 134.256C43.874 135.388 44.7919 136.306 45.9241 136.306Z" fill="#EBEFFF"/>
<path d="M52.3156 125.781C53.4478 125.781 54.3657 124.863 54.3657 123.731C54.3657 122.598 53.4478 121.681 52.3156 121.681C51.1834 121.681 50.2656 122.598 50.2656 123.731C50.2656 124.863 51.1834 125.781 52.3156 125.781Z" fill="#EBEFFF"/>
<path d="M59.0744 130.172C60.2066 130.172 61.1245 129.254 61.1245 128.122C61.1245 126.99 60.2066 126.072 59.0744 126.072C57.9422 126.072 57.0244 126.99 57.0244 128.122C57.0244 129.254 57.9422 130.172 59.0744 130.172Z" fill="#EBEFFF"/>
<path d="M65.2913 119.998C66.4235 119.998 67.3413 119.081 67.3413 117.948C67.3413 116.816 66.4235 115.898 65.2913 115.898C64.1591 115.898 63.2412 116.816 63.2412 117.948C63.2412 119.081 64.1591 119.998 65.2913 119.998Z" fill="#EBEFFF"/>
<path d="M25.4659 127.605C25.4659 127.605 22.1325 123.314 25.4659 120.997C24.887 120.408 24.4701 119.68 24.2554 118.883C24.0408 118.086 24.0358 117.247 24.2409 116.447C24.9325 113.63 27.0409 113.622 27.0409 113.622C27.0409 113.622 25.1409 111.73 28.0076 109.397C30.8742 107.064 39.9576 105.847 40.5076 108.755C41.0576 111.664 36.1575 112.555 36.1575 112.555C36.1575 112.555 42.2658 111.364 42.4242 114.13C42.5825 116.897 34.6242 119.655 34.6242 119.655C34.6242 119.655 39.8826 118.147 40.8076 120.43C41.6409 122.572 35.8076 125.105 35.0826 125.43C35.5826 125.43 38.2992 125.43 38.1742 127.455C37.9575 130.914 30.5241 133.364 30.5241 133.364C28.7374 131.535 27.049 129.613 25.4659 127.605V127.605Z" fill="white" stroke="#202F44" stroke-width="1.3" stroke-miterlimit="10"/>
<path d="M142.482 51.7808C142.482 51.7808 128.591 48.0058 129.199 35.1142C129.641 25.7308 140.549 17.4058 148.749 20.4892C156.949 23.5725 165.224 25.6475 165.224 25.6475C165.224 25.6475 161.324 20.4391 170.457 23.4808C179.591 26.5225 187.957 23.0641 191.524 29.6891C195.091 36.3141 198.782 58.1058 194.024 65.0975C191.19 69.2741 187.952 73.1623 184.357 76.7058L142.482 51.7808Z" fill="#202F44"/>
<path d="M166.674 77.0483L174.624 99.14C175.055 100.348 175.783 101.429 176.741 102.283C177.7 103.136 178.857 103.734 180.107 104.023C182.132 104.544 184.242 104.649 186.309 104.331C188.376 104.013 190.357 103.279 192.132 102.173C201.749 95.9233 196.299 88.7816 196.299 88.7816L183.507 63.0566L166.674 77.0483Z" fill="white" stroke="#202F44" stroke-width="1.03" stroke-miterlimit="10"/>
<path d="M158.425 87.6893C169.166 95.5143 180.599 81.856 185.149 68.4227C185.149 68.4227 191.316 68.5226 193.416 63.7976C195.516 59.0726 192.133 53.7977 188.941 52.6393C185.75 51.481 183.758 52.5476 183.758 52.5476L182.466 47.3476C182.466 47.3476 178.391 47.9893 171.074 45.6226C167.247 44.4529 163.519 42.9817 159.924 41.2227C159.924 41.2227 148.749 47.1393 140.758 44.256C140.791 44.256 147.683 79.856 158.425 87.6893Z" fill="white" stroke="#202F44" stroke-miterlimit="10"/>
<path d="M162.482 74.7804C162.482 74.7804 164.766 74.6387 165.816 72.9803C166.25 72.2535 166.494 71.4296 166.528 70.5839C166.561 69.7381 166.382 68.8975 166.007 68.1387" stroke="#202F44" stroke-width="0.73" stroke-miterlimit="10"/>
<path d="M183.332 61.8807C183.779 62.0961 184.267 62.2128 184.763 62.2228C185.259 62.2329 185.752 62.1361 186.207 61.939C186.771 61.6219 187.246 61.1694 187.591 60.6224C187.936 60.0753 188.139 59.4509 188.182 58.8057" stroke="#202F44" stroke-width="0.73" stroke-miterlimit="10"/>
<path d="M158.299 68.5564C158.299 68.5564 155.424 69.3897 154.824 67.123C154.224 64.8564 157.199 64.9647 157.199 64.9647" stroke="#202F44" stroke-width="0.73" stroke-miterlimit="10"/>
<path d="M161.633 49.2223C162.57 48.6799 163.657 48.4521 164.733 48.5723C166.399 48.8057 166.908 49.3473 166.908 49.3473" stroke="#202F44" stroke-width="0.73" stroke-miterlimit="10"/>
<path d="M149.482 52.4639C148.436 52.7426 147.507 53.3503 146.832 54.1972C145.79 55.5722 145.84 56.2805 145.84 56.2805" stroke="#202F44" stroke-width="0.73" stroke-miterlimit="10"/>
<path d="M166.433 56.6814C166.825 57.7897 166.675 58.8564 166.083 59.0647C165.491 59.273 164.7 58.548 164.308 57.4397C163.916 56.3314 164.858 58.5981 165.775 58.1981C166.691 57.7981 166.041 55.573 166.433 56.6814Z" fill="#202F44" stroke="#202F44" stroke-width="0.73" stroke-miterlimit="10"/>
<path d="M151.008 62.4476C151.399 63.556 151.241 64.6227 150.658 64.831C150.074 65.0393 149.274 64.3143 148.874 63.1643C148.474 62.0143 149.424 64.3227 150.341 63.931C151.258 63.5393 150.608 61.3393 151.008 62.4476Z" fill="#202F44" stroke="#202F44" stroke-width="0.73" stroke-miterlimit="10"/>
<path d="M243.624 193.064C232.599 181.572 224.941 172.297 217.907 150.664L224.182 130.931C224.182 130.931 247.966 148.506 258.924 158.956C279.141 178.231 276.099 193.064 276.099 193.064" stroke="#202F44" stroke-width="1.15" stroke-miterlimit="10"/>
<path d="M50.457 224.206H346.015" stroke="#202F44" stroke-width="1.07" stroke-miterlimit="10"/>
<path d="M196.599 118.348C196.599 118.348 186.449 104.598 182.766 102.264C179.083 99.9311 177.916 100.989 177.916 100.989L184.191 112.856L196.599 118.348Z" fill="white" stroke="#202F44" stroke-width="1.03" stroke-miterlimit="10"/>
<path d="M223.074 129.973C223.074 129.973 222.624 130.973 219.949 124.031C217.274 117.09 216.533 113.898 215.374 112.181C214.216 110.465 204.408 100.14 203.883 101.348C203.358 102.556 203.283 105.398 206.474 110.648C209.666 115.898 210.374 118.606 207.083 117.39C203.791 116.173 202.274 117.39 190.566 112.473C178.858 107.556 175.424 107.165 173.949 108.306C172.474 109.448 180.916 113.681 180.916 113.681L184.583 119.515C184.583 119.573 184.583 119.64 184.491 119.59C183.499 118.631 180.666 116.115 180.433 117.981C180.149 120.248 190.283 133.606 197.341 137.69C204.399 141.773 216.508 150.831 219.208 154.431C221.908 158.031 225.874 132.34 225.874 132.34L223.074 129.973Z" fill="white" stroke="#202F44" stroke-width="1.03" stroke-miterlimit="10"/>
<path d="M180.916 113.697L197.066 120.847" stroke="#202F44" stroke-width="1.03" stroke-miterlimit="10"/>
<path d="M183.058 117.131L194.874 125.798" stroke="#202F44" stroke-width="1.03" stroke-miterlimit="10"/>
<path d="M184.141 118.864C184.141 118.864 186.566 123.256 187.591 124.573C188.774 126.089 192.999 130.031 192.999 130.031" fill="white"/>
<path d="M184.141 118.864C184.141 118.864 186.566 123.256 187.591 124.573C188.774 126.089 192.999 130.031 192.999 130.031" stroke="#202F44" stroke-width="1.03" stroke-miterlimit="10"/>
<path d="M126.107 208.689H53.749V224.798H126.107V208.689Z" fill="#202F44"/>
<path d="M64.0572 220.398C66.0731 220.398 67.7072 218.763 67.7072 216.748C67.7072 214.732 66.0731 213.098 64.0572 213.098C62.0414 213.098 60.4072 214.732 60.4072 216.748C60.4072 218.763 62.0414 220.398 64.0572 220.398Z" fill="white" stroke="#202F44" stroke-width="1.03" stroke-miterlimit="10"/>
<path d="M85.5492 213.089H70.8076V220.389H85.5492V213.089Z" fill="white" stroke="#202F44" stroke-width="1.09" stroke-miterlimit="10"/>
<path d="M111.332 213.089H109.224V220.389H111.332V213.089Z" fill="white" stroke="#202F44" stroke-width="1.09" stroke-miterlimit="10"/>
<path d="M113.982 213.089H111.874V220.389H113.982V213.089Z" fill="white" stroke="#202F44" stroke-width="1.09" stroke-miterlimit="10"/>
<path d="M116.633 213.089H114.524V220.389H116.633V213.089Z" fill="white" stroke="#202F44" stroke-width="1.09" stroke-miterlimit="10"/>
<path d="M119.274 213.089H117.166V220.389H119.274V213.089Z" fill="white" stroke="#202F44" stroke-width="1.09" stroke-miterlimit="10"/>
<path d="M132.766 192.589H60.4072V208.697H132.766V192.589Z" fill="#202F44"/>
<path d="M70.7154 204.289C72.7313 204.289 74.3654 202.655 74.3654 200.639C74.3654 198.623 72.7313 196.989 70.7154 196.989C68.6996 196.989 67.0654 198.623 67.0654 200.639C67.0654 202.655 68.6996 204.289 70.7154 204.289Z" fill="white" stroke="#202F44" stroke-width="1.03" stroke-miterlimit="10"/>
<path d="M92.2074 196.989H77.4658V204.289H92.2074V196.989Z" fill="white" stroke="#202F44" stroke-width="1.09" stroke-miterlimit="10"/>
<path d="M117.982 196.989H115.874V204.289H117.982V196.989Z" fill="white" stroke="#202F44" stroke-width="1.09" stroke-miterlimit="10"/>
<path d="M120.633 196.989H118.524V204.289H120.633V196.989Z" fill="white" stroke="#202F44" stroke-width="1.09" stroke-miterlimit="10"/>
<path d="M123.282 196.989H121.174V204.289H123.282V196.989Z" fill="white" stroke="#202F44" stroke-width="1.09" stroke-miterlimit="10"/>
<path d="M125.933 196.989H123.824V204.289H125.933V196.989Z" fill="white" stroke="#202F44" stroke-width="1.09" stroke-miterlimit="10"/>
<path d="M144.474 168.639C144.474 168.639 143.64 153.939 143.707 144.473Z" fill="#EBEFFF"/>
<path d="M144.474 168.639C144.474 168.639 143.64 153.939 143.707 144.473" stroke="#202F44" stroke-width="1.15" stroke-miterlimit="10"/>
<path d="M317.049 172.397L303.999 220.681" stroke="#202F44" stroke-miterlimit="10"/>
<path d="M304.975 187.139H314.608C316.756 187.139 318.816 187.992 320.335 189.511C321.855 191.03 322.708 193.09 322.708 195.239V222.63C322.708 223.576 322.332 224.483 321.663 225.152C320.994 225.821 320.087 226.197 319.141 226.197H300.45C299.504 226.197 298.596 225.821 297.928 225.152C297.259 224.483 296.883 223.576 296.883 222.63V195.239C296.883 193.092 297.735 191.033 299.252 189.514C300.77 187.995 302.828 187.141 304.975 187.139Z" fill="#202F44"/>
<path d="M299.399 189.597L300.308 188.089V186.289H319.433V187.947L320.341 189.597H299.399Z" fill="#202F44"/>
<path d="M320.949 225.372L319.974 226.355V227.53H299.374V226.447L298.391 225.372H320.949Z" fill="#202F44"/>
<path d="M317.666 206.739V200.473" stroke="white" stroke-miterlimit="10" stroke-linecap="round"/>
<path d="M317.666 198.397V197.647" stroke="white" stroke-miterlimit="10" stroke-linecap="round"/>
<path d="M317.666 195.898V194.406C317.666 193.869 317.452 193.354 317.073 192.974C316.693 192.594 316.178 192.381 315.641 192.381" stroke="white" stroke-miterlimit="10" stroke-linecap="round"/>
<path d="M265.016 202.955C265.016 202.955 256.224 196.922 259.183 192.672C261.208 189.78 264.566 195.105 264.566 195.105C264.566 195.105 258.916 184.405 263.016 182.505C266.416 180.93 267.899 188.939 267.899 188.939C267.899 188.939 266.233 179.089 269.849 178.597C273.466 178.105 273.374 187.989 273.374 187.989C273.374 187.989 273.516 179.855 277.608 181.455C281.491 182.972 277.841 191.655 277.458 192.547C277.849 192.305 279.833 191.172 280.699 192.647C282.749 196.147 275.149 203.722 275.149 203.722L265.016 202.955Z" fill="white" stroke="#202F44" stroke-miterlimit="10"/>
<path d="M276.782 196.54C276.782 196.54 279.091 187.831 275.382 187.373C271.674 186.915 270.84 194.34 270.84 194.34C270.757 191.006 268.282 187.323 265.532 189.106C262.782 190.89 264.815 196.54 264.815 196.54" fill="white"/>
<path d="M276.782 196.54C276.782 196.54 279.091 187.831 275.382 187.373C271.674 186.915 270.84 194.34 270.84 194.34C270.757 191.006 268.282 187.323 265.532 189.106C262.782 190.89 264.815 196.54 264.815 196.54" stroke="#202F44" stroke-miterlimit="10"/>
<path d="M262.099 202.264C262.099 202.264 259.799 193.556 263.499 193.098C267.199 192.639 268.041 200.064 268.041 200.064C268.124 196.731 270.599 193.039 273.349 194.831C276.099 196.623 274.074 202.264 274.074 202.264" fill="white"/>
<path d="M262.099 202.264C262.099 202.264 259.799 193.556 263.499 193.098C267.199 192.639 268.041 200.064 268.041 200.064C268.124 196.731 270.599 193.039 273.349 194.831C276.099 196.623 274.074 202.264 274.074 202.264" stroke="#202F44" stroke-miterlimit="10"/>
<path d="M277.491 202.264C278.072 201.67 278.462 200.915 278.61 200.096C278.759 199.278 278.659 198.434 278.324 197.673C278.206 197.333 278.011 197.026 277.754 196.775C277.498 196.524 277.186 196.336 276.844 196.226C276.502 196.117 276.14 196.088 275.785 196.142C275.43 196.196 275.092 196.332 274.799 196.539" fill="white"/>
<path d="M277.491 202.264C278.072 201.67 278.462 200.915 278.61 200.096C278.759 199.278 278.659 198.434 278.324 197.673C278.206 197.333 278.011 197.026 277.754 196.775C277.498 196.524 277.186 196.336 276.844 196.226C276.502 196.117 276.14 196.088 275.785 196.142C275.43 196.196 275.092 196.332 274.799 196.539" stroke="#202F44" stroke-miterlimit="10"/>
<path d="M257.799 201.123H282.391C282.809 201.123 283.209 201.289 283.505 201.585C283.8 201.88 283.966 202.281 283.966 202.698V217.307C283.966 220.018 282.889 222.619 280.971 224.537C279.053 226.454 276.453 227.532 273.741 227.532H266.449C265.104 227.535 263.772 227.273 262.529 226.76C261.285 226.248 260.155 225.495 259.203 224.546C258.251 223.596 257.495 222.467 256.98 221.225C256.465 219.983 256.199 218.651 256.199 217.307V202.698C256.199 202.489 256.241 202.282 256.321 202.09C256.402 201.897 256.52 201.722 256.669 201.576C256.818 201.429 256.995 201.314 257.189 201.236C257.383 201.158 257.59 201.12 257.799 201.123V201.123Z" fill="#202F44"/>
<path d="M233.399 224.206H171.407C170.418 224.204 169.469 223.81 168.77 223.11C168.07 222.411 167.676 221.462 167.674 220.473C167.676 219.484 168.07 218.537 168.77 217.839C169.47 217.14 170.418 216.748 171.407 216.748H233.399V218.415H232.565V222.581H233.399V224.206Z" fill="#202F44"/>
<path d="M179.65 217.923H231.733V223.023H179.65C178.973 223.023 178.325 222.754 177.846 222.276C177.368 221.798 177.1 221.149 177.1 220.473V220.473C177.1 219.797 177.368 219.148 177.846 218.67C178.325 218.192 178.973 217.923 179.65 217.923V217.923Z" fill="white" stroke="#202F44" stroke-miterlimit="10"/>
<path d="M230.366 216.823H168.374C167.384 216.823 166.434 216.429 165.734 215.729C165.034 215.029 164.641 214.079 164.641 213.089V213.089C164.643 212.101 165.037 211.153 165.737 210.455C166.437 209.756 167.385 209.364 168.374 209.364H230.366V211.031H229.532V215.198H230.366V216.823Z" fill="#202F44"/>
<path d="M176.615 210.539H228.699V215.639H176.615C175.939 215.639 175.291 215.37 174.812 214.892C174.334 214.414 174.065 213.765 174.065 213.089C174.065 212.413 174.334 211.764 174.812 211.286C175.291 210.808 175.939 210.539 176.615 210.539V210.539Z" fill="white" stroke="#202F44" stroke-miterlimit="10"/>
</svg>
