<svg width="370" height="250" viewBox="0 0 370 250" fill="none" xmlns="http://www.w3.org/2000/svg">
<path d="M82.9917 207.677C82.9917 207.677 79.4583 205.377 72.2166 214.418C70.9166 216.085 67.15 221.127 69.9417 222.41C72.7333 223.693 75.275 218.052 78.575 216.302C82.7416 214.102 84.9917 214.502 84.9917 214.502" fill="white"/>
<path d="M82.9917 207.677C82.9917 207.677 79.4583 205.377 72.2166 214.418C70.9166 216.085 67.15 221.127 69.9417 222.41C72.7333 223.693 75.275 218.052 78.575 216.302C82.7416 214.102 84.9917 214.502 84.9917 214.502" stroke="#202F44" stroke-width="1.03" stroke-miterlimit="10"/>
<path d="M105.975 224.934C103.563 225.205 101.133 225.288 98.7084 225.184C94.4751 225.034 90.75 222.634 89.4 221.951L86.9 220.676C86.0162 220.239 85.0044 220.135 84.0505 220.385C83.0966 220.635 82.2649 221.22 81.7084 222.034C80.625 223.618 79.275 225.176 78.375 224.843C76.7084 224.243 76.7084 222.343 76.7084 221.559C76.7079 221.537 76.7006 221.516 76.6876 221.498C76.6746 221.48 76.6566 221.467 76.6357 221.459C76.6149 221.452 76.5923 221.451 76.571 221.457C76.5498 221.463 76.5308 221.476 76.5167 221.493C76.0084 222.268 74.7084 223.926 73.0251 223.651C68.8084 222.968 75.225 206.893 80.1334 205.034C85.0417 203.176 105.25 206.701 105.25 206.701" fill="white"/>
<path d="M105.975 224.934C103.563 225.205 101.133 225.288 98.7084 225.184C94.4751 225.034 90.75 222.634 89.4 221.951L86.9 220.676C86.0162 220.239 85.0044 220.135 84.0505 220.385C83.0966 220.635 82.2649 221.22 81.7084 222.034C80.625 223.618 79.275 225.176 78.375 224.843C76.7084 224.243 76.7084 222.343 76.7084 221.559C76.7079 221.537 76.7006 221.516 76.6876 221.498C76.6746 221.48 76.6566 221.467 76.6357 221.459C76.6149 221.452 76.5923 221.451 76.571 221.457C76.5498 221.463 76.5308 221.476 76.5167 221.493C76.0084 222.268 74.7084 223.926 73.0251 223.651C68.8084 222.968 75.225 206.893 80.1334 205.034C85.0417 203.176 105.25 206.701 105.25 206.701" stroke="#202F44" stroke-width="1.03" stroke-miterlimit="10"/>
<path d="M84.9664 213.31C84.9664 213.31 79.0497 212.093 77.4664 217.427C77.0197 219.016 76.6773 220.634 76.4414 222.268" fill="white"/>
<path d="M84.9664 213.31C84.9664 213.31 79.0497 212.093 77.4664 217.427C77.0197 219.016 76.6773 220.634 76.4414 222.268" stroke="#202F44" stroke-width="1.03" stroke-miterlimit="10"/>
<path d="M198.625 26.3682C209.883 18.5015 228.183 20.4598 235.175 24.1432C251.15 32.5598 257.058 45.5682 257.058 58.3682C257.058 71.1682 259.308 84.6348 265.875 94.8098C272.441 104.985 279.658 110.235 282.616 125.01C285.575 139.785 267.375 160.701 248.366 164.71C231.958 168.168 204.541 163.876 187.283 131.018C180.05 117.235 179.691 96.5265 182.975 81.3515C186 67.4182 180.783 38.8182 198.625 26.3682Z" fill="#202F44" stroke="#202F44" stroke-miterlimit="10"/>
<path d="M212.55 113.002L234.767 111.119C234.767 111.119 254.883 108.477 268.25 123.252C288.65 145.81 282.933 196.269 277.992 224.194L105.975 224.91L105.142 205.219C105.142 205.219 132.592 195.31 155.567 190.902C166.625 188.777 181.633 189.094 181.633 189.094C181.633 189.094 178.25 138.944 190.608 123.26C193.21 119.956 196.55 117.306 200.36 115.525C204.171 113.743 208.346 112.879 212.55 113.002V113.002Z" fill="#EBEFFF" stroke="#202F44" stroke-width="1.15" stroke-miterlimit="10"/>
<path d="M209.883 91.2175L211.008 114.668C211.065 115.95 211.444 117.198 212.109 118.296C212.775 119.394 213.705 120.307 214.816 120.951C216.6 122.042 218.588 122.76 220.658 123.061C222.727 123.361 224.837 123.239 226.858 122.701C237.883 119.551 234.766 111.118 234.766 111.118L230.074 82.7842L209.883 91.2175Z" fill="white" stroke="#202F44" stroke-width="1.03" stroke-miterlimit="10"/>
<path d="M198.866 99.018C206.841 109.651 221.766 99.9514 230.058 88.4264C230.058 88.4264 235.891 90.3264 239.316 86.4264C242.741 82.5264 241.024 76.4847 238.316 74.4514C235.608 72.418 233.383 72.8514 233.383 72.8514L233.891 66.2764C233.891 66.2764 223.983 65.3014 217.474 58.1097C214.838 55.295 212.399 52.3018 210.174 49.1514C210.174 49.1514 203.099 59.5764 194.733 58.1264C194.733 58.1264 190.891 88.3847 198.866 99.018Z" fill="white" stroke="#202F44" stroke-miterlimit="10"/>
<path d="M215.224 74.793C215.85 74.793 216.358 73.8416 216.358 72.668C216.358 71.4944 215.85 70.543 215.224 70.543C214.598 70.543 214.091 71.4944 214.091 72.668C214.091 73.8416 214.598 74.793 215.224 74.793Z" fill="#202F44" stroke="#202F44" stroke-width="0.73" stroke-miterlimit="10"/>
<path d="M198.625 74.793C199.25 74.793 199.758 73.8416 199.758 72.668C199.758 71.4944 199.25 70.543 198.625 70.543C197.999 70.543 197.491 71.4944 197.491 72.668C197.491 73.8416 197.999 74.793 198.625 74.793Z" fill="#202F44" stroke="#202F44" stroke-width="0.73" stroke-miterlimit="10"/>
<path d="M209.883 87.4266C209.883 87.4266 212.1 87.9599 213.558 86.6766C214.185 86.1079 214.661 85.3917 214.942 84.5928C215.222 83.794 215.3 82.9377 215.166 82.1016" stroke="#202F44" stroke-width="0.73" stroke-miterlimit="10"/>
<path d="M230.241 81.6432C230.605 81.9781 231.037 82.2316 231.507 82.3868C231.977 82.542 232.474 82.5953 232.966 82.5432C233.6 82.4061 234.189 82.1123 234.68 81.6886C235.17 81.265 235.547 80.725 235.775 80.1182" stroke="#202F44" stroke-width="0.73" stroke-miterlimit="10"/>
<path d="M204.35 80.6844C204.35 80.6844 201.367 80.6011 201.45 78.3011C201.533 76.0011 204.35 76.9344 204.35 76.9344" stroke="#202F44" stroke-width="0.73" stroke-miterlimit="10"/>
<path d="M213.199 63.1766C214.25 62.9554 215.344 63.0721 216.324 63.5099C217.891 64.2349 218.174 64.8932 218.174 64.8932" stroke="#202F44" stroke-width="0.73" stroke-miterlimit="10"/>
<path d="M200.642 62.718C199.557 62.6798 198.488 62.9893 197.592 63.6013C196.2 64.6013 196.033 65.268 196.033 65.268" stroke="#202F44" stroke-width="0.73" stroke-miterlimit="10"/>
<path d="M64.3828 219.394H211.933C211.933 221.94 210.921 224.381 209.121 226.182C207.321 227.982 204.879 228.994 202.333 228.994H71.8328L64.3828 219.394Z" fill="#202F44"/>
<path d="M169.883 229.043H72.2C70.6855 228.966 69.2318 228.422 68.0383 227.487C66.8448 226.552 65.9698 225.27 65.5333 223.818L47.0249 154.743C46.2582 151.868 47.9832 149.518 50.8582 149.518H148.533C150.048 149.594 151.501 150.138 152.695 151.073C153.889 152.009 154.763 153.29 155.2 154.743L173.708 223.818C174.475 226.693 172.758 229.043 169.883 229.043Z" fill="#202F44"/>
<path d="M113.758 187.51C113.374 186.118 112.596 184.867 111.519 183.906C110.441 182.945 109.109 182.316 107.683 182.093C106.657 181.919 105.605 181.981 104.608 182.277C103.966 182.497 103.266 182.473 102.641 182.21C102.315 182.054 101.961 181.966 101.599 181.951C101.238 181.937 100.878 181.997 100.541 182.127C100.021 182.325 99.5754 182.679 99.2638 183.139C98.9522 183.6 98.79 184.146 98.7992 184.702C98.8018 185.153 98.9225 185.595 99.1492 185.985C99.4908 186.565 99.6066 187.25 99.4742 187.91C99.2786 188.905 99.2956 189.93 99.5242 190.918C99.7358 191.856 100.13 192.742 100.685 193.526C101.239 194.311 101.943 194.979 102.755 195.491C103.568 196.003 104.474 196.35 105.421 196.512C106.368 196.674 107.337 196.648 108.274 196.435C108.466 196.435 108.699 196.235 108.841 196.285C109.541 196.51 110.258 197.01 111.083 196.843C111.432 196.759 111.76 196.604 112.046 196.387C112.333 196.171 112.572 195.898 112.749 195.585C113.121 195.032 113.281 194.363 113.199 193.702C113.115 193.152 113.193 192.59 113.424 192.085C114.025 190.636 114.142 189.031 113.758 187.51V187.51Z" fill="white"/>
<path d="M196.033 149.518C196.033 149.518 192.975 157.401 195.008 178.209C195.3 181.218 196.841 194.676 198.116 205.709L191.191 221.009" fill="#EBEFFF"/>
<path d="M196.033 149.518C196.033 149.518 192.975 157.401 195.008 178.209C195.3 181.218 196.841 194.676 198.116 205.709L191.191 221.009" stroke="#202F44" stroke-width="1.15" stroke-miterlimit="10"/>
<path d="M202.333 224.193H340.633" stroke="#202F44" stroke-width="1.07" stroke-miterlimit="10"/>
<path d="M35.083 224.193H165.691" stroke="#202F44" stroke-width="1.04" stroke-miterlimit="10"/>
<path d="M235.642 98.7344H225.492C223.342 98.7344 221.9 96.8844 222.283 94.5678L226.8 67.3844C226.973 66.2709 227.522 65.2502 228.356 64.4921C229.19 63.7341 230.258 63.2843 231.383 63.2178H241.558C243.717 63.2178 245.15 65.0678 244.767 67.3844L240.258 94.5678C240.081 95.6854 239.526 96.7084 238.686 97.4666C237.846 98.2248 236.772 98.6722 235.642 98.7344V98.7344Z" fill="#202F44" stroke="#202F44" stroke-width="1.03" stroke-miterlimit="10"/>
<path d="M238.824 98.7344H228.641C226.491 98.7344 225.05 96.8844 225.433 94.5678L229.941 67.3844C230.117 66.2721 230.667 65.2531 231.501 64.4956C232.334 63.7381 233.4 63.2873 234.524 63.2178H244.708C246.858 63.2178 248.299 65.0678 247.916 67.3844L243.408 94.5678C243.232 95.6801 242.682 96.6991 241.848 97.4566C241.015 98.2141 239.948 98.6649 238.824 98.7344V98.7344Z" fill="#EBEFFF" stroke="#202F44" stroke-width="1.31" stroke-miterlimit="10"/>
<path d="M252.508 120.177C243.525 129.927 239.258 151.068 239.258 151.068Z" fill="#EBEFFF"/>
<path d="M252.508 120.177C243.525 129.927 239.258 151.068 239.258 151.068" stroke="#202F44" stroke-width="1.15" stroke-miterlimit="10"/>
<path d="M248.316 100.518C248.183 93.9181 247.483 82.5015 244.466 78.8515C234.975 67.5515 234.808 62.6765 232.925 64.3431C230.641 66.3681 233.808 72.7931 235.475 76.4598C234.833 76.6348 231.683 73.7765 230.183 76.0431C229.888 76.5124 229.72 77.0506 229.697 77.6046C229.673 78.1585 229.795 78.709 230.05 79.2015C230.05 79.2015 226.716 78.6265 226.583 81.6015C226.633 82.5343 227.045 83.4108 227.733 84.0431C227.751 84.0548 227.764 84.0721 227.77 84.0922C227.776 84.1124 227.775 84.134 227.767 84.1536C227.76 84.1732 227.745 84.1894 227.727 84.1997C227.708 84.2099 227.687 84.2135 227.666 84.2098C227.388 84.1808 227.107 84.2162 226.845 84.3132C226.582 84.4102 226.346 84.5662 226.153 84.7691C225.961 84.9721 225.817 85.2166 225.735 85.4837C225.652 85.7509 225.631 86.0335 225.675 86.3098C225.758 88.3098 229.133 92.2931 229.133 92.2931C229.299 94.2413 229.636 96.171 230.141 98.0598C230.875 101.068 232.208 101.601 232.208 101.601L226.841 120.176L246.783 121.468C246.783 121.468 248.375 103.593 248.316 100.518Z" fill="white" stroke="#202F44" stroke-miterlimit="10"/>
<path d="M248.316 172.393C248.316 172.393 251.549 162.601 250.516 141.784C249.382 119.109 248.016 106.376 248.016 106.376L228.949 112.926C228.949 112.926 218.016 134.701 217.199 160.426C216.491 182.293 219.541 201.851 228.274 210.184C230.779 212.53 234.035 213.91 237.463 214.079C240.89 214.249 244.267 213.196 246.991 211.109C252.274 207.143 265.966 190.843 271.491 166.626" fill="#EBEFFF"/>
<path d="M248.316 172.393C248.316 172.393 251.549 162.601 250.516 141.784C249.382 119.109 248.016 106.376 248.016 106.376L228.949 112.926C228.949 112.926 218.016 134.701 217.199 160.426C216.491 182.293 219.541 201.851 228.274 210.184C230.779 212.53 234.035 213.91 237.463 214.079C240.89 214.249 244.267 213.196 246.991 211.109C252.274 207.143 265.966 190.843 271.491 166.626" stroke="#202F44" stroke-width="1.15" stroke-miterlimit="10"/>
<path d="M309.458 229.076H294.591C293.502 229.078 292.452 228.665 291.656 227.92C290.86 227.175 290.378 226.155 290.308 225.068L287.566 182.284H316.483L313.733 225.068C313.665 226.154 313.185 227.175 312.39 227.919C311.596 228.664 310.547 229.078 309.458 229.076V229.076Z" fill="#202F44"/>
<path d="M287.008 185.81H316.325C316.501 185.823 316.677 185.786 316.833 185.703C316.989 185.62 317.118 185.494 317.205 185.34C317.293 185.187 317.335 185.012 317.326 184.835C317.318 184.659 317.259 184.488 317.158 184.343L316.683 183.635C316.279 183.043 316.064 182.343 316.066 181.627V181.218C316.055 180.773 315.871 180.349 315.551 180.037C315.232 179.726 314.804 179.552 314.358 179.552H289.3C288.858 179.552 288.434 179.727 288.121 180.04C287.809 180.352 287.633 180.776 287.633 181.218C287.633 181.91 287.433 182.587 287.058 183.168L286.283 184.36C286.192 184.497 286.138 184.656 286.128 184.82C286.118 184.984 286.151 185.148 286.225 185.296C286.298 185.443 286.409 185.568 286.547 185.658C286.685 185.749 286.844 185.801 287.008 185.81V185.81Z" fill="white" stroke="#202F44" stroke-miterlimit="10"/>
<path d="M309.833 175.684L303.675 179.518H314.333V177.018C314.333 176.806 314.292 176.597 314.211 176.402C314.13 176.207 314.011 176.03 313.862 175.88C313.713 175.731 313.535 175.612 313.34 175.532C313.145 175.451 312.936 175.409 312.725 175.409H310.675C310.374 175.418 310.082 175.514 309.833 175.684V175.684Z" fill="white" stroke="#202F44" stroke-miterlimit="10"/>
<path d="M38.1575 204.468C38.1575 204.468 29.3659 198.435 32.3242 194.185C34.3492 191.293 37.7076 196.618 37.7076 196.618C37.7076 196.618 32.0576 185.918 36.1576 184.018C39.5576 182.443 41.041 190.451 41.041 190.451C41.041 190.451 39.3743 180.601 42.9909 180.11C46.6076 179.618 46.5159 189.501 46.5159 189.501C46.5159 189.501 46.6576 181.368 50.7493 182.968C54.6326 184.485 50.9826 193.168 50.5993 194.06C50.5993 194.06 50.5993 194.101 50.5993 194.06C50.9909 193.818 52.9743 192.685 53.8409 194.16C55.8909 197.66 48.2909 205.235 48.2909 205.235L38.1575 204.468Z" fill="white" stroke="#202F44" stroke-miterlimit="10"/>
<path d="M49.9247 198.052C49.9247 198.052 52.2331 189.344 48.5248 188.886C44.8164 188.427 43.983 195.852 43.983 195.852C43.8997 192.519 41.4247 188.836 38.6747 190.619C35.9247 192.402 37.9581 198.052 37.9581 198.052" fill="white"/>
<path d="M49.9247 198.052C49.9247 198.052 52.2331 189.344 48.5248 188.886C44.8164 188.427 43.983 195.852 43.983 195.852C43.8997 192.519 41.4247 188.836 38.6747 190.619C35.9247 192.402 37.9581 198.052 37.9581 198.052" stroke="#202F44" stroke-miterlimit="10"/>
<path d="M35.2416 203.776C35.2416 203.776 32.9416 195.068 36.6416 194.609C40.3416 194.151 41.1833 201.576 41.1833 201.576C41.2666 198.243 43.7416 194.551 46.4916 196.343C49.2416 198.134 47.2166 203.776 47.2166 203.776" fill="white"/>
<path d="M35.2416 203.776C35.2416 203.776 32.9416 195.068 36.6416 194.609C40.3416 194.151 41.1833 201.576 41.1833 201.576C41.2666 198.243 43.7416 194.551 46.4916 196.343C49.2416 198.134 47.2166 203.776 47.2166 203.776" stroke="#202F44" stroke-miterlimit="10"/>
<path d="M50.6332 203.776C51.2144 203.181 51.6044 202.426 51.7529 201.608C51.9015 200.79 51.8017 199.946 51.4665 199.184C51.3488 198.845 51.1538 198.538 50.897 198.287C50.6402 198.036 50.3287 197.848 49.9868 197.738C49.6449 197.628 49.2822 197.599 48.9272 197.654C48.5723 197.708 48.2347 197.844 47.9414 198.051" fill="white"/>
<path d="M50.6332 203.776C51.2144 203.181 51.6044 202.426 51.7529 201.608C51.9015 200.79 51.8017 199.946 51.4665 199.184C51.3488 198.845 51.1538 198.538 50.897 198.287C50.6402 198.036 50.3287 197.848 49.9868 197.738C49.6449 197.628 49.2822 197.599 48.9272 197.654C48.5723 197.708 48.2347 197.844 47.9414 198.051" stroke="#202F44" stroke-miterlimit="10"/>
<path d="M30.9412 202.635H55.5329C55.9506 202.635 56.3512 202.801 56.6466 203.096C56.942 203.391 57.1078 203.792 57.1078 204.21V218.818C57.1078 221.53 56.0306 224.131 54.113 226.048C52.1955 227.966 49.5947 229.043 46.8829 229.043H39.5912C36.8794 229.043 34.2786 227.966 32.361 226.048C30.4434 224.131 29.3662 221.53 29.3662 218.818V204.21C29.3662 203.792 29.5322 203.391 29.8275 203.096C30.1229 202.801 30.5235 202.635 30.9412 202.635V202.635Z" fill="#202F44"/>
<path d="M125.224 128.043H64.7994C63.1697 128.047 61.6079 128.697 60.4555 129.849C59.3031 131.002 58.6538 132.563 58.6494 134.193V152.868C58.6538 154.498 59.3029 156.061 60.455 157.215C61.6072 158.369 63.1689 159.02 64.7994 159.026H74.0828L79.5661 164.501L85.041 159.026H125.224C126.855 159.02 128.417 158.369 129.569 157.215C130.721 156.061 131.37 154.498 131.374 152.868V134.193C131.37 132.563 130.721 131.002 129.568 129.849C128.416 128.697 126.854 128.047 125.224 128.043V128.043Z" fill="white" stroke="#202F44" stroke-width="1.53" stroke-miterlimit="10"/>
<path d="M130.934 137.918C136.387 137.918 140.809 133.497 140.809 128.043C140.809 122.589 136.387 118.168 130.934 118.168C125.48 118.168 121.059 122.589 121.059 128.043C121.059 133.497 125.48 137.918 130.934 137.918Z" fill="#EBEFFF" stroke="#202F44" stroke-width="1.15" stroke-miterlimit="10"/>
<path d="M125.291 129.685C126.101 129.685 126.758 129.029 126.758 128.219C126.758 127.409 126.101 126.752 125.291 126.752C124.481 126.752 123.824 127.409 123.824 128.219C123.824 129.029 124.481 129.685 125.291 129.685Z" fill="#202F44"/>
<path d="M136.575 129.685C137.385 129.685 138.042 129.029 138.042 128.219C138.042 127.409 137.385 126.752 136.575 126.752C135.765 126.752 135.108 127.409 135.108 128.219C135.108 129.029 135.765 129.685 136.575 129.685Z" fill="#202F44"/>
<path d="M128.824 129.101V129.184C128.96 129.623 129.232 130.007 129.602 130.279C129.972 130.552 130.419 130.699 130.878 130.699C131.338 130.699 131.785 130.552 132.155 130.279C132.524 130.007 132.797 129.623 132.933 129.184V129.184" stroke="#202F44" stroke-miterlimit="10"/>
<path d="M95.5167 137.018H69.5083C68.0448 137.018 66.8584 138.202 66.8584 139.663C66.8584 141.125 68.0448 142.309 69.5083 142.309H95.5167C96.9803 142.309 98.1667 141.125 98.1667 139.663C98.1667 138.202 96.9803 137.018 95.5167 137.018Z" fill="#202F44"/>
<path d="M120.517 145.81H69.5083C68.0448 145.81 66.8584 146.994 66.8584 148.455C66.8584 149.917 68.0448 151.101 69.5083 151.101H120.517C121.98 151.101 123.167 149.917 123.167 148.455C123.167 146.994 121.98 145.81 120.517 145.81Z" fill="#EBEFFF"/>
<path d="M97.3834 73.168H157.8C159.431 73.1746 160.994 73.8255 162.147 74.979C163.301 76.1325 163.952 77.695 163.958 79.3263V98.0013C163.952 99.6318 163.301 101.194 162.147 102.346C160.993 103.498 159.431 104.147 157.8 104.151H148.517L143.042 109.635L137.558 104.151H97.3834C95.7537 104.147 94.1919 103.498 93.0395 102.345C91.8871 101.193 91.2378 99.631 91.2334 98.0013V79.343C91.2334 77.7096 91.8805 76.1427 93.0331 74.9854C94.1858 73.8281 95.75 73.1746 97.3834 73.168V73.168Z" fill="white" stroke="#202F44" stroke-width="1.53" stroke-miterlimit="10"/>
<path d="M163.958 83.0439C169.412 83.0439 173.833 78.6228 173.833 73.1689C173.833 67.7151 169.412 63.2939 163.958 63.2939C158.504 63.2939 154.083 67.7151 154.083 73.1689C154.083 78.6228 158.504 83.0439 163.958 83.0439Z" fill="#EBEFFF" stroke="#202F44" stroke-width="1.15" stroke-miterlimit="10"/>
<path d="M169.599 74.8093C170.41 74.8093 171.066 74.1527 171.066 73.3426C171.066 72.5326 170.41 71.876 169.599 71.876C168.789 71.876 168.133 72.5326 168.133 73.3426C168.133 74.1527 168.789 74.8093 169.599 74.8093Z" fill="#202F44"/>
<path d="M158.316 74.8093C159.126 74.8093 159.783 74.1527 159.783 73.3426C159.783 72.5326 159.126 71.876 158.316 71.876C157.506 71.876 156.85 72.5326 156.85 73.3426C156.85 74.1527 157.506 74.8093 158.316 74.8093Z" fill="#202F44"/>
<path d="M161.908 75.8183V75.735C162.044 75.2961 162.316 74.9122 162.686 74.6395C163.056 74.3668 163.503 74.2197 163.962 74.2197C164.422 74.2197 164.869 74.3668 165.239 74.6395C165.608 74.9122 165.881 75.2961 166.017 75.735V75.735" stroke="#202F44" stroke-miterlimit="10"/>
<path d="M119.274 82.1514H101.599C100.136 82.1514 98.9492 83.3359 98.9492 84.7972C98.9492 86.2585 100.136 87.443 101.599 87.443H119.274C120.738 87.443 121.924 86.2585 121.924 84.7972C121.924 83.3359 120.738 82.1514 119.274 82.1514Z" fill="#202F44"/>
<path d="M135.941 90.9434H101.599C100.136 90.9434 98.9492 92.1279 98.9492 93.5892C98.9492 95.0504 100.136 96.235 101.599 96.235H135.941C137.404 96.235 138.591 95.0504 138.591 93.5892C138.591 92.1279 137.404 90.9434 135.941 90.9434Z" fill="#EBEFFF"/>
<path d="M153.583 90.9434H144.241C142.777 90.9434 141.591 92.1279 141.591 93.5892C141.591 95.0504 142.777 96.235 144.241 96.235H153.583C155.046 96.235 156.233 95.0504 156.233 93.5892C156.233 92.1279 155.046 90.9434 153.583 90.9434Z" fill="#202F44"/>
</svg>
