<svg width="215" height="24" viewBox="0 0 215 24" fill="none" xmlns="http://www.w3.org/2000/svg">
<path d="M0.00830078 18.5351H7.51103C11.7556 18.5351 13.8372 16.3721 13.8372 13.485C13.8372 10.6794 11.8461 9.03223 9.87317 8.93268V8.75167C11.6832 8.32631 13.1132 7.05926 13.1132 4.80573C13.1132 2.04538 11.1221 0 7.10376 0H0.00830078V18.5351ZM3.36598 15.7295V10.2993H7.06756C9.14009 10.2993 10.4252 11.5663 10.4252 13.2225C10.4252 14.6977 9.4116 15.7295 6.97706 15.7295H3.36598ZM3.36598 7.88284V2.7694H6.75985C8.73282 2.7694 9.75551 3.81019 9.75551 5.24014C9.75551 6.8692 8.43416 7.88284 6.68745 7.88284H3.36598Z" fill="#202F44"/>
<path d="M22.6771 18.8066C26.7498 18.8066 29.3382 15.9376 29.3382 11.6387C29.3382 7.33077 26.7498 4.45276 22.6771 4.45276C18.6045 4.45276 16.0161 7.33077 16.0161 11.6387C16.0161 15.9376 18.6045 18.8066 22.6771 18.8066ZM22.6952 16.182C20.4417 16.182 19.3376 14.1728 19.3376 11.6297C19.3376 9.08654 20.4417 7.05021 22.6952 7.05021C24.9126 7.05021 26.0167 9.08654 26.0167 11.6297C26.0167 14.1728 24.9126 16.182 22.6952 16.182Z" fill="#202F44"/>
<path d="M38.1826 18.8066C42.2553 18.8066 44.8437 15.9376 44.8437 11.6387C44.8437 7.33077 42.2553 4.45276 38.1826 4.45276C34.11 4.45276 31.5216 7.33077 31.5216 11.6387C31.5216 15.9376 34.11 18.8066 38.1826 18.8066ZM38.2007 16.182C35.9472 16.182 34.843 14.1728 34.843 11.6297C34.843 9.08654 35.9472 7.05021 38.2007 7.05021C40.418 7.05021 41.5222 9.08654 41.5222 11.6297C41.5222 14.1728 40.418 16.182 38.2007 16.182Z" fill="#202F44"/>
<path d="M58.6115 8.30821C58.159 5.95512 56.2765 4.45276 53.0184 4.45276C49.6697 4.45276 47.3891 6.09993 47.3981 8.67022C47.3891 10.6975 48.638 12.0369 51.3079 12.589L53.679 13.0868C54.9551 13.3673 55.5525 13.8832 55.5525 14.6706C55.5525 15.6209 54.5207 16.3359 52.9641 16.3359C51.4617 16.3359 50.4843 15.6842 50.2037 14.4353L47.0089 14.743C47.4162 17.2952 49.5611 18.8066 52.9731 18.8066C56.4484 18.8066 58.9011 17.0056 58.9101 14.3719C58.9011 12.3899 57.625 11.1772 55.0004 10.607L52.6292 10.1002C51.2174 9.78341 50.6562 9.29469 50.6653 8.48921C50.6562 7.54798 51.697 6.89635 53.0636 6.89635C54.575 6.89635 55.3715 7.71993 55.6249 8.63402L58.6115 8.30821Z" fill="#202F44"/>
<path d="M68.5533 4.63377H65.811V1.30325H62.5348V4.63377H60.5618V7.16786H62.5348V14.8969C62.5167 17.5124 64.4173 18.7975 66.879 18.7251C67.8111 18.698 68.4537 18.517 68.8067 18.3993L68.2546 15.8381C68.0736 15.8833 67.7025 15.9648 67.2953 15.9648C66.4717 15.9648 65.811 15.6752 65.811 14.3538V7.16786H68.5533V4.63377Z" fill="#202F44"/>
<path d="M72.5679 2.81024H78.2877V18.506H81.6131V2.81024H87.3329V0H72.5679V2.81024Z" fill="#0045FF"/>
<path d="M94.1665 18.7771C97.4015 18.7771 99.6243 17.1958 100.203 14.7831L97.1484 14.4398C96.7057 15.6145 95.6213 16.2289 94.2117 16.2289C92.0972 16.2289 90.6966 14.8373 90.6695 12.4608H100.338V11.4578C100.338 6.58735 97.4105 4.44578 93.9948 4.44578C90.0189 4.44578 87.4256 7.36446 87.4256 11.6476C87.4256 16.003 89.9828 18.7771 94.1665 18.7771ZM90.6786 10.256C90.778 8.48494 92.0882 6.99398 94.04 6.99398C95.9195 6.99398 97.1846 8.36747 97.2027 10.256H90.6786Z" fill="#0045FF"/>
<path d="M109.16 18.7771C112.648 18.7771 114.871 16.7078 115.106 13.762H111.979C111.699 15.253 110.624 16.1114 109.187 16.1114C107.145 16.1114 105.825 14.4036 105.825 11.5663C105.825 8.76506 107.172 7.08434 109.187 7.08434C110.759 7.08434 111.726 8.09639 111.979 9.43373H115.106C114.88 6.4247 112.53 4.44578 109.142 4.44578C105.075 4.44578 102.509 7.38253 102.509 11.6205C102.509 15.8223 105.012 18.7771 109.16 18.7771Z" fill="#0045FF"/>
<path d="M121.063 10.3735C121.063 8.36747 122.31 7.21084 124.063 7.21084C125.779 7.21084 126.792 8.30422 126.792 10.1747V18.506H130.063V9.66867C130.063 6.31627 128.165 4.44578 125.282 4.44578C123.15 4.44578 121.795 5.41265 121.153 6.98494H120.99V0H117.792V18.506H121.063V10.3735Z" fill="#0045FF"/>
<path d="M136.668 10.3735C136.668 8.36747 137.879 7.21084 139.605 7.21084C141.295 7.21084 142.307 8.32229 142.307 10.1747V18.506H145.578V9.66867C145.587 6.34337 143.689 4.44578 140.825 4.44578C138.746 4.44578 137.319 5.43976 136.686 6.98494H136.523V4.62651H133.397V18.506H136.668V10.3735Z" fill="#0045FF"/>
<path d="M154.957 18.7771C159.023 18.7771 161.608 15.9127 161.608 11.6205C161.608 7.31928 159.023 4.44578 154.957 4.44578C150.891 4.44578 148.307 7.31928 148.307 11.6205C148.307 15.9127 150.891 18.7771 154.957 18.7771ZM154.975 16.1566C152.725 16.1566 151.623 14.1506 151.623 11.6114C151.623 9.07229 152.725 7.03916 154.975 7.03916C157.189 7.03916 158.292 9.07229 158.292 11.6114C158.292 14.1506 157.189 16.1566 154.975 16.1566Z" fill="#0045FF"/>
<path d="M167.655 0H164.384V18.506H167.655V0Z" fill="#0045FF"/>
<path d="M177.073 18.7771C181.139 18.7771 183.724 15.9127 183.724 11.6205C183.724 7.31928 181.139 4.44578 177.073 4.44578C173.007 4.44578 170.423 7.31928 170.423 11.6205C170.423 15.9127 173.007 18.7771 177.073 18.7771ZM177.091 16.1566C174.841 16.1566 173.739 14.1506 173.739 11.6114C173.739 9.07229 174.841 7.03916 177.091 7.03916C179.305 7.03916 180.407 9.07229 180.407 11.6114C180.407 14.1506 179.305 16.1566 177.091 16.1566Z" fill="#0045FF"/>
<path d="M192.536 24C196.286 24 199.051 22.2831 199.051 18.7319V4.62651H195.825V6.92169H195.645C195.148 5.91867 194.109 4.44578 191.66 4.44578C188.452 4.44578 185.931 6.95783 185.931 11.5211C185.931 16.0482 188.452 18.3072 191.651 18.3072C194.027 18.3072 195.139 17.0331 195.645 16.012H195.807V18.6416C195.807 20.6837 194.452 21.5241 192.59 21.5241C190.621 21.5241 189.753 20.5934 189.355 19.7801L186.41 20.494C187.006 22.4367 189.003 24 192.536 24ZM192.563 15.741C190.404 15.741 189.265 14.0602 189.265 11.503C189.265 8.98193 190.386 7.12952 192.563 7.12952C194.669 7.12952 195.825 8.87349 195.825 11.503C195.825 14.1506 194.651 15.741 192.563 15.741Z" fill="#0045FF"/>
<path d="M204.437 23.7108C206.985 23.7108 208.458 22.4006 209.244 20.1867L214.819 4.64458L211.322 4.62651L208.115 15.1084H207.97L204.771 4.62651H201.301L206.334 18.7952L206.054 19.5452C205.449 21.1265 204.491 21.2349 203.063 20.8193L202.304 23.3675C202.747 23.5482 203.542 23.7108 204.437 23.7108Z" fill="#0045FF"/>
</svg>
