<svg width="48" height="48" viewBox="0 0 48 48" fill="none" xmlns="http://www.w3.org/2000/svg">
<path d="M13.8442 33.0439H1.21278C0.555839 33.0439 0.0507812 33.5493 0.0507812 34.2059V46.8373C0.0507812 47.4943 0.556182 47.9993 1.21278 47.9993H13.8442C14.5011 47.9993 15.0062 47.4939 15.0062 46.8373V34.2059C15.0062 33.5997 14.5008 33.0439 13.8442 33.0439ZM12.6818 45.6753H2.3746V35.3681H12.6818V45.6753Z" fill="#0045FF"/>
<path d="M25.5155 8.63997L24.3028 9.85241C23.8482 10.3071 23.8482 11.0144 24.3028 11.4694C24.5048 11.6714 24.8082 11.8233 25.1113 11.8233C25.4144 11.8233 25.7175 11.7221 25.9198 11.4694L29.103 8.2862C29.5576 7.83155 29.5576 7.1242 29.103 6.6692L25.9198 3.486C25.4651 3.03135 24.7578 3.03135 24.3028 3.486C23.8481 3.94065 23.8481 4.648 24.3028 5.103L25.5155 6.3157H15.0062V1.162C15.0062 0.505058 14.5008 0 13.8442 0H1.21278C0.555839 0 0.0507812 0.505401 0.0507812 1.162V13.7934C0.0507812 14.4503 0.556182 14.9554 1.21278 14.9554H13.8442C14.5011 14.9554 15.0062 14.45 15.0062 13.7934V8.64006L25.5155 8.63997ZM12.682 12.6313H2.3748V2.32409H12.682V12.6313Z" fill="#0045FF"/>
<path d="M46.787 33.044H34.1556C33.4987 33.044 32.9936 33.5494 32.9936 34.206V39.3597H22.4843L23.697 38.147C24.1516 37.6924 24.1516 36.985 23.697 36.53C23.2423 36.0754 22.535 36.0754 22.08 36.53L18.8464 39.7132C18.3917 40.1679 18.3917 40.8752 18.8464 41.3302L22.08 44.5134C22.2819 44.7154 22.5854 44.8673 22.8885 44.8673C23.1916 44.8673 23.4947 44.7661 23.697 44.5134C24.1516 44.0588 24.1516 43.3514 23.697 42.8964L22.4843 41.684H32.9936V46.8377C32.9936 47.4946 33.499 47.9997 34.1556 47.9997H46.787C47.4439 47.9997 47.949 47.4943 47.949 46.8377V34.2063C47.9493 33.5998 47.3936 33.0439 46.787 33.0439L46.787 33.044ZM45.625 45.6754H35.3178V35.3682H45.625V45.6754Z" fill="#0045FF"/>
<path d="M46.7871 0.000360871H34.1557C33.4987 0.000360871 32.9937 0.505761 32.9937 1.16236V13.7938C32.9937 14.4507 33.4991 14.9558 34.1557 14.9558H39.3094V25.4651L38.0966 24.2524C37.642 23.7977 36.9347 23.7977 36.4796 24.2524C36.025 24.707 36.025 25.4144 36.4796 25.8694L39.6632 29.0526C39.8652 29.2545 40.1686 29.4064 40.4717 29.4064C40.7748 29.4064 41.0779 29.3053 41.2802 29.0526L44.4634 25.8694C44.9181 25.4147 44.9181 24.7074 44.4634 24.2524C44.0088 23.7977 43.3014 23.7977 42.8464 24.2524L41.6337 25.4651V14.9558H46.7874C47.4443 14.9558 47.9494 14.4504 47.9494 13.7938V1.16236C47.9494 0.505418 47.444 0 46.787 0L46.7871 0.000360871ZM45.6251 12.6318H35.3178V2.32454H45.6251V12.6318Z" fill="#0045FF"/>
<path d="M5.96232 42.9473C6.16427 43.2 6.46772 43.3012 6.82121 43.3012C7.12431 43.3012 7.42741 43.1496 7.6801 42.9473L10.7118 39.6633C11.1665 39.2087 11.1161 38.4506 10.6614 38.0463C10.2068 37.5917 9.44871 37.6421 9.04441 38.0967L6.82156 40.4714L6.06347 39.6633C5.60882 39.2086 4.90147 39.1579 4.44647 39.6129C3.99182 40.0675 3.94107 40.7749 4.39607 41.2299L5.96232 42.9473Z" fill="#0045FF"/>
</svg>
