<svg width="48" height="48" viewBox="0 0 48 48" fill="none" xmlns="http://www.w3.org/2000/svg">
<path fill-rule="evenodd" clip-rule="evenodd" d="M9.31612 10.6438C7.82212 10.6438 6.61124 11.8547 6.61124 13.3487C6.61124 14.8427 7.82212 16.0535 9.31612 16.0535C10.8101 16.0535 12.021 14.8427 12.021 13.3487C12.021 11.8547 10.8101 10.6438 9.31612 10.6438ZM4.41277 13.3487C4.41277 10.6405 6.60794 8.44531 9.31612 8.44531C12.0243 8.44531 14.2195 10.6405 14.2195 13.3487C14.2195 16.0568 12.0243 18.252 9.31612 18.252C6.60794 18.252 4.41277 16.0568 4.41277 13.3487ZM38.5317 10.6438C37.0377 10.6438 35.8268 11.8547 35.8268 13.3487C35.8268 14.8427 37.0377 16.0535 38.5317 16.0535C40.0257 16.0535 41.2366 14.8427 41.2366 13.3487C41.2366 11.8547 40.0257 10.6438 38.5317 10.6438ZM33.6284 13.3487C33.6284 10.6405 35.8235 8.44531 38.5317 8.44531C41.2399 8.44531 43.4351 10.6405 43.4351 13.3487C43.4351 16.0568 41.2399 18.252 38.5317 18.252C35.8235 18.252 33.6284 16.0568 33.6284 13.3487ZM23.9239 15.3609C21.9258 15.3609 20.3061 16.9806 20.3061 18.9787C20.3061 20.9769 21.9258 22.5966 23.9239 22.5966C25.922 22.5966 27.5418 20.9769 27.5418 18.9787C27.5418 16.9806 25.922 15.3609 23.9239 15.3609ZM18.1076 18.9787C18.1076 15.7664 20.7116 13.1624 23.9239 13.1624C27.1362 13.1624 29.7403 15.7664 29.7403 18.9787C29.7403 22.1911 27.1362 24.7951 23.9239 24.7951C20.7116 24.7951 18.1076 22.191 18.1076 18.9787ZM2.28122 28.6832H16.351C15.8291 25.2553 12.8998 22.6648 9.31612 22.6648C5.73249 22.6648 2.80312 25.2553 2.28122 28.6832ZM15.546 30.8817H1.09924C0.492145 30.8817 0 30.3895 0 29.7824C0 24.6104 4.14409 20.4663 9.31612 20.4663C14.0598 20.4663 17.9388 23.9524 18.5487 28.5204C20.1471 27.6537 21.9781 27.1616 23.9239 27.1616C25.9276 27.1616 27.8095 27.6835 29.4411 28.5987C30.0169 23.9924 33.9131 20.4663 38.6839 20.4663C43.8559 20.4663 48 24.6104 48 29.7824C48 30.3895 47.5079 30.8817 46.9008 30.8817H32.3018C34.1143 32.8852 35.2182 35.5417 35.2182 38.4558C35.2182 39.0629 34.726 39.555 34.1189 39.555H13.7289C13.1218 39.555 12.6297 39.0629 12.6297 38.4558C12.6297 35.5417 13.7336 32.8852 15.546 30.8817ZM31.649 28.6832H45.7188C45.1969 25.2553 42.2675 22.6648 38.6839 22.6648C35.1002 22.6648 32.1709 25.2553 31.649 28.6832ZM14.8939 37.3566H32.9539C32.4112 32.8518 28.5749 29.36 23.9239 29.36C19.273 29.36 15.4367 32.8518 14.8939 37.3566Z" fill="#0045FF"/>
</svg>
