<svg width="48" height="48" viewBox="0 0 48 48" fill="none" xmlns="http://www.w3.org/2000/svg">
<g clip-path="url(#clip0_102_4935)">
<path d="M46.9386 27.3601H43.1065C42.9905 26.6165 42.6572 25.9017 42.0855 25.3287L30.9692 14.2125C30.763 14.0062 30.4844 13.8906 30.1926 13.8906L23.7338 13.891C23.1079 13.891 22.7192 14.4627 22.2902 14.8379C21.8045 15.261 21.2853 15.6489 20.7293 15.9749C19.9565 16.4276 19.101 16.7664 18.2063 16.871C17.7388 16.9256 17.2556 16.9188 16.7953 16.8109C15.6879 16.55 14.9037 15.598 15.8696 14.6338L21.0579 9.44543C21.398 9.10538 21.7749 8.89534 22.6061 8.89534H32.9574C33.5647 8.89534 34.2024 9.53055 34.6267 9.89474C35.3026 10.4745 35.9344 11.1042 36.5925 11.7039C37.7948 12.8011 39.246 14.0453 40.9691 14.0453H46.9392C48.3536 14.0453 48.3536 11.85 46.9392 11.85H40.9691C40.325 11.85 39.7122 11.4176 39.2201 11.0488C38.4824 10.4957 37.8184 9.84991 37.149 9.21983C36.0204 8.15988 34.6306 6.70062 32.9574 6.70062H22.6111C22.6086 6.70062 22.6069 6.7002 22.6052 6.7002H15.0441C13.3709 6.7002 11.9811 8.15949 10.8525 9.22027C10.2305 9.80509 9.61342 10.401 8.9401 10.9273C8.41076 11.3414 7.7387 11.8509 7.03188 11.8509H1.06179C-0.353929 11.8509 -0.353929 14.0462 1.06179 14.0462H7.03188C8.75504 14.0462 10.2062 12.8012 11.4085 11.7047C12.0665 11.1051 12.6983 10.4754 13.3742 9.89561C13.7986 9.53057 14.4359 8.89621 15.0435 8.89621H18.5033L14.3169 13.0826C13.3437 14.0554 12.8775 15.4812 13.4513 16.7859C13.9832 17.9941 15.2045 18.7254 16.4575 18.9858C19.3112 19.5779 22.1659 17.9801 24.1787 16.0876H29.7384L40.5332 26.8828C41.8854 28.235 39.7929 30.3312 38.4403 28.9828L31.4835 22.0251C30.4828 21.0227 28.9308 22.5765 29.9311 23.5775L37.8458 31.4923C39.1988 32.8452 37.1048 34.9461 35.7522 33.5922L27.8341 25.6746C26.8347 24.6731 25.2814 26.2259 26.2817 27.227L33.0853 34.0305C33.9995 34.9448 33.3389 36.5659 32.0405 36.5646C31.6446 36.5646 31.2719 36.4105 30.992 36.1293H30.9908L24.1859 29.3232C23.1852 28.3217 21.6332 29.8746 22.6335 30.8757L28.3334 36.5756C29.6792 37.932 27.5843 40.0189 26.2334 38.6684L25.4885 37.9248C26.6828 35.6436 25.1527 32.7978 22.5764 32.5738C22.7474 30.7203 21.48 29.0023 19.6446 28.6516C20.1554 26.4474 18.5208 24.2581 16.2518 24.156C16.4144 20.8618 12.3219 19.0721 10.0013 21.3924L6.0651 25.3298C5.49384 25.9024 5.16014 26.6176 5.04411 27.3612H1.06181C-0.353909 27.3612 -0.353909 29.5556 1.06181 29.5556H5.38375C5.94613 30.6952 7.04339 31.4727 8.31459 31.5917C8.09482 33.9356 10.1393 35.8899 12.4672 35.5639C12.7645 37.8443 15.1567 39.3095 17.3227 38.5494C17.7289 40.1555 19.2139 41.2989 20.8693 41.2989C21.851 41.2989 22.775 40.9148 23.4694 40.2199L24.0754 39.6139L24.6814 40.2199C26.6497 42.1904 30.1365 41.2549 30.8256 38.5494C32.8274 39.2477 35.0667 38.0653 35.5981 36.0051C38.3845 36.9918 41.1354 34.3141 40.3092 31.5039C41.3929 31.2562 42.275 30.5507 42.7675 29.5559H46.9388C48.3532 29.5547 48.3532 27.3602 46.9388 27.3602L46.9386 27.3601ZM7.61641 28.9787C7.03922 28.4015 7.03922 27.4596 7.61768 26.8812L11.5539 22.9442C12.9077 21.5912 15.0026 23.6878 13.6501 25.0412L9.71008 28.9813C9.15067 29.5385 8.17501 29.5373 7.61649 28.9787L7.61641 28.9787ZM10.9093 32.9843C10.3309 32.4058 10.3309 31.4652 10.9093 30.8868C10.9093 30.8868 15.0238 26.7736 15.026 26.7714C16.3789 25.4193 18.4755 27.5151 17.1222 28.8676L13.0055 32.9843C12.4271 33.5627 11.4878 33.5615 10.9093 32.9843ZM17.1573 36.1281C16.8761 36.4093 16.5039 36.5635 16.1088 36.5635H16.1083C14.815 36.5635 14.1456 34.9462 15.0607 34.0332C15.0611 34.0319 17.8873 31.2065 17.889 31.2039C19.2417 29.851 21.3366 31.9475 19.9848 33.3001C19.9835 33.3027 17.1595 36.1263 17.1573 36.1281L17.1573 36.1281ZM21.9159 38.6686C20.5688 40.0182 18.4803 37.936 19.8125 36.5795L21.207 35.1863C21.4831 34.9089 21.8625 34.7522 22.2543 34.7522C23.5534 34.7522 24.2132 36.3708 23.3002 37.2838C23.2981 37.2859 21.9159 38.6685 21.9159 38.6685L21.9159 38.6686Z" fill="#0045FF"/>
</g>
<defs>
<clipPath id="clip0_102_4935">
<rect width="48" height="48" fill="white"/>
</clipPath>
</defs>
</svg>
