<svg width="48" height="48" viewBox="0 0 48 48" fill="none" xmlns="http://www.w3.org/2000/svg">
<path d="M4.57049 10.9816V35.139L0.11479 44.1576C-0.0462303 44.5335 -0.0462307 44.9091 0.168338 45.2851C0.382907 45.6071 0.758872 45.8221 1.13444 45.8221H46.8725C47.5165 45.8221 48 45.2851 48 44.6945C48 44.48 47.9465 44.265 47.839 44.104L43.4368 35.1925V11.0351C43.4368 10.391 42.8998 9.90758 42.3092 9.90758L32.5389 9.90796C31.8948 9.90796 31.4114 10.4449 31.4114 11.0355C31.4114 11.626 31.9483 12.163 32.5389 12.163H41.1284V34.3342L6.87856 34.3334V12.1086H15.253C15.8971 12.1086 16.3806 11.5716 16.3806 10.9811C16.3806 10.3905 15.8436 9.85353 15.253 9.85353L5.75141 9.8539C5.10696 9.8539 4.57038 10.3373 4.57038 10.9814L4.57049 10.9816ZM18.3671 43.5136L18.904 42.4935H29.1575L29.6406 43.5136H18.3671ZM41.6118 36.5347L45.0476 43.5136H32.1636L30.8215 40.8294C30.607 40.4534 30.231 40.1853 29.8015 40.1853H18.1522C17.7227 40.1853 17.3471 40.4538 17.1321 40.8294L15.7901 43.5136H2.9598L6.44902 36.5347H41.6118ZM23.0912 31.7034C23.3057 31.9719 23.6282 32.1329 24.0037 32.1329C24.3797 32.1329 24.7017 31.9719 24.9163 31.7034L29.05 26.2815C29.211 26.0669 29.2646 25.852 29.2646 25.5835V6.25755C29.2646 4.00286 27.4394 2.17773 25.1847 2.17773H22.8766C20.6219 2.17773 18.7967 4.00286 18.7967 6.25755V25.6372C18.7967 25.9056 18.9042 26.1202 19.0113 26.3352L23.0912 31.7034ZM24.0037 29.1267L22.1786 26.7645H25.8289L24.0037 29.1267ZM27.0099 24.456H25.1848V9.10259H27.0099V24.456ZM21.0511 6.25738C21.0511 5.23731 21.8562 4.43225 22.8762 4.43225H25.1844C26.2044 4.43225 27.0095 5.23735 27.0095 6.25738V6.84792H21.0511V6.25738ZM22.8762 9.10259V24.456H21.0511V9.10259H22.8762Z" fill="#0045FF"/>
</svg>
