<svg width="83" height="82" viewBox="0 0 83 82" fill="none" xmlns="http://www.w3.org/2000/svg">
<g filter="url(#filter0_dd_102_4745)">
<rect x="6.45264" y="6" width="69.9119" height="70" rx="6" fill="#EBEFFF"/>
</g>
<path d="M58.0546 31.9092L59.3079 31.9092C59.3079 31.5768 59.1759 31.258 58.9408 31.0229C58.7058 30.7879 58.387 30.6558 58.0546 30.6558V31.9092ZM43.6788 46.3031L42.792 47.1888C43.027 47.4242 43.3461 47.5565 43.6788 47.5565C44.0114 47.5565 44.3305 47.4242 44.5656 47.1888L43.6788 46.3031ZM36.1125 38.7274L36.9993 37.8417C36.7642 37.6063 36.4452 37.474 36.1125 37.474C35.7798 37.474 35.4608 37.6063 35.2257 37.8417L36.1125 38.7274ZM23.8764 49.2053C23.3872 49.6951 23.3877 50.4886 23.8775 50.9778C24.3673 51.4669 25.1608 51.4664 25.65 50.9767L23.8764 49.2053ZM48.9751 30.6558C48.2829 30.6558 47.7218 31.217 47.7218 31.9092C47.7218 32.6014 48.2829 33.1625 48.9751 33.1625V30.6558ZM56.8012 41.0001C56.8012 41.6923 57.3624 42.2534 58.0546 42.2534C58.7468 42.2534 59.3079 41.6923 59.3079 41.0001L56.8012 41.0001ZM57.1678 31.0235L42.792 45.4174L44.5656 47.1888L58.9414 32.7949L57.1678 31.0235ZM44.5656 45.4174L36.9993 37.8417L35.2257 39.613L42.792 47.1888L44.5656 45.4174ZM35.2257 37.8417L23.8764 49.2053L25.65 50.9767L36.9993 39.613L35.2257 37.8417ZM48.9751 33.1625H58.0546V30.6558H48.9751V33.1625ZM56.8013 31.9092L56.8012 41.0001L59.3079 41.0001L59.3079 31.9092L56.8013 31.9092Z" fill="#0045FF"/>
<defs>
<filter id="filter0_dd_102_4745" x="0.452637" y="0" width="81.9121" height="82" filterUnits="userSpaceOnUse" color-interpolation-filters="sRGB">
<feFlood flood-opacity="0" result="BackgroundImageFix"/>
<feColorMatrix in="SourceAlpha" type="matrix" values="0 0 0 0 0 0 0 0 0 0 0 0 0 0 0 0 0 0 127 0" result="hardAlpha"/>
<feOffset dx="2" dy="2"/>
<feGaussianBlur stdDeviation="2"/>
<feComposite in2="hardAlpha" operator="out"/>
<feColorMatrix type="matrix" values="0 0 0 0 0 0 0 0 0 0.270588 0 0 0 0 1 0 0 0 0.08 0"/>
<feBlend mode="normal" in2="BackgroundImageFix" result="effect1_dropShadow_102_4745"/>
<feColorMatrix in="SourceAlpha" type="matrix" values="0 0 0 0 0 0 0 0 0 0 0 0 0 0 0 0 0 0 127 0" result="hardAlpha"/>
<feOffset dx="-2" dy="-2"/>
<feGaussianBlur stdDeviation="2"/>
<feComposite in2="hardAlpha" operator="out"/>
<feColorMatrix type="matrix" values="0 0 0 0 0.964706 0 0 0 0 0.980392 0 0 0 0 1 0 0 0 1 0"/>
<feBlend mode="normal" in2="effect1_dropShadow_102_4745" result="effect2_dropShadow_102_4745"/>
<feBlend mode="normal" in="SourceGraphic" in2="effect2_dropShadow_102_4745" result="shape"/>
</filter>
</defs>
</svg>
