<svg width="83" height="82" viewBox="0 0 83 82" fill="none" xmlns="http://www.w3.org/2000/svg">
<g filter="url(#filter0_dd_102_4778)">
<rect x="6.45264" y="6" width="69.9119" height="70" rx="6" fill="#EBEFFF"/>
</g>
<path d="M41.4082 52.6667L53.0602 41L58.0539 46L46.4019 57.6667L41.4082 52.6667Z" stroke="#0045FF" stroke-width="2.5" stroke-linecap="round" stroke-linejoin="round"/>
<path d="M51.3963 42.6663L48.8995 30.1663L24.7632 24.333L30.5892 48.4997L43.0735 50.9997L51.3963 42.6663Z" stroke="#0045FF" stroke-width="2.5" stroke-linecap="round" stroke-linejoin="round"/>
<path d="M24.7632 24.333L37.3906 36.9763" stroke="#0045FF" stroke-width="2.5" stroke-linecap="round" stroke-linejoin="round"/>
<path d="M39.7437 42.6667C41.5823 42.6667 43.0728 41.1743 43.0728 39.3333C43.0728 37.4924 41.5823 36 39.7437 36C37.9051 36 36.4146 37.4924 36.4146 39.3333C36.4146 41.1743 37.9051 42.6667 39.7437 42.6667Z" stroke="#0045FF" stroke-width="2.5" stroke-linecap="round" stroke-linejoin="round"/>
<defs>
<filter id="filter0_dd_102_4778" x="0.452637" y="0" width="81.9121" height="82" filterUnits="userSpaceOnUse" color-interpolation-filters="sRGB">
<feFlood flood-opacity="0" result="BackgroundImageFix"/>
<feColorMatrix in="SourceAlpha" type="matrix" values="0 0 0 0 0 0 0 0 0 0 0 0 0 0 0 0 0 0 127 0" result="hardAlpha"/>
<feOffset dx="2" dy="2"/>
<feGaussianBlur stdDeviation="2"/>
<feComposite in2="hardAlpha" operator="out"/>
<feColorMatrix type="matrix" values="0 0 0 0 0 0 0 0 0 0.270588 0 0 0 0 1 0 0 0 0.08 0"/>
<feBlend mode="normal" in2="BackgroundImageFix" result="effect1_dropShadow_102_4778"/>
<feColorMatrix in="SourceAlpha" type="matrix" values="0 0 0 0 0 0 0 0 0 0 0 0 0 0 0 0 0 0 127 0" result="hardAlpha"/>
<feOffset dx="-2" dy="-2"/>
<feGaussianBlur stdDeviation="2"/>
<feComposite in2="hardAlpha" operator="out"/>
<feColorMatrix type="matrix" values="0 0 0 0 0.964706 0 0 0 0 0.980392 0 0 0 0 1 0 0 0 1 0"/>
<feBlend mode="normal" in2="effect1_dropShadow_102_4778" result="effect2_dropShadow_102_4778"/>
<feBlend mode="normal" in="SourceGraphic" in2="effect2_dropShadow_102_4778" result="shape"/>
</filter>
</defs>
</svg>
