<svg width="303" height="210" viewBox="0 0 303 210" fill="none" xmlns="http://www.w3.org/2000/svg">
<path d="M38.9678 168.68H61.2348C61.5356 168.68 61.824 168.8 62.0367 169.012C62.2493 169.225 62.3688 169.513 62.3688 169.814V187.72C62.3688 189.839 61.5273 191.87 60.0295 193.368C58.5316 194.866 56.5001 195.707 54.3818 195.707H45.7858C43.6675 195.707 41.636 194.866 40.1381 193.368C38.6403 191.87 37.7988 189.839 37.7988 187.72V169.814C37.7988 169.662 37.8292 169.512 37.8883 169.372C37.9475 169.232 38.0342 169.105 38.1432 169C38.2523 168.894 38.3814 168.811 38.5231 168.756C38.6647 168.701 38.816 168.676 38.9678 168.68Z" fill="#202F44"/>
<path d="M38.4993 173.579C30.9533 174.818 30.9533 185.668 38.4993 186.914" stroke="#202F44" stroke-width="2" stroke-miterlimit="10"/>
<path d="M123.675 191.626H279.831" stroke="#202F44" stroke-width="1.07" stroke-miterlimit="10"/>
<path d="M23.1689 191.626H132.887" stroke="#202F44" stroke-width="1.04" stroke-miterlimit="10"/>
<path d="M147.601 166.846H65.5472C64.3029 166.79 63.1102 166.332 62.1483 165.54C61.1865 164.749 60.5075 163.667 60.2132 162.457L47.7042 104.434C47.5544 103.91 47.5308 103.359 47.6354 102.824C47.74 102.29 47.9698 101.788 48.3059 101.36C48.6419 100.932 49.0748 100.589 49.5689 100.36C50.063 100.132 50.6042 100.024 51.1482 100.045H133.202C134.447 100.101 135.64 100.559 136.603 101.35C137.566 102.141 138.247 103.223 138.543 104.434L151.045 162.457C151.195 162.98 151.219 163.531 151.114 164.066C151.009 164.6 150.78 165.102 150.444 165.53C150.107 165.958 149.675 166.301 149.181 166.53C148.686 166.758 148.145 166.867 147.601 166.846Z" fill="white" stroke="#202F44" stroke-width="1.18" stroke-miterlimit="10"/>
<path d="M143.821 166.846H61.7669C60.5226 166.79 59.3299 166.332 58.3681 165.54C57.4062 164.749 56.7272 163.667 56.4329 162.457L43.9239 104.434C43.7742 103.91 43.7506 103.359 43.8552 102.824C43.9597 102.29 44.1895 101.788 44.5256 101.36C44.8617 100.932 45.2945 100.589 45.7886 100.36C46.2827 100.132 46.8239 100.024 47.3679 100.045H129.422C130.666 100.1 131.859 100.558 132.821 101.35C133.783 102.141 134.462 103.223 134.756 104.434L147.286 162.457C147.436 162.982 147.46 163.535 147.354 164.071C147.248 164.607 147.017 165.11 146.678 165.539C146.34 165.968 145.904 166.31 145.407 166.537C144.91 166.764 144.367 166.87 143.821 166.846Z" fill="#202F44"/>
<path d="M98.0056 131.957C97.6832 130.788 97.0303 129.737 96.1251 128.93C95.2199 128.123 94.101 127.594 92.9027 127.407C92.0412 127.261 91.1576 127.313 90.3196 127.561C89.7808 127.746 89.1927 127.726 88.6677 127.505C88.3939 127.374 88.0963 127.3 87.7929 127.288C87.4896 127.276 87.1869 127.326 86.9036 127.435C86.4678 127.603 86.0938 127.9 85.8322 128.287C85.5706 128.674 85.4339 129.131 85.4407 129.598C85.4429 129.977 85.5442 130.349 85.7346 130.676C86.0216 131.163 86.1188 131.739 86.0076 132.293C85.8433 133.129 85.8576 133.99 86.0497 134.82C86.2275 135.608 86.5586 136.352 87.0242 137.012C87.4898 137.671 88.0808 138.232 88.7634 138.663C89.4459 139.094 90.2066 139.386 91.0021 139.523C91.7976 139.66 92.6123 139.639 93.3997 139.461C93.5607 139.419 93.7566 139.286 93.8756 139.328C94.4636 139.517 95.0657 139.937 95.7587 139.797C96.0519 139.726 96.3275 139.596 96.5683 139.414C96.8091 139.232 97.01 139.003 97.1587 138.74C97.4711 138.276 97.6054 137.714 97.5367 137.158C97.4664 136.697 97.532 136.225 97.7256 135.8C98.2299 134.583 98.3282 133.235 98.0056 131.957Z" fill="white"/>
<path d="M87.9753 154.757L76.1943 186.012C75.956 186.638 75.8734 187.312 75.9535 187.976C76.0337 188.641 76.2743 189.276 76.6545 189.827C77.0348 190.378 77.5432 190.829 78.1362 191.14C78.7291 191.451 79.3888 191.613 80.0583 191.612H123.675V188.49L101.632 185.557C101.311 185.554 100.994 185.478 100.707 185.334C100.419 185.189 100.169 184.981 99.975 184.725C99.7809 184.468 99.6482 184.171 99.5873 183.855C99.5263 183.539 99.5386 183.214 99.6233 182.904L107.477 154.757H87.9753Z" fill="#202F44"/>
<path d="M66.0225 83.3008H125.166V120.758C125.166 121.419 124.903 122.053 124.436 122.52C123.968 122.987 123.334 123.25 122.673 123.25H68.5145C67.8535 123.25 67.2197 122.987 66.7524 122.52C66.285 122.053 66.0225 121.419 66.0225 120.758V83.3008Z" fill="white" stroke="#202F44" stroke-miterlimit="10"/>
<path d="M68.9492 79.1152H122.24C123.155 79.1152 124.033 79.4788 124.68 80.126C125.328 80.7732 125.691 81.651 125.691 82.5662V85.4223H65.4912V82.5662C65.4912 82.1125 65.5807 81.6631 65.7546 81.244C65.9284 80.8248 66.1832 80.4441 66.5044 80.1235C66.8256 79.803 67.2069 79.5489 67.6264 79.3759C68.0459 79.2029 68.4954 79.1143 68.9492 79.1152Z" fill="#202F44"/>
<path d="M101.373 89.2715H72.8482C71.7077 89.2715 70.7832 90.196 70.7832 91.3365V91.3435C70.7832 92.4839 71.7077 93.4085 72.8482 93.4085H101.373C102.514 93.4085 103.438 92.4839 103.438 91.3435V91.3365C103.438 90.196 102.514 89.2715 101.373 89.2715Z" fill="#202F44"/>
<path d="M86.3582 96.8945H72.8482C71.7077 96.8945 70.7832 97.819 70.7832 98.9595V98.9665C70.7832 100.107 71.7077 101.032 72.8482 101.032H86.3582C87.4986 101.032 88.4232 100.107 88.4232 98.9665V98.9595C88.4232 97.819 87.4986 96.8945 86.3582 96.8945Z" fill="#EBEFFF"/>
<path d="M104.663 104.518H72.8482C71.7077 104.518 70.7832 105.442 70.7832 106.583V106.59C70.7832 107.73 71.7077 108.655 72.8482 108.655H104.663C105.804 108.655 106.728 107.73 106.728 106.59V106.583C106.728 105.442 105.804 104.518 104.663 104.518Z" fill="#202F44"/>
<path d="M101.373 112.141H72.8482C71.7077 112.141 70.7832 113.065 70.7832 114.206V114.213C70.7832 115.353 71.7077 116.278 72.8482 116.278H101.373C102.514 116.278 103.438 115.353 103.438 114.213V114.206C103.438 113.065 102.514 112.141 101.373 112.141Z" fill="#EBEFFF"/>
<path d="M70.4605 83.1611C70.9553 83.1611 71.3565 82.76 71.3565 82.2652C71.3565 81.7703 70.9553 81.3691 70.4605 81.3691C69.9656 81.3691 69.5645 81.7703 69.5645 82.2652C69.5645 82.76 69.9656 83.1611 70.4605 83.1611Z" fill="#EBEFFF"/>
<path d="M73.2818 83.1611C73.7766 83.1611 74.1777 82.76 74.1777 82.2652C74.1777 81.7703 73.7766 81.3691 73.2818 81.3691C72.7869 81.3691 72.3857 81.7703 72.3857 82.2652C72.3857 82.76 72.7869 83.1611 73.2818 83.1611Z" fill="#EBEFFF"/>
<path d="M76.103 83.1611C76.5979 83.1611 76.999 82.76 76.999 82.2652C76.999 81.7703 76.5979 81.3691 76.103 81.3691C75.6082 81.3691 75.207 81.7703 75.207 82.2652C75.207 82.76 75.6082 83.1611 76.103 83.1611Z" fill="#EBEFFF"/>
<path d="M233.106 123.068L194.487 78.1416" stroke="#202F44" stroke-width="1.15" stroke-miterlimit="10"/>
<path d="M231.153 123.355L192.534 78.4287" stroke="#202F44" stroke-width="1.15" stroke-miterlimit="10"/>
<path d="M229.2 123.642L190.588 78.7227" stroke="#202F44" stroke-width="1.15" stroke-miterlimit="10"/>
<path d="M227.254 123.936L188.635 79.0098" stroke="#202F44" stroke-width="1.15" stroke-miterlimit="10"/>
<path d="M187.255 76.8675L133.607 13.6575L136.015 9.64648L190.657 74.0325" stroke="#202F44" stroke-width="1.15" stroke-miterlimit="10"/>
<path d="M230.943 124.552L209.796 146.791" stroke="#202F44" stroke-width="4" stroke-miterlimit="10"/>
<path d="M241.758 147.491L230.943 124.552" stroke="#202F44" stroke-width="4" stroke-miterlimit="10"/>
<path d="M204.406 149.689V146.196L210.923 140.841L215.578 145.265L212.162 151.922L204.406 149.689Z" fill="#EBEFFF" stroke="#202F44" stroke-width="1.15" stroke-miterlimit="10"/>
<path d="M130.227 22.8281L167.474 79.6261L198.666 142.01H187.494L146.992 82.4191L123.248 25.6211L130.227 22.8281Z" stroke="#202F44" stroke-width="3" stroke-linejoin="bevel"/>
<path d="M125.047 29.9326L135.785 31.2976L132.089 46.7816L147.678 49.4416L140.104 65.9476L160.257 69.1466L151.423 88.9356H172.129L164.485 108.158H181.74L177.225 126.897L191.96 128.598L186.073 139.924" stroke="#202F44" stroke-width="3" stroke-linejoin="bevel"/>
<path d="M127.798 36.5129L135.785 31.2979" stroke="#202F44" stroke-width="3" stroke-linejoin="bevel"/>
<path d="M136.282 56.8124L147.678 49.4414" stroke="#202F44" stroke-width="3" stroke-linejoin="bevel"/>
<path d="M145.823 79.6255L160.257 69.1465" stroke="#202F44" stroke-width="3" stroke-linejoin="bevel"/>
<path d="M158.507 99.3586L172.129 88.9355" stroke="#202F44" stroke-width="3" stroke-linejoin="bevel"/>
<path d="M171.232 118.083L181.739 108.157" stroke="#202F44" stroke-width="3" stroke-linejoin="bevel"/>
<path d="M181.74 133.547L191.96 128.598" stroke="#202F44" stroke-width="3" stroke-linejoin="bevel"/>
<path d="M120.7 36.0152L125.355 32.8792L135.596 24.9972L124.578 11.0322L116.976 13.9792L114.029 19.2502L120.7 36.0152Z" fill="#EBEFFF" stroke="#202F44" stroke-width="1.15" stroke-miterlimit="10"/>
<path d="M125.355 32.8795L116.976 13.9795L113.931 19.7125L120.7 36.0155L125.355 32.8795Z" fill="#202F44"/>
<path d="M113.098 101.711C114.583 101.711 115.786 100.508 115.786 99.023C115.786 97.5384 114.583 96.335 113.098 96.335C111.614 96.335 110.41 97.5384 110.41 99.023C110.41 100.508 111.614 101.711 113.098 101.711Z" fill="#202F44"/>
<path d="M109.262 17.9842L109.773 91.2672L116.71 91.1412L116.857 17.8652" stroke="#202F44" stroke-width="1.15" stroke-miterlimit="10"/>
<path d="M113.056 100.982C114.541 100.982 115.744 99.779 115.744 98.2945C115.744 96.8099 114.541 95.6064 113.056 95.6064C111.572 95.6064 110.368 96.8099 110.368 98.2945C110.368 99.779 111.572 100.982 113.056 100.982Z" fill="#202F44"/>
<path d="M112.286 98.3224L111.943 100.877C111.78 101.97 111.246 102.974 110.431 103.719C109.713 104.345 109.149 105.129 108.785 106.01C108.42 106.891 108.265 107.844 108.331 108.794C108.351 109.744 108.63 110.67 109.138 111.472C109.646 112.275 110.364 112.923 111.214 113.347C112.064 113.771 113.013 113.954 113.96 113.877C114.907 113.8 115.814 113.466 116.584 112.91C117.231 112.408 117.751 111.761 118.105 111.023C118.459 110.284 118.635 109.473 118.621 108.654C118.621 108.654 117.053 111.377 114.323 110.873C113.789 110.817 113.282 110.608 112.863 110.271C112.444 109.934 112.131 109.483 111.961 108.973C111.791 108.463 111.772 107.915 111.905 107.394C112.039 106.873 112.319 106.402 112.713 106.036C113.595 105.258 114.138 104.165 114.225 102.991L115.079 96.6914L112.286 98.3224Z" fill="#202F44"/>
<path d="M107.463 90.4132H118.586C118.786 90.4132 118.979 90.4929 119.12 90.6346C119.262 90.7764 119.342 90.9687 119.342 91.1692V93.8152C119.341 94.3946 119.112 94.9503 118.705 95.3623L114.694 98.6662H111.495L107.596 95.1102C107.39 94.9266 107.222 94.7041 107.102 94.4555C106.981 94.2068 106.912 93.9369 106.896 93.6612L106.812 91.0712C106.809 90.9847 106.824 90.8984 106.855 90.8177C106.887 90.737 106.935 90.6636 106.996 90.602C107.057 90.5405 107.129 90.4919 107.21 90.4595C107.29 90.427 107.376 90.4113 107.463 90.4132Z" fill="#202F44"/>
<path d="M117.466 67.25H108.681C108.043 67.25 107.526 67.7671 107.526 68.405V84.869C107.526 85.5069 108.043 86.024 108.681 86.024H117.466C118.104 86.024 118.621 85.5069 118.621 84.869V68.405C118.621 67.7671 118.104 67.25 117.466 67.25Z" fill="#EBEFFF"/>
<path d="M117.466 67.25H108.681C108.043 67.25 107.526 67.7671 107.526 68.405V84.869C107.526 85.5069 108.043 86.024 108.681 86.024H117.466C118.104 86.024 118.621 85.5069 118.621 84.869V68.405C118.621 67.7671 118.104 67.25 117.466 67.25Z" fill="#EBEFFF" stroke="#202F44" stroke-width="1.15" stroke-miterlimit="10"/>
<path d="M101.429 76.3355L123.241 61.1035" stroke="#202F44" stroke-width="1.5" stroke-miterlimit="10"/>
<path d="M101.429 76.3355L123.241 61.1035" stroke="#202F44" stroke-width="1.5" stroke-miterlimit="10"/>
<path d="M101.429 79.1353L123.241 63.9033" stroke="#202F44" stroke-width="1.5" stroke-miterlimit="10"/>
<path d="M101.429 81.9361L123.241 66.7041" stroke="#202F44" stroke-width="1.5" stroke-miterlimit="10"/>
<path d="M101.429 84.7359L123.241 69.5039" stroke="#202F44" stroke-width="1.5" stroke-miterlimit="10"/>
<path d="M101.429 87.5357L123.241 72.3037" stroke="#202F44" stroke-width="1.5" stroke-miterlimit="10"/>
<path d="M101.429 90.3355L123.241 75.1035" stroke="#202F44" stroke-width="1.5" stroke-miterlimit="10"/>
<path d="M101.429 93.1353L123.241 77.9033" stroke="#202F44" stroke-width="1.5" stroke-miterlimit="10"/>
<path d="M101.429 95.9361L123.241 80.7041" stroke="#202F44" stroke-width="1.5" stroke-miterlimit="10"/>
<path d="M101.429 73.5357L123.241 58.3037" stroke="#202F44" stroke-width="1.5" stroke-miterlimit="10"/>
<path d="M127.798 17.8647C132.337 17.8647 136.016 14.1854 136.016 9.6467C136.016 5.10803 132.337 1.42871 127.798 1.42871C123.259 1.42871 119.58 5.10803 119.58 9.6467C119.58 14.1854 123.259 17.8647 127.798 17.8647Z" fill="#202F44"/>
<path d="M127.798 15.4569C131.007 15.4569 133.608 12.8557 133.608 9.64691C133.608 6.43813 131.007 3.83691 127.798 3.83691C124.59 3.83691 121.988 6.43813 121.988 9.64691C121.988 12.8557 124.59 15.4569 127.798 15.4569Z" fill="#EBEFFF" stroke="#202F44" stroke-width="1.15" stroke-miterlimit="10"/>
<path d="M127.798 11.208C128.66 11.208 129.359 10.5091 129.359 9.64697C129.359 8.78485 128.66 8.08594 127.798 8.08594C126.936 8.08594 126.237 8.78485 126.237 9.64697C126.237 10.5091 126.936 11.208 127.798 11.208Z" fill="#202F44"/>
<path d="M113.078 20.5672C116.286 20.5672 118.888 17.966 118.888 14.7573C118.888 11.5485 116.286 8.94727 113.078 8.94727C109.869 8.94727 107.268 11.5485 107.268 14.7573C107.268 17.966 109.869 20.5672 113.078 20.5672Z" fill="#202F44"/>
<path d="M113.077 18.8655C115.346 18.8655 117.186 17.0258 117.186 14.7565C117.186 12.4871 115.346 10.6475 113.077 10.6475C110.807 10.6475 108.968 12.4871 108.968 14.7565C108.968 17.0258 110.807 18.8655 113.077 18.8655Z" fill="#EBEFFF" stroke="#202F44" stroke-width="1.15" stroke-miterlimit="10"/>
<path d="M113.077 15.8624C113.688 15.8624 114.183 15.3672 114.183 14.7564C114.183 14.1456 113.688 13.6504 113.077 13.6504C112.466 13.6504 111.971 14.1456 111.971 14.7564C111.971 15.3672 112.466 15.8624 113.077 15.8624Z" fill="#202F44"/>
<path d="M170.47 169.009L170.001 168.358C169.094 167.118 168.604 165.624 168.601 164.088V154.176C168.594 152.624 169.085 151.11 170.001 149.857L175.111 142.941C176.118 141.578 177.432 140.47 178.945 139.706C180.459 138.943 182.13 138.545 183.826 138.545H197.686C198.533 138.544 199.362 138.785 200.078 139.239C200.793 139.692 201.364 140.34 201.725 141.107C202.005 141.7 202.151 142.348 202.152 143.004V149.689H232.875V149.276C232.873 148.363 233.136 147.469 233.633 146.704C234.131 145.938 234.84 145.333 235.675 144.964C236.271 144.705 236.914 144.572 237.565 144.572H257.221C257.884 144.572 258.538 144.725 259.132 145.02C259.84 145.374 260.436 145.919 260.852 146.593C261.269 147.266 261.49 148.043 261.491 148.835V163.535C261.492 163.795 261.441 164.053 261.342 164.294C261.242 164.534 261.095 164.752 260.91 164.935L252.552 173.293C252.397 173.451 252.211 173.576 252.007 173.662C251.803 173.747 251.583 173.791 251.362 173.79H173.305C172.953 173.789 172.611 173.678 172.325 173.474C172.039 173.27 171.823 172.981 171.709 172.649L170.47 169.009Z" fill="#EBEFFF" stroke="#202F44" stroke-width="1.15" stroke-miterlimit="10"/>
<path d="M169.491 162.007L167.804 161.979L167.75 165.297L169.437 165.324L169.491 162.007Z" fill="white" stroke="#202F44" stroke-miterlimit="10"/>
<path d="M172.99 157.493L185.744 155.022C186.049 154.963 186.324 154.799 186.522 154.559C186.72 154.319 186.828 154.018 186.829 153.706V142.156C186.829 141.8 186.687 141.458 186.435 141.206C186.183 140.954 185.841 140.813 185.485 140.812H182.286C181.464 140.815 180.672 141.125 180.067 141.68L178.345 143.263C176.251 145.193 174.439 147.408 172.962 149.842C171.832 151.704 171.233 153.839 171.233 156.016C171.228 156.237 171.272 156.456 171.363 156.656C171.453 156.857 171.588 157.035 171.757 157.177C171.925 157.319 172.124 157.421 172.337 157.476C172.551 157.531 172.774 157.537 172.99 157.493Z" fill="#202F44"/>
<path d="M190.084 141.807V153.182C190.085 153.323 190.116 153.462 190.177 153.59C190.237 153.717 190.325 153.83 190.434 153.919C190.543 154.009 190.67 154.073 190.807 154.108C190.944 154.143 191.087 154.147 191.225 154.12L197.686 152.867C197.905 152.824 198.103 152.707 198.245 152.534C198.387 152.362 198.464 152.145 198.463 151.922V141.807C198.464 141.68 198.44 141.555 198.392 141.438C198.344 141.321 198.274 141.214 198.185 141.124C198.095 141.034 197.989 140.963 197.873 140.914C197.756 140.866 197.631 140.841 197.504 140.841H191.043C190.916 140.841 190.791 140.866 190.674 140.914C190.558 140.963 190.452 141.034 190.362 141.124C190.273 141.214 190.203 141.321 190.155 141.438C190.107 141.555 190.083 141.68 190.084 141.807Z" fill="#202F44"/>
<path d="M233.337 149.688H201.662V169.008H233.337V149.688Z" fill="#202F44"/>
<path d="M232.818 154.141H262.071" stroke="#202F44" stroke-width="4" stroke-miterlimit="10"/>
<path d="M253.021 172.642H171.709V182.33H253.021V172.642Z" fill="#EBEFFF" stroke="#202F44" stroke-width="1.15" stroke-miterlimit="10"/>
<path d="M246.623 160.875H259.419" stroke="#202F44" stroke-width="4" stroke-miterlimit="10"/>
<path d="M253.021 172.642H171.709V175.841H253.021V172.642Z" fill="#202F44"/>
<path d="M172.521 180.656L209.488 175.98C214.381 175.371 219.33 175.371 224.223 175.98L262.408 180.705C264.132 181.041 265.685 181.966 266.802 183.32C267.92 184.675 268.531 186.376 268.533 188.132C268.533 190.141 267.735 192.067 266.315 193.488C264.894 194.908 262.968 195.706 260.959 195.706H174.012C173.015 195.707 172.028 195.512 171.106 195.131C170.185 194.75 169.347 194.191 168.642 193.486C167.937 192.781 167.377 191.945 166.995 191.024C166.614 190.103 166.417 189.115 166.417 188.118C166.412 186.36 167.018 184.654 168.132 183.293C169.245 181.932 170.797 181 172.521 180.656Z" fill="#202F44"/>
<path d="M172.521 180.656L209.488 175.98C214.381 175.371 219.33 175.371 224.223 175.98L262.408 180.705C264.132 181.041 265.685 181.966 266.802 183.32C267.92 184.675 268.531 186.376 268.533 188.132V188.132C268.533 190.141 267.735 192.067 266.315 193.488C264.894 194.908 262.968 195.706 260.959 195.706H174.012C173.015 195.707 172.028 195.512 171.106 195.131C170.185 194.75 169.347 194.191 168.642 193.486C167.937 192.781 167.377 191.945 166.995 191.024C166.614 190.103 166.417 189.115 166.417 188.118V188.118C166.412 186.36 167.018 184.654 168.132 183.293C169.245 181.932 170.797 181 172.521 180.656V180.656Z" stroke="#202F44" stroke-width="3" stroke-linejoin="bevel" stroke-dasharray="2.01 1"/>
<path d="M260.364 185.039H174.236V188.903H260.364V185.039Z" fill="#EBEFFF" stroke="#202F44" stroke-width="1.15" stroke-miterlimit="10"/>
<path d="M187.207 192.969C188.042 192.969 188.719 192.292 188.719 191.457C188.719 190.622 188.042 189.945 187.207 189.945C186.372 189.945 185.695 190.622 185.695 191.457C185.695 192.292 186.372 192.969 187.207 192.969Z" fill="#EBEFFF" stroke="#202F44" stroke-width="1.15" stroke-miterlimit="10"/>
<path d="M180.487 192.969C181.322 192.969 181.999 192.292 181.999 191.457C181.999 190.622 181.322 189.945 180.487 189.945C179.652 189.945 178.975 190.622 178.975 191.457C178.975 192.292 179.652 192.969 180.487 192.969Z" fill="#EBEFFF" stroke="#202F44" stroke-width="1.15" stroke-miterlimit="10"/>
<path d="M193.934 192.969C194.769 192.969 195.446 192.292 195.446 191.457C195.446 190.622 194.769 189.945 193.934 189.945C193.099 189.945 192.422 190.622 192.422 191.457C192.422 192.292 193.099 192.969 193.934 192.969Z" fill="#EBEFFF" stroke="#202F44" stroke-width="1.15" stroke-miterlimit="10"/>
<path d="M200.66 192.969C201.496 192.969 202.173 192.292 202.173 191.457C202.173 190.622 201.496 189.945 200.66 189.945C199.825 189.945 199.148 190.622 199.148 191.457C199.148 192.292 199.825 192.969 200.66 192.969Z" fill="#EBEFFF" stroke="#202F44" stroke-width="1.15" stroke-miterlimit="10"/>
<path d="M207.388 192.969C208.223 192.969 208.9 192.292 208.9 191.457C208.9 190.622 208.223 189.945 207.388 189.945C206.553 189.945 205.876 190.622 205.876 191.457C205.876 192.292 206.553 192.969 207.388 192.969Z" fill="#EBEFFF" stroke="#202F44" stroke-width="1.15" stroke-miterlimit="10"/>
<path d="M214.108 192.969C214.943 192.969 215.62 192.292 215.62 191.457C215.62 190.622 214.943 189.945 214.108 189.945C213.273 189.945 212.596 190.622 212.596 191.457C212.596 192.292 213.273 192.969 214.108 192.969Z" fill="#EBEFFF" stroke="#202F44" stroke-width="1.15" stroke-miterlimit="10"/>
<path d="M220.835 192.969C221.67 192.969 222.347 192.292 222.347 191.457C222.347 190.622 221.67 189.945 220.835 189.945C220 189.945 219.323 190.622 219.323 191.457C219.323 192.292 220 192.969 220.835 192.969Z" fill="#EBEFFF" stroke="#202F44" stroke-width="1.15" stroke-miterlimit="10"/>
<path d="M227.562 192.969C228.397 192.969 229.074 192.292 229.074 191.457C229.074 190.622 228.397 189.945 227.562 189.945C226.727 189.945 226.05 190.622 226.05 191.457C226.05 192.292 226.727 192.969 227.562 192.969Z" fill="#EBEFFF" stroke="#202F44" stroke-width="1.15" stroke-miterlimit="10"/>
<path d="M234.289 192.969C235.124 192.969 235.801 192.292 235.801 191.457C235.801 190.622 235.124 189.945 234.289 189.945C233.454 189.945 232.777 190.622 232.777 191.457C232.777 192.292 233.454 192.969 234.289 192.969Z" fill="#EBEFFF" stroke="#202F44" stroke-width="1.15" stroke-miterlimit="10"/>
<path d="M241.009 192.969C241.844 192.969 242.521 192.292 242.521 191.457C242.521 190.622 241.844 189.945 241.009 189.945C240.174 189.945 239.497 190.622 239.497 191.457C239.497 192.292 240.174 192.969 241.009 192.969Z" fill="#EBEFFF" stroke="#202F44" stroke-width="1.15" stroke-miterlimit="10"/>
<path d="M247.736 192.969C248.571 192.969 249.248 192.292 249.248 191.457C249.248 190.622 248.571 189.945 247.736 189.945C246.901 189.945 246.224 190.622 246.224 191.457C246.224 192.292 246.901 192.969 247.736 192.969Z" fill="#EBEFFF" stroke="#202F44" stroke-width="1.15" stroke-miterlimit="10"/>
<path d="M254.463 192.969C255.298 192.969 255.975 192.292 255.975 191.457C255.975 190.622 255.298 189.945 254.463 189.945C253.628 189.945 252.951 190.622 252.951 191.457C252.951 192.292 253.628 192.969 254.463 192.969Z" fill="#EBEFFF" stroke="#202F44" stroke-width="1.15" stroke-miterlimit="10"/>
<path d="M174.236 193.481C177.058 193.481 179.346 191.193 179.346 188.371C179.346 185.549 177.058 183.261 174.236 183.261C171.414 183.261 169.126 185.549 169.126 188.371C169.126 191.193 171.414 193.481 174.236 193.481Z" fill="#EBEFFF" stroke="#202F44" stroke-width="1.15" stroke-miterlimit="10"/>
<path d="M174.236 184.311C174.375 184.311 174.51 184.352 174.625 184.429C174.74 184.505 174.83 184.615 174.883 184.743C174.936 184.871 174.95 185.011 174.923 185.147C174.896 185.283 174.829 185.408 174.731 185.506C174.633 185.603 174.508 185.67 174.373 185.697C174.237 185.724 174.096 185.71 173.968 185.657C173.84 185.604 173.731 185.515 173.654 185.399C173.577 185.284 173.536 185.149 173.536 185.011C173.536 184.825 173.61 184.647 173.741 184.516C173.872 184.384 174.05 184.311 174.236 184.311Z" fill="#202F44"/>
<path d="M174.236 191.325C174.375 191.325 174.51 191.366 174.625 191.443C174.74 191.52 174.83 191.629 174.883 191.757C174.936 191.885 174.95 192.026 174.923 192.162C174.896 192.298 174.829 192.422 174.731 192.52C174.633 192.618 174.508 192.685 174.373 192.712C174.237 192.739 174.096 192.725 173.968 192.672C173.84 192.619 173.731 192.529 173.654 192.414C173.577 192.299 173.536 192.164 173.536 192.025C173.536 191.84 173.61 191.662 173.741 191.53C173.872 191.399 174.05 191.325 174.236 191.325Z" fill="#202F44"/>
<path d="M170.729 189.183C171.108 189.183 171.415 188.875 171.415 188.497C171.415 188.118 171.108 187.811 170.729 187.811C170.35 187.811 170.043 188.118 170.043 188.497C170.043 188.875 170.35 189.183 170.729 189.183Z" fill="#202F44"/>
<path d="M177.743 189.183C178.121 189.183 178.429 188.875 178.429 188.497C178.429 188.118 178.121 187.811 177.743 187.811C177.364 187.811 177.057 188.118 177.057 188.497C177.057 188.875 177.364 189.183 177.743 189.183Z" fill="#202F44"/>
<path d="M171.758 186.705C172.137 186.705 172.444 186.398 172.444 186.019C172.444 185.64 172.137 185.333 171.758 185.333C171.379 185.333 171.072 185.64 171.072 186.019C171.072 186.398 171.379 186.705 171.758 186.705Z" fill="#202F44"/>
<path d="M176.721 191.667C177.1 191.667 177.407 191.36 177.407 190.981C177.407 190.602 177.1 190.295 176.721 190.295C176.342 190.295 176.035 190.602 176.035 190.981C176.035 191.36 176.342 191.667 176.721 191.667Z" fill="#202F44"/>
<path d="M171.758 191.667C172.137 191.667 172.444 191.36 172.444 190.981C172.444 190.602 172.137 190.295 171.758 190.295C171.379 190.295 171.072 190.602 171.072 190.981C171.072 191.36 171.379 191.667 171.758 191.667Z" fill="#202F44"/>
<path d="M176.721 186.705C177.1 186.705 177.407 186.398 177.407 186.019C177.407 185.64 177.1 185.333 176.721 185.333C176.342 185.333 176.035 185.64 176.035 186.019C176.035 186.398 176.342 186.705 176.721 186.705Z" fill="#202F44"/>
<path d="M174.298 190.312C175.365 190.272 176.196 189.375 176.156 188.309C176.116 187.243 175.22 186.411 174.153 186.451C173.087 186.491 172.255 187.388 172.295 188.454C172.335 189.52 173.232 190.352 174.298 190.312Z" fill="#202F44"/>
<path d="M260.364 193.481C263.186 193.481 265.474 191.193 265.474 188.371C265.474 185.549 263.186 183.261 260.364 183.261C257.542 183.261 255.254 185.549 255.254 188.371C255.254 191.193 257.542 193.481 260.364 193.481Z" fill="#EBEFFF" stroke="#202F44" stroke-width="1.15" stroke-miterlimit="10"/>
<path d="M260.364 184.311C260.503 184.311 260.638 184.352 260.753 184.429C260.868 184.505 260.958 184.615 261.011 184.743C261.064 184.871 261.078 185.011 261.051 185.147C261.024 185.283 260.957 185.408 260.859 185.506C260.761 185.603 260.636 185.67 260.501 185.697C260.365 185.724 260.224 185.71 260.096 185.657C259.968 185.604 259.859 185.515 259.782 185.399C259.705 185.284 259.664 185.149 259.664 185.011C259.664 184.825 259.738 184.647 259.869 184.516C260 184.384 260.178 184.311 260.364 184.311Z" fill="#202F44"/>
<path d="M260.364 191.325C260.503 191.325 260.638 191.366 260.753 191.443C260.868 191.52 260.958 191.629 261.011 191.757C261.064 191.885 261.078 192.026 261.051 192.162C261.024 192.298 260.957 192.422 260.859 192.52C260.761 192.618 260.636 192.685 260.501 192.712C260.365 192.739 260.224 192.725 260.096 192.672C259.968 192.619 259.859 192.529 259.782 192.414C259.705 192.299 259.664 192.164 259.664 192.025C259.664 191.84 259.738 191.662 259.869 191.53C260 191.399 260.178 191.325 260.364 191.325Z" fill="#202F44"/>
<path d="M256.857 189.183C257.236 189.183 257.543 188.875 257.543 188.497C257.543 188.118 257.236 187.811 256.857 187.811C256.478 187.811 256.171 188.118 256.171 188.497C256.171 188.875 256.478 189.183 256.857 189.183Z" fill="#202F44"/>
<path d="M263.871 189.183C264.249 189.183 264.557 188.875 264.557 188.497C264.557 188.118 264.249 187.811 263.871 187.811C263.492 187.811 263.185 188.118 263.185 188.497C263.185 188.875 263.492 189.183 263.871 189.183Z" fill="#202F44"/>
<path d="M257.886 186.705C258.265 186.705 258.572 186.398 258.572 186.019C258.572 185.64 258.265 185.333 257.886 185.333C257.507 185.333 257.2 185.64 257.2 186.019C257.2 186.398 257.507 186.705 257.886 186.705Z" fill="#202F44"/>
<path d="M262.849 191.667C263.228 191.667 263.535 191.36 263.535 190.981C263.535 190.602 263.228 190.295 262.849 190.295C262.47 190.295 262.163 190.602 262.163 190.981C262.163 191.36 262.47 191.667 262.849 191.667Z" fill="#202F44"/>
<path d="M257.886 191.667C258.265 191.667 258.572 191.36 258.572 190.981C258.572 190.602 258.265 190.295 257.886 190.295C257.507 190.295 257.2 190.602 257.2 190.981C257.2 191.36 257.507 191.667 257.886 191.667Z" fill="#202F44"/>
<path d="M262.849 186.705C263.228 186.705 263.535 186.398 263.535 186.019C263.535 185.64 263.228 185.333 262.849 185.333C262.47 185.333 262.163 185.64 262.163 186.019C262.163 186.398 262.47 186.705 262.849 186.705Z" fill="#202F44"/>
<path d="M260.429 190.315C261.495 190.275 262.327 189.378 262.287 188.312C262.247 187.246 261.35 186.414 260.284 186.454C259.218 186.494 258.386 187.391 258.426 188.457C258.466 189.523 259.363 190.355 260.429 190.315Z" fill="#202F44"/>
<path d="M217.468 187.44C220.291 187.44 222.578 185.152 222.578 182.33C222.578 179.508 220.291 177.22 217.468 177.22C214.646 177.22 212.358 179.508 212.358 182.33C212.358 185.152 214.646 187.44 217.468 187.44Z" fill="#EBEFFF" stroke="#202F44" stroke-width="1.15" stroke-miterlimit="10"/>
<path d="M217.468 178.27C217.606 178.27 217.741 178.311 217.856 178.387C217.972 178.464 218.061 178.574 218.114 178.702C218.167 178.83 218.181 178.97 218.154 179.106C218.127 179.242 218.06 179.367 217.963 179.464C217.865 179.562 217.74 179.629 217.604 179.656C217.468 179.683 217.328 179.669 217.2 179.616C217.072 179.563 216.962 179.474 216.886 179.358C216.809 179.243 216.768 179.108 216.768 178.97C216.768 178.784 216.841 178.606 216.973 178.475C217.104 178.343 217.282 178.27 217.468 178.27Z" fill="#202F44"/>
<path d="M217.468 185.284C217.606 185.284 217.741 185.325 217.856 185.402C217.972 185.479 218.061 185.588 218.114 185.716C218.167 185.844 218.181 185.985 218.154 186.121C218.127 186.257 218.06 186.381 217.963 186.479C217.865 186.577 217.74 186.644 217.604 186.671C217.468 186.698 217.328 186.684 217.2 186.631C217.072 186.578 216.962 186.488 216.886 186.373C216.809 186.258 216.768 186.123 216.768 185.984C216.768 185.799 216.841 185.62 216.973 185.489C217.104 185.358 217.282 185.284 217.468 185.284Z" fill="#202F44"/>
<path d="M213.961 183.142C214.34 183.142 214.647 182.834 214.647 182.456C214.647 182.077 214.34 181.77 213.961 181.77C213.583 181.77 213.275 182.077 213.275 182.456C213.275 182.834 213.583 183.142 213.961 183.142Z" fill="#202F44"/>
<path d="M220.975 183.142C221.354 183.142 221.661 182.834 221.661 182.456C221.661 182.077 221.354 181.77 220.975 181.77C220.596 181.77 220.289 182.077 220.289 182.456C220.289 182.834 220.596 183.142 220.975 183.142Z" fill="#202F44"/>
<path d="M214.99 180.664C215.369 180.664 215.676 180.357 215.676 179.978C215.676 179.599 215.369 179.292 214.99 179.292C214.611 179.292 214.304 179.599 214.304 179.978C214.304 180.357 214.611 180.664 214.99 180.664Z" fill="#202F44"/>
<path d="M219.954 185.627C220.333 185.627 220.64 185.32 220.64 184.941C220.64 184.562 220.333 184.255 219.954 184.255C219.575 184.255 219.268 184.562 219.268 184.941C219.268 185.32 219.575 185.627 219.954 185.627Z" fill="#202F44"/>
<path d="M214.99 185.627C215.369 185.627 215.676 185.32 215.676 184.941C215.676 184.562 215.369 184.255 214.99 184.255C214.611 184.255 214.304 184.562 214.304 184.941C214.304 185.32 214.611 185.627 214.99 185.627Z" fill="#202F44"/>
<path d="M219.954 180.664C220.333 180.664 220.64 180.357 220.64 179.978C220.64 179.599 220.333 179.292 219.954 179.292C219.575 179.292 219.268 179.599 219.268 179.978C219.268 180.357 219.575 180.664 219.954 180.664Z" fill="#202F44"/>
<path d="M217.533 184.27C218.599 184.23 219.431 183.333 219.391 182.267C219.351 181.201 218.454 180.369 217.388 180.409C216.321 180.449 215.489 181.346 215.53 182.412C215.57 183.478 216.466 184.31 217.533 184.27Z" fill="#202F44"/>
<path d="M222.214 151.306L175.258 96.4608L173.886 91.1338L225.042 150.179L222.214 151.306Z" fill="#202F44"/>
<path d="M231.251 129.767C234.131 129.767 236.466 127.432 236.466 124.552C236.466 121.672 234.131 119.337 231.251 119.337C228.371 119.337 226.036 121.672 226.036 124.552C226.036 127.432 228.371 129.767 231.251 129.767Z" fill="#202F44"/>
<path d="M231.251 128.24C233.289 128.24 234.94 126.589 234.94 124.551C234.94 122.514 233.289 120.862 231.251 120.862C229.214 120.862 227.562 122.514 227.562 124.551C227.562 126.589 229.214 128.24 231.251 128.24Z" fill="#EBEFFF" stroke="#202F44" stroke-width="1.15" stroke-miterlimit="10"/>
<path d="M231.251 125.539C231.796 125.539 232.238 125.098 232.238 124.552C232.238 124.007 231.796 123.565 231.251 123.565C230.706 123.565 230.264 124.007 230.264 124.552C230.264 125.098 230.706 125.539 231.251 125.539Z" fill="#202F44"/>
<path d="M190.652 73.9861L187.248 76.8236C186.753 77.2371 186.686 77.9742 187.099 78.4701L191.613 83.8842C192.027 84.3801 192.764 84.4469 193.26 84.0334L196.663 81.1959C197.159 80.7825 197.226 80.0453 196.812 79.5494L192.298 74.1354C191.885 73.6395 191.148 73.5727 190.652 73.9861Z" fill="#EBEFFF" stroke="#202F44" stroke-width="1.15" stroke-miterlimit="10"/>
<path d="M176.616 92.1422L177.694 91.3722L177.736 91.3232C178.059 90.9483 178.247 90.4759 178.27 89.9815C178.293 89.487 178.15 88.9992 177.863 88.596C177.576 88.1928 177.162 87.8976 176.687 87.7575C176.212 87.6174 175.704 87.6405 175.244 87.8232L172.724 89.6082L172.661 90.3782L177.603 100.332L179.003 99.7652L176.616 92.1422Z" fill="#EBEFFF" stroke="#202F44" stroke-width="1.15" stroke-miterlimit="10"/>
</svg>
