<svg width="303" height="210" viewBox="0 0 303 210" fill="none" xmlns="http://www.w3.org/2000/svg">
<path d="M117.817 191.622H266.854V89.4222L117.817 71.3691V191.622Z" fill="white" stroke="#202F44" stroke-width="1.18" stroke-miterlimit="10"/>
<path d="M254.926 71.3691H117.817L132.034 82.1142H271.656L254.926 71.3691Z" fill="#202F44" stroke="#202F44" stroke-linecap="square" stroke-linejoin="bevel"/>
<path d="M271.44 94.0221V82.1221H254.017V94.0221C254.015 96.3291 254.928 98.5426 256.557 100.177C258.186 101.811 260.397 102.732 262.704 102.737C263.85 102.741 264.986 102.518 266.046 102.082C267.106 101.645 268.07 101.004 268.882 100.194C269.693 99.3843 270.337 98.4222 270.776 97.3631C271.215 96.3039 271.441 95.1686 271.44 94.0221Z" fill="#202F44" stroke="#202F44" stroke-linejoin="bevel"/>
<path d="M236.593 94.0221V82.1221H219.163V94.0221C219.163 96.3334 220.081 98.5501 221.716 100.184C223.35 101.819 225.567 102.737 227.878 102.737C230.189 102.737 232.406 101.819 234.041 100.184C235.675 98.5501 236.593 96.3334 236.593 94.0221Z" fill="#202F44" stroke="#202F44" stroke-linejoin="bevel"/>
<path d="M201.74 94.0221V82.1221H184.303V94.0221C184.302 95.1662 184.526 96.2993 184.964 97.3566C185.401 98.4139 186.042 99.3747 186.851 100.184C187.659 100.993 188.62 101.635 189.677 102.074C190.734 102.512 191.867 102.737 193.011 102.737C194.157 102.74 195.292 102.516 196.351 102.08C197.411 101.643 198.373 101.001 199.184 100.192C199.995 99.3819 200.638 98.4202 201.077 97.3615C201.515 96.3028 201.741 95.168 201.74 94.0221Z" fill="#202F44" stroke="#202F44" stroke-linejoin="bevel"/>
<path d="M166.888 94.0221V82.1221H149.465V94.0221C149.464 95.1662 149.689 96.2993 150.126 97.3566C150.563 98.4139 151.204 99.3747 152.013 100.184C152.822 100.993 153.782 101.635 154.839 102.074C155.896 102.512 157.029 102.737 158.173 102.737C159.318 102.738 160.451 102.513 161.509 102.076C162.567 101.638 163.528 100.996 164.337 100.187C165.147 99.3771 165.789 98.416 166.226 97.3582C166.664 96.3005 166.889 95.1668 166.888 94.0221Z" fill="#202F44" stroke="#202F44" stroke-linejoin="bevel"/>
<path d="M254.017 94.0221V82.1221H236.594V94.0221C236.593 95.1662 236.817 96.2993 237.255 97.3566C237.692 98.4139 238.333 99.3747 239.142 100.184C239.95 100.993 240.911 101.635 241.968 102.074C243.025 102.512 244.158 102.737 245.302 102.737C246.446 102.738 247.58 102.513 248.638 102.076C249.696 101.638 250.657 100.996 251.466 100.187C252.276 99.3771 252.918 98.416 253.355 97.3582C253.793 96.3005 254.018 95.1668 254.017 94.0221Z" fill="#EBEFFF" stroke="#202F44" stroke-width="1.15" stroke-linejoin="bevel"/>
<path d="M219.163 94.0221V82.1221H201.74V94.0221C201.739 95.1668 201.964 96.3005 202.402 97.3582C202.839 98.416 203.481 99.3771 204.291 100.187C205.1 100.996 206.061 101.638 207.119 102.076C208.177 102.513 209.311 102.738 210.455 102.737C211.599 102.737 212.732 102.512 213.789 102.074C214.846 101.635 215.807 100.993 216.615 100.184C217.424 99.3747 218.065 98.4139 218.502 97.3566C218.94 96.2993 219.164 95.1662 219.163 94.0221Z" fill="#EBEFFF" stroke="#202F44" stroke-width="1.15" stroke-linejoin="bevel"/>
<path d="M184.303 94.0221V82.1221H166.873V94.0221C166.872 95.1668 167.097 96.3005 167.535 97.3582C167.972 98.416 168.614 99.3771 169.424 100.187C170.233 100.996 171.194 101.638 172.252 102.076C173.31 102.513 174.443 102.738 175.588 102.737C177.899 102.737 180.116 101.819 181.75 100.184C183.385 98.5501 184.303 96.3334 184.303 94.0221Z" fill="#EBEFFF" stroke="#202F44" stroke-width="1.15" stroke-linejoin="bevel"/>
<path d="M149.464 94.0221V82.1221H132.034V94.0221C132.034 96.3334 132.952 98.5501 134.587 100.184C136.221 101.819 138.438 102.737 140.749 102.737C141.894 102.738 143.028 102.513 144.085 102.076C145.143 101.638 146.104 100.996 146.914 100.187C147.723 99.3771 148.365 98.416 148.803 97.3582C149.24 96.3005 149.465 95.1668 149.464 94.0221Z" fill="#EBEFFF" stroke="#202F44" stroke-width="1.15" stroke-linejoin="bevel"/>
<path d="M132.034 71.3691L149.464 82.1142H132.034L117.817 71.3691H132.034Z" fill="#EBEFFF" stroke="#202F44" stroke-width="1.15" stroke-linejoin="bevel"/>
<path d="M166.887 71.3691L184.31 82.1142H166.887L152.663 71.3691H166.887Z" fill="#EBEFFF" stroke="#202F44" stroke-width="1.15" stroke-linejoin="bevel"/>
<path d="M201.741 71.3691L219.164 82.1142H201.741L187.517 71.3691H201.741Z" fill="#EBEFFF" stroke="#202F44" stroke-width="1.15" stroke-linejoin="bevel"/>
<path d="M236.593 71.3691L254.016 82.1142H236.593L222.369 71.3691H236.593Z" fill="#EBEFFF" stroke="#202F44" stroke-width="1.15" stroke-linejoin="bevel"/>
<path d="M197.106 191.622H249.949V124.835H197.106V191.622Z" fill="#202F44" stroke="#202F44" stroke-linejoin="bevel"/>
<path d="M142.22 162.384H179.936V124.668H142.22V162.384Z" fill="#202F44" stroke="#202F44" stroke-width="0.63" stroke-linejoin="bevel"/>
<path d="M34.8047 191.622H283.074" stroke="#202F44" stroke-width="1.07" stroke-miterlimit="10"/>
<path d="M113.778 144.946C113.778 144.946 113.078 132.598 113.134 124.646L113.778 144.946Z" fill="#EBEFFF"/>
<path d="M113.778 144.946C113.778 144.946 113.078 132.598 113.134 124.646" stroke="#202F44" stroke-width="1.15" stroke-miterlimit="10"/>
<path d="M130.915 26.2896C137.593 24.5886 141.002 15.7896 137.579 8.92258C135.759 5.26158 131.979 2.13256 125.784 0.893562C121.304 -0.00243807 114.619 1.79656 111.329 3.03556C101.438 6.74556 97.6857 8.19456 97.6857 8.19456C98.6517 1.62856 73.3957 15.7826 73.3957 26.5346C73.3957 31.4976 69.6717 37.9306 69.6367 43.7546C69.5947 50.5446 72.6957 55.5566 70.0847 61.2546C67.5367 66.8546 64.0997 67.3446 61.3627 71.0126C54.3627 80.3646 60.3687 85.3556 54.1947 89.3246C43.5547 96.1706 63.0287 119.467 78.9957 122.834C92.7787 125.739 115.011 121.707 130.306 94.5326C138.272 80.3856 132.406 77.0326 131.545 65.2796C130.845 56.3896 137.397 56.3896 132.679 43.0546C128.171 30.3426 130.915 26.2896 130.915 26.2896Z" fill="#202F44" stroke="#202F44" stroke-miterlimit="10"/>
<path d="M167.454 85.5305L158.907 85.7335C157.094 85.7825 155.855 84.2495 156.107 82.3245L159.348 59.3995C159.477 58.4659 159.92 57.6041 160.605 56.9563C161.289 56.3086 162.174 55.9136 163.114 55.8365L171.703 55.6405C173.509 55.5985 174.755 57.1245 174.503 59.0495L171.269 81.9745C171.127 82.9104 170.673 83.7709 169.98 84.4164C169.288 85.0618 168.397 85.4545 167.454 85.5305Z" fill="#202F44" stroke="#202F44" stroke-width="1.03" stroke-miterlimit="10"/>
<path d="M170.156 85.4606L161.602 85.6706C159.796 85.7126 158.55 84.1867 158.802 82.2617L162.036 59.3367C162.166 58.4028 162.609 57.5407 163.294 56.892C163.978 56.2434 164.862 55.8465 165.802 55.7666L174.356 55.5636C176.162 55.5146 177.408 57.0406 177.156 58.9726L173.915 81.8906C173.789 82.8249 173.348 83.6882 172.664 84.3374C171.98 84.9867 171.095 85.3829 170.156 85.4606Z" fill="#EBEFFF" stroke="#202F44" stroke-width="1.31" stroke-miterlimit="10"/>
<path d="M177.717 82.7864C177.717 82.7864 177.626 72.2374 178.746 68.3034C179.866 64.3694 178.431 64.8664 176.282 66.5884C174.133 68.3104 171.767 77.0884 171.767 77.0884L177.717 82.7864Z" fill="white" stroke="#202F44" stroke-miterlimit="10"/>
<path d="M178.136 86.7691C177.891 81.2251 177.093 71.6561 174.461 68.6671C166.257 59.3501 166.026 55.2551 164.472 56.6901C162.603 58.4401 165.403 63.7671 166.859 66.8401C166.32 67.0011 151.788 65.7061 151.935 68.2051C152.117 71.2011 160.538 73.5111 160.461 73.5111C160.384 73.5111 153.279 70.7111 152.53 71.4811C151.368 72.6851 161.854 80.2661 161.854 80.2661C162.036 81.8969 162.362 83.5085 162.827 85.0821C163.527 87.6021 164.633 88.0221 164.633 88.0221L160.503 103.723L177.303 104.423C177.303 104.423 178.248 89.3451 178.136 86.7691Z" fill="white" stroke="#202F44" stroke-miterlimit="10"/>
<path d="M151.936 68.1777C151.936 68.1777 157.536 69.2558 160.336 69.9628C161.878 70.3727 163.448 70.6744 165.033 70.8658" fill="white"/>
<path d="M151.936 68.1777C151.936 68.1777 157.536 69.2558 160.336 69.9628C161.878 70.3727 163.448 70.6744 165.033 70.8658" stroke="#202F44" stroke-miterlimit="10"/>
<path d="M52.0732 91.0254C69.4892 76.4094 94.4232 76.7664 94.4232 76.7664L102.305 83.8714L103.005 81.0714C103.005 81.0714 105.595 79.1044 125.958 87.6234C126.609 87.8964 127.232 88.1904 127.827 88.4984C131.88 89.7164 139.454 93.3984 145.243 104.794C153.538 121.083 153.72 128.72 153.72 128.72L161.686 99.2364L177.66 98.4244C177.66 98.4244 180.194 181.024 160.16 166.513C149.534 158.813 141.505 149.013 138.264 144.939C137.886 147.445 137.501 149.965 137.116 152.478C133.322 177.412 131.971 183.859 131.971 183.859L130.347 191.615H56.9802L55.2862 165.078C55.2862 165.078 27.6152 187.996 21.1332 165.078C15.2602 144.323 31.6542 108.14 52.0732 91.0254Z" fill="#EBEFFF" stroke="#202F44" stroke-width="1.15" stroke-miterlimit="10"/>
<path d="M99.5616 105.152L95.7116 110.605L96.3416 114.588C96.3416 114.588 92.7436 119.642 88.0046 116.842C85.6036 115.442 88.0046 109.569 88.0046 109.569L90.1046 103.969L99.5616 105.152Z" fill="white" stroke="#202F44" stroke-miterlimit="10"/>
<path d="M81.8117 113.915L92.503 116.336C94.2073 116.722 95.9017 115.654 96.2877 113.949L100.734 94.3145C101.12 92.6102 100.051 90.9158 98.3471 90.5298L87.6559 88.1087C85.9516 87.7227 84.2571 88.7914 83.8712 90.4957L79.4247 110.131C79.0387 111.835 80.1075 113.529 81.8117 113.915Z" fill="#202F44" stroke="#202F44" stroke-miterlimit="10"/>
<path d="M75.4742 108.568C76.2442 107.868 77.1332 107.07 78.0922 106.251C78.0922 106.251 83.5452 98.9218 85.0082 97.5988C86.4712 96.2758 91.0912 97.2698 92.6592 96.3598C93.9542 95.6178 95.6552 95.8978 94.4652 98.2008C97.8112 98.2358 101.535 98.7398 101.591 100.245C101.591 100.245 101.591 102.163 97.5522 102.415C97.8182 102.912 101.381 103.164 100.87 105.397C100.755 105.847 100.525 106.26 100.202 106.595C99.8792 106.93 99.4752 107.176 99.0292 107.308C99.0292 107.308 101.297 108.974 99.5822 110.808C98.9818 111.313 98.2085 111.564 97.4262 111.508C97.4099 111.505 97.3933 111.508 97.3788 111.516C97.3643 111.524 97.3527 111.536 97.3456 111.551C97.3386 111.566 97.3365 111.583 97.3396 111.599C97.3428 111.615 97.351 111.63 97.3632 111.641C97.5425 111.794 97.6843 111.986 97.7778 112.202C97.8713 112.418 97.914 112.653 97.9025 112.888C97.891 113.123 97.8257 113.353 97.7116 113.559C97.5974 113.765 97.4375 113.942 97.2442 114.077C95.9772 115.183 91.6022 115.435 91.6022 115.435C90.3213 116.462 88.9535 117.375 87.5142 118.165C85.2532 119.46 84.1542 118.963 84.1542 118.963L75.9572 133.005L63.6162 121.63C63.6162 121.63 73.5702 110.311 75.4742 108.568Z" fill="white" stroke="#202F44" stroke-miterlimit="10"/>
<path d="M94.465 98.2002C91.9814 98.4037 89.5455 98.999 87.248 99.9642L94.465 98.2002Z" fill="white"/>
<path d="M94.465 98.2002C91.9814 98.4037 89.5455 98.999 87.248 99.9642" stroke="#202F44" stroke-miterlimit="10"/>
<path d="M87.3465 94.0145C87.615 94.0758 87.894 94.0749 88.1622 94.0118C88.4303 93.9487 88.6804 93.8251 88.8935 93.6505C89.077 94.0188 89.1265 94.4396 89.0335 94.8405C88.9802 95.0744 88.8813 95.2956 88.7425 95.4914C88.6037 95.6871 88.4277 95.8536 88.2246 95.9813C88.0214 96.109 87.7952 96.1955 87.5586 96.2357C87.3221 96.276 87.0799 96.2693 86.846 96.216C86.612 96.1627 86.3909 96.0638 86.1951 95.925C85.9994 95.7862 85.8329 95.6102 85.7052 95.4071C85.5774 95.204 85.491 94.9777 85.4507 94.7412C85.4105 94.5046 85.4172 94.2625 85.4705 94.0285C85.561 93.6294 85.7858 93.2736 86.1074 93.0205C86.225 93.2694 86.3977 93.4882 86.6123 93.6604C86.827 93.8326 87.078 93.9537 87.3465 94.0145Z" fill="#EBEFFF" stroke="#202F44" stroke-width="1.15" stroke-miterlimit="10"/>
<path d="M87.6545 92.6495C87.3854 92.5896 87.1062 92.5919 86.8381 92.6562C86.57 92.7205 86.3202 92.8451 86.1075 93.0205C85.9595 92.7111 85.9016 92.3662 85.9405 92.0254C85.9793 91.6846 86.1133 91.3616 86.3271 91.0934C86.5409 90.8252 86.8259 90.6226 87.1495 90.5088C87.4731 90.3949 87.8221 90.3746 88.1568 90.4498C88.4914 90.5251 88.7981 90.6931 89.0417 90.9345C89.2854 91.176 89.4561 91.4811 89.5345 91.8151C89.6128 92.149 89.5955 92.4982 89.4846 92.8228C89.3738 93.1474 89.1737 93.4342 88.9075 93.6505C88.7889 93.399 88.6144 93.178 88.3972 93.0045C88.18 92.831 87.9259 92.7096 87.6545 92.6495Z" fill="white" stroke="#202F44" stroke-width="1.03" stroke-miterlimit="10"/>
<path d="M87.3464 94.0147C87.2492 93.8983 87.1834 93.759 87.1552 93.61C87.127 93.461 87.1373 93.3073 87.1853 93.1635C87.2332 93.0196 87.3172 92.8904 87.4292 92.7882C87.5412 92.6859 87.6774 92.614 87.825 92.5793C87.9726 92.5446 88.1267 92.5482 88.2725 92.5898C88.4183 92.6314 88.5511 92.7095 88.6581 92.8169C88.7652 92.9243 88.843 93.0573 88.8842 93.2032C88.9254 93.3491 88.9286 93.5031 88.8935 93.6506C88.6802 93.8248 88.43 93.9481 88.162 94.0112C87.8939 94.0743 87.615 94.0755 87.3464 94.0147Z" fill="white" stroke="#202F44" stroke-width="1.03" stroke-miterlimit="10"/>
<path d="M111.329 61.1216L110.384 80.8406C110.334 81.9174 110.014 82.9645 109.454 83.8855C108.894 84.8065 108.111 85.572 107.178 86.1116C105.679 87.0297 104.01 87.6334 102.271 87.8861C100.532 88.1389 98.7602 88.0352 97.0626 87.5816C87.8016 84.9356 90.4196 77.8586 90.4196 77.8586L94.3606 54.0586L111.329 61.1216Z" fill="white" stroke="#202F44" stroke-width="1.03" stroke-miterlimit="10"/>
<path d="M120.603 67.674C113.897 76.606 101.36 68.458 94.3949 58.777C94.3949 58.777 89.4949 60.38 86.6179 57.104C83.7409 53.828 85.218 48.746 87.458 47.038C89.698 45.33 91.6019 45.694 91.6019 45.694L91.175 37.672C91.175 37.672 99.6729 37.014 104.965 33.311C110.257 29.608 111.104 25.793 111.104 25.793C111.104 25.793 117.047 29.671 124.068 28.453C124.047 28.453 127.281 58.742 120.603 67.674Z" fill="white" stroke="#202F44" stroke-miterlimit="10"/>
<path d="M121.037 51.2165C124.485 51.2165 127.281 47.6656 127.281 43.2855C127.281 38.9053 124.485 35.3545 121.037 35.3545C117.588 35.3545 114.793 38.9053 114.793 43.2855C114.793 47.6656 117.588 51.2165 121.037 51.2165Z" stroke="#202F44" stroke-miterlimit="10"/>
<path d="M106.834 47.3317C107.36 47.3317 107.786 46.5325 107.786 45.5467C107.786 44.5609 107.36 43.7617 106.834 43.7617C106.308 43.7617 105.882 44.5609 105.882 45.5467C105.882 46.5325 106.308 47.3317 106.834 47.3317Z" fill="#202F44" stroke="#202F44" stroke-width="0.73" stroke-miterlimit="10"/>
<path d="M107.317 51.2165C110.766 51.2165 113.561 47.6656 113.561 43.2855C113.561 38.9053 110.766 35.3545 107.317 35.3545C103.869 35.3545 101.073 38.9053 101.073 43.2855C101.073 47.6656 103.869 51.2165 107.317 51.2165Z" stroke="#202F44" stroke-miterlimit="10"/>
<path d="M120.785 47.3317C121.311 47.3317 121.737 46.5325 121.737 45.5467C121.737 44.5609 121.311 43.7617 120.785 43.7617C120.259 43.7617 119.833 44.5609 119.833 45.5467C119.833 46.5325 120.259 47.3317 120.785 47.3317Z" fill="#202F44" stroke="#202F44" stroke-width="0.73" stroke-miterlimit="10"/>
<path d="M111.328 57.9369C110.797 58.0583 110.246 58.065 109.713 57.9563C109.179 57.8477 108.675 57.6262 108.234 57.3069C107.707 56.8296 107.307 56.2278 107.073 55.5565C106.838 54.8852 106.775 54.1657 106.89 53.4639" stroke="#202F44" stroke-width="0.73" stroke-miterlimit="10"/>
<path d="M94.2203 53.0787C93.9153 53.3616 93.5531 53.5755 93.1581 53.706C92.7631 53.8364 92.3447 53.8803 91.9313 53.8347C91.4003 53.719 90.9066 53.4729 90.4947 53.1184C90.0828 52.764 89.7658 52.3125 89.5723 51.8047" stroke="#202F44" stroke-width="0.73" stroke-miterlimit="10"/>
<path d="M115.969 52.2802C115.969 52.2802 118.475 52.2032 118.405 50.2712C118.335 48.3392 115.969 49.1232 115.969 49.1232" fill="white"/>
<path d="M115.969 52.2802C115.969 52.2802 118.475 52.2032 118.405 50.2712C118.335 48.3392 115.969 49.1232 115.969 49.1232" stroke="#202F44" stroke-width="0.73" stroke-miterlimit="10"/>
<path d="M108.535 37.5665C107.647 37.3636 106.718 37.4494 105.882 37.8115C104.573 38.4205 104.328 38.9735 104.328 38.9735" stroke="#202F44" stroke-width="0.73" stroke-miterlimit="10"/>
<path d="M119.092 37.1883C120.001 37.1501 120.897 37.4081 121.647 37.9233C122.823 38.7703 122.956 39.3233 122.956 39.3233" stroke="#202F44" stroke-width="0.73" stroke-miterlimit="10"/>
<path d="M54.985 165.464C64.246 155.811 71.967 147.908 77.875 129.764L71.309 113.3C71.309 113.3 51.338 128.035 42.133 136.841C25.151 153.032 27.706 165.492 27.706 165.492" fill="#EBEFFF"/>
<path d="M54.985 165.464C64.246 155.811 71.967 147.908 77.875 129.764L71.309 113.3C71.309 113.3 51.338 128.035 42.133 136.841C25.151 153.032 27.706 165.492 27.706 165.492" stroke="#202F44" stroke-width="1.15" stroke-miterlimit="10"/>
<path d="M114.794 43.7539H113.562" stroke="#202F44" stroke-miterlimit="10"/>
<path d="M101.066 43.2852L89.1592 45.5462" stroke="#202F44" stroke-miterlimit="10"/>
<path d="M253.989 155.626C255.303 154.119 252.325 149.374 247.339 145.028C242.353 140.681 237.246 138.379 235.933 139.885C234.619 141.392 237.597 146.137 242.583 150.484C247.569 154.83 252.676 157.132 253.989 155.626Z" fill="#202F44" stroke="#202F44" stroke-width="0.8" stroke-miterlimit="10"/>
<path d="M238.606 136.812L235.929 139.883L253.985 155.623L256.662 152.552L238.606 136.812Z" fill="#202F44" stroke="#202F44" stroke-width="0.8" stroke-miterlimit="10"/>
<path d="M256.663 152.556C257.976 151.05 254.999 146.305 250.013 141.958C245.027 137.612 239.92 135.309 238.607 136.816C237.293 138.323 240.271 143.068 245.257 147.414C250.243 151.761 255.35 154.063 256.663 152.556Z" fill="#EBEFFF" stroke="#202F44" stroke-width="0.92" stroke-miterlimit="10"/>
<path d="M233.13 105.222C233.817 103.345 229.338 99.9808 223.127 97.7076C216.915 95.4343 211.322 95.1131 210.635 96.9901C209.948 98.8671 214.427 102.231 220.639 104.505C226.851 106.778 232.444 107.099 233.13 105.222Z" fill="#202F44" stroke="#202F44" stroke-width="0.8" stroke-miterlimit="10"/>
<path d="M212.035 93.1683L210.635 96.9941L233.13 105.226L234.53 101.4L212.035 93.1683Z" fill="#202F44" stroke="#202F44" stroke-width="0.8" stroke-miterlimit="10"/>
<path d="M234.523 101.402C235.21 99.5248 230.731 96.1604 224.519 93.8872C218.307 91.614 212.715 91.2928 212.028 93.1698C211.341 95.0468 215.82 98.4112 222.032 100.684C228.244 102.958 233.836 103.279 234.523 101.402Z" fill="#EBEFFF" stroke="#202F44" stroke-width="0.92" stroke-miterlimit="10"/>
<path d="M244.135 122.382C250.459 120.442 255.11 117.32 254.523 115.409C253.937 113.498 248.335 113.522 242.012 115.463C235.688 117.403 231.037 120.526 231.623 122.436C232.21 124.347 237.811 124.323 244.135 122.382Z" fill="#202F44" stroke="#202F44" stroke-width="0.8" stroke-miterlimit="10"/>
<path d="M253.325 111.516L230.425 118.544L231.62 122.439L254.52 115.411L253.325 111.516Z" fill="#202F44" stroke="#202F44" stroke-width="0.8" stroke-miterlimit="10"/>
<path d="M242.996 122.816C249.346 120.898 254.024 117.787 253.445 115.868C252.865 113.95 247.247 113.949 240.897 115.867C234.547 117.786 229.869 120.896 230.449 122.815C231.029 124.734 236.646 124.734 242.996 122.816Z" fill="#EBEFFF" stroke="#202F44" stroke-width="0.922618" stroke-miterlimit="10"/>
<path d="M247.143 195.43C254.531 195.43 260.52 194.042 260.52 192.33C260.52 190.617 254.531 189.229 247.143 189.229C239.755 189.229 233.766 190.617 233.766 192.33C233.766 194.042 239.755 195.43 247.143 195.43Z" fill="#202F44" stroke="#202F44" stroke-width="0.78" stroke-miterlimit="10"/>
<path d="M260.52 188.844H233.766V192.33H260.52V188.844Z" fill="#202F44" stroke="#202F44" stroke-width="0.78" stroke-miterlimit="10"/>
<path d="M247.143 191.945C254.531 191.945 260.52 190.557 260.52 188.844C260.52 187.132 254.531 185.743 247.143 185.743C239.755 185.743 233.766 187.132 233.766 188.844C233.766 190.557 239.755 191.945 247.143 191.945Z" fill="#EBEFFF" stroke="#202F44" stroke-width="0.9" stroke-miterlimit="10"/>
<path d="M247.143 190.587C254.531 190.587 260.52 189.198 260.52 187.486C260.52 185.773 254.531 184.385 247.143 184.385C239.755 184.385 233.766 185.773 233.766 187.486C233.766 189.198 239.755 190.587 247.143 190.587Z" fill="#202F44" stroke="#202F44" stroke-width="0.78" stroke-miterlimit="10"/>
<path d="M260.52 184H233.766V187.486H260.52V184Z" fill="#202F44" stroke="#202F44" stroke-width="0.78" stroke-miterlimit="10"/>
<path d="M247.143 187.1C254.531 187.1 260.52 185.712 260.52 183.999C260.52 182.287 254.531 180.898 247.143 180.898C239.755 180.898 233.766 182.287 233.766 183.999C233.766 185.712 239.755 187.1 247.143 187.1Z" fill="#EBEFFF" stroke="#202F44" stroke-width="0.9" stroke-miterlimit="10"/>
<path d="M247.143 185.743C254.531 185.743 260.52 184.355 260.52 182.642C260.52 180.929 254.531 179.541 247.143 179.541C239.755 179.541 233.766 180.929 233.766 182.642C233.766 184.355 239.755 185.743 247.143 185.743Z" fill="#202F44" stroke="#202F44" stroke-width="0.78" stroke-miterlimit="10"/>
<path d="M260.52 179.156H233.766V182.642H260.52V179.156Z" fill="#202F44" stroke="#202F44" stroke-width="0.78" stroke-miterlimit="10"/>
<path d="M247.143 182.257C254.531 182.257 260.52 180.868 260.52 179.156C260.52 177.443 254.531 176.055 247.143 176.055C239.755 176.055 233.766 177.443 233.766 179.156C233.766 180.868 239.755 182.257 247.143 182.257Z" fill="#EBEFFF" stroke="#202F44" stroke-width="0.9" stroke-miterlimit="10"/>
<path d="M247.143 180.898C254.531 180.898 260.52 179.51 260.52 177.797C260.52 176.085 254.531 174.696 247.143 174.696C239.755 174.696 233.766 176.085 233.766 177.797C233.766 179.51 239.755 180.898 247.143 180.898Z" fill="#202F44" stroke="#202F44" stroke-width="0.78" stroke-miterlimit="10"/>
<path d="M260.52 174.312H233.766V177.798H260.52V174.312Z" fill="#202F44" stroke="#202F44" stroke-width="0.78" stroke-miterlimit="10"/>
<path d="M247.143 177.412C254.531 177.412 260.52 176.024 260.52 174.311C260.52 172.598 254.531 171.21 247.143 171.21C239.755 171.21 233.766 172.598 233.766 174.311C233.766 176.024 239.755 177.412 247.143 177.412Z" fill="#EBEFFF" stroke="#202F44" stroke-width="0.9" stroke-miterlimit="10"/>
<path d="M235.928 209.347C243.316 209.347 249.305 207.958 249.305 206.246C249.305 204.533 243.316 203.145 235.928 203.145C228.54 203.145 222.551 204.533 222.551 206.246C222.551 207.958 228.54 209.347 235.928 209.347Z" fill="#202F44" stroke="#202F44" stroke-width="0.78" stroke-miterlimit="10"/>
<path d="M249.305 202.76H222.551V206.246H249.305V202.76Z" fill="#202F44" stroke="#202F44" stroke-width="0.78" stroke-miterlimit="10"/>
<path d="M235.928 205.861C243.316 205.861 249.305 204.473 249.305 202.76C249.305 201.048 243.316 199.659 235.928 199.659C228.54 199.659 222.551 201.048 222.551 202.76C222.551 204.473 228.54 205.861 235.928 205.861Z" fill="#EBEFFF" stroke="#202F44" stroke-width="0.9" stroke-miterlimit="10"/>
<path d="M209.65 197.481C217.038 197.481 223.027 196.093 223.027 194.38C223.027 192.668 217.038 191.279 209.65 191.279C202.263 191.279 196.273 192.668 196.273 194.38C196.273 196.093 202.263 197.481 209.65 197.481Z" fill="#202F44" stroke="#202F44" stroke-width="0.78" stroke-miterlimit="10"/>
<path d="M223.027 190.895H196.273V194.381H223.027V190.895Z" fill="#202F44" stroke="#202F44" stroke-width="0.78" stroke-miterlimit="10"/>
<path d="M209.65 193.996C217.038 193.996 223.027 192.608 223.027 190.895C223.027 189.182 217.038 187.794 209.65 187.794C202.263 187.794 196.273 189.182 196.273 190.895C196.273 192.608 202.263 193.996 209.65 193.996Z" fill="#EBEFFF" stroke="#202F44" stroke-width="0.9" stroke-miterlimit="10"/>
<path d="M53.83 175.97C53.83 175.97 46.445 170.902 48.93 167.332C50.631 164.91 53.452 169.376 53.452 169.376C53.452 169.376 48.706 160.395 52.15 158.799C55.006 157.469 56.252 164.203 56.252 164.203C56.252 164.203 54.817 155.922 57.89 155.516C60.963 155.11 60.872 163.44 60.872 163.44C60.872 163.44 60.998 156.601 64.435 157.945C67.697 159.219 64.631 166.513 64.309 167.262C64.309 167.262 64.309 167.297 64.309 167.262C64.638 167.052 66.304 166.1 67.032 167.339C68.754 170.279 62.37 176.649 62.37 176.649L53.83 175.97Z" fill="white" stroke="#202F44" stroke-miterlimit="10"/>
<path d="M63.7141 170.58C63.7141 170.58 65.6531 163.265 62.5381 162.88C59.4231 162.495 58.7231 168.732 58.7231 168.732C58.6531 165.932 56.5742 162.838 54.2642 164.343C51.9542 165.848 53.6551 170.58 53.6551 170.58" fill="white"/>
<path d="M63.7141 170.58C63.7141 170.58 65.6531 163.265 62.5381 162.88C59.4231 162.495 58.7231 168.732 58.7231 168.732C58.6531 165.932 56.5742 162.838 54.2642 164.343C51.9542 165.848 53.6551 170.58 53.6551 170.58" stroke="#202F44" stroke-miterlimit="10"/>
<path d="M51.3805 175.39C51.3805 175.39 49.4415 168.075 52.5565 167.69C55.6715 167.305 56.3715 173.542 56.3715 173.542C56.4415 170.742 58.5205 167.648 60.8305 169.146C63.1405 170.644 61.4395 175.39 61.4395 175.39" fill="white"/>
<path d="M51.3805 175.39C51.3805 175.39 49.4415 168.075 52.5565 167.69C55.6715 167.305 56.3715 173.542 56.3715 173.542C56.4415 170.742 58.5205 167.648 60.8305 169.146C63.1405 170.644 61.4395 175.39 61.4395 175.39" stroke="#202F44" stroke-miterlimit="10"/>
<path d="M64.309 175.39C64.7973 174.89 65.1249 174.256 65.2496 173.568C65.3744 172.881 65.2906 172.172 65.009 171.533C64.9081 171.248 64.7429 170.991 64.5264 170.781C64.3099 170.571 64.0478 170.414 63.7606 170.322C63.4734 170.23 63.1688 170.205 62.8706 170.25C62.5723 170.295 62.2884 170.408 62.041 170.581" fill="white"/>
<path d="M64.309 175.39C64.7973 174.89 65.1249 174.256 65.2496 173.568C65.3744 172.881 65.2906 172.172 65.009 171.533C64.9081 171.248 64.7429 170.991 64.5264 170.781C64.3099 170.571 64.0478 170.414 63.7606 170.322C63.4734 170.23 63.1688 170.205 62.8706 170.25C62.5723 170.295 62.2884 170.408 62.041 170.581" stroke="#202F44" stroke-miterlimit="10"/>
<path d="M47.8035 174.431H68.4605C68.8114 174.431 69.1479 174.57 69.396 174.818C69.6441 175.066 69.7835 175.403 69.7835 175.754V188.025C69.7835 190.303 68.8786 192.487 67.2678 194.098C65.6571 195.709 63.4724 196.614 61.1945 196.614H55.0695C52.7915 196.614 50.6069 195.709 48.9961 194.098C47.3854 192.487 46.4805 190.303 46.4805 188.025V175.754C46.4805 175.403 46.6199 175.066 46.868 174.818C47.1161 174.57 47.4526 174.431 47.8035 174.431Z" fill="#202F44"/>
<path d="M94.472 196.614H81.984C81.0689 196.614 80.188 196.266 79.5199 195.641C78.8518 195.016 78.4464 194.16 78.386 193.247L76.083 157.309H100.373L98.07 193.247C98.0112 194.16 97.6064 195.017 96.9379 195.643C96.2694 196.268 95.3875 196.616 94.472 196.614Z" fill="#202F44"/>
<path d="M75.6141 160.27H100.303C100.446 160.27 100.586 160.232 100.709 160.159C100.831 160.085 100.931 159.98 100.998 159.854C101.065 159.728 101.097 159.586 101.089 159.443C101.081 159.301 101.034 159.163 100.954 159.045L100.548 158.45C100.213 157.951 100.033 157.364 100.03 156.763V156.441C100.03 156.06 99.879 155.695 99.6099 155.426C99.3407 155.157 98.9757 155.006 98.5952 155.006H77.5182C77.1376 155.006 76.7726 155.157 76.5035 155.426C76.2343 155.695 76.0832 156.06 76.0832 156.441C76.0829 157.022 75.9152 157.591 75.6002 158.079L74.9561 159.08C74.8847 159.198 74.8456 159.333 74.8429 159.47C74.8402 159.608 74.8739 159.745 74.9407 159.865C75.0074 159.986 75.1048 160.087 75.2231 160.158C75.3413 160.229 75.4762 160.268 75.6141 160.27Z" fill="white" stroke="#202F44" stroke-miterlimit="10"/>
<path d="M94.7873 151.765L89.6143 154.985H98.5673V152.885C98.5673 152.529 98.4257 152.187 98.1736 151.935C97.9216 151.683 97.5797 151.541 97.2233 151.541H95.5013C95.2474 151.55 95.0005 151.627 94.7873 151.765Z" fill="white" stroke="#202F44" stroke-miterlimit="10"/>
<path d="M180.888 191.98H128.815C127.984 191.978 127.187 191.647 126.599 191.059C126.012 190.472 125.681 189.675 125.679 188.844C125.681 188.013 126.012 187.217 126.6 186.631C127.188 186.044 127.984 185.715 128.815 185.715H180.888V187.115H180.188V190.615H180.888V191.98Z" fill="#202F44"/>
<path d="M135.737 186.701H179.487V190.985H135.737C135.169 190.985 134.624 190.76 134.222 190.358C133.82 189.956 133.595 189.411 133.595 188.843C133.595 188.275 133.82 187.73 134.222 187.329C134.624 186.927 135.169 186.701 135.737 186.701Z" fill="white" stroke="#202F44" stroke-miterlimit="10"/>
<path d="M178.339 185.778H126.266C125.854 185.778 125.447 185.697 125.067 185.539C124.687 185.381 124.341 185.15 124.051 184.859C123.76 184.567 123.53 184.222 123.373 183.841C123.216 183.461 123.136 183.053 123.137 182.642C123.137 181.812 123.466 181.016 124.053 180.429C124.64 179.842 125.436 179.513 126.266 179.513H178.339V180.913H177.639V184.413H178.339V185.778Z" fill="#202F44"/>
<path d="M133.204 180.5H176.954V184.784H133.204C132.635 184.784 132.091 184.558 131.689 184.157C131.287 183.755 131.062 183.21 131.062 182.642C131.062 182.361 131.117 182.082 131.225 181.822C131.332 181.562 131.49 181.326 131.689 181.127C131.888 180.928 132.124 180.771 132.384 180.663C132.644 180.555 132.922 180.5 133.204 180.5Z" fill="white" stroke="#202F44" stroke-miterlimit="10"/>
</svg>
