<svg width="303" height="210" viewBox="0 0 303 210" fill="none" xmlns="http://www.w3.org/2000/svg">
<path d="M128.859 191.611L205.859 191.506C205.859 191.506 218.151 127.911 201.491 106.211C190.571 91.9873 172.343 92.9113 172.343 92.9113L159.148 91.7213C159.148 91.7213 145.848 86.1213 135.859 94.4373C133.059 96.7333 129.461 102.942 128.201 112.637C127.403 118.804 128.621 125.069 129.601 131.208C130.14 134.582 130.945 140.511 131.918 150.465C132.184 153.174 130.987 170.996 132.135 180.922L128.859 191.611Z" fill="#EBEFFF" stroke="#202F44" stroke-miterlimit="10"/>
<path d="M140.926 42.8266C140.926 42.8266 130.79 34.7696 135.907 24.3116C139.61 16.7166 151.587 13.7136 157.271 19.1736C162.955 24.6336 169.052 29.2956 169.052 29.2956C169.052 29.2956 167.652 23.6046 174.148 29.3726C180.644 35.1406 188.75 35.2456 189.345 41.9726C189.94 48.6996 185.25 68.0476 178.845 72.1356C175.012 74.5874 170.946 76.6554 166.707 78.3096L140.926 42.8266Z" fill="#202F44"/>
<path d="M108.817 146.028C108.817 146.028 117.672 125.504 120.017 106.898C122.579 86.5977 123.363 75.1387 123.363 75.1387L105.436 77.9387C105.436 77.9387 98.4359 94.0037 89.5529 119.029C82.9659 137.586 83.1269 155.233 89.5529 163.983C91.4041 166.453 94.0715 168.188 97.0809 168.877C100.09 169.567 103.247 169.167 105.989 167.749C105.989 167.749 121.627 159.895 135.858 134.912C150.089 109.929 154.856 90.6367 154.856 90.6367C154.856 90.6367 147.534 89.2367 144.279 89.8667C141.76 90.4915 139.318 91.3954 136.999 92.5617C131.616 94.6617 124.14 103.874 119.73 109.733" fill="#EBEFFF"/>
<path d="M108.817 146.028C108.817 146.028 117.672 125.504 120.017 106.898C122.579 86.5977 123.363 75.1387 123.363 75.1387L105.436 77.9387C105.436 77.9387 98.4359 94.0037 89.5529 119.029C82.9659 137.586 83.1269 155.233 89.5529 163.983C91.4041 166.453 94.0715 168.188 97.0809 168.877C100.09 169.567 103.247 169.167 105.989 167.749C105.989 167.749 121.627 159.895 135.858 134.912C150.089 109.929 154.856 90.6367 154.856 90.6367C154.856 90.6367 147.534 89.2367 144.279 89.8667C141.76 90.4915 139.318 91.3954 136.999 92.5617C131.616 94.6617 124.14 103.874 119.73 109.733" stroke="#202F44" stroke-miterlimit="10"/>
<path d="M151.461 73.2202L150.761 94.3392C150.72 95.4933 150.97 96.6391 151.487 97.6715C152.004 98.7039 152.773 99.5896 153.722 100.247C155.244 101.361 156.976 102.153 158.814 102.577C160.651 103 162.556 103.046 164.411 102.711C174.526 100.681 172.342 92.9112 172.342 92.9112L170.207 67.1162L151.461 73.2202Z" fill="white" stroke="#202F44" stroke-miterlimit="10"/>
<path d="M141.017 79.4227C147.401 89.5377 161.492 81.9147 169.766 72.1847C169.766 72.1847 174.89 74.2847 178.215 71.0577C181.54 67.8307 180.462 62.2657 178.18 60.2427C175.898 58.2197 173.875 58.4507 173.875 58.4507L174.806 52.5917C174.806 52.5917 165.986 51.0027 160.673 44.0797C158.523 41.3624 156.563 38.4995 154.807 35.5117C154.807 35.5117 147.709 44.3457 140.31 42.4417C140.275 42.4487 134.633 69.3007 141.017 79.4227Z" fill="white" stroke="#202F44" stroke-miterlimit="10"/>
<path d="M158.641 57.0769C158.726 56.0211 158.342 55.1286 157.784 55.0834C157.225 55.0383 156.703 55.8576 156.617 56.9134C156.532 57.9693 156.916 58.8618 157.475 58.907C158.033 58.9521 158.555 58.1328 158.641 57.0769Z" fill="#202F44" stroke="#202F44" stroke-miterlimit="10"/>
<path d="M144.425 54.2034C144.509 53.1441 144.124 52.249 143.563 52.2042C143.003 52.1593 142.479 52.9817 142.395 54.041C142.31 55.1003 142.696 55.9953 143.256 56.0402C143.817 56.085 144.34 55.2627 144.425 54.2034Z" fill="#202F44" stroke="#202F44" stroke-width="1.00319" stroke-miterlimit="10"/>
<path d="M151.734 69.812C151.734 69.812 153.687 70.449 155.094 69.399C155.698 68.9355 156.177 68.3283 156.486 67.6326C156.795 66.9369 156.926 66.1749 156.865 65.416" stroke="#202F44" stroke-miterlimit="10"/>
<path d="M170.417 66.1084C170.718 66.437 171.087 66.697 171.498 66.8709C171.908 67.0448 172.351 67.1285 172.797 67.1164C173.374 67.0388 173.923 66.8182 174.394 66.4747C174.865 66.1312 175.242 65.6757 175.492 65.1494" stroke="#202F44" stroke-miterlimit="10"/>
<path d="M105.443 77.9455L108.026 58.6535L132.862 58.3945L123.37 75.1385L105.443 77.9455Z" fill="white" stroke="#202F44" stroke-miterlimit="10"/>
<path d="M147.268 63.3783C147.268 63.3783 144.594 63.0844 144.839 61.0264C145.084 58.9684 147.541 60.0114 147.541 60.0114" stroke="#202F44" stroke-miterlimit="10"/>
<path d="M156.474 48.3142C157.435 48.1758 158.416 48.3474 159.274 48.8042C160.625 49.5672 160.842 50.2042 160.842 50.2042" stroke="#202F44" stroke-miterlimit="10"/>
<path d="M145.238 46.999C144.268 46.881 143.286 47.0799 142.438 47.566C141.108 48.364 140.912 48.966 140.912 48.966" stroke="#202F44" stroke-miterlimit="10"/>
<path d="M132.813 50.9465L107.662 53.4875L110.889 72.4855L135.466 66.5845C139.883 65.5275 142.767 61.5305 142.067 57.4215C141.374 53.3125 137.307 50.4915 132.813 50.9465Z" fill="#202F44"/>
<path d="M140.597 53.9497L132.197 54.5727L133.695 63.3647L141.808 61.1807C143.271 60.7957 144.146 59.0177 143.824 57.1207C143.516 55.2237 142.102 53.8377 140.597 53.9497Z" fill="#202F44"/>
<path d="M110.398 72.4738C112.559 72.1071 113.598 67.6108 112.719 62.4309C111.84 57.2511 109.376 53.3492 107.215 53.7159C105.054 54.0826 104.014 58.579 104.893 63.7588C105.772 68.9387 108.236 72.8405 110.398 72.4738Z" fill="white" stroke="#202F44" stroke-miterlimit="10"/>
<path d="M43.2695 191.604H266.591" stroke="#202F44" stroke-miterlimit="10"/>
<path d="M109.923 49.9945C110.284 49.3223 110.893 48.8181 111.621 48.5904C112.348 48.3627 113.136 48.4295 113.815 48.7765C113.815 48.7765 114.158 47.4955 116.062 47.3205C117.966 47.1455 118.736 48.1955 118.736 48.1955C118.736 48.1955 119.163 46.8935 121.536 47.9015C123.909 48.9095 127.92 53.2285 126.436 54.0615C124.952 54.8945 122.635 52.5915 122.635 52.5915C122.635 52.5915 125.533 55.4265 123.958 56.0145C122.383 56.6025 117.903 53.1375 117.903 53.1375C117.903 53.1375 120.703 55.4895 119.66 56.3785C118.617 57.2675 115.11 54.7335 114.669 54.4325C114.858 54.6775 115.838 56.0355 114.585 56.3575C112.485 56.8895 108.355 53.6134 108.355 53.6134C108.791 52.3713 109.315 51.1619 109.923 49.9945Z" fill="white" stroke="#202F44" stroke-miterlimit="10"/>
<path d="M219.697 183.744L219.515 139.448C219.515 139.448 213.383 141.835 204.815 137.243C196.674 132.882 193.083 117.048 201.133 115.032C207.335 113.485 206.733 126.162 211.969 130.271C213 131.131 214.222 131.73 215.533 132.018C216.844 132.305 218.205 132.273 219.501 131.923V103.881C219.501 101.592 220.41 99.3966 222.029 97.778C223.648 96.1593 225.843 95.25 228.132 95.25C229.265 95.25 230.388 95.4732 231.435 95.907C232.482 96.3407 233.434 96.9765 234.235 97.778C235.037 98.5794 235.672 99.5309 236.106 100.578C236.54 101.625 236.763 102.748 236.763 103.881V143.396H240.963C241.933 143.386 242.892 143.182 243.781 142.795C244.671 142.408 245.474 141.847 246.143 141.144C246.811 140.44 247.332 139.61 247.673 138.702C248.015 137.794 248.17 136.826 248.131 135.857C247.949 130.719 248.411 124.405 251.799 123.257C260.528 120.296 260.367 138.321 256.349 144.068C249.818 153.42 236.749 149.626 236.749 149.626V184.843L219.697 183.744Z" fill="white" stroke="#202F44" stroke-miterlimit="10"/>
<path d="M224.807 96.2646C224.807 98.4626 223.309 98.4626 223.309 100.661C223.309 102.859 224.807 102.859 224.807 105.057C224.807 107.255 223.309 107.255 223.309 109.453C223.309 111.651 224.807 111.651 224.807 113.849C224.807 116.047 223.309 116.054 223.309 118.252C223.309 120.45 224.807 120.45 224.807 122.648C224.807 124.846 223.309 124.846 223.309 127.044C223.309 129.242 224.807 129.242 224.807 131.412C224.807 133.582 223.309 133.61 223.309 135.808C223.309 138.006 224.807 138.006 224.807 140.204C224.807 142.402 223.309 142.402 223.309 144.6C223.309 146.798 224.807 146.812 224.807 149.031C224.807 151.25 223.309 151.229 223.309 153.427C223.309 155.625 224.807 155.625 224.807 157.83C224.807 160.035 223.309 160.028 223.309 162.233C223.309 164.438 224.807 164.431 224.807 166.636" fill="white"/>
<path d="M224.807 96.2646C224.807 98.4626 223.309 98.4626 223.309 100.661C223.309 102.859 224.807 102.859 224.807 105.057C224.807 107.255 223.309 107.255 223.309 109.453C223.309 111.651 224.807 111.651 224.807 113.849C224.807 116.047 223.309 116.054 223.309 118.252C223.309 120.45 224.807 120.45 224.807 122.648C224.807 124.846 223.309 124.846 223.309 127.044C223.309 129.242 224.807 129.242 224.807 131.412C224.807 133.582 223.309 133.61 223.309 135.808C223.309 138.006 224.807 138.006 224.807 140.204C224.807 142.402 223.309 142.402 223.309 144.6C223.309 146.798 224.807 146.812 224.807 149.031C224.807 151.25 223.309 151.229 223.309 153.427C223.309 155.625 224.807 155.625 224.807 157.83C224.807 160.035 223.309 160.028 223.309 162.233C223.309 164.438 224.807 164.431 224.807 166.636" stroke="#202F44" stroke-miterlimit="10"/>
<path d="M232.157 96.2646C232.157 98.4626 230.652 98.4626 230.652 100.661C230.652 102.859 232.157 102.859 232.157 105.057C232.157 107.255 230.652 107.255 230.652 109.453C230.652 111.651 232.157 111.651 232.157 113.849C232.157 116.047 230.652 116.054 230.652 118.252C230.652 120.45 232.157 120.45 232.157 122.648C232.157 124.846 230.652 124.846 230.652 127.044C230.652 129.242 232.157 129.242 232.157 131.44C232.157 133.638 230.652 133.638 230.652 135.836C230.652 138.034 232.157 138.034 232.157 140.232C232.157 142.43 230.652 142.43 230.652 144.628C230.652 146.826 232.157 146.833 232.157 149.031C232.157 151.229 230.652 151.229 230.652 153.427C230.652 155.625 232.157 155.625 232.157 157.83C232.157 160.035 230.652 160.028 230.652 162.233C230.652 164.438 232.157 164.431 232.157 166.636" fill="white"/>
<path d="M232.157 96.2646C232.157 98.4626 230.652 98.4626 230.652 100.661C230.652 102.859 232.157 102.859 232.157 105.057C232.157 107.255 230.652 107.255 230.652 109.453C230.652 111.651 232.157 111.651 232.157 113.849C232.157 116.047 230.652 116.054 230.652 118.252C230.652 120.45 232.157 120.45 232.157 122.648C232.157 124.846 230.652 124.846 230.652 127.044C230.652 129.242 232.157 129.242 232.157 131.44C232.157 133.638 230.652 133.638 230.652 135.836C230.652 138.034 232.157 138.034 232.157 140.232C232.157 142.43 230.652 142.43 230.652 144.628C230.652 146.826 232.157 146.833 232.157 149.031C232.157 151.229 230.652 151.229 230.652 153.427C230.652 155.625 232.157 155.625 232.157 157.83C232.157 160.035 230.652 160.028 230.652 162.233C230.652 164.438 232.157 164.431 232.157 166.636" stroke="#202F44" stroke-miterlimit="10"/>
<path d="M206.25 162.31H249.468C250.372 162.31 251.266 162.488 252.101 162.833C252.936 163.179 253.695 163.686 254.334 164.325C254.973 164.964 255.479 165.722 255.825 166.557C256.171 167.392 256.349 168.287 256.349 169.191V190.793C256.349 192.991 255.476 195.099 253.922 196.653C252.367 198.207 250.259 199.081 248.061 199.081H207.664C205.466 199.081 203.358 198.207 201.804 196.653C200.249 195.099 199.376 192.991 199.376 190.793V169.212C199.373 168.307 199.549 167.41 199.893 166.573C200.237 165.737 200.743 164.976 201.382 164.335C202.02 163.694 202.779 163.185 203.614 162.837C204.449 162.49 205.345 162.31 206.25 162.31Z" fill="#202F44"/>
<path d="M253.752 122.893L252.464 138.181C252.362 139.446 251.998 140.676 251.396 141.793C250.793 142.91 249.965 143.889 248.964 144.67V144.67C247.352 145.921 245.37 146.601 243.329 146.602H237.071" stroke="#202F44" stroke-miterlimit="10"/>
<path d="M219.516 131.923V139.448" stroke="#202F44" stroke-miterlimit="10"/>
<path d="M201.126 115.312L204.234 127.212C204.661 128.847 205.435 130.371 206.502 131.682C207.57 132.992 208.907 134.058 210.422 134.807C212.046 135.609 213.833 136.026 215.644 136.025H219.515" stroke="#202F44" stroke-miterlimit="10"/>
<path d="M143.936 50.6877L118.792 53.2287L122.012 72.2268L146.589 66.3118C151.013 65.2478 153.89 61.2508 153.197 57.1488C152.497 53.0538 148.458 50.2117 143.936 50.6877Z" fill="#202F44"/>
<path d="M151.72 53.712L143.32 54.335L144.811 63.12L152.924 60.943C154.387 60.551 155.269 58.78 154.947 56.883C154.646 54.958 153.225 53.579 151.72 53.712Z" fill="#202F44"/>
<path d="M121.517 72.2131C123.678 71.8464 124.717 67.35 123.838 62.1702C122.96 56.9903 120.495 53.0885 118.334 53.4552C116.173 53.8219 115.133 58.3182 116.012 63.4981C116.891 68.6779 119.356 72.5798 121.517 72.2131Z" fill="white" stroke="#202F44" stroke-miterlimit="10"/>
<path d="M178.209 99.7715C164.412 102.711 161.808 130.845 161.808 130.845L178.209 99.7715Z" fill="#EBEFFF"/>
<path d="M178.209 99.7715C164.412 102.711 161.808 130.845 161.808 130.845" stroke="#202F44" stroke-miterlimit="10"/>
<path d="M161.36 78.7638C160.927 73.001 159.349 67.3824 156.719 62.2368C154.979 58.9693 152.865 55.9154 150.419 53.1368C150.419 53.1368 143.832 46.9348 142.67 48.1178C141.508 49.3008 146.702 54.0188 146.702 54.0188C147.549 56.1188 148.102 58.0858 148.802 59.4928C148.808 59.5041 148.809 59.5171 148.807 59.5296C148.804 59.5421 148.798 59.5533 148.788 59.5615C148.778 59.5697 148.766 59.5742 148.753 59.5745C148.74 59.5747 148.728 59.5706 148.718 59.5628C148.207 59.1078 146.793 57.3928 145.918 56.2868C145.359 55.5944 144.637 55.051 143.818 54.7048C141.298 53.6478 136.118 51.7228 135.894 52.2478C134.914 54.4668 142.194 57.8478 142.194 57.8478C143.552 59.4145 144.779 61.0909 145.862 62.8598C145.862 62.8598 144.602 61.6138 143.265 60.4308C142.187 59.4801 140.978 58.6902 139.674 58.0858C137.364 57.0218 133.612 55.4538 133.57 56.5178C133.528 57.5818 136.559 59.8988 138.358 61.4528C139.94 62.7918 141.368 64.3039 142.614 65.9608C142.408 65.6844 142.174 65.431 141.914 65.2048C141.163 64.2861 140.313 63.4527 139.38 62.7198C137.609 61.6418 132.534 59.9198 132.1 60.5848C130.917 62.3068 137.476 65.3938 137.476 65.3938C139.422 68.1938 141.676 71.9738 142.775 72.9328C143.278 73.3863 143.662 73.9558 143.895 74.5918C144.147 75.2918 144.483 76.2368 144.931 77.6368C145.771 80.2968 146.996 80.6958 146.996 80.6958L143.307 97.7198L161.29 97.6638C161.29 97.6638 161.598 81.5148 161.36 78.7638Z" fill="white" stroke="#202F44" stroke-miterlimit="10"/>
<path d="M165.727 143.311C165.727 143.311 168.044 134.33 165.846 115.703C163.452 95.4033 161.443 84.0703 161.443 84.0703L144.72 91.1123C144.72 91.1123 136.236 111.321 137.02 134.456C137.72 154.133 141.647 171.5 149.991 178.451C152.384 180.402 155.391 181.442 158.478 181.387C161.564 181.332 164.532 180.185 166.854 178.15C171.355 174.265 188.771 153.209 192.264 131.138" fill="#EBEFFF"/>
<path d="M165.727 143.311C165.727 143.311 168.044 134.33 165.846 115.703C163.452 95.4033 161.443 84.0703 161.443 84.0703L144.72 91.1123C144.72 91.1123 136.236 111.321 137.02 134.456C137.72 154.133 141.647 171.5 149.991 178.451C152.384 180.402 155.391 181.442 158.478 181.387C161.564 181.332 164.532 180.185 166.854 178.15C171.355 174.265 188.771 153.209 192.264 131.138" stroke="#202F44" stroke-miterlimit="10"/>
<path d="M128.879 120.282L131.812 145.3L136.999 153.896L136.397 122.865L131.924 116.096L128.879 120.282Z" fill="#EBEFFF"/>
<path d="M66.7893 170.136H90.6383C90.9613 170.136 91.2711 170.264 91.4995 170.492C91.728 170.721 91.8563 171.031 91.8563 171.354V190.534C91.8563 192.802 90.9551 194.978 89.3509 196.582C87.7467 198.186 85.5709 199.088 83.3023 199.088H74.1253C71.8566 199.088 69.6809 198.186 68.0767 196.582C66.4725 194.978 65.5713 192.802 65.5713 190.534V171.354C65.5713 171.031 65.6996 170.721 65.928 170.492C66.1565 170.264 66.4662 170.136 66.7893 170.136Z" fill="#202F44"/>
<path d="M66.2854 175.379C58.2004 176.709 58.2004 188.336 66.2854 189.666" stroke="#202F44" stroke-miterlimit="10"/>
<path d="M173.763 184.591H108.663V199.081H173.763V184.591Z" fill="#202F44"/>
<path d="M117.938 195.119C119.751 195.119 121.221 193.649 121.221 191.836C121.221 190.023 119.751 188.553 117.938 188.553C116.125 188.553 114.655 190.023 114.655 191.836C114.655 193.649 116.125 195.119 117.938 195.119Z" fill="white" stroke="#202F44" stroke-miterlimit="10"/>
<path d="M137.272 188.553H124.007V195.126H137.272V188.553Z" fill="white" stroke="#202F44" stroke-miterlimit="10"/>
<path d="M160.47 188.553H158.573V195.126H160.47V188.553Z" fill="white" stroke="#202F44" stroke-miterlimit="10"/>
<path d="M162.85 188.553H160.953V195.126H162.85V188.553Z" fill="white" stroke="#202F44" stroke-miterlimit="10"/>
<path d="M165.237 188.553H163.34V195.126H165.237V188.553Z" fill="white" stroke="#202F44" stroke-miterlimit="10"/>
<path d="M167.625 188.553H165.728V195.126H167.625V188.553Z" fill="white" stroke="#202F44" stroke-miterlimit="10"/>
<path d="M111.946 184.339V180.237L115.607 177.878H111.946V170.948L116.279 169.387L111.946 167.952V160.553H161.905V168.267L157.348 169.387L161.905 170.633V178.193L157.404 179.922H161.905V184.339H111.946Z" fill="white" stroke="#202F44" stroke-miterlimit="10"/>
<path d="M121.256 169.387H134.031H143.558H121.256Z" fill="white" stroke="#202F44" stroke-miterlimit="10"/>
<path d="M140.331 165.48H145.791H149.858H140.331Z" fill="white" stroke="#202F44" stroke-miterlimit="10"/>
<path d="M151.3 165.48H156.76H154.947H151.3Z" fill="white" stroke="#202F44" stroke-miterlimit="10"/>
<path d="M127.136 175.581H132.589H136.663H127.136Z" fill="white" stroke="#202F44" stroke-miterlimit="10"/>
<path d="M143.558 175.581H141.752H138.105" fill="white"/>
<path d="M143.558 175.581H141.752H138.105" stroke="#202F44" stroke-miterlimit="10"/>
<path d="M134.381 179.963H139.841H143.908H134.381Z" fill="white" stroke="#202F44" stroke-miterlimit="10"/>
<path d="M148.997 179.963H145.35H148.997Z" fill="white"/>
<path d="M148.997 179.963H145.35" stroke="#202F44" stroke-miterlimit="10"/>
<path d="M136.93 172.446H145.078" stroke="#202F44" stroke-miterlimit="10"/>
<path d="M143.397 172.446H152.679L150.229 174.931L143.397 172.446Z" fill="white" stroke="#202F44" stroke-miterlimit="10"/>
<path d="M134.409 169.387H125.127L127.577 171.879L134.409 169.387Z" fill="white" stroke="#202F44" stroke-miterlimit="10"/>
<path d="M53.3496 152.769L42.3945 193.327" stroke="#202F44" stroke-miterlimit="10"/>
<path d="M43.2132 165.152H51.3052C53.1097 165.152 54.8403 165.869 56.1163 167.145C57.3923 168.421 58.1092 170.152 58.1092 171.956V194.965C58.1092 195.76 57.7936 196.522 57.2317 197.084C56.6698 197.646 55.9078 197.961 55.1132 197.961H39.4052C38.6106 197.961 37.8486 197.646 37.2867 197.084C36.7248 196.522 36.4092 195.76 36.4092 194.965V171.949C36.411 170.146 37.1287 168.417 38.4045 167.143C39.6803 165.868 41.4099 165.152 43.2132 165.152Z" fill="#202F44"/>
<path d="M38.5234 167.217L39.2934 165.95V164.438H55.3514V165.823L56.1214 167.217H38.5234Z" fill="#202F44"/>
<path d="M56.6326 197.268L55.8066 198.094V199.081H38.5096V198.171L37.6836 197.268H56.6326Z" fill="#202F44"/>
<path d="M53.8672 181.616V176.352" stroke="white" stroke-miterlimit="10" stroke-linecap="round"/>
<path d="M53.8672 174.602V173.979" stroke="white" stroke-miterlimit="10" stroke-linecap="round"/>
<path d="M53.867 172.502V171.256C53.867 170.805 53.6878 170.372 53.3688 170.053C53.0498 169.734 52.6172 169.555 52.166 169.555" stroke="white" stroke-miterlimit="10" stroke-linecap="round"/>
</svg>
