<svg width="303" height="210" viewBox="0 0 303 210" fill="none" xmlns="http://www.w3.org/2000/svg">
<path d="M234.369 181.451L234.201 140.088C234.201 140.088 228.482 142.321 220.488 138.037C212.893 133.963 209.54 119.179 217.058 117.296C222.847 115.854 222.287 127.684 227.173 131.52C228.131 132.319 229.267 132.877 230.485 133.146C231.703 133.415 232.968 133.388 234.173 133.067V106.887C234.173 105.825 234.383 104.773 234.791 103.793C235.199 102.812 235.797 101.921 236.55 101.173C237.304 100.424 238.198 99.8314 239.181 99.4294C240.164 99.0274 241.217 98.8238 242.279 98.8302C243.338 98.8293 244.386 99.037 245.365 99.4415C246.343 99.846 247.232 100.439 247.981 101.188C248.73 101.936 249.324 102.824 249.729 103.802C250.135 104.78 250.343 105.829 250.343 106.887V143.777H254.263C255.169 143.769 256.063 143.578 256.894 143.217C257.724 142.856 258.474 142.332 259.098 141.676C259.722 141.02 260.208 140.245 260.527 139.398C260.846 138.55 260.992 137.647 260.955 136.742C260.787 131.94 261.214 126.046 264.378 124.975C272.526 122.175 272.379 139.038 268.627 144.4C262.523 153.129 250.357 149.587 250.357 149.587V182.487L234.369 181.451Z" fill="white" stroke="#202F44" stroke-width="1.03" stroke-miterlimit="10"/>
<path d="M239.171 99.7754C239.171 101.826 237.771 101.826 237.771 103.877C237.771 105.928 239.171 105.935 239.171 107.986C239.171 110.037 237.771 110.037 237.771 112.088C237.771 114.139 239.171 114.146 239.171 116.197C239.171 118.248 237.771 118.248 237.771 120.299C237.771 122.35 239.171 122.35 239.171 124.408C239.171 126.466 237.771 126.459 237.771 128.51C237.771 130.561 239.171 130.561 239.171 132.612C239.171 134.663 237.771 134.663 237.771 136.721C237.771 138.779 239.171 138.772 239.171 140.823C239.171 142.874 237.771 142.874 237.771 144.932C237.771 146.99 239.171 146.983 239.171 149.034C239.171 151.085 237.771 151.085 237.771 153.143C237.771 155.201 239.171 155.194 239.171 157.252C239.171 159.31 237.771 159.303 237.771 161.361C237.771 163.419 239.171 163.419 239.171 165.47" fill="white"/>
<path d="M239.171 99.7754C239.171 101.826 237.771 101.826 237.771 103.877C237.771 105.928 239.171 105.935 239.171 107.986C239.171 110.037 237.771 110.037 237.771 112.088C237.771 114.139 239.171 114.146 239.171 116.197C239.171 118.248 237.771 118.248 237.771 120.299C237.771 122.35 239.171 122.35 239.171 124.408C239.171 126.466 237.771 126.459 237.771 128.51C237.771 130.561 239.171 130.561 239.171 132.612C239.171 134.663 237.771 134.663 237.771 136.721C237.771 138.779 239.171 138.772 239.171 140.823C239.171 142.874 237.771 142.874 237.771 144.932C237.771 146.99 239.171 146.983 239.171 149.034C239.171 151.085 237.771 151.085 237.771 153.143C237.771 155.201 239.171 155.194 239.171 157.252C239.171 159.31 237.771 159.303 237.771 161.361C237.771 163.419 239.171 163.419 239.171 165.47" stroke="#202F44" stroke-width="1.03" stroke-miterlimit="10"/>
<path d="M246.004 99.7754C246.004 101.826 244.604 101.826 244.604 103.877C244.604 105.928 246.004 105.935 246.004 107.986C246.004 110.037 244.604 110.037 244.604 112.088C244.604 114.139 246.004 114.146 246.004 116.197C246.004 118.248 244.604 118.248 244.604 120.299C244.604 122.35 246.004 122.35 246.004 124.408C246.004 126.466 244.604 126.459 244.604 128.51C244.604 130.561 246.004 130.561 246.004 132.612C246.004 134.663 244.604 134.663 244.604 136.721C244.604 138.779 246.004 138.772 246.004 140.823C246.004 142.874 244.604 142.874 244.604 144.932C244.604 146.99 246.004 146.983 246.004 149.034C246.004 151.085 244.604 151.085 244.604 153.143C244.604 155.201 246.004 155.194 246.004 157.252C246.004 159.31 244.604 159.303 244.604 161.361C244.604 163.419 246.004 163.419 246.004 165.47" fill="white"/>
<path d="M246.004 99.7754C246.004 101.826 244.604 101.826 244.604 103.877C244.604 105.928 246.004 105.935 246.004 107.986C246.004 110.037 244.604 110.037 244.604 112.088C244.604 114.139 246.004 114.146 246.004 116.197C246.004 118.248 244.604 118.248 244.604 120.299C244.604 122.35 246.004 122.35 246.004 124.408C246.004 126.466 244.604 126.459 244.604 128.51C244.604 130.561 246.004 130.561 246.004 132.612C246.004 134.663 244.604 134.663 244.604 136.721C244.604 138.779 246.004 138.772 246.004 140.823C246.004 142.874 244.604 142.874 244.604 144.932C244.604 146.99 246.004 146.983 246.004 149.034C246.004 151.085 244.604 151.085 244.604 153.143C244.604 155.201 246.004 155.194 246.004 157.252C246.004 159.31 244.604 159.303 244.604 161.361C244.604 163.419 246.004 163.419 246.004 165.47" stroke="#202F44" stroke-width="1.03" stroke-miterlimit="10"/>
<path d="M221.825 161.438H262.166C263.871 161.438 265.505 162.115 266.71 163.32C267.915 164.525 268.592 166.159 268.592 167.864V188.03C268.592 190.082 267.777 192.049 266.327 193.5C264.876 194.951 262.909 195.765 260.857 195.765H223.141C221.09 195.765 219.122 194.951 217.672 193.5C216.221 192.049 215.406 190.082 215.406 188.03V167.857C215.408 166.155 216.085 164.523 217.288 163.32C218.492 162.116 220.123 161.439 221.825 161.438Z" fill="#202F44"/>
<path d="M266.17 124.632L264.966 138.905C264.867 140.088 264.523 141.237 263.957 142.281C263.391 143.324 262.614 144.239 261.676 144.967V144.967C260.173 146.136 258.324 146.772 256.419 146.773H250.574" stroke="#202F44" stroke-width="1.03" stroke-miterlimit="10"/>
<path d="M234.201 133.066V140.087" stroke="#202F44" stroke-width="1.03" stroke-miterlimit="10"/>
<path d="M217.037 117.583L219.942 128.727C220.34 130.254 221.062 131.677 222.059 132.9C223.055 134.124 224.303 135.119 225.717 135.818V135.818C227.241 136.571 228.918 136.962 230.617 136.959H234.229" stroke="#202F44" stroke-width="1.03" stroke-miterlimit="10"/>
<path d="M141.619 81.0851L142.319 83.8851L150.201 76.7801C150.201 76.7801 175.135 76.4231 192.551 91.0391C212.97 108.182 229.364 144.337 223.491 165.099C217.009 188.024 189.345 165.099 189.345 165.099L187.644 191.636H114.249L112.625 183.88C112.625 183.88 91.0651 198.454 84.4851 174.08C79.9071 157.133 98.2961 96.1421 118.666 87.6161C139.036 79.0901 141.619 81.0851 141.619 81.0851Z" fill="#EBEFFF" stroke="#202F44" stroke-width="1.15" stroke-miterlimit="10"/>
<path d="M104.66 46.792C104.66 46.792 92.9975 43.621 93.5085 32.792C93.8795 24.896 103.043 17.903 109.931 20.493C116.819 23.083 123.769 24.826 123.769 24.826C123.769 24.826 120.48 20.451 128.18 23.006C135.88 25.561 142.88 22.656 145.869 28.221C148.858 33.786 151.973 52.091 147.969 57.971C145.589 61.4783 142.869 64.7421 139.849 67.715L104.66 46.792Z" fill="#202F44"/>
<path d="M124.98 67.9815L131.679 86.5385C132.04 87.5543 132.652 88.4627 133.457 89.1797C134.262 89.8967 135.235 90.3991 136.285 90.6405C137.987 91.0786 139.759 91.1668 141.495 90.8996C143.232 90.6325 144.896 90.0157 146.386 89.0865C154.471 83.8365 149.886 77.8375 149.886 77.8375L139.134 56.2285L124.98 67.9815Z" fill="white" stroke="#202F44" stroke-width="1.03" stroke-miterlimit="10"/>
<path d="M118.057 76.9832C127.08 83.5632 136.677 72.0832 140.499 60.7992C140.499 60.7992 145.679 60.8832 147.443 56.9142C149.207 52.9452 146.372 48.5142 143.691 47.5412C141.01 46.5682 139.337 47.4712 139.337 47.4712L138.245 43.0962C138.245 43.0962 134.822 43.6352 128.676 41.6472C125.464 40.6639 122.334 39.428 119.317 37.9512C119.317 37.9512 109.93 42.9212 103.217 40.4992C103.245 40.4712 109.027 70.3752 118.057 76.9832Z" fill="white" stroke="#202F44" stroke-miterlimit="10"/>
<path d="M121.467 66.1122C122.014 66.0783 122.548 65.9263 123.032 65.6665C123.515 65.4067 123.936 65.0453 124.267 64.6072C124.629 63.9948 124.834 63.3017 124.862 62.5905C124.89 61.8794 124.741 61.1724 124.428 60.5332" stroke="#202F44" stroke-width="0.73" stroke-miterlimit="10"/>
<path d="M138.98 55.2832C139.355 55.464 139.764 55.5619 140.179 55.5704C140.595 55.5789 141.007 55.4976 141.388 55.3322C141.863 55.0673 142.264 54.6876 142.554 54.2278C142.843 53.7679 143.013 53.2427 143.047 52.7002" stroke="#202F44" stroke-width="0.73" stroke-miterlimit="10"/>
<path d="M117.946 60.8829C117.946 60.8829 115.53 61.5829 115.033 59.6789C114.536 57.7749 117.022 57.8729 117.022 57.8729" stroke="#202F44" stroke-width="0.73" stroke-miterlimit="10"/>
<path d="M120.745 44.643C121.533 44.1887 122.445 43.9975 123.349 44.097C124.014 44.1159 124.655 44.3437 125.183 44.748" stroke="#202F44" stroke-width="0.73" stroke-miterlimit="10"/>
<path d="M110.547 47.3662C109.668 47.6003 108.887 48.1108 108.321 48.8222C107.439 49.9772 107.481 50.5722 107.481 50.5722" stroke="#202F44" stroke-width="0.73" stroke-miterlimit="10"/>
<path d="M124.777 50.9084C125.113 51.8394 124.98 52.7354 124.49 52.9104C124 53.0854 123.328 52.4764 122.992 51.5104C122.656 50.5444 123.454 52.4834 124.224 52.1474C124.994 51.8114 124.448 49.9774 124.777 50.9084Z" fill="#202F44" stroke="#202F44" stroke-width="0.73" stroke-miterlimit="10"/>
<path d="M111.821 55.7521C112.15 56.6831 112.024 57.5791 111.527 57.7541C111.03 57.9291 110.365 57.3201 110.036 56.3961C109.707 55.4721 110.498 57.3691 111.268 57.0331C112.038 56.6971 111.492 54.8281 111.821 55.7521Z" fill="#202F44" stroke="#202F44" stroke-width="0.73" stroke-miterlimit="10"/>
<path d="M147.674 145.583C150.628 123.995 139.526 112.522 130.552 111.409C120.822 110.198 117.917 121.321 117.917 121.321" stroke="#202F44" stroke-width="5" stroke-miterlimit="10"/>
<path d="M189.618 165.47C180.357 155.817 173.931 148.026 168.023 129.854L173.294 113.278C173.294 113.278 193.265 128.041 202.47 136.819C219.452 153.01 216.897 165.47 216.897 165.47" stroke="#202F44" stroke-width="1.15" stroke-miterlimit="10"/>
<path d="M161.583 106.453C155.094 105.592 143.81 104.535 139.792 106.978C127.269 114.587 122.46 114.013 123.811 116.078C125.449 118.626 132.211 116.484 136.061 115.378C136.138 116.036 132.862 118.696 134.864 120.502C135.281 120.862 135.784 121.106 136.324 121.212C136.864 121.317 137.423 121.28 137.944 121.104C137.944 121.104 136.88 124.254 139.764 124.863C140.69 124.957 141.615 124.683 142.34 124.1C142.355 124.086 142.374 124.078 142.394 124.077C142.415 124.075 142.435 124.08 142.452 124.092C142.469 124.103 142.481 124.119 142.488 124.139C142.494 124.158 142.494 124.179 142.487 124.198C142.417 124.467 142.41 124.748 142.466 125.02C142.523 125.292 142.64 125.547 142.811 125.766C142.981 125.985 143.2 126.162 143.449 126.284C143.699 126.405 143.973 126.467 144.251 126.466C146.218 126.676 150.628 123.967 150.628 123.967C152.562 124.099 154.504 124.056 156.431 123.841C159.49 123.575 160.218 122.35 160.218 122.35L168.023 129.805L173.294 113.229C173.294 113.229 164.579 106.859 161.583 106.453Z" fill="white" stroke="#202F44" stroke-width="1.03" stroke-miterlimit="10"/>
<path d="M102.784 128.468C102.468 128.704 102.244 129.042 102.148 129.425C102.052 129.807 102.091 130.211 102.259 130.568L118.548 166.366C118.834 167.027 119.319 167.584 119.934 167.96C120.549 168.336 121.265 168.513 121.985 168.466C137.091 168.977 148.543 159.835 151.175 149.3C151.433 148.273 151.403 147.194 151.088 146.183C150.773 145.171 150.185 144.266 149.39 143.567L120.522 118.08L117.918 116.918L102.784 128.468Z" fill="#202F44"/>
<path d="M118.722 152.786L76.5117 138.079L77.2187 141.523L122.411 166.464L126.856 156.321L118.722 152.786Z" fill="#202F44"/>
<path d="M112.625 183.873C112.625 183.873 122.124 176.299 127.738 161.984C133.24 147.949 133.534 152.275 133.534 152.275L119.716 144.33C119.716 144.33 102.069 151.442 98.1211 159.345" stroke="#202F44" stroke-width="1.15" stroke-miterlimit="10"/>
<path d="M57.4792 163.623C57.4792 163.623 46.6572 157.925 50.3392 153.914C52.8382 151.191 56.9753 156.21 56.9753 156.21C56.9753 156.21 50.0102 146.116 55.0572 144.31C59.2572 142.819 61.0703 150.379 61.0703 150.379C61.0703 150.379 58.9702 141.076 63.4712 140.621C67.9722 140.166 67.8042 149.483 67.8042 149.483C67.8042 149.483 67.9792 141.783 73.0192 143.309C77.8002 144.709 73.3132 152.941 72.8372 153.809C72.8372 153.809 72.8372 153.851 72.8792 153.809C73.3622 153.578 75.8052 152.507 76.8692 153.9C79.3962 157.204 70.0372 164.358 70.0372 164.358L57.4792 163.623Z" fill="white" stroke="#202F44" stroke-width="1.03" stroke-miterlimit="10"/>
<path d="M71.9691 157.567C71.9691 157.567 74.7691 149.349 70.2471 148.915C65.7251 148.481 64.6471 155.488 64.6471 155.488C64.5491 152.366 61.4971 148.866 58.1091 150.553C54.7211 152.24 57.2271 157.553 57.2271 157.553" fill="white"/>
<path d="M71.9691 157.567C71.9691 157.567 74.7691 149.349 70.2471 148.915C65.7251 148.481 64.6471 155.488 64.6471 155.488C64.5491 152.366 61.4971 148.866 58.1091 150.553C54.7211 152.24 57.2271 157.553 57.2271 157.553" stroke="#202F44" stroke-width="1.03" stroke-miterlimit="10"/>
<path d="M53.9026 162.971C53.9026 162.971 51.0606 154.753 55.6246 154.319C60.1886 153.885 61.2246 160.892 61.2246 160.892C61.3226 157.77 64.3746 154.263 67.7626 155.957C71.1506 157.651 68.6446 162.957 68.6446 162.957" fill="white"/>
<path d="M53.9026 162.971C53.9026 162.971 51.0606 154.753 55.6246 154.319C60.1886 153.885 61.2246 160.892 61.2246 160.892C61.3226 157.77 64.3746 154.263 67.7626 155.957C71.1506 157.651 68.6446 162.957 68.6446 162.957" stroke="#202F44" stroke-width="1.03" stroke-miterlimit="10"/>
<path d="M72.8795 162.97C72.8795 162.97 75.3925 161.122 73.9015 158.63C72.4105 156.138 69.5615 157.566 69.5615 157.566" fill="white"/>
<path d="M72.8795 162.97C72.8795 162.97 75.3925 161.122 73.9015 158.63C72.4105 156.138 69.5615 157.566 69.5615 157.566" stroke="#202F44" stroke-width="1.03" stroke-miterlimit="10"/>
<path d="M67.1325 172.561C67.1325 172.561 56.3106 166.863 59.9926 162.859C62.4916 160.129 66.6285 165.155 66.6285 165.155C66.6285 165.155 59.6286 155.061 64.7106 153.255C68.9106 151.764 70.7235 159.331 70.7235 159.331C70.7235 159.331 68.6235 150.028 73.1245 149.531C77.6255 149.034 77.4576 158.4 77.4576 158.4C77.4576 158.4 77.6325 150.7 82.6725 152.226C87.4535 153.626 82.9665 161.851 82.4905 162.691C82.4905 162.691 82.4906 162.733 82.5326 162.726C83.0156 162.495 85.4585 161.417 86.5225 162.817C89.0495 166.114 79.6905 173.268 79.6905 173.268L67.1325 172.561Z" fill="white" stroke="#202F44" stroke-width="1.03" stroke-miterlimit="10"/>
<path d="M81.6156 166.506C81.6156 166.506 84.4576 158.288 79.8936 157.854C75.3296 157.42 74.2936 164.427 74.2936 164.427C74.1956 161.312 71.1436 157.805 67.7556 159.527C64.3676 161.249 66.8736 166.527 66.8736 166.527" fill="white"/>
<path d="M81.6156 166.506C81.6156 166.506 84.4576 158.288 79.8936 157.854C75.3296 157.42 74.2936 164.427 74.2936 164.427C74.1956 161.312 71.1436 157.805 67.7556 159.527C64.3676 161.249 66.8736 166.527 66.8736 166.527" stroke="#202F44" stroke-width="1.03" stroke-miterlimit="10"/>
<path d="M63.5484 171.91C63.5484 171.91 60.7485 163.692 65.2705 163.258C69.7925 162.824 70.8705 169.831 70.8705 169.831C70.9685 166.716 74.0204 163.209 77.4084 164.931C80.7964 166.653 78.2904 171.931 78.2904 171.931" fill="white"/>
<path d="M63.5484 171.91C63.5484 171.91 60.7485 163.692 65.2705 163.258C69.7925 162.824 70.8705 169.831 70.8705 169.831C70.9685 166.716 74.0204 163.209 77.4084 164.931C80.7964 166.653 78.2904 171.931 78.2904 171.931" stroke="#202F44" stroke-width="1.03" stroke-miterlimit="10"/>
<path d="M82.4899 171.91C82.4899 171.91 85.0028 170.062 83.5118 167.577C82.0208 165.092 79.1719 166.506 79.1719 166.506" fill="white"/>
<path d="M82.4899 171.91C82.4899 171.91 85.0028 170.062 83.5118 167.577C82.0208 165.092 79.1719 166.506 79.1719 166.506" stroke="#202F44" stroke-width="1.03" stroke-miterlimit="10"/>
<path d="M49.0027 172.561C49.0027 172.561 38.1807 166.863 41.8627 162.859C44.3617 160.129 48.4987 165.155 48.4987 165.155C48.4987 165.155 41.5337 155.061 46.5807 153.255C50.7807 151.764 52.5937 159.331 52.5937 159.331C52.5937 159.331 50.4937 150.028 54.9947 149.531C59.4957 149.034 59.3277 158.4 59.3277 158.4C59.3277 158.4 59.5027 150.7 64.5427 152.226C69.3237 153.626 64.8297 161.851 64.3537 162.691C64.3537 162.691 64.3537 162.733 64.4027 162.726C64.8857 162.495 67.3287 161.417 68.3927 162.817C70.9127 166.114 61.5607 173.268 61.5607 173.268L49.0027 172.561Z" fill="white" stroke="#202F44" stroke-width="1.03" stroke-miterlimit="10"/>
<path d="M63.4852 166.506C63.4852 166.506 66.2851 158.288 61.7631 157.854C57.2411 157.42 56.1631 164.427 56.1631 164.427C56.0651 161.312 53.0201 157.805 49.6321 159.527C46.2441 161.249 48.7432 166.527 48.7432 166.527" fill="white"/>
<path d="M63.4852 166.506C63.4852 166.506 66.2851 158.288 61.7631 157.854C57.2411 157.42 56.1631 164.427 56.1631 164.427C56.0651 161.312 53.0201 157.805 49.6321 159.527C46.2441 161.249 48.7432 166.527 48.7432 166.527" stroke="#202F44" stroke-width="1.03" stroke-miterlimit="10"/>
<path d="M45.4182 171.91C45.4182 171.91 42.5762 163.692 47.1402 163.258C51.7042 162.824 52.7402 169.831 52.7402 169.831C52.8382 166.716 55.8832 163.209 59.2782 164.931C62.6732 166.653 60.1602 171.931 60.1602 171.931" fill="white"/>
<path d="M45.4182 171.91C45.4182 171.91 42.5762 163.692 47.1402 163.258C51.7042 162.824 52.7402 169.831 52.7402 169.831C52.8382 166.716 55.8832 163.209 59.2782 164.931C62.6732 166.653 60.1602 171.931 60.1602 171.931" stroke="#202F44" stroke-width="1.03" stroke-miterlimit="10"/>
<path d="M64.353 171.91C64.353 171.91 66.873 170.062 65.382 167.577C63.891 165.092 61.042 166.506 61.042 166.506" fill="white"/>
<path d="M64.353 171.91C64.353 171.91 66.873 170.062 65.382 167.577C63.891 165.092 61.042 166.506 61.042 166.506" stroke="#202F44" stroke-width="1.03" stroke-miterlimit="10"/>
<path d="M40.7497 170.832H87.3067C87.8637 170.832 88.3978 171.053 88.7917 171.447C89.1855 171.841 89.4067 172.375 89.4067 172.932V182.291C89.4067 184.051 89.06 185.795 88.3864 187.421C87.7127 189.047 86.7253 190.525 85.4805 191.77C84.2357 193.015 82.7579 194.002 81.1316 194.676C79.5052 195.349 77.7621 195.696 76.0017 195.696H52.0827C48.5275 195.696 45.1179 194.284 42.604 191.77C40.09 189.256 38.6777 185.846 38.6777 182.291V172.883C38.6904 172.339 38.9134 171.822 39.2998 171.439C39.6863 171.057 40.206 170.839 40.7497 170.832Z" fill="#202F44"/>
<path d="M105.976 148.523C105.976 148.523 101.727 147.963 102.301 144.813C101.647 144.805 101.006 144.628 100.44 144.299C99.875 143.971 99.4041 143.501 99.0735 142.937C97.8975 140.97 99.0735 139.794 99.0735 139.794C99.0735 139.794 96.9735 139.794 97.2675 136.882C97.5615 133.97 102 128.23 103.953 129.532C105.906 130.834 103.624 134.089 103.624 134.089C103.624 134.089 106.423 130.022 108.019 131.485C109.615 132.948 106.717 138.933 106.717 138.933C106.717 138.933 108.818 135.16 110.624 135.923C112.304 136.623 110.421 141.341 110.183 141.915C110.449 141.628 111.974 140.109 113.045 141.334C114.851 143.392 111.323 150.385 109.937 149.902L105.976 148.523Z" fill="white" stroke="#202F44" stroke-width="1.22" stroke-miterlimit="10"/>
<path d="M27.3652 191.629H275.634" stroke="#202F44" stroke-width="1.07" stroke-miterlimit="10"/>
<path d="M250.322 143.777V149.552" stroke="#202F44" stroke-width="1.03" stroke-miterlimit="10"/>
</svg>
